%TF.GenerationSoftware,KiCad,Pcbnew,9.0.2*%
%TF.CreationDate,2025-08-08T12:44:56+02:00*%
%TF.ProjectId,PCB_MainBoard,5043425f-4d61-4696-9e42-6f6172642e6b,rev?*%
%TF.SameCoordinates,Original*%
%TF.FileFunction,Profile,NP*%
%FSLAX46Y46*%
G04 Gerber Fmt 4.6, Leading zero omitted, Abs format (unit mm)*
G04 Created by KiCad (PCBNEW 9.0.2) date 2025-08-08 12:44:56*
%MOMM*%
%LPD*%
G01*
G04 APERTURE LIST*
%TA.AperFunction,Profile*%
%ADD10C,0.050000*%
%TD*%
%ADD11C,0.150000*%
G04 APERTURE END LIST*
D10*
X70135000Y-53335000D02*
X145935000Y-53335000D01*
X145935000Y-113735000D01*
X70135000Y-113735000D01*
X70135000Y-53335000D01*
D11*
X149189819Y-111772499D02*
X149189819Y-111105833D01*
X149189819Y-111105833D02*
X150189819Y-111534404D01*
X150094580Y-110724880D02*
X150142200Y-110677261D01*
X150142200Y-110677261D02*
X150189819Y-110724880D01*
X150189819Y-110724880D02*
X150142200Y-110772499D01*
X150142200Y-110772499D02*
X150094580Y-110724880D01*
X150094580Y-110724880D02*
X150189819Y-110724880D01*
X150189819Y-110201071D02*
X150189819Y-110010595D01*
X150189819Y-110010595D02*
X150142200Y-109915357D01*
X150142200Y-109915357D02*
X150094580Y-109867738D01*
X150094580Y-109867738D02*
X149951723Y-109772500D01*
X149951723Y-109772500D02*
X149761247Y-109724881D01*
X149761247Y-109724881D02*
X149380295Y-109724881D01*
X149380295Y-109724881D02*
X149285057Y-109772500D01*
X149285057Y-109772500D02*
X149237438Y-109820119D01*
X149237438Y-109820119D02*
X149189819Y-109915357D01*
X149189819Y-109915357D02*
X149189819Y-110105833D01*
X149189819Y-110105833D02*
X149237438Y-110201071D01*
X149237438Y-110201071D02*
X149285057Y-110248690D01*
X149285057Y-110248690D02*
X149380295Y-110296309D01*
X149380295Y-110296309D02*
X149618390Y-110296309D01*
X149618390Y-110296309D02*
X149713628Y-110248690D01*
X149713628Y-110248690D02*
X149761247Y-110201071D01*
X149761247Y-110201071D02*
X149808866Y-110105833D01*
X149808866Y-110105833D02*
X149808866Y-109915357D01*
X149808866Y-109915357D02*
X149761247Y-109820119D01*
X149761247Y-109820119D02*
X149713628Y-109772500D01*
X149713628Y-109772500D02*
X149618390Y-109724881D01*
X149285057Y-109343928D02*
X149237438Y-109296309D01*
X149237438Y-109296309D02*
X149189819Y-109201071D01*
X149189819Y-109201071D02*
X149189819Y-108962976D01*
X149189819Y-108962976D02*
X149237438Y-108867738D01*
X149237438Y-108867738D02*
X149285057Y-108820119D01*
X149285057Y-108820119D02*
X149380295Y-108772500D01*
X149380295Y-108772500D02*
X149475533Y-108772500D01*
X149475533Y-108772500D02*
X149618390Y-108820119D01*
X149618390Y-108820119D02*
X150189819Y-109391547D01*
X150189819Y-109391547D02*
X150189819Y-108772500D01*
X149189819Y-107867738D02*
X149189819Y-108343928D01*
X149189819Y-108343928D02*
X149666009Y-108391547D01*
X149666009Y-108391547D02*
X149618390Y-108343928D01*
X149618390Y-108343928D02*
X149570771Y-108248690D01*
X149570771Y-108248690D02*
X149570771Y-108010595D01*
X149570771Y-108010595D02*
X149618390Y-107915357D01*
X149618390Y-107915357D02*
X149666009Y-107867738D01*
X149666009Y-107867738D02*
X149761247Y-107820119D01*
X149761247Y-107820119D02*
X149999342Y-107820119D01*
X149999342Y-107820119D02*
X150094580Y-107867738D01*
X150094580Y-107867738D02*
X150142200Y-107915357D01*
X150142200Y-107915357D02*
X150189819Y-108010595D01*
X150189819Y-108010595D02*
X150189819Y-108248690D01*
X150189819Y-108248690D02*
X150142200Y-108343928D01*
X150142200Y-108343928D02*
X150094580Y-108391547D01*
D10*
X139385000Y-105810000D02*
X151471420Y-105810000D01*
X151471420Y-113735000D02*
X146435000Y-113735000D01*
X150885000Y-105810000D02*
X150885000Y-113735000D01*
X150885000Y-105810000D02*
X151471421Y-106936504D01*
X150885000Y-105810000D02*
X150298579Y-106936504D01*
X150885000Y-113735000D02*
X150298579Y-112608496D01*
X150885000Y-113735000D02*
X151471421Y-112608496D01*
D11*
X148285057Y-56774880D02*
X148237438Y-56727261D01*
X148237438Y-56727261D02*
X148189819Y-56632023D01*
X148189819Y-56632023D02*
X148189819Y-56393928D01*
X148189819Y-56393928D02*
X148237438Y-56298690D01*
X148237438Y-56298690D02*
X148285057Y-56251071D01*
X148285057Y-56251071D02*
X148380295Y-56203452D01*
X148380295Y-56203452D02*
X148475533Y-56203452D01*
X148475533Y-56203452D02*
X148618390Y-56251071D01*
X148618390Y-56251071D02*
X149189819Y-56822499D01*
X149189819Y-56822499D02*
X149189819Y-56203452D01*
X149094580Y-55774880D02*
X149142200Y-55727261D01*
X149142200Y-55727261D02*
X149189819Y-55774880D01*
X149189819Y-55774880D02*
X149142200Y-55822499D01*
X149142200Y-55822499D02*
X149094580Y-55774880D01*
X149094580Y-55774880D02*
X149189819Y-55774880D01*
X149189819Y-55251071D02*
X149189819Y-55060595D01*
X149189819Y-55060595D02*
X149142200Y-54965357D01*
X149142200Y-54965357D02*
X149094580Y-54917738D01*
X149094580Y-54917738D02*
X148951723Y-54822500D01*
X148951723Y-54822500D02*
X148761247Y-54774881D01*
X148761247Y-54774881D02*
X148380295Y-54774881D01*
X148380295Y-54774881D02*
X148285057Y-54822500D01*
X148285057Y-54822500D02*
X148237438Y-54870119D01*
X148237438Y-54870119D02*
X148189819Y-54965357D01*
X148189819Y-54965357D02*
X148189819Y-55155833D01*
X148189819Y-55155833D02*
X148237438Y-55251071D01*
X148237438Y-55251071D02*
X148285057Y-55298690D01*
X148285057Y-55298690D02*
X148380295Y-55346309D01*
X148380295Y-55346309D02*
X148618390Y-55346309D01*
X148618390Y-55346309D02*
X148713628Y-55298690D01*
X148713628Y-55298690D02*
X148761247Y-55251071D01*
X148761247Y-55251071D02*
X148808866Y-55155833D01*
X148808866Y-55155833D02*
X148808866Y-54965357D01*
X148808866Y-54965357D02*
X148761247Y-54870119D01*
X148761247Y-54870119D02*
X148713628Y-54822500D01*
X148713628Y-54822500D02*
X148618390Y-54774881D01*
X148189819Y-54441547D02*
X148189819Y-53774881D01*
X148189819Y-53774881D02*
X149189819Y-54203452D01*
X148189819Y-52917738D02*
X148189819Y-53393928D01*
X148189819Y-53393928D02*
X148666009Y-53441547D01*
X148666009Y-53441547D02*
X148618390Y-53393928D01*
X148618390Y-53393928D02*
X148570771Y-53298690D01*
X148570771Y-53298690D02*
X148570771Y-53060595D01*
X148570771Y-53060595D02*
X148618390Y-52965357D01*
X148618390Y-52965357D02*
X148666009Y-52917738D01*
X148666009Y-52917738D02*
X148761247Y-52870119D01*
X148761247Y-52870119D02*
X148999342Y-52870119D01*
X148999342Y-52870119D02*
X149094580Y-52917738D01*
X149094580Y-52917738D02*
X149142200Y-52965357D01*
X149142200Y-52965357D02*
X149189819Y-53060595D01*
X149189819Y-53060595D02*
X149189819Y-53298690D01*
X149189819Y-53298690D02*
X149142200Y-53393928D01*
X149142200Y-53393928D02*
X149094580Y-53441547D01*
D10*
X143385000Y-56310000D02*
X150471420Y-56310000D01*
X150471420Y-53335000D02*
X146435000Y-53335000D01*
X149885000Y-56310000D02*
X149885000Y-53335000D01*
X149885000Y-56310000D02*
X149298579Y-55183496D01*
X149885000Y-56310000D02*
X150471421Y-55183496D01*
X149885000Y-53335000D02*
X150471421Y-54461504D01*
X149885000Y-53335000D02*
X149298579Y-54461504D01*
D11*
X140886191Y-115114819D02*
X141552857Y-115114819D01*
X141552857Y-115114819D02*
X141124286Y-116114819D01*
X141933810Y-116019580D02*
X141981429Y-116067200D01*
X141981429Y-116067200D02*
X141933810Y-116114819D01*
X141933810Y-116114819D02*
X141886191Y-116067200D01*
X141886191Y-116067200D02*
X141933810Y-116019580D01*
X141933810Y-116019580D02*
X141933810Y-116114819D01*
X142600476Y-115114819D02*
X142695714Y-115114819D01*
X142695714Y-115114819D02*
X142790952Y-115162438D01*
X142790952Y-115162438D02*
X142838571Y-115210057D01*
X142838571Y-115210057D02*
X142886190Y-115305295D01*
X142886190Y-115305295D02*
X142933809Y-115495771D01*
X142933809Y-115495771D02*
X142933809Y-115733866D01*
X142933809Y-115733866D02*
X142886190Y-115924342D01*
X142886190Y-115924342D02*
X142838571Y-116019580D01*
X142838571Y-116019580D02*
X142790952Y-116067200D01*
X142790952Y-116067200D02*
X142695714Y-116114819D01*
X142695714Y-116114819D02*
X142600476Y-116114819D01*
X142600476Y-116114819D02*
X142505238Y-116067200D01*
X142505238Y-116067200D02*
X142457619Y-116019580D01*
X142457619Y-116019580D02*
X142410000Y-115924342D01*
X142410000Y-115924342D02*
X142362381Y-115733866D01*
X142362381Y-115733866D02*
X142362381Y-115495771D01*
X142362381Y-115495771D02*
X142410000Y-115305295D01*
X142410000Y-115305295D02*
X142457619Y-115210057D01*
X142457619Y-115210057D02*
X142505238Y-115162438D01*
X142505238Y-115162438D02*
X142600476Y-115114819D01*
X143838571Y-115114819D02*
X143362381Y-115114819D01*
X143362381Y-115114819D02*
X143314762Y-115591009D01*
X143314762Y-115591009D02*
X143362381Y-115543390D01*
X143362381Y-115543390D02*
X143457619Y-115495771D01*
X143457619Y-115495771D02*
X143695714Y-115495771D01*
X143695714Y-115495771D02*
X143790952Y-115543390D01*
X143790952Y-115543390D02*
X143838571Y-115591009D01*
X143838571Y-115591009D02*
X143886190Y-115686247D01*
X143886190Y-115686247D02*
X143886190Y-115924342D01*
X143886190Y-115924342D02*
X143838571Y-116019580D01*
X143838571Y-116019580D02*
X143790952Y-116067200D01*
X143790952Y-116067200D02*
X143695714Y-116114819D01*
X143695714Y-116114819D02*
X143457619Y-116114819D01*
X143457619Y-116114819D02*
X143362381Y-116067200D01*
X143362381Y-116067200D02*
X143314762Y-116019580D01*
D10*
X138885000Y-106310000D02*
X138885000Y-117396420D01*
X145935000Y-117396420D02*
X145935000Y-114235000D01*
X138885000Y-116810000D02*
X145935000Y-116810000D01*
X138885000Y-116810000D02*
X140011504Y-116223579D01*
X138885000Y-116810000D02*
X140011504Y-117396421D01*
X145935000Y-116810000D02*
X144808496Y-117396421D01*
X145935000Y-116810000D02*
X144808496Y-116223579D01*
D11*
X70033810Y-49210057D02*
X70081429Y-49162438D01*
X70081429Y-49162438D02*
X70176667Y-49114819D01*
X70176667Y-49114819D02*
X70414762Y-49114819D01*
X70414762Y-49114819D02*
X70510000Y-49162438D01*
X70510000Y-49162438D02*
X70557619Y-49210057D01*
X70557619Y-49210057D02*
X70605238Y-49305295D01*
X70605238Y-49305295D02*
X70605238Y-49400533D01*
X70605238Y-49400533D02*
X70557619Y-49543390D01*
X70557619Y-49543390D02*
X69986191Y-50114819D01*
X69986191Y-50114819D02*
X70605238Y-50114819D01*
X71033810Y-50019580D02*
X71081429Y-50067200D01*
X71081429Y-50067200D02*
X71033810Y-50114819D01*
X71033810Y-50114819D02*
X70986191Y-50067200D01*
X70986191Y-50067200D02*
X71033810Y-50019580D01*
X71033810Y-50019580D02*
X71033810Y-50114819D01*
X71414762Y-49114819D02*
X72081428Y-49114819D01*
X72081428Y-49114819D02*
X71652857Y-50114819D01*
X72938571Y-49114819D02*
X72462381Y-49114819D01*
X72462381Y-49114819D02*
X72414762Y-49591009D01*
X72414762Y-49591009D02*
X72462381Y-49543390D01*
X72462381Y-49543390D02*
X72557619Y-49495771D01*
X72557619Y-49495771D02*
X72795714Y-49495771D01*
X72795714Y-49495771D02*
X72890952Y-49543390D01*
X72890952Y-49543390D02*
X72938571Y-49591009D01*
X72938571Y-49591009D02*
X72986190Y-49686247D01*
X72986190Y-49686247D02*
X72986190Y-49924342D01*
X72986190Y-49924342D02*
X72938571Y-50019580D01*
X72938571Y-50019580D02*
X72890952Y-50067200D01*
X72890952Y-50067200D02*
X72795714Y-50114819D01*
X72795714Y-50114819D02*
X72557619Y-50114819D01*
X72557619Y-50114819D02*
X72462381Y-50067200D01*
X72462381Y-50067200D02*
X72414762Y-50019580D01*
D10*
X72885000Y-55810000D02*
X72885000Y-50223580D01*
X70135000Y-50223580D02*
X70135000Y-52835000D01*
X72885000Y-50810000D02*
X70135000Y-50810000D01*
X72885000Y-50810000D02*
X71758496Y-51396421D01*
X72885000Y-50810000D02*
X71758496Y-50223579D01*
X70135000Y-50810000D02*
X71261504Y-50223579D01*
X70135000Y-50810000D02*
X71261504Y-51396421D01*
D11*
X66285057Y-56774880D02*
X66237438Y-56727261D01*
X66237438Y-56727261D02*
X66189819Y-56632023D01*
X66189819Y-56632023D02*
X66189819Y-56393928D01*
X66189819Y-56393928D02*
X66237438Y-56298690D01*
X66237438Y-56298690D02*
X66285057Y-56251071D01*
X66285057Y-56251071D02*
X66380295Y-56203452D01*
X66380295Y-56203452D02*
X66475533Y-56203452D01*
X66475533Y-56203452D02*
X66618390Y-56251071D01*
X66618390Y-56251071D02*
X67189819Y-56822499D01*
X67189819Y-56822499D02*
X67189819Y-56203452D01*
X67094580Y-55774880D02*
X67142200Y-55727261D01*
X67142200Y-55727261D02*
X67189819Y-55774880D01*
X67189819Y-55774880D02*
X67142200Y-55822499D01*
X67142200Y-55822499D02*
X67094580Y-55774880D01*
X67094580Y-55774880D02*
X67189819Y-55774880D01*
X67189819Y-55251071D02*
X67189819Y-55060595D01*
X67189819Y-55060595D02*
X67142200Y-54965357D01*
X67142200Y-54965357D02*
X67094580Y-54917738D01*
X67094580Y-54917738D02*
X66951723Y-54822500D01*
X66951723Y-54822500D02*
X66761247Y-54774881D01*
X66761247Y-54774881D02*
X66380295Y-54774881D01*
X66380295Y-54774881D02*
X66285057Y-54822500D01*
X66285057Y-54822500D02*
X66237438Y-54870119D01*
X66237438Y-54870119D02*
X66189819Y-54965357D01*
X66189819Y-54965357D02*
X66189819Y-55155833D01*
X66189819Y-55155833D02*
X66237438Y-55251071D01*
X66237438Y-55251071D02*
X66285057Y-55298690D01*
X66285057Y-55298690D02*
X66380295Y-55346309D01*
X66380295Y-55346309D02*
X66618390Y-55346309D01*
X66618390Y-55346309D02*
X66713628Y-55298690D01*
X66713628Y-55298690D02*
X66761247Y-55251071D01*
X66761247Y-55251071D02*
X66808866Y-55155833D01*
X66808866Y-55155833D02*
X66808866Y-54965357D01*
X66808866Y-54965357D02*
X66761247Y-54870119D01*
X66761247Y-54870119D02*
X66713628Y-54822500D01*
X66713628Y-54822500D02*
X66618390Y-54774881D01*
X66189819Y-54441547D02*
X66189819Y-53774881D01*
X66189819Y-53774881D02*
X67189819Y-54203452D01*
X66189819Y-52917738D02*
X66189819Y-53393928D01*
X66189819Y-53393928D02*
X66666009Y-53441547D01*
X66666009Y-53441547D02*
X66618390Y-53393928D01*
X66618390Y-53393928D02*
X66570771Y-53298690D01*
X66570771Y-53298690D02*
X66570771Y-53060595D01*
X66570771Y-53060595D02*
X66618390Y-52965357D01*
X66618390Y-52965357D02*
X66666009Y-52917738D01*
X66666009Y-52917738D02*
X66761247Y-52870119D01*
X66761247Y-52870119D02*
X66999342Y-52870119D01*
X66999342Y-52870119D02*
X67094580Y-52917738D01*
X67094580Y-52917738D02*
X67142200Y-52965357D01*
X67142200Y-52965357D02*
X67189819Y-53060595D01*
X67189819Y-53060595D02*
X67189819Y-53298690D01*
X67189819Y-53298690D02*
X67142200Y-53393928D01*
X67142200Y-53393928D02*
X67094580Y-53441547D01*
D10*
X72385000Y-56310000D02*
X67298580Y-56310000D01*
X67298580Y-53335000D02*
X69635000Y-53335000D01*
X67885000Y-56310000D02*
X67885000Y-53335000D01*
X67885000Y-56310000D02*
X67298579Y-55183496D01*
X67885000Y-56310000D02*
X68471421Y-55183496D01*
X67885000Y-53335000D02*
X68471421Y-54461504D01*
X67885000Y-53335000D02*
X67298579Y-54461504D01*
D11*
X142886191Y-49614819D02*
X143505238Y-49614819D01*
X143505238Y-49614819D02*
X143171905Y-49995771D01*
X143171905Y-49995771D02*
X143314762Y-49995771D01*
X143314762Y-49995771D02*
X143410000Y-50043390D01*
X143410000Y-50043390D02*
X143457619Y-50091009D01*
X143457619Y-50091009D02*
X143505238Y-50186247D01*
X143505238Y-50186247D02*
X143505238Y-50424342D01*
X143505238Y-50424342D02*
X143457619Y-50519580D01*
X143457619Y-50519580D02*
X143410000Y-50567200D01*
X143410000Y-50567200D02*
X143314762Y-50614819D01*
X143314762Y-50614819D02*
X143029048Y-50614819D01*
X143029048Y-50614819D02*
X142933810Y-50567200D01*
X142933810Y-50567200D02*
X142886191Y-50519580D01*
X143933810Y-50519580D02*
X143981429Y-50567200D01*
X143981429Y-50567200D02*
X143933810Y-50614819D01*
X143933810Y-50614819D02*
X143886191Y-50567200D01*
X143886191Y-50567200D02*
X143933810Y-50519580D01*
X143933810Y-50519580D02*
X143933810Y-50614819D01*
X144600476Y-49614819D02*
X144695714Y-49614819D01*
X144695714Y-49614819D02*
X144790952Y-49662438D01*
X144790952Y-49662438D02*
X144838571Y-49710057D01*
X144838571Y-49710057D02*
X144886190Y-49805295D01*
X144886190Y-49805295D02*
X144933809Y-49995771D01*
X144933809Y-49995771D02*
X144933809Y-50233866D01*
X144933809Y-50233866D02*
X144886190Y-50424342D01*
X144886190Y-50424342D02*
X144838571Y-50519580D01*
X144838571Y-50519580D02*
X144790952Y-50567200D01*
X144790952Y-50567200D02*
X144695714Y-50614819D01*
X144695714Y-50614819D02*
X144600476Y-50614819D01*
X144600476Y-50614819D02*
X144505238Y-50567200D01*
X144505238Y-50567200D02*
X144457619Y-50519580D01*
X144457619Y-50519580D02*
X144410000Y-50424342D01*
X144410000Y-50424342D02*
X144362381Y-50233866D01*
X144362381Y-50233866D02*
X144362381Y-49995771D01*
X144362381Y-49995771D02*
X144410000Y-49805295D01*
X144410000Y-49805295D02*
X144457619Y-49710057D01*
X144457619Y-49710057D02*
X144505238Y-49662438D01*
X144505238Y-49662438D02*
X144600476Y-49614819D01*
X145838571Y-49614819D02*
X145362381Y-49614819D01*
X145362381Y-49614819D02*
X145314762Y-50091009D01*
X145314762Y-50091009D02*
X145362381Y-50043390D01*
X145362381Y-50043390D02*
X145457619Y-49995771D01*
X145457619Y-49995771D02*
X145695714Y-49995771D01*
X145695714Y-49995771D02*
X145790952Y-50043390D01*
X145790952Y-50043390D02*
X145838571Y-50091009D01*
X145838571Y-50091009D02*
X145886190Y-50186247D01*
X145886190Y-50186247D02*
X145886190Y-50424342D01*
X145886190Y-50424342D02*
X145838571Y-50519580D01*
X145838571Y-50519580D02*
X145790952Y-50567200D01*
X145790952Y-50567200D02*
X145695714Y-50614819D01*
X145695714Y-50614819D02*
X145457619Y-50614819D01*
X145457619Y-50614819D02*
X145362381Y-50567200D01*
X145362381Y-50567200D02*
X145314762Y-50519580D01*
D10*
X142885000Y-55810000D02*
X142885000Y-50723580D01*
X145935000Y-50723580D02*
X145935000Y-52835000D01*
X142885000Y-51310000D02*
X145935000Y-51310000D01*
X142885000Y-51310000D02*
X144011504Y-50723579D01*
X142885000Y-51310000D02*
X144011504Y-51896421D01*
X145935000Y-51310000D02*
X144808496Y-51896421D01*
X145935000Y-51310000D02*
X144808496Y-50723579D01*
M02*
