%TF.GenerationSoftware,KiCad,Pcbnew,9.0.2*%
%TF.CreationDate,2025-08-08T12:44:55+02:00*%
%TF.ProjectId,PCB_MainBoard,5043425f-4d61-4696-9e42-6f6172642e6b,rev?*%
%TF.SameCoordinates,Original*%
%TF.FileFunction,Copper,L1,Top*%
%TF.FilePolarity,Positive*%
%FSLAX46Y46*%
G04 Gerber Fmt 4.6, Leading zero omitted, Abs format (unit mm)*
G04 Created by KiCad (PCBNEW 9.0.2) date 2025-08-08 12:44:55*
%MOMM*%
%LPD*%
G01*
G04 APERTURE LIST*
G04 Aperture macros list*
%AMRoundRect*
0 Rectangle with rounded corners*
0 $1 Rounding radius*
0 $2 $3 $4 $5 $6 $7 $8 $9 X,Y pos of 4 corners*
0 Add a 4 corners polygon primitive as box body*
4,1,4,$2,$3,$4,$5,$6,$7,$8,$9,$2,$3,0*
0 Add four circle primitives for the rounded corners*
1,1,$1+$1,$2,$3*
1,1,$1+$1,$4,$5*
1,1,$1+$1,$6,$7*
1,1,$1+$1,$8,$9*
0 Add four rect primitives between the rounded corners*
20,1,$1+$1,$2,$3,$4,$5,0*
20,1,$1+$1,$4,$5,$6,$7,0*
20,1,$1+$1,$6,$7,$8,$9,0*
20,1,$1+$1,$8,$9,$2,$3,0*%
G04 Aperture macros list end*
%TA.AperFunction,Conductor*%
%ADD10C,0.200000*%
%TD*%
%TA.AperFunction,ComponentPad*%
%ADD11C,1.600000*%
%TD*%
%TA.AperFunction,ComponentPad*%
%ADD12R,1.408000X1.408000*%
%TD*%
%TA.AperFunction,ComponentPad*%
%ADD13C,1.408000*%
%TD*%
%TA.AperFunction,ComponentPad*%
%ADD14C,3.516000*%
%TD*%
%TA.AperFunction,ComponentPad*%
%ADD15RoundRect,0.250000X0.725000X-0.600000X0.725000X0.600000X-0.725000X0.600000X-0.725000X-0.600000X0*%
%TD*%
%TA.AperFunction,ComponentPad*%
%ADD16O,1.950000X1.700000*%
%TD*%
%TA.AperFunction,ComponentPad*%
%ADD17R,2.000000X2.000000*%
%TD*%
%TA.AperFunction,ComponentPad*%
%ADD18C,2.000000*%
%TD*%
%TA.AperFunction,ComponentPad*%
%ADD19C,1.700000*%
%TD*%
%TA.AperFunction,ComponentPad*%
%ADD20RoundRect,0.250000X-0.600000X-0.600000X0.600000X-0.600000X0.600000X0.600000X-0.600000X0.600000X0*%
%TD*%
%TA.AperFunction,ComponentPad*%
%ADD21C,1.524000*%
%TD*%
%TA.AperFunction,ComponentPad*%
%ADD22R,1.524000X1.524000*%
%TD*%
%TA.AperFunction,ComponentPad*%
%ADD23C,1.800000*%
%TD*%
%TA.AperFunction,ComponentPad*%
%ADD24C,3.200000*%
%TD*%
%TA.AperFunction,ComponentPad*%
%ADD25RoundRect,0.249999X0.850001X0.850001X-0.850001X0.850001X-0.850001X-0.850001X0.850001X-0.850001X0*%
%TD*%
%TA.AperFunction,ComponentPad*%
%ADD26C,2.200000*%
%TD*%
%TA.AperFunction,ViaPad*%
%ADD27C,0.600000*%
%TD*%
%TA.AperFunction,Conductor*%
%ADD28C,0.625000*%
%TD*%
%TA.AperFunction,Conductor*%
%ADD29C,0.300000*%
%TD*%
%TA.AperFunction,Conductor*%
%ADD30C,0.800000*%
%TD*%
G04 APERTURE END LIST*
%TO.N,GND*%
D10*
X70535000Y-53835000D02*
X145535000Y-53835000D01*
X145535000Y-113335000D01*
X70535000Y-113335000D01*
X70535000Y-53835000D01*
%TD*%
D11*
%TO.P,R3,1*%
%TO.N,SCL - GP22*%
X117825000Y-79935000D03*
%TO.P,R3,2*%
%TO.N,+3.3V*%
X125445000Y-79935000D03*
%TD*%
D12*
%TO.P,U3,1,IO21*%
%TO.N,unconnected-(U3-IO21-Pad1)*%
X93795000Y-66885000D03*
D13*
%TO.P,U3,2,TX/IO17*%
%TO.N,unconnected-(U3-TX{slash}IO17-Pad2)*%
X93795000Y-69425000D03*
%TO.P,U3,3,RX/IO16*%
%TO.N,unconnected-(U3-RX{slash}IO16-Pad3)*%
X93795000Y-71965000D03*
%TO.P,U3,4,MISO/IO19*%
%TO.N,unconnected-(U3-MISO{slash}IO19-Pad4)*%
X93795000Y-74505000D03*
%TO.P,U3,5,MOSI/IO18*%
%TO.N,unconnected-(U3-MOSI{slash}IO18-Pad5)*%
X93795000Y-77045000D03*
%TO.P,U3,6,SCK/IO5*%
%TO.N,unconnected-(U3-SCK{slash}IO5-Pad6)*%
X93795000Y-79585000D03*
%TO.P,U3,7,A5/IO4*%
%TO.N,unconnected-(U3-A5{slash}IO4-Pad7)*%
X93795000Y-82125000D03*
%TO.P,U3,8,A4/IO36*%
%TO.N,unconnected-(U3-A4{slash}IO36-Pad8)*%
X93795000Y-84665000D03*
%TO.P,U3,9,A3/IO39*%
%TO.N,INT CUR - GP39*%
X93795000Y-87205000D03*
%TO.P,U3,10,A2/IO34*%
%TO.N,INT B - GP34*%
X93795000Y-89745000D03*
%TO.P,U3,11,A1_DAC1*%
%TO.N,unconnected-(U3-A1_DAC1-Pad11)*%
X93795000Y-92285000D03*
%TO.P,U3,12,A0_DAC2*%
%TO.N,unconnected-(U3-A0_DAC2-Pad12)*%
X93795000Y-94825000D03*
%TO.P,U3,13,GND*%
%TO.N,GND*%
X93795000Y-97365000D03*
%TO.P,U3,14,NC*%
%TO.N,unconnected-(U3-NC-Pad14)*%
X93795000Y-99905000D03*
%TO.P,U3,15,3V*%
%TO.N,+3.3V*%
X93795000Y-102445000D03*
%TO.P,U3,16,RST*%
%TO.N,unconnected-(U3-RST-Pad16)*%
X93795000Y-104985000D03*
%TO.P,U3,17,VBAT*%
%TO.N,unconnected-(U3-VBAT-Pad17)*%
X73475000Y-94825000D03*
%TO.P,U3,18,EN*%
%TO.N,unconnected-(U3-EN-Pad18)*%
X73475000Y-92285000D03*
%TO.P,U3,19,VBUS*%
%TO.N,+5V*%
X73475000Y-89745000D03*
%TO.P,U3,20,A12/IO13*%
%TO.N,D13*%
X73475000Y-87205000D03*
%TO.P,U3,21,A11/IO12*%
%TO.N,R-PWM*%
X73475000Y-84665000D03*
%TO.P,U3,22,A10/IO27*%
%TO.N,R-EN*%
X73475000Y-82125000D03*
%TO.P,U3,23,A9/IO33*%
%TO.N,L-PWM*%
X73475000Y-79585000D03*
%TO.P,U3,24,A8/IO15*%
%TO.N,ECHO - D15*%
X73475000Y-77045000D03*
%TO.P,U3,25,A7/IO32*%
%TO.N,L-EN*%
X73475000Y-74505000D03*
%TO.P,U3,26,A6/IO14*%
%TO.N,TRIG - D14*%
X73475000Y-71965000D03*
%TO.P,U3,27,SCL/IO22*%
%TO.N,SCL - GP22*%
X73475000Y-69425000D03*
%TO.P,U3,28,SDA/IO23*%
%TO.N,SDA - GPI 23*%
X73475000Y-66885000D03*
D14*
%TO.P,U3,P1*%
%TO.N,N/C*%
X92525000Y-108795000D03*
%TO.P,U3,P2*%
X74745000Y-108795000D03*
%TD*%
D11*
%TO.P,R4,1*%
%TO.N,SDA - GPI 23*%
X117825000Y-83935000D03*
%TO.P,R4,2*%
%TO.N,+3.3V*%
X125445000Y-83935000D03*
%TD*%
D15*
%TO.P,J2,1,Pin_1*%
%TO.N,+3.3V*%
X131135000Y-89935000D03*
D16*
%TO.P,J2,2,Pin_2*%
%TO.N,SDA - GPI 23*%
X131135000Y-87435000D03*
%TO.P,J2,3,Pin_3*%
%TO.N,SCL - GP22*%
X131135000Y-84935000D03*
%TO.P,J2,4,Pin_4*%
%TO.N,INT B - GP34*%
X131135000Y-82435000D03*
%TO.P,J2,5,Pin_5*%
%TO.N,GND*%
X131135000Y-79935000D03*
%TD*%
D17*
%TO.P,U1,1,IN*%
%TO.N,+12V*%
X141385000Y-65127000D03*
D18*
%TO.P,U1,2,GND*%
%TO.N,GND*%
X141385000Y-73247000D03*
%TO.P,U1,3,OUT*%
%TO.N,+5V*%
X126405000Y-65127000D03*
%TO.P,U1,4,GND*%
%TO.N,GND*%
X126405000Y-73247000D03*
%TD*%
D19*
%TO.P,J5,1,Pin_1*%
%TO.N,Net-(J5-Pin_1)*%
X120925000Y-70265000D03*
%TO.P,J5,2,Pin_2*%
%TO.N,Net-(J5-Pin_2)*%
X118385000Y-70265000D03*
%TO.P,J5,3,Pin_3*%
%TO.N,Net-(J5-Pin_3)*%
X120925000Y-67725000D03*
%TO.P,J5,4,Pin_4*%
%TO.N,Net-(J5-Pin_4)*%
X118385000Y-67725000D03*
%TO.P,J5,5,Pin_5*%
%TO.N,+5V*%
X120925000Y-65185000D03*
D20*
%TO.P,J5,6,Pin_6*%
%TO.N,GND*%
X118385000Y-65185000D03*
%TD*%
D21*
%TO.P,U2,GND_1,GND*%
%TO.N,GND*%
X111795000Y-71515000D03*
%TO.P,U2,GND_2,GND*%
X101635000Y-71515000D03*
%TO.P,U2,HV,HV*%
%TO.N,+5V*%
X111795000Y-68975000D03*
D22*
%TO.P,U2,HV1,HV1*%
%TO.N,Net-(J5-Pin_4)*%
X111795000Y-63895000D03*
D21*
%TO.P,U2,HV2,HV2*%
%TO.N,Net-(J5-Pin_2)*%
X111795000Y-66435000D03*
%TO.P,U2,HV3,HV3*%
%TO.N,Net-(J5-Pin_3)*%
X111795000Y-74055000D03*
%TO.P,U2,HV4,HV4*%
%TO.N,Net-(J5-Pin_1)*%
X111795000Y-76595000D03*
%TO.P,U2,LV,LV*%
%TO.N,+3.3V*%
X101635000Y-68975000D03*
D22*
%TO.P,U2,LV1,LV1*%
%TO.N,L-EN*%
X101635000Y-63895000D03*
D21*
%TO.P,U2,LV2,LV2*%
%TO.N,L-PWM*%
X101635000Y-66435000D03*
%TO.P,U2,LV3,LV3*%
%TO.N,R-EN*%
X101635000Y-74055000D03*
%TO.P,U2,LV4,LV4*%
%TO.N,R-PWM*%
X101635000Y-76595000D03*
%TD*%
D23*
%TO.P,U7,1,IN+*%
%TO.N,unconnected-(U7-IN+-Pad1)*%
X106720000Y-90891800D03*
%TO.P,U7,6,GND*%
%TO.N,GND*%
X119420000Y-90891800D03*
%TO.P,U7,7,ALERT*%
%TO.N,INT CUR - GP39*%
X111800000Y-90891800D03*
%TO.P,U7,8,SDA*%
%TO.N,SDA - GPI 23*%
X114340000Y-90891800D03*
%TO.P,U7,9,SCL*%
%TO.N,SCL - GP22*%
X116880000Y-90891800D03*
%TO.P,U7,10,VS*%
%TO.N,+3.3V*%
X121960000Y-90891800D03*
%TO.P,U7,12,VBUS*%
%TO.N,unconnected-(U7-VBUS-Pad12)*%
X109260000Y-90891800D03*
%TO.P,U7,14,IN-*%
%TO.N,Net-(U7-IN--Pad14)*%
X104180000Y-90891800D03*
D24*
%TO.P,U7,P$1*%
%TO.N,N/C*%
X121960000Y-108671800D03*
X104180000Y-108671800D03*
%TD*%
D15*
%TO.P,J1,1,Pin_1*%
%TO.N,+3.3V*%
X131135000Y-105335000D03*
D16*
%TO.P,J1,2,Pin_2*%
%TO.N,TRIG - D14*%
X131135000Y-102835000D03*
%TO.P,J1,3,Pin_3*%
%TO.N,ECHO - D15*%
X131135000Y-100335000D03*
%TO.P,J1,4,Pin_4*%
%TO.N,GND*%
X131135000Y-97835000D03*
%TD*%
D25*
%TO.P,J7,1,Pin_1*%
%TO.N,+12V*%
X123385000Y-57310000D03*
D26*
%TO.P,J7,2,Pin_2*%
X120845000Y-57310000D03*
%TO.P,J7,3,Pin_3*%
%TO.N,GND*%
X118305000Y-57310000D03*
%TO.P,J7,4,Pin_4*%
X115765000Y-57310000D03*
%TD*%
D27*
%TO.N,SDA - GPI 23*%
X117235000Y-86535000D03*
%TD*%
D28*
%TO.N,+5V*%
X82335000Y-62435000D02*
X83935000Y-60835000D01*
X107135000Y-76635000D02*
X107135000Y-70835000D01*
X107135000Y-70835000D02*
X108995000Y-68975000D01*
X104935000Y-78835000D02*
X107135000Y-76635000D01*
X82335000Y-83635000D02*
X82335000Y-62435000D01*
X96535000Y-63035000D02*
X96535000Y-76035000D01*
D29*
%TO.N,SDA - GPI 23*%
X117235000Y-86535000D02*
X118135000Y-87435000D01*
%TO.N,INT CUR - GP39*%
X111800000Y-88700000D02*
X111800000Y-90891800D01*
X93795000Y-87205000D02*
X110305000Y-87205000D01*
%TO.N,SDA - GPI 23*%
X118135000Y-87435000D02*
X131135000Y-87435000D01*
%TO.N,INT CUR - GP39*%
X110305000Y-87205000D02*
X111800000Y-88700000D01*
%TO.N,R-EN*%
X75245000Y-82125000D02*
X79535000Y-77835000D01*
X82535000Y-58235000D02*
X94335000Y-58235000D01*
%TO.N,L-PWM*%
X94535000Y-56835000D02*
X82135000Y-56835000D01*
%TO.N,R-PWM*%
X97935000Y-72895000D02*
X97935000Y-62835000D01*
%TO.N,Net-(J5-Pin_1)*%
X120925000Y-72825000D02*
X120925000Y-70265000D01*
%TO.N,L-PWM*%
X101635000Y-66435000D02*
X99535000Y-64335000D01*
%TO.N,R-PWM*%
X82735000Y-59435000D02*
X80335000Y-61835000D01*
%TO.N,L-PWM*%
X82135000Y-56835000D02*
X78535000Y-60435000D01*
%TO.N,R-PWM*%
X76105000Y-84665000D02*
X73475000Y-84665000D01*
D28*
%TO.N,+5V*%
X73475000Y-89745000D02*
X76225000Y-89745000D01*
D29*
%TO.N,R-PWM*%
X97935000Y-62835000D02*
X94535000Y-59435000D01*
%TO.N,L-EN*%
X75465000Y-74505000D02*
X77535000Y-72435000D01*
%TO.N,Net-(J5-Pin_1)*%
X120935000Y-72835000D02*
X120925000Y-72825000D01*
%TO.N,R-PWM*%
X80335000Y-61835000D02*
X80335000Y-80435000D01*
D28*
%TO.N,+5V*%
X94335000Y-60835000D02*
X96535000Y-63035000D01*
D29*
%TO.N,Net-(J5-Pin_4)*%
X117425000Y-67725000D02*
X115335000Y-65635000D01*
D28*
%TO.N,+5V*%
X76225000Y-89745000D02*
X82335000Y-83635000D01*
D29*
%TO.N,Net-(J5-Pin_4)*%
X114595000Y-63895000D02*
X111795000Y-63895000D01*
%TO.N,R-PWM*%
X80335000Y-80435000D02*
X76105000Y-84665000D01*
X101635000Y-76595000D02*
X97935000Y-72895000D01*
%TO.N,L-EN*%
X81735000Y-55835000D02*
X95135000Y-55835000D01*
X77535000Y-72435000D02*
X77535000Y-60035000D01*
D28*
%TO.N,+5V*%
X83935000Y-60835000D02*
X94335000Y-60835000D01*
D29*
%TO.N,L-EN*%
X77535000Y-60035000D02*
X81735000Y-55835000D01*
D28*
%TO.N,+5V*%
X96535000Y-76035000D02*
X99335000Y-78835000D01*
D29*
%TO.N,Net-(J5-Pin_2)*%
X113935000Y-66435000D02*
X116135000Y-68635000D01*
X116135000Y-68635000D02*
X116135000Y-69635000D01*
%TO.N,Net-(J5-Pin_4)*%
X115335000Y-65635000D02*
X115335000Y-64635000D01*
%TO.N,L-PWM*%
X99535000Y-64335000D02*
X99535000Y-61835000D01*
%TO.N,R-EN*%
X79535000Y-77835000D02*
X79535000Y-61235000D01*
X94335000Y-58235000D02*
X98735000Y-62635000D01*
%TO.N,Net-(J5-Pin_2)*%
X111795000Y-66435000D02*
X113935000Y-66435000D01*
X116135000Y-69635000D02*
X116765000Y-70265000D01*
%TO.N,Net-(J5-Pin_4)*%
X118385000Y-67725000D02*
X117425000Y-67725000D01*
%TO.N,Net-(J5-Pin_1)*%
X111795000Y-76595000D02*
X117175000Y-76595000D01*
D28*
%TO.N,+5V*%
X108995000Y-68975000D02*
X111795000Y-68975000D01*
D29*
%TO.N,Net-(J5-Pin_4)*%
X115335000Y-64635000D02*
X114595000Y-63895000D01*
%TO.N,L-EN*%
X73475000Y-74505000D02*
X75465000Y-74505000D01*
%TO.N,L-PWM*%
X99535000Y-61835000D02*
X94535000Y-56835000D01*
%TO.N,R-PWM*%
X94535000Y-59435000D02*
X82735000Y-59435000D01*
D28*
%TO.N,+5V*%
X99335000Y-78835000D02*
X104935000Y-78835000D01*
D29*
%TO.N,L-PWM*%
X78535000Y-74525000D02*
X73475000Y-79585000D01*
X78535000Y-60435000D02*
X78535000Y-74525000D01*
%TO.N,L-EN*%
X95135000Y-55835000D02*
X101635000Y-62335000D01*
X101635000Y-62335000D02*
X101635000Y-63895000D01*
%TO.N,R-EN*%
X79535000Y-61235000D02*
X82535000Y-58235000D01*
X73475000Y-82125000D02*
X75245000Y-82125000D01*
X98735000Y-71155000D02*
X101635000Y-74055000D01*
%TO.N,Net-(J5-Pin_1)*%
X117175000Y-76595000D02*
X120935000Y-72835000D01*
%TO.N,R-EN*%
X98735000Y-62635000D02*
X98735000Y-71155000D01*
%TO.N,Net-(J5-Pin_2)*%
X116765000Y-70265000D02*
X118385000Y-70265000D01*
D30*
%TO.N,+12V*%
X123385000Y-57310000D02*
X137385000Y-57310000D01*
X141077000Y-64810000D02*
X141385000Y-65118000D01*
X141385000Y-65118000D02*
X141385000Y-65127000D01*
X141385000Y-61310000D02*
X141385000Y-65127000D01*
X137385000Y-57310000D02*
X141385000Y-61310000D01*
X120845000Y-57310000D02*
X123385000Y-57310000D01*
%TD*%
%TA.AperFunction,Conductor*%
%TO.N,+3.3V*%
G36*
X99590703Y-65311095D02*
G01*
X99597181Y-65317127D01*
X100361075Y-66081021D01*
X100394560Y-66142344D01*
X100395867Y-66188099D01*
X100375541Y-66316440D01*
X100372500Y-66335639D01*
X100372500Y-66534361D01*
X100387252Y-66627499D01*
X100403587Y-66730637D01*
X100464993Y-66919629D01*
X100464994Y-66919632D01*
X100514699Y-67017182D01*
X100555213Y-67096694D01*
X100672019Y-67257464D01*
X100812536Y-67397981D01*
X100973306Y-67514787D01*
X101130332Y-67594796D01*
X101181127Y-67642769D01*
X101197922Y-67710590D01*
X101175385Y-67776725D01*
X101130332Y-67815764D01*
X100973566Y-67895641D01*
X100936283Y-67922729D01*
X100936282Y-67922730D01*
X101499058Y-68485504D01*
X101438919Y-68501619D01*
X101323080Y-68568498D01*
X101228498Y-68663080D01*
X101161619Y-68778919D01*
X101145504Y-68839057D01*
X100582730Y-68276282D01*
X100582729Y-68276283D01*
X100555643Y-68313564D01*
X100465457Y-68490562D01*
X100404075Y-68679476D01*
X100404075Y-68679479D01*
X100373000Y-68875678D01*
X100373000Y-69074321D01*
X100404075Y-69270520D01*
X100404075Y-69270523D01*
X100465457Y-69459437D01*
X100555641Y-69636432D01*
X100582730Y-69673715D01*
X100582731Y-69673716D01*
X101145504Y-69110942D01*
X101161619Y-69171081D01*
X101228498Y-69286920D01*
X101323080Y-69381502D01*
X101438919Y-69448381D01*
X101499057Y-69464494D01*
X100936283Y-70027268D01*
X100936283Y-70027269D01*
X100973567Y-70054358D01*
X101130331Y-70134234D01*
X101181127Y-70182209D01*
X101197922Y-70250030D01*
X101175384Y-70316165D01*
X101130331Y-70355204D01*
X100973305Y-70435213D01*
X100812533Y-70552021D01*
X100672021Y-70692533D01*
X100555213Y-70853305D01*
X100464994Y-71030367D01*
X100464993Y-71030370D01*
X100403587Y-71219362D01*
X100372500Y-71415639D01*
X100372500Y-71573192D01*
X100352815Y-71640231D01*
X100300011Y-71685986D01*
X100230853Y-71695930D01*
X100167297Y-71666905D01*
X100160819Y-71660873D01*
X99421819Y-70921873D01*
X99388334Y-70860550D01*
X99385500Y-70834192D01*
X99385500Y-65404808D01*
X99405185Y-65337769D01*
X99457989Y-65292014D01*
X99527147Y-65282070D01*
X99590703Y-65311095D01*
G37*
%TD.AperFunction*%
%TA.AperFunction,Conductor*%
G36*
X142302539Y-54455185D02*
G01*
X142348294Y-54507989D01*
X142359500Y-54559500D01*
X142359500Y-54986066D01*
X142339815Y-55053105D01*
X142291796Y-55096550D01*
X142177182Y-55154949D01*
X142005213Y-55279890D01*
X141854890Y-55430213D01*
X141729951Y-55602179D01*
X141633444Y-55791585D01*
X141567753Y-55993760D01*
X141534500Y-56203713D01*
X141534500Y-56416286D01*
X141559551Y-56574455D01*
X141567754Y-56626243D01*
X141590296Y-56695621D01*
X141633444Y-56828414D01*
X141729951Y-57017820D01*
X141854890Y-57189786D01*
X142005213Y-57340109D01*
X142177179Y-57465048D01*
X142177181Y-57465049D01*
X142177184Y-57465051D01*
X142366588Y-57561557D01*
X142568757Y-57627246D01*
X142778713Y-57660500D01*
X142778714Y-57660500D01*
X142991286Y-57660500D01*
X142991287Y-57660500D01*
X143201243Y-57627246D01*
X143403412Y-57561557D01*
X143592816Y-57465051D01*
X143678224Y-57402999D01*
X143764786Y-57340109D01*
X143764788Y-57340106D01*
X143764792Y-57340104D01*
X143915104Y-57189792D01*
X143915106Y-57189788D01*
X143915109Y-57189786D01*
X143973313Y-57109672D01*
X144040051Y-57017816D01*
X144098448Y-56903205D01*
X144146423Y-56852409D01*
X144208933Y-56835500D01*
X144810500Y-56835500D01*
X144877539Y-56855185D01*
X144923294Y-56907989D01*
X144934500Y-56959500D01*
X144934500Y-105160500D01*
X144914815Y-105227539D01*
X144862011Y-105273294D01*
X144810500Y-105284500D01*
X140208933Y-105284500D01*
X140141894Y-105264815D01*
X140098448Y-105216795D01*
X140069764Y-105160500D01*
X140040051Y-105102184D01*
X139997301Y-105043343D01*
X139915109Y-104930213D01*
X139764786Y-104779890D01*
X139592820Y-104654951D01*
X139403414Y-104558444D01*
X139403413Y-104558443D01*
X139403412Y-104558443D01*
X139201243Y-104492754D01*
X139201241Y-104492753D01*
X139201240Y-104492753D01*
X139039957Y-104467208D01*
X138991287Y-104459500D01*
X138778713Y-104459500D01*
X138730042Y-104467208D01*
X138568760Y-104492753D01*
X138366585Y-104558444D01*
X138177179Y-104654951D01*
X138005213Y-104779890D01*
X137854890Y-104930213D01*
X137729951Y-105102179D01*
X137633444Y-105291585D01*
X137567753Y-105493760D01*
X137534500Y-105703713D01*
X137534500Y-105916286D01*
X137563795Y-106101252D01*
X137567754Y-106126243D01*
X137609305Y-106254124D01*
X137633444Y-106328414D01*
X137729951Y-106517820D01*
X137854890Y-106689786D01*
X138005213Y-106840109D01*
X138176161Y-106964308D01*
X138177184Y-106965051D01*
X138291794Y-107023447D01*
X138342591Y-107071421D01*
X138359500Y-107133932D01*
X138359500Y-112610500D01*
X138339815Y-112677539D01*
X138287011Y-112723294D01*
X138235500Y-112734500D01*
X71259500Y-112734500D01*
X71192461Y-112714815D01*
X71146706Y-112662011D01*
X71135500Y-112610500D01*
X71135500Y-108646962D01*
X72486500Y-108646962D01*
X72486500Y-108943037D01*
X72518685Y-109187503D01*
X72525144Y-109236557D01*
X72601769Y-109522529D01*
X72715067Y-109796052D01*
X72715070Y-109796059D01*
X72715071Y-109796060D01*
X72863096Y-110052447D01*
X73043324Y-110287326D01*
X73043330Y-110287333D01*
X73252666Y-110496669D01*
X73252673Y-110496675D01*
X73487552Y-110676903D01*
X73743939Y-110824928D01*
X73743940Y-110824929D01*
X73743943Y-110824930D01*
X73743948Y-110824933D01*
X74017471Y-110938231D01*
X74303443Y-111014856D01*
X74596970Y-111053500D01*
X74596977Y-111053500D01*
X74893023Y-111053500D01*
X74893030Y-111053500D01*
X75186557Y-111014856D01*
X75472529Y-110938231D01*
X75746052Y-110824933D01*
X76002448Y-110676903D01*
X76237328Y-110496674D01*
X76446674Y-110287328D01*
X76626903Y-110052448D01*
X76774933Y-109796052D01*
X76888231Y-109522529D01*
X76964856Y-109236557D01*
X77003500Y-108943030D01*
X77003500Y-108646970D01*
X77003499Y-108646962D01*
X90266500Y-108646962D01*
X90266500Y-108943037D01*
X90298685Y-109187503D01*
X90305144Y-109236557D01*
X90381769Y-109522529D01*
X90495067Y-109796052D01*
X90495070Y-109796059D01*
X90495071Y-109796060D01*
X90643096Y-110052447D01*
X90823324Y-110287326D01*
X90823330Y-110287333D01*
X91032666Y-110496669D01*
X91032673Y-110496675D01*
X91267552Y-110676903D01*
X91523939Y-110824928D01*
X91523940Y-110824929D01*
X91523943Y-110824930D01*
X91523948Y-110824933D01*
X91797471Y-110938231D01*
X92083443Y-111014856D01*
X92376970Y-111053500D01*
X92376977Y-111053500D01*
X92673023Y-111053500D01*
X92673030Y-111053500D01*
X92966557Y-111014856D01*
X93252529Y-110938231D01*
X93526052Y-110824933D01*
X93782448Y-110676903D01*
X94017328Y-110496674D01*
X94226674Y-110287328D01*
X94406903Y-110052448D01*
X94554933Y-109796052D01*
X94668231Y-109522529D01*
X94744856Y-109236557D01*
X94783500Y-108943030D01*
X94783500Y-108646970D01*
X94768644Y-108534132D01*
X102079500Y-108534132D01*
X102079500Y-108809467D01*
X102079501Y-108809484D01*
X102115438Y-109082455D01*
X102115439Y-109082460D01*
X102115440Y-109082466D01*
X102115441Y-109082468D01*
X102186704Y-109348430D01*
X102292075Y-109602817D01*
X102292080Y-109602828D01*
X102374861Y-109746207D01*
X102429751Y-109841279D01*
X102429753Y-109841282D01*
X102429754Y-109841283D01*
X102597370Y-110059726D01*
X102597376Y-110059733D01*
X102792066Y-110254423D01*
X102792072Y-110254428D01*
X103010521Y-110422049D01*
X103139775Y-110496674D01*
X103248971Y-110559719D01*
X103248976Y-110559721D01*
X103248979Y-110559723D01*
X103503368Y-110665095D01*
X103769334Y-110736360D01*
X104042326Y-110772300D01*
X104042333Y-110772300D01*
X104317667Y-110772300D01*
X104317674Y-110772300D01*
X104590666Y-110736360D01*
X104856632Y-110665095D01*
X105111021Y-110559723D01*
X105349479Y-110422049D01*
X105567928Y-110254428D01*
X105762628Y-110059728D01*
X105930249Y-109841279D01*
X106067923Y-109602821D01*
X106173295Y-109348432D01*
X106244560Y-109082466D01*
X106280500Y-108809474D01*
X106280500Y-108534132D01*
X119859500Y-108534132D01*
X119859500Y-108809467D01*
X119859501Y-108809484D01*
X119895438Y-109082455D01*
X119895439Y-109082460D01*
X119895440Y-109082466D01*
X119895441Y-109082468D01*
X119966704Y-109348430D01*
X120072075Y-109602817D01*
X120072080Y-109602828D01*
X120154861Y-109746207D01*
X120209751Y-109841279D01*
X120209753Y-109841282D01*
X120209754Y-109841283D01*
X120377370Y-110059726D01*
X120377376Y-110059733D01*
X120572066Y-110254423D01*
X120572072Y-110254428D01*
X120790521Y-110422049D01*
X120919775Y-110496674D01*
X121028971Y-110559719D01*
X121028976Y-110559721D01*
X121028979Y-110559723D01*
X121283368Y-110665095D01*
X121549334Y-110736360D01*
X121822326Y-110772300D01*
X121822333Y-110772300D01*
X122097667Y-110772300D01*
X122097674Y-110772300D01*
X122370666Y-110736360D01*
X122636632Y-110665095D01*
X122891021Y-110559723D01*
X123129479Y-110422049D01*
X123347928Y-110254428D01*
X123542628Y-110059728D01*
X123710249Y-109841279D01*
X123847923Y-109602821D01*
X123953295Y-109348432D01*
X124024560Y-109082466D01*
X124060500Y-108809474D01*
X124060500Y-108534126D01*
X124024560Y-108261134D01*
X123953295Y-107995168D01*
X123847923Y-107740779D01*
X123847921Y-107740776D01*
X123847919Y-107740771D01*
X123798732Y-107655578D01*
X123710249Y-107502321D01*
X123609240Y-107370683D01*
X123542629Y-107283873D01*
X123542623Y-107283866D01*
X123347933Y-107089176D01*
X123347926Y-107089170D01*
X123129483Y-106921554D01*
X123129482Y-106921553D01*
X123129479Y-106921551D01*
X122988409Y-106840104D01*
X122891028Y-106783880D01*
X122891017Y-106783875D01*
X122636630Y-106678504D01*
X122503649Y-106642872D01*
X122370666Y-106607240D01*
X122370660Y-106607239D01*
X122370655Y-106607238D01*
X122097684Y-106571301D01*
X122097679Y-106571300D01*
X122097674Y-106571300D01*
X121822326Y-106571300D01*
X121822320Y-106571300D01*
X121822315Y-106571301D01*
X121549344Y-106607238D01*
X121549337Y-106607239D01*
X121549334Y-106607240D01*
X121504116Y-106619356D01*
X121283369Y-106678504D01*
X121028982Y-106783875D01*
X121028971Y-106783880D01*
X120790516Y-106921554D01*
X120572073Y-107089170D01*
X120572066Y-107089176D01*
X120377376Y-107283866D01*
X120377370Y-107283873D01*
X120209754Y-107502316D01*
X120072080Y-107740771D01*
X120072075Y-107740782D01*
X119966704Y-107995169D01*
X119895441Y-108261131D01*
X119895438Y-108261144D01*
X119859501Y-108534115D01*
X119859500Y-108534132D01*
X106280500Y-108534132D01*
X106280500Y-108534126D01*
X106244560Y-108261134D01*
X106173295Y-107995168D01*
X106067923Y-107740779D01*
X106067921Y-107740776D01*
X106067919Y-107740771D01*
X106018732Y-107655578D01*
X105930249Y-107502321D01*
X105829240Y-107370683D01*
X105762629Y-107283873D01*
X105762623Y-107283866D01*
X105567933Y-107089176D01*
X105567926Y-107089170D01*
X105349483Y-106921554D01*
X105349482Y-106921553D01*
X105349479Y-106921551D01*
X105208409Y-106840104D01*
X105111028Y-106783880D01*
X105111017Y-106783875D01*
X104856630Y-106678504D01*
X104723649Y-106642872D01*
X104590666Y-106607240D01*
X104590660Y-106607239D01*
X104590655Y-106607238D01*
X104317684Y-106571301D01*
X104317679Y-106571300D01*
X104317674Y-106571300D01*
X104042326Y-106571300D01*
X104042320Y-106571300D01*
X104042315Y-106571301D01*
X103769344Y-106607238D01*
X103769337Y-106607239D01*
X103769334Y-106607240D01*
X103724116Y-106619356D01*
X103503369Y-106678504D01*
X103248982Y-106783875D01*
X103248971Y-106783880D01*
X103010516Y-106921554D01*
X102792073Y-107089170D01*
X102792066Y-107089176D01*
X102597376Y-107283866D01*
X102597370Y-107283873D01*
X102429754Y-107502316D01*
X102292080Y-107740771D01*
X102292075Y-107740782D01*
X102186704Y-107995169D01*
X102115441Y-108261131D01*
X102115438Y-108261144D01*
X102079501Y-108534115D01*
X102079500Y-108534132D01*
X94768644Y-108534132D01*
X94744856Y-108353443D01*
X94668231Y-108067471D01*
X94554933Y-107793948D01*
X94554930Y-107793943D01*
X94554929Y-107793940D01*
X94554928Y-107793939D01*
X94406903Y-107537552D01*
X94226675Y-107302673D01*
X94226669Y-107302666D01*
X94017333Y-107093330D01*
X94017326Y-107093324D01*
X93782447Y-106913096D01*
X93526060Y-106765071D01*
X93526059Y-106765070D01*
X93502282Y-106755221D01*
X93252529Y-106651769D01*
X92966557Y-106575144D01*
X92917503Y-106568685D01*
X92673037Y-106536500D01*
X92673030Y-106536500D01*
X92376970Y-106536500D01*
X92376962Y-106536500D01*
X92112633Y-106571301D01*
X92083443Y-106575144D01*
X91988119Y-106600685D01*
X91797477Y-106651767D01*
X91797473Y-106651768D01*
X91797471Y-106651769D01*
X91797464Y-106651772D01*
X91523940Y-106765070D01*
X91523939Y-106765071D01*
X91267552Y-106913096D01*
X91032673Y-107093324D01*
X91032666Y-107093330D01*
X90823330Y-107302666D01*
X90823324Y-107302673D01*
X90643096Y-107537552D01*
X90495071Y-107793939D01*
X90495070Y-107793940D01*
X90381772Y-108067464D01*
X90381767Y-108067477D01*
X90305145Y-108353440D01*
X90305143Y-108353451D01*
X90266500Y-108646962D01*
X77003499Y-108646962D01*
X76964856Y-108353443D01*
X76888231Y-108067471D01*
X76774933Y-107793948D01*
X76774930Y-107793943D01*
X76774929Y-107793940D01*
X76774928Y-107793939D01*
X76626903Y-107537552D01*
X76446675Y-107302673D01*
X76446669Y-107302666D01*
X76237333Y-107093330D01*
X76237326Y-107093324D01*
X76002447Y-106913096D01*
X75746060Y-106765071D01*
X75746059Y-106765070D01*
X75722282Y-106755221D01*
X75472529Y-106651769D01*
X75186557Y-106575144D01*
X75137503Y-106568685D01*
X74893037Y-106536500D01*
X74893030Y-106536500D01*
X74596970Y-106536500D01*
X74596962Y-106536500D01*
X74332633Y-106571301D01*
X74303443Y-106575144D01*
X74208119Y-106600685D01*
X74017477Y-106651767D01*
X74017473Y-106651768D01*
X74017471Y-106651769D01*
X74017464Y-106651772D01*
X73743940Y-106765070D01*
X73743939Y-106765071D01*
X73487552Y-106913096D01*
X73252673Y-107093324D01*
X73252666Y-107093330D01*
X73043330Y-107302666D01*
X73043324Y-107302673D01*
X72863096Y-107537552D01*
X72715071Y-107793939D01*
X72715070Y-107793940D01*
X72601772Y-108067464D01*
X72601767Y-108067477D01*
X72525145Y-108353440D01*
X72525143Y-108353451D01*
X72486500Y-108646962D01*
X71135500Y-108646962D01*
X71135500Y-66790199D01*
X72270500Y-66790199D01*
X72270500Y-66979800D01*
X72295337Y-67136615D01*
X72300158Y-67167055D01*
X72329533Y-67257460D01*
X72358747Y-67347372D01*
X72444050Y-67514786D01*
X72444819Y-67516296D01*
X72556259Y-67669679D01*
X72690321Y-67803741D01*
X72843704Y-67915181D01*
X72923515Y-67955846D01*
X73012627Y-68001252D01*
X73012629Y-68001252D01*
X73012632Y-68001254D01*
X73122860Y-68037069D01*
X73180534Y-68076507D01*
X73207732Y-68140866D01*
X73195817Y-68209712D01*
X73148573Y-68261188D01*
X73122861Y-68272929D01*
X73112542Y-68276283D01*
X73012627Y-68308747D01*
X72843703Y-68394819D01*
X72690319Y-68506260D01*
X72556260Y-68640319D01*
X72444819Y-68793703D01*
X72358747Y-68962627D01*
X72300157Y-69142949D01*
X72270500Y-69330199D01*
X72270500Y-69519800D01*
X72298893Y-69699069D01*
X72300158Y-69707055D01*
X72326459Y-69788000D01*
X72358747Y-69887372D01*
X72430029Y-70027269D01*
X72444819Y-70056296D01*
X72556259Y-70209679D01*
X72690321Y-70343741D01*
X72843704Y-70455181D01*
X72923515Y-70495846D01*
X73012627Y-70541252D01*
X73012629Y-70541252D01*
X73012632Y-70541254D01*
X73122860Y-70577069D01*
X73180534Y-70616507D01*
X73207732Y-70680866D01*
X73195817Y-70749712D01*
X73148573Y-70801188D01*
X73122861Y-70812929D01*
X73080838Y-70826583D01*
X73012627Y-70848747D01*
X72843703Y-70934819D01*
X72690319Y-71046260D01*
X72556260Y-71180319D01*
X72444819Y-71333703D01*
X72358747Y-71502627D01*
X72300157Y-71682949D01*
X72270500Y-71870199D01*
X72270500Y-72059800D01*
X72300157Y-72247050D01*
X72300158Y-72247055D01*
X72307448Y-72269490D01*
X72358747Y-72427372D01*
X72408080Y-72524192D01*
X72444819Y-72596296D01*
X72556259Y-72749679D01*
X72690321Y-72883741D01*
X72843704Y-72995181D01*
X72901709Y-73024736D01*
X73012627Y-73081252D01*
X73012629Y-73081252D01*
X73012632Y-73081254D01*
X73122860Y-73117069D01*
X73180534Y-73156507D01*
X73207732Y-73220866D01*
X73195817Y-73289712D01*
X73148573Y-73341188D01*
X73122861Y-73352929D01*
X73085431Y-73365092D01*
X73012627Y-73388747D01*
X72843703Y-73474819D01*
X72690319Y-73586260D01*
X72556260Y-73720319D01*
X72444819Y-73873703D01*
X72358747Y-74042627D01*
X72300157Y-74222949D01*
X72270500Y-74410199D01*
X72270500Y-74599800D01*
X72289014Y-74716694D01*
X72300158Y-74787055D01*
X72329534Y-74877464D01*
X72358747Y-74967372D01*
X72416881Y-75081465D01*
X72444819Y-75136296D01*
X72556259Y-75289679D01*
X72690321Y-75423741D01*
X72843704Y-75535181D01*
X72923515Y-75575846D01*
X73012627Y-75621252D01*
X73012629Y-75621252D01*
X73012632Y-75621254D01*
X73122860Y-75657069D01*
X73180534Y-75696507D01*
X73207732Y-75760866D01*
X73195817Y-75829712D01*
X73148573Y-75881188D01*
X73122861Y-75892929D01*
X73080838Y-75906583D01*
X73012627Y-75928747D01*
X72843703Y-76014819D01*
X72690319Y-76126260D01*
X72556260Y-76260319D01*
X72444819Y-76413703D01*
X72358747Y-76582627D01*
X72300157Y-76762949D01*
X72270500Y-76950199D01*
X72270500Y-77139800D01*
X72289014Y-77256694D01*
X72300158Y-77327055D01*
X72329533Y-77417460D01*
X72358747Y-77507372D01*
X72444050Y-77674786D01*
X72444819Y-77676296D01*
X72556259Y-77829679D01*
X72690321Y-77963741D01*
X72843704Y-78075181D01*
X72923515Y-78115846D01*
X73012627Y-78161252D01*
X73012629Y-78161252D01*
X73012632Y-78161254D01*
X73122860Y-78197069D01*
X73180534Y-78236507D01*
X73207732Y-78300866D01*
X73195817Y-78369712D01*
X73148573Y-78421188D01*
X73122861Y-78432929D01*
X73080838Y-78446583D01*
X73012627Y-78468747D01*
X72843703Y-78554819D01*
X72690319Y-78666260D01*
X72556260Y-78800319D01*
X72444819Y-78953703D01*
X72358747Y-79122627D01*
X72319153Y-79244482D01*
X72307057Y-79281714D01*
X72300157Y-79302949D01*
X72270500Y-79490199D01*
X72270500Y-79679800D01*
X72294714Y-79832682D01*
X72300158Y-79867055D01*
X72339346Y-79987661D01*
X72358747Y-80047372D01*
X72437470Y-80201873D01*
X72444819Y-80216296D01*
X72556259Y-80369679D01*
X72690321Y-80503741D01*
X72843704Y-80615181D01*
X72897941Y-80642816D01*
X73012627Y-80701252D01*
X73012629Y-80701252D01*
X73012632Y-80701254D01*
X73122860Y-80737069D01*
X73180534Y-80776507D01*
X73207732Y-80840866D01*
X73195817Y-80909712D01*
X73148573Y-80961188D01*
X73122861Y-80972929D01*
X73080838Y-80986583D01*
X73012627Y-81008747D01*
X72843703Y-81094819D01*
X72690319Y-81206260D01*
X72556260Y-81340319D01*
X72444819Y-81493703D01*
X72358747Y-81662627D01*
X72300157Y-81842949D01*
X72270500Y-82030199D01*
X72270500Y-82219800D01*
X72287750Y-82328713D01*
X72300158Y-82407055D01*
X72339750Y-82528905D01*
X72358747Y-82587372D01*
X72399077Y-82666523D01*
X72444819Y-82756296D01*
X72556259Y-82909679D01*
X72690321Y-83043741D01*
X72843704Y-83155181D01*
X72923515Y-83195846D01*
X73012627Y-83241252D01*
X73012629Y-83241252D01*
X73012632Y-83241254D01*
X73122860Y-83277069D01*
X73180534Y-83316507D01*
X73207732Y-83380866D01*
X73195817Y-83449712D01*
X73148573Y-83501188D01*
X73122861Y-83512929D01*
X73080838Y-83526583D01*
X73012627Y-83548747D01*
X72843703Y-83634819D01*
X72690319Y-83746260D01*
X72556260Y-83880319D01*
X72444819Y-84033703D01*
X72358747Y-84202627D01*
X72319153Y-84324482D01*
X72315737Y-84335000D01*
X72300157Y-84382949D01*
X72270500Y-84570199D01*
X72270500Y-84759800D01*
X72274051Y-84782219D01*
X72300158Y-84947055D01*
X72322064Y-85014474D01*
X72358747Y-85127372D01*
X72397277Y-85202990D01*
X72444819Y-85296296D01*
X72556259Y-85449679D01*
X72690321Y-85583741D01*
X72843704Y-85695181D01*
X72920872Y-85734500D01*
X73012627Y-85781252D01*
X73012629Y-85781252D01*
X73012632Y-85781254D01*
X73122860Y-85817069D01*
X73180534Y-85856507D01*
X73207732Y-85920866D01*
X73195817Y-85989712D01*
X73148573Y-86041188D01*
X73122861Y-86052929D01*
X73080838Y-86066583D01*
X73012627Y-86088747D01*
X72843703Y-86174819D01*
X72690319Y-86286260D01*
X72556260Y-86420319D01*
X72444819Y-86573703D01*
X72358747Y-86742627D01*
X72345142Y-86784500D01*
X72303005Y-86914185D01*
X72300157Y-86922949D01*
X72270500Y-87110199D01*
X72270500Y-87299800D01*
X72278770Y-87352015D01*
X72300158Y-87487055D01*
X72339750Y-87608905D01*
X72358747Y-87667372D01*
X72401480Y-87751239D01*
X72444819Y-87836296D01*
X72556259Y-87989679D01*
X72690321Y-88123741D01*
X72843704Y-88235181D01*
X72923515Y-88275846D01*
X73012627Y-88321252D01*
X73012629Y-88321252D01*
X73012632Y-88321254D01*
X73122860Y-88357069D01*
X73180534Y-88396507D01*
X73207732Y-88460866D01*
X73195817Y-88529712D01*
X73148573Y-88581188D01*
X73122861Y-88592929D01*
X73080838Y-88606583D01*
X73012627Y-88628747D01*
X72843703Y-88714819D01*
X72690319Y-88826260D01*
X72556260Y-88960319D01*
X72444819Y-89113703D01*
X72358747Y-89282627D01*
X72300157Y-89462949D01*
X72270500Y-89650199D01*
X72270500Y-89839800D01*
X72300157Y-90027050D01*
X72300158Y-90027055D01*
X72335262Y-90135093D01*
X72358747Y-90207372D01*
X72433657Y-90354389D01*
X72444819Y-90376296D01*
X72556259Y-90529679D01*
X72690321Y-90663741D01*
X72843704Y-90775181D01*
X72923515Y-90815846D01*
X73012627Y-90861252D01*
X73012629Y-90861252D01*
X73012632Y-90861254D01*
X73122860Y-90897069D01*
X73180534Y-90936507D01*
X73207732Y-91000866D01*
X73195817Y-91069712D01*
X73148573Y-91121188D01*
X73122861Y-91132929D01*
X73080838Y-91146583D01*
X73012627Y-91168747D01*
X72843703Y-91254819D01*
X72690319Y-91366260D01*
X72556260Y-91500319D01*
X72444819Y-91653703D01*
X72358747Y-91822627D01*
X72300157Y-92002949D01*
X72270500Y-92190199D01*
X72270500Y-92379800D01*
X72300157Y-92567050D01*
X72300158Y-92567055D01*
X72339750Y-92688905D01*
X72358747Y-92747372D01*
X72444819Y-92916296D01*
X72556259Y-93069679D01*
X72690321Y-93203741D01*
X72843704Y-93315181D01*
X72923515Y-93355846D01*
X73012627Y-93401252D01*
X73012629Y-93401252D01*
X73012632Y-93401254D01*
X73122860Y-93437069D01*
X73180534Y-93476507D01*
X73207732Y-93540866D01*
X73195817Y-93609712D01*
X73148573Y-93661188D01*
X73122861Y-93672929D01*
X73080838Y-93686583D01*
X73012627Y-93708747D01*
X72843703Y-93794819D01*
X72690319Y-93906260D01*
X72556260Y-94040319D01*
X72444819Y-94193703D01*
X72358747Y-94362627D01*
X72300157Y-94542949D01*
X72270500Y-94730199D01*
X72270500Y-94919800D01*
X72300157Y-95107050D01*
X72300158Y-95107055D01*
X72339750Y-95228905D01*
X72358747Y-95287372D01*
X72444819Y-95456296D01*
X72556259Y-95609679D01*
X72690321Y-95743741D01*
X72843704Y-95855181D01*
X72923515Y-95895846D01*
X73012627Y-95941252D01*
X73012629Y-95941252D01*
X73012632Y-95941254D01*
X73192945Y-95999842D01*
X73286574Y-96014671D01*
X73380200Y-96029500D01*
X73380204Y-96029500D01*
X73569800Y-96029500D01*
X73653022Y-96016318D01*
X73757055Y-95999842D01*
X73937368Y-95941254D01*
X74106296Y-95855181D01*
X74259679Y-95743741D01*
X74393741Y-95609679D01*
X74505181Y-95456296D01*
X74591254Y-95287368D01*
X74649842Y-95107055D01*
X74666318Y-95003022D01*
X74679500Y-94919800D01*
X74679500Y-94730199D01*
X74663023Y-94626171D01*
X74649842Y-94542945D01*
X74591254Y-94362632D01*
X74591252Y-94362629D01*
X74591252Y-94362627D01*
X74505180Y-94193703D01*
X74393741Y-94040321D01*
X74259679Y-93906259D01*
X74106296Y-93794819D01*
X73937368Y-93708746D01*
X73827139Y-93672930D01*
X73769465Y-93633493D01*
X73742267Y-93569135D01*
X73754182Y-93500288D01*
X73801426Y-93448813D01*
X73827138Y-93437070D01*
X73937368Y-93401254D01*
X74106296Y-93315181D01*
X74259679Y-93203741D01*
X74393741Y-93069679D01*
X74505181Y-92916296D01*
X74591254Y-92747368D01*
X74649842Y-92567055D01*
X74666318Y-92463022D01*
X74679500Y-92379800D01*
X74679500Y-92190199D01*
X74663023Y-92086171D01*
X74649842Y-92002945D01*
X74591254Y-91822632D01*
X74591252Y-91822629D01*
X74591252Y-91822627D01*
X74545846Y-91733515D01*
X74505181Y-91653704D01*
X74393741Y-91500321D01*
X74259679Y-91366259D01*
X74106296Y-91254819D01*
X73937368Y-91168746D01*
X73827139Y-91132930D01*
X73769465Y-91093493D01*
X73742267Y-91029135D01*
X73754182Y-90960288D01*
X73801426Y-90908813D01*
X73827138Y-90897070D01*
X73937368Y-90861254D01*
X74106296Y-90775181D01*
X74259679Y-90663741D01*
X74329101Y-90594319D01*
X74390424Y-90560834D01*
X74416782Y-90558000D01*
X76305076Y-90558000D01*
X76305077Y-90557999D01*
X76462143Y-90526757D01*
X76610100Y-90465471D01*
X76743257Y-90376499D01*
X82966499Y-84153257D01*
X83055471Y-84020100D01*
X83116757Y-83872143D01*
X83148000Y-83715074D01*
X83148000Y-83554926D01*
X83148000Y-66133135D01*
X92590500Y-66133135D01*
X92590500Y-67636870D01*
X92590501Y-67636876D01*
X92596908Y-67696483D01*
X92647202Y-67831328D01*
X92647206Y-67831335D01*
X92733452Y-67946544D01*
X92733455Y-67946547D01*
X92848664Y-68032793D01*
X92848671Y-68032797D01*
X92983517Y-68083091D01*
X92983516Y-68083091D01*
X92990444Y-68083835D01*
X93043127Y-68089500D01*
X93246429Y-68089499D01*
X93313467Y-68109183D01*
X93359222Y-68161987D01*
X93369166Y-68231145D01*
X93340141Y-68294701D01*
X93302724Y-68323983D01*
X93163706Y-68394817D01*
X93010319Y-68506260D01*
X92876260Y-68640319D01*
X92764819Y-68793703D01*
X92678747Y-68962627D01*
X92620157Y-69142949D01*
X92590500Y-69330199D01*
X92590500Y-69519800D01*
X92618893Y-69699069D01*
X92620158Y-69707055D01*
X92646459Y-69788000D01*
X92678747Y-69887372D01*
X92750029Y-70027269D01*
X92764819Y-70056296D01*
X92876259Y-70209679D01*
X93010321Y-70343741D01*
X93163704Y-70455181D01*
X93243515Y-70495846D01*
X93332627Y-70541252D01*
X93332629Y-70541252D01*
X93332632Y-70541254D01*
X93442860Y-70577069D01*
X93500534Y-70616507D01*
X93527732Y-70680866D01*
X93515817Y-70749712D01*
X93468573Y-70801188D01*
X93442861Y-70812929D01*
X93400838Y-70826583D01*
X93332627Y-70848747D01*
X93163703Y-70934819D01*
X93010319Y-71046260D01*
X92876260Y-71180319D01*
X92764819Y-71333703D01*
X92678747Y-71502627D01*
X92620157Y-71682949D01*
X92590500Y-71870199D01*
X92590500Y-72059800D01*
X92620157Y-72247050D01*
X92620158Y-72247055D01*
X92627448Y-72269490D01*
X92678747Y-72427372D01*
X92728080Y-72524192D01*
X92764819Y-72596296D01*
X92876259Y-72749679D01*
X93010321Y-72883741D01*
X93163704Y-72995181D01*
X93221709Y-73024736D01*
X93332627Y-73081252D01*
X93332629Y-73081252D01*
X93332632Y-73081254D01*
X93442860Y-73117069D01*
X93500534Y-73156507D01*
X93527732Y-73220866D01*
X93515817Y-73289712D01*
X93468573Y-73341188D01*
X93442861Y-73352929D01*
X93405431Y-73365092D01*
X93332627Y-73388747D01*
X93163703Y-73474819D01*
X93010319Y-73586260D01*
X92876260Y-73720319D01*
X92764819Y-73873703D01*
X92678747Y-74042627D01*
X92620157Y-74222949D01*
X92590500Y-74410199D01*
X92590500Y-74599800D01*
X92609014Y-74716694D01*
X92620158Y-74787055D01*
X92649534Y-74877464D01*
X92678747Y-74967372D01*
X92736881Y-75081465D01*
X92764819Y-75136296D01*
X92876259Y-75289679D01*
X93010321Y-75423741D01*
X93163704Y-75535181D01*
X93243515Y-75575846D01*
X93332627Y-75621252D01*
X93332629Y-75621252D01*
X93332632Y-75621254D01*
X93442860Y-75657069D01*
X93500534Y-75696507D01*
X93527732Y-75760866D01*
X93515817Y-75829712D01*
X93468573Y-75881188D01*
X93442861Y-75892929D01*
X93400838Y-75906583D01*
X93332627Y-75928747D01*
X93163703Y-76014819D01*
X93010319Y-76126260D01*
X92876260Y-76260319D01*
X92764819Y-76413703D01*
X92678747Y-76582627D01*
X92620157Y-76762949D01*
X92590500Y-76950199D01*
X92590500Y-77139800D01*
X92609014Y-77256694D01*
X92620158Y-77327055D01*
X92649533Y-77417460D01*
X92678747Y-77507372D01*
X92764050Y-77674786D01*
X92764819Y-77676296D01*
X92876259Y-77829679D01*
X93010321Y-77963741D01*
X93163704Y-78075181D01*
X93243515Y-78115846D01*
X93332627Y-78161252D01*
X93332629Y-78161252D01*
X93332632Y-78161254D01*
X93442860Y-78197069D01*
X93500534Y-78236507D01*
X93527732Y-78300866D01*
X93515817Y-78369712D01*
X93468573Y-78421188D01*
X93442861Y-78432929D01*
X93400838Y-78446583D01*
X93332627Y-78468747D01*
X93163703Y-78554819D01*
X93010319Y-78666260D01*
X92876260Y-78800319D01*
X92764819Y-78953703D01*
X92678747Y-79122627D01*
X92639153Y-79244482D01*
X92627057Y-79281714D01*
X92620157Y-79302949D01*
X92590500Y-79490199D01*
X92590500Y-79679800D01*
X92614714Y-79832682D01*
X92620158Y-79867055D01*
X92659346Y-79987661D01*
X92678747Y-80047372D01*
X92757470Y-80201873D01*
X92764819Y-80216296D01*
X92876259Y-80369679D01*
X93010321Y-80503741D01*
X93163704Y-80615181D01*
X93217941Y-80642816D01*
X93332627Y-80701252D01*
X93332629Y-80701252D01*
X93332632Y-80701254D01*
X93442860Y-80737069D01*
X93500534Y-80776507D01*
X93527732Y-80840866D01*
X93515817Y-80909712D01*
X93468573Y-80961188D01*
X93442861Y-80972929D01*
X93400838Y-80986583D01*
X93332627Y-81008747D01*
X93163703Y-81094819D01*
X93010319Y-81206260D01*
X92876260Y-81340319D01*
X92764819Y-81493703D01*
X92678747Y-81662627D01*
X92620157Y-81842949D01*
X92590500Y-82030199D01*
X92590500Y-82219800D01*
X92607750Y-82328713D01*
X92620158Y-82407055D01*
X92659750Y-82528905D01*
X92678747Y-82587372D01*
X92719077Y-82666523D01*
X92764819Y-82756296D01*
X92876259Y-82909679D01*
X93010321Y-83043741D01*
X93163704Y-83155181D01*
X93243515Y-83195846D01*
X93332627Y-83241252D01*
X93332629Y-83241252D01*
X93332632Y-83241254D01*
X93442860Y-83277069D01*
X93500534Y-83316507D01*
X93527732Y-83380866D01*
X93515817Y-83449712D01*
X93468573Y-83501188D01*
X93442861Y-83512929D01*
X93400838Y-83526583D01*
X93332627Y-83548747D01*
X93163703Y-83634819D01*
X93010319Y-83746260D01*
X92876260Y-83880319D01*
X92764819Y-84033703D01*
X92678747Y-84202627D01*
X92639153Y-84324482D01*
X92635737Y-84335000D01*
X92620157Y-84382949D01*
X92590500Y-84570199D01*
X92590500Y-84759800D01*
X92594051Y-84782219D01*
X92620158Y-84947055D01*
X92642064Y-85014474D01*
X92678747Y-85127372D01*
X92717277Y-85202990D01*
X92764819Y-85296296D01*
X92876259Y-85449679D01*
X93010321Y-85583741D01*
X93163704Y-85695181D01*
X93240872Y-85734500D01*
X93332627Y-85781252D01*
X93332629Y-85781252D01*
X93332632Y-85781254D01*
X93442860Y-85817069D01*
X93500534Y-85856507D01*
X93527732Y-85920866D01*
X93515817Y-85989712D01*
X93468573Y-86041188D01*
X93442861Y-86052929D01*
X93400838Y-86066583D01*
X93332627Y-86088747D01*
X93163703Y-86174819D01*
X93010319Y-86286260D01*
X92876260Y-86420319D01*
X92764819Y-86573703D01*
X92678747Y-86742627D01*
X92665142Y-86784500D01*
X92623005Y-86914185D01*
X92620157Y-86922949D01*
X92590500Y-87110199D01*
X92590500Y-87299800D01*
X92598770Y-87352015D01*
X92620158Y-87487055D01*
X92659750Y-87608905D01*
X92678747Y-87667372D01*
X92721480Y-87751239D01*
X92764819Y-87836296D01*
X92876259Y-87989679D01*
X93010321Y-88123741D01*
X93163704Y-88235181D01*
X93243515Y-88275846D01*
X93332627Y-88321252D01*
X93332629Y-88321252D01*
X93332632Y-88321254D01*
X93442860Y-88357069D01*
X93500534Y-88396507D01*
X93527732Y-88460866D01*
X93515817Y-88529712D01*
X93468573Y-88581188D01*
X93442861Y-88592929D01*
X93400838Y-88606583D01*
X93332627Y-88628747D01*
X93163703Y-88714819D01*
X93010319Y-88826260D01*
X92876260Y-88960319D01*
X92764819Y-89113703D01*
X92678747Y-89282627D01*
X92620157Y-89462949D01*
X92590500Y-89650199D01*
X92590500Y-89839800D01*
X92620157Y-90027050D01*
X92620158Y-90027055D01*
X92655262Y-90135093D01*
X92678747Y-90207372D01*
X92753657Y-90354389D01*
X92764819Y-90376296D01*
X92876259Y-90529679D01*
X93010321Y-90663741D01*
X93163704Y-90775181D01*
X93243515Y-90815846D01*
X93332627Y-90861252D01*
X93332629Y-90861252D01*
X93332632Y-90861254D01*
X93442860Y-90897069D01*
X93500534Y-90936507D01*
X93527732Y-91000866D01*
X93515817Y-91069712D01*
X93468573Y-91121188D01*
X93442861Y-91132929D01*
X93400838Y-91146583D01*
X93332627Y-91168747D01*
X93163703Y-91254819D01*
X93010319Y-91366260D01*
X92876260Y-91500319D01*
X92764819Y-91653703D01*
X92678747Y-91822627D01*
X92620157Y-92002949D01*
X92590500Y-92190199D01*
X92590500Y-92379800D01*
X92620157Y-92567050D01*
X92620158Y-92567055D01*
X92659750Y-92688905D01*
X92678747Y-92747372D01*
X92764819Y-92916296D01*
X92876259Y-93069679D01*
X93010321Y-93203741D01*
X93163704Y-93315181D01*
X93243515Y-93355846D01*
X93332627Y-93401252D01*
X93332629Y-93401252D01*
X93332632Y-93401254D01*
X93442860Y-93437069D01*
X93500534Y-93476507D01*
X93527732Y-93540866D01*
X93515817Y-93609712D01*
X93468573Y-93661188D01*
X93442861Y-93672929D01*
X93400838Y-93686583D01*
X93332627Y-93708747D01*
X93163703Y-93794819D01*
X93010319Y-93906260D01*
X92876260Y-94040319D01*
X92764819Y-94193703D01*
X92678747Y-94362627D01*
X92620157Y-94542949D01*
X92590500Y-94730199D01*
X92590500Y-94919800D01*
X92620157Y-95107050D01*
X92620158Y-95107055D01*
X92659750Y-95228905D01*
X92678747Y-95287372D01*
X92764819Y-95456296D01*
X92876259Y-95609679D01*
X93010321Y-95743741D01*
X93163704Y-95855181D01*
X93243515Y-95895846D01*
X93332627Y-95941252D01*
X93332629Y-95941252D01*
X93332632Y-95941254D01*
X93442860Y-95977069D01*
X93500534Y-96016507D01*
X93527732Y-96080866D01*
X93515817Y-96149712D01*
X93468573Y-96201188D01*
X93442861Y-96212929D01*
X93400838Y-96226583D01*
X93332627Y-96248747D01*
X93163703Y-96334819D01*
X93010319Y-96446260D01*
X92876260Y-96580319D01*
X92764819Y-96733703D01*
X92678747Y-96902627D01*
X92620157Y-97082949D01*
X92590500Y-97270199D01*
X92590500Y-97459800D01*
X92620157Y-97647050D01*
X92620158Y-97647055D01*
X92646691Y-97728713D01*
X92678747Y-97827372D01*
X92764819Y-97996296D01*
X92876259Y-98149679D01*
X93010321Y-98283741D01*
X93163704Y-98395181D01*
X93243515Y-98435846D01*
X93332627Y-98481252D01*
X93332629Y-98481252D01*
X93332632Y-98481254D01*
X93442860Y-98517069D01*
X93500534Y-98556507D01*
X93527732Y-98620866D01*
X93515817Y-98689712D01*
X93468573Y-98741188D01*
X93442861Y-98752929D01*
X93400838Y-98766583D01*
X93332627Y-98788747D01*
X93163703Y-98874819D01*
X93010319Y-98986260D01*
X92876260Y-99120319D01*
X92764819Y-99273703D01*
X92678747Y-99442627D01*
X92620157Y-99622949D01*
X92590500Y-99810199D01*
X92590500Y-99999800D01*
X92620157Y-100187050D01*
X92620158Y-100187055D01*
X92633694Y-100228713D01*
X92678747Y-100367372D01*
X92764819Y-100536296D01*
X92876259Y-100689679D01*
X93010321Y-100823741D01*
X93163704Y-100935181D01*
X93332632Y-101021254D01*
X93443669Y-101057332D01*
X93501342Y-101096768D01*
X93528541Y-101161127D01*
X93516626Y-101229973D01*
X93469382Y-101281449D01*
X93443668Y-101293193D01*
X93332820Y-101329210D01*
X93163969Y-101415245D01*
X93137806Y-101434253D01*
X93706415Y-102002861D01*
X93621306Y-102025667D01*
X93518694Y-102084910D01*
X93434910Y-102168694D01*
X93375667Y-102271306D01*
X93352861Y-102356414D01*
X92784253Y-101787806D01*
X92765245Y-101813969D01*
X92679210Y-101982821D01*
X92620645Y-102163062D01*
X92591000Y-102350237D01*
X92591000Y-102539762D01*
X92620645Y-102726937D01*
X92679210Y-102907178D01*
X92765246Y-103076033D01*
X92784253Y-103102192D01*
X92784253Y-103102193D01*
X93352861Y-102533584D01*
X93375667Y-102618694D01*
X93434910Y-102721306D01*
X93518694Y-102805090D01*
X93621306Y-102864333D01*
X93706414Y-102887137D01*
X93137806Y-103455745D01*
X93137806Y-103455746D01*
X93163966Y-103474752D01*
X93332821Y-103560789D01*
X93443667Y-103596806D01*
X93501343Y-103636244D01*
X93528541Y-103700602D01*
X93516626Y-103769449D01*
X93469382Y-103820924D01*
X93443669Y-103832667D01*
X93412091Y-103842927D01*
X93332627Y-103868747D01*
X93163703Y-103954819D01*
X93010319Y-104066260D01*
X92876260Y-104200319D01*
X92764819Y-104353703D01*
X92678747Y-104522627D01*
X92620157Y-104702949D01*
X92590500Y-104890199D01*
X92590500Y-105079800D01*
X92612198Y-105216795D01*
X92620158Y-105267055D01*
X92659750Y-105388905D01*
X92678747Y-105447372D01*
X92748873Y-105585000D01*
X92764819Y-105616296D01*
X92876259Y-105769679D01*
X93010321Y-105903741D01*
X93163704Y-106015181D01*
X93243515Y-106055846D01*
X93332627Y-106101252D01*
X93332629Y-106101252D01*
X93332632Y-106101254D01*
X93512945Y-106159842D01*
X93606574Y-106174671D01*
X93700200Y-106189500D01*
X93700204Y-106189500D01*
X93889800Y-106189500D01*
X93973022Y-106176318D01*
X94077055Y-106159842D01*
X94257368Y-106101254D01*
X94426296Y-106015181D01*
X94579679Y-105903741D01*
X94713741Y-105769679D01*
X94825181Y-105616296D01*
X94911254Y-105447368D01*
X94969842Y-105267055D01*
X94988119Y-105151657D01*
X94999500Y-105079800D01*
X94999500Y-104890199D01*
X94982029Y-104779896D01*
X94969842Y-104702945D01*
X94911254Y-104522632D01*
X94911252Y-104522629D01*
X94911252Y-104522627D01*
X94825180Y-104353703D01*
X94761935Y-104266654D01*
X94713741Y-104200321D01*
X94579679Y-104066259D01*
X94426296Y-103954819D01*
X94257372Y-103868747D01*
X94211871Y-103853963D01*
X94146329Y-103832666D01*
X94088656Y-103793230D01*
X94061458Y-103728871D01*
X94073373Y-103660025D01*
X94120617Y-103608549D01*
X94146332Y-103596806D01*
X94257183Y-103560788D01*
X94257184Y-103560787D01*
X94426027Y-103474756D01*
X94426043Y-103474746D01*
X94452192Y-103455746D01*
X94452193Y-103455745D01*
X93883585Y-102887137D01*
X93968694Y-102864333D01*
X94071306Y-102805090D01*
X94155090Y-102721306D01*
X94214333Y-102618694D01*
X94237137Y-102533585D01*
X94805745Y-103102193D01*
X94805746Y-103102192D01*
X94824746Y-103076043D01*
X94824756Y-103076027D01*
X94910787Y-102907184D01*
X94910788Y-102907182D01*
X94969354Y-102726937D01*
X94999000Y-102539762D01*
X94999000Y-102350237D01*
X94969354Y-102163062D01*
X94910789Y-101982821D01*
X94824752Y-101813966D01*
X94805745Y-101787806D01*
X94237137Y-102356414D01*
X94214333Y-102271306D01*
X94155090Y-102168694D01*
X94071306Y-102084910D01*
X93968694Y-102025667D01*
X93883584Y-102002861D01*
X94452193Y-101434253D01*
X94426033Y-101415246D01*
X94257180Y-101329210D01*
X94146331Y-101293193D01*
X94088656Y-101253755D01*
X94061458Y-101189396D01*
X94073373Y-101120550D01*
X94120617Y-101069074D01*
X94146322Y-101057335D01*
X94257368Y-101021254D01*
X94426296Y-100935181D01*
X94579679Y-100823741D01*
X94713741Y-100689679D01*
X94825181Y-100536296D01*
X94911254Y-100367368D01*
X94969842Y-100187055D01*
X94986318Y-100083022D01*
X94999500Y-99999800D01*
X94999500Y-99810199D01*
X94970513Y-99627184D01*
X94969842Y-99622945D01*
X94911254Y-99442632D01*
X94911252Y-99442629D01*
X94911252Y-99442627D01*
X94825180Y-99273703D01*
X94760964Y-99185318D01*
X94713741Y-99120321D01*
X94579679Y-98986259D01*
X94426296Y-98874819D01*
X94257368Y-98788746D01*
X94147139Y-98752930D01*
X94089465Y-98713493D01*
X94062267Y-98649135D01*
X94074182Y-98580288D01*
X94121426Y-98528813D01*
X94147138Y-98517070D01*
X94257368Y-98481254D01*
X94426296Y-98395181D01*
X94579679Y-98283741D01*
X94713741Y-98149679D01*
X94825181Y-97996296D01*
X94911254Y-97827368D01*
X94943309Y-97728713D01*
X129659500Y-97728713D01*
X129659500Y-97941287D01*
X129692754Y-98151243D01*
X129735805Y-98283741D01*
X129758444Y-98353414D01*
X129854951Y-98542820D01*
X129979890Y-98714786D01*
X130130209Y-98865105D01*
X130130214Y-98865109D01*
X130294793Y-98984682D01*
X130337459Y-99040011D01*
X130343438Y-99109625D01*
X130310833Y-99171420D01*
X130294793Y-99185318D01*
X130130214Y-99304890D01*
X130130209Y-99304894D01*
X129979890Y-99455213D01*
X129854951Y-99627179D01*
X129758444Y-99816585D01*
X129692753Y-100018760D01*
X129666099Y-100187050D01*
X129659500Y-100228713D01*
X129659500Y-100441287D01*
X129692754Y-100651243D01*
X129748802Y-100823741D01*
X129758444Y-100853414D01*
X129854951Y-101042820D01*
X129979890Y-101214786D01*
X130130209Y-101365105D01*
X130130214Y-101365109D01*
X130294793Y-101484682D01*
X130337459Y-101540011D01*
X130343438Y-101609625D01*
X130310833Y-101671420D01*
X130294793Y-101685318D01*
X130130214Y-101804890D01*
X130130209Y-101804894D01*
X129979890Y-101955213D01*
X129854951Y-102127179D01*
X129758444Y-102316585D01*
X129692753Y-102518760D01*
X129659500Y-102728713D01*
X129659500Y-102941286D01*
X129692753Y-103151239D01*
X129758444Y-103353414D01*
X129854951Y-103542820D01*
X129979890Y-103714786D01*
X130119068Y-103853964D01*
X130152553Y-103915287D01*
X130147569Y-103984979D01*
X130105697Y-104040912D01*
X130096484Y-104047183D01*
X129941659Y-104142680D01*
X129941655Y-104142683D01*
X129817684Y-104266654D01*
X129725643Y-104415875D01*
X129725641Y-104415880D01*
X129670494Y-104582302D01*
X129670493Y-104582309D01*
X129660000Y-104685013D01*
X129660000Y-105085000D01*
X130730854Y-105085000D01*
X130692370Y-105151657D01*
X130660000Y-105272465D01*
X130660000Y-105397535D01*
X130692370Y-105518343D01*
X130730854Y-105585000D01*
X129660001Y-105585000D01*
X129660001Y-105984986D01*
X129670494Y-106087697D01*
X129725641Y-106254119D01*
X129725643Y-106254124D01*
X129817684Y-106403345D01*
X129941654Y-106527315D01*
X130090875Y-106619356D01*
X130090880Y-106619358D01*
X130257302Y-106674505D01*
X130257309Y-106674506D01*
X130360019Y-106684999D01*
X130884999Y-106684999D01*
X130885000Y-106684998D01*
X130885000Y-105739145D01*
X130951657Y-105777630D01*
X131072465Y-105810000D01*
X131197535Y-105810000D01*
X131318343Y-105777630D01*
X131385000Y-105739145D01*
X131385000Y-106684999D01*
X131909972Y-106684999D01*
X131909986Y-106684998D01*
X132012697Y-106674505D01*
X132179119Y-106619358D01*
X132179124Y-106619356D01*
X132328345Y-106527315D01*
X132452315Y-106403345D01*
X132544356Y-106254124D01*
X132544358Y-106254119D01*
X132599505Y-106087697D01*
X132599506Y-106087690D01*
X132609999Y-105984986D01*
X132610000Y-105984973D01*
X132610000Y-105585000D01*
X131539146Y-105585000D01*
X131577630Y-105518343D01*
X131610000Y-105397535D01*
X131610000Y-105272465D01*
X131577630Y-105151657D01*
X131539146Y-105085000D01*
X132609999Y-105085000D01*
X132609999Y-104685028D01*
X132609998Y-104685013D01*
X132599505Y-104582302D01*
X132544358Y-104415880D01*
X132544356Y-104415875D01*
X132452315Y-104266654D01*
X132328345Y-104142684D01*
X132173515Y-104047184D01*
X132126791Y-103995236D01*
X132115568Y-103926273D01*
X132143412Y-103862191D01*
X132150909Y-103853986D01*
X132290104Y-103714792D01*
X132415051Y-103542816D01*
X132511557Y-103353412D01*
X132577246Y-103151243D01*
X132610500Y-102941287D01*
X132610500Y-102728713D01*
X132577246Y-102518757D01*
X132511557Y-102316588D01*
X132415051Y-102127184D01*
X132415049Y-102127181D01*
X132415048Y-102127179D01*
X132290109Y-101955213D01*
X132139792Y-101804896D01*
X132116269Y-101787806D01*
X131975204Y-101685316D01*
X131932540Y-101629989D01*
X131926561Y-101560376D01*
X131959166Y-101498580D01*
X131975199Y-101484686D01*
X132139792Y-101365104D01*
X132290104Y-101214792D01*
X132290106Y-101214788D01*
X132290109Y-101214786D01*
X132415048Y-101042820D01*
X132415047Y-101042820D01*
X132415051Y-101042816D01*
X132511557Y-100853412D01*
X132577246Y-100651243D01*
X132610500Y-100441287D01*
X132610500Y-100228713D01*
X132577246Y-100018757D01*
X132511557Y-99816588D01*
X132415051Y-99627184D01*
X132415049Y-99627181D01*
X132415048Y-99627179D01*
X132290109Y-99455213D01*
X132139792Y-99304896D01*
X132139784Y-99304890D01*
X131975204Y-99185316D01*
X131932540Y-99129989D01*
X131926561Y-99060376D01*
X131959166Y-98998580D01*
X131975199Y-98984686D01*
X132139792Y-98865104D01*
X132290104Y-98714792D01*
X132290106Y-98714788D01*
X132290109Y-98714786D01*
X132415048Y-98542820D01*
X132415047Y-98542820D01*
X132415051Y-98542816D01*
X132511557Y-98353412D01*
X132577246Y-98151243D01*
X132610500Y-97941287D01*
X132610500Y-97728713D01*
X132577246Y-97518757D01*
X132511557Y-97316588D01*
X132415051Y-97127184D01*
X132415049Y-97127181D01*
X132415048Y-97127179D01*
X132290109Y-96955213D01*
X132139786Y-96804890D01*
X131967820Y-96679951D01*
X131778414Y-96583444D01*
X131778413Y-96583443D01*
X131778412Y-96583443D01*
X131576243Y-96517754D01*
X131576241Y-96517753D01*
X131576240Y-96517753D01*
X131414957Y-96492208D01*
X131366287Y-96484500D01*
X130903713Y-96484500D01*
X130855042Y-96492208D01*
X130693760Y-96517753D01*
X130693757Y-96517754D01*
X130501197Y-96580321D01*
X130491585Y-96583444D01*
X130302179Y-96679951D01*
X130130213Y-96804890D01*
X129979890Y-96955213D01*
X129854951Y-97127179D01*
X129758444Y-97316585D01*
X129692753Y-97518760D01*
X129672434Y-97647050D01*
X129659500Y-97728713D01*
X94943309Y-97728713D01*
X94969842Y-97647055D01*
X94982552Y-97566801D01*
X94999500Y-97459800D01*
X94999500Y-97270199D01*
X94983023Y-97166171D01*
X94969842Y-97082945D01*
X94911254Y-96902632D01*
X94911252Y-96902629D01*
X94911252Y-96902627D01*
X94825180Y-96733703D01*
X94786125Y-96679949D01*
X94713741Y-96580321D01*
X94579679Y-96446259D01*
X94426296Y-96334819D01*
X94257368Y-96248746D01*
X94147139Y-96212930D01*
X94089465Y-96173493D01*
X94062267Y-96109135D01*
X94074182Y-96040288D01*
X94121426Y-95988813D01*
X94147138Y-95977070D01*
X94257368Y-95941254D01*
X94426296Y-95855181D01*
X94579679Y-95743741D01*
X94713741Y-95609679D01*
X94825181Y-95456296D01*
X94911254Y-95287368D01*
X94969842Y-95107055D01*
X94986318Y-95003022D01*
X94999500Y-94919800D01*
X94999500Y-94730199D01*
X94983023Y-94626171D01*
X94969842Y-94542945D01*
X94911254Y-94362632D01*
X94911252Y-94362629D01*
X94911252Y-94362627D01*
X94825180Y-94193703D01*
X94713741Y-94040321D01*
X94579679Y-93906259D01*
X94426296Y-93794819D01*
X94257368Y-93708746D01*
X94147139Y-93672930D01*
X94089465Y-93633493D01*
X94062267Y-93569135D01*
X94074182Y-93500288D01*
X94121426Y-93448813D01*
X94147138Y-93437070D01*
X94257368Y-93401254D01*
X94426296Y-93315181D01*
X94579679Y-93203741D01*
X94713741Y-93069679D01*
X94825181Y-92916296D01*
X94911254Y-92747368D01*
X94969842Y-92567055D01*
X94986318Y-92463022D01*
X94999500Y-92379800D01*
X94999500Y-92190199D01*
X94983023Y-92086171D01*
X94969842Y-92002945D01*
X94911254Y-91822632D01*
X94911252Y-91822629D01*
X94911252Y-91822627D01*
X94865846Y-91733515D01*
X94825181Y-91653704D01*
X94713741Y-91500321D01*
X94579679Y-91366259D01*
X94426296Y-91254819D01*
X94257368Y-91168746D01*
X94147139Y-91132930D01*
X94089465Y-91093493D01*
X94062267Y-91029135D01*
X94074182Y-90960288D01*
X94121426Y-90908813D01*
X94147138Y-90897070D01*
X94257368Y-90861254D01*
X94426296Y-90775181D01*
X94579679Y-90663741D01*
X94713741Y-90529679D01*
X94825181Y-90376296D01*
X94911254Y-90207368D01*
X94969842Y-90027055D01*
X94994326Y-89872465D01*
X94999500Y-89839800D01*
X94999500Y-89650199D01*
X94979872Y-89526273D01*
X94969842Y-89462945D01*
X94911254Y-89282632D01*
X94911252Y-89282629D01*
X94911252Y-89282627D01*
X94825180Y-89113703D01*
X94713741Y-88960321D01*
X94579679Y-88826259D01*
X94426296Y-88714819D01*
X94271469Y-88635931D01*
X94257370Y-88628747D01*
X94257369Y-88628746D01*
X94257368Y-88628746D01*
X94147139Y-88592930D01*
X94089465Y-88553493D01*
X94062267Y-88489135D01*
X94074182Y-88420288D01*
X94121426Y-88368813D01*
X94147138Y-88357070D01*
X94257368Y-88321254D01*
X94426296Y-88235181D01*
X94579679Y-88123741D01*
X94713741Y-87989679D01*
X94774091Y-87906613D01*
X94829421Y-87863949D01*
X94874409Y-87855500D01*
X109984192Y-87855500D01*
X110051231Y-87875185D01*
X110071873Y-87891819D01*
X111113181Y-88933127D01*
X111146666Y-88994450D01*
X111149500Y-89020808D01*
X111149500Y-89575441D01*
X111129815Y-89642480D01*
X111081798Y-89685923D01*
X111067754Y-89693080D01*
X111065972Y-89693988D01*
X110887641Y-89823552D01*
X110887636Y-89823556D01*
X110731756Y-89979436D01*
X110731752Y-89979441D01*
X110630318Y-90119054D01*
X110574988Y-90161720D01*
X110505375Y-90167699D01*
X110443580Y-90135093D01*
X110429682Y-90119054D01*
X110328247Y-89979441D01*
X110328243Y-89979436D01*
X110172363Y-89823556D01*
X110172358Y-89823552D01*
X109994025Y-89693987D01*
X109994024Y-89693986D01*
X109994022Y-89693985D01*
X109892939Y-89642480D01*
X109797606Y-89593904D01*
X109797603Y-89593903D01*
X109587952Y-89525785D01*
X109479086Y-89508542D01*
X109370222Y-89491300D01*
X109149778Y-89491300D01*
X109077201Y-89502795D01*
X108932047Y-89525785D01*
X108722396Y-89593903D01*
X108722393Y-89593904D01*
X108525974Y-89693987D01*
X108347641Y-89823552D01*
X108347636Y-89823556D01*
X108191756Y-89979436D01*
X108191752Y-89979441D01*
X108090318Y-90119054D01*
X108034988Y-90161720D01*
X107965375Y-90167699D01*
X107903580Y-90135093D01*
X107889682Y-90119054D01*
X107788247Y-89979441D01*
X107788243Y-89979436D01*
X107632363Y-89823556D01*
X107632358Y-89823552D01*
X107454025Y-89693987D01*
X107454024Y-89693986D01*
X107454022Y-89693985D01*
X107352939Y-89642480D01*
X107257606Y-89593904D01*
X107257603Y-89593903D01*
X107047952Y-89525785D01*
X106939086Y-89508542D01*
X106830222Y-89491300D01*
X106609778Y-89491300D01*
X106537201Y-89502795D01*
X106392047Y-89525785D01*
X106182396Y-89593903D01*
X106182393Y-89593904D01*
X105985974Y-89693987D01*
X105807641Y-89823552D01*
X105807636Y-89823556D01*
X105651756Y-89979436D01*
X105651752Y-89979441D01*
X105550318Y-90119054D01*
X105494988Y-90161720D01*
X105425375Y-90167699D01*
X105363580Y-90135093D01*
X105349682Y-90119054D01*
X105248247Y-89979441D01*
X105248243Y-89979436D01*
X105092363Y-89823556D01*
X105092358Y-89823552D01*
X104914025Y-89693987D01*
X104914024Y-89693986D01*
X104914022Y-89693985D01*
X104812939Y-89642480D01*
X104717606Y-89593904D01*
X104717603Y-89593903D01*
X104507952Y-89525785D01*
X104399086Y-89508542D01*
X104290222Y-89491300D01*
X104069778Y-89491300D01*
X103997201Y-89502795D01*
X103852047Y-89525785D01*
X103642396Y-89593903D01*
X103642393Y-89593904D01*
X103445974Y-89693987D01*
X103267641Y-89823552D01*
X103267636Y-89823556D01*
X103111756Y-89979436D01*
X103111752Y-89979441D01*
X102982187Y-90157774D01*
X102882104Y-90354193D01*
X102882103Y-90354196D01*
X102813985Y-90563847D01*
X102779500Y-90781578D01*
X102779500Y-91002021D01*
X102813985Y-91219752D01*
X102882103Y-91429403D01*
X102882104Y-91429406D01*
X102918237Y-91500319D01*
X102977129Y-91615900D01*
X102982187Y-91625825D01*
X103111752Y-91804158D01*
X103111756Y-91804163D01*
X103267636Y-91960043D01*
X103267641Y-91960047D01*
X103423192Y-92073060D01*
X103445978Y-92089615D01*
X103574375Y-92155037D01*
X103642393Y-92189695D01*
X103642396Y-92189696D01*
X103747221Y-92223755D01*
X103852049Y-92257815D01*
X104069778Y-92292300D01*
X104069779Y-92292300D01*
X104290221Y-92292300D01*
X104290222Y-92292300D01*
X104507951Y-92257815D01*
X104717606Y-92189695D01*
X104914022Y-92089615D01*
X105092365Y-91960042D01*
X105248242Y-91804165D01*
X105258804Y-91789626D01*
X105349682Y-91664545D01*
X105405011Y-91621879D01*
X105474625Y-91615900D01*
X105536420Y-91648505D01*
X105550318Y-91664545D01*
X105651752Y-91804158D01*
X105651756Y-91804163D01*
X105807636Y-91960043D01*
X105807641Y-91960047D01*
X105963192Y-92073060D01*
X105985978Y-92089615D01*
X106114375Y-92155037D01*
X106182393Y-92189695D01*
X106182396Y-92189696D01*
X106287221Y-92223755D01*
X106392049Y-92257815D01*
X106609778Y-92292300D01*
X106609779Y-92292300D01*
X106830221Y-92292300D01*
X106830222Y-92292300D01*
X107047951Y-92257815D01*
X107257606Y-92189695D01*
X107454022Y-92089615D01*
X107632365Y-91960042D01*
X107788242Y-91804165D01*
X107798804Y-91789626D01*
X107889682Y-91664545D01*
X107945011Y-91621879D01*
X108014625Y-91615900D01*
X108076420Y-91648505D01*
X108090318Y-91664545D01*
X108191752Y-91804158D01*
X108191756Y-91804163D01*
X108347636Y-91960043D01*
X108347641Y-91960047D01*
X108503192Y-92073060D01*
X108525978Y-92089615D01*
X108654375Y-92155037D01*
X108722393Y-92189695D01*
X108722396Y-92189696D01*
X108827221Y-92223755D01*
X108932049Y-92257815D01*
X109149778Y-92292300D01*
X109149779Y-92292300D01*
X109370221Y-92292300D01*
X109370222Y-92292300D01*
X109587951Y-92257815D01*
X109797606Y-92189695D01*
X109994022Y-92089615D01*
X110172365Y-91960042D01*
X110328242Y-91804165D01*
X110338804Y-91789626D01*
X110429682Y-91664545D01*
X110485011Y-91621879D01*
X110554625Y-91615900D01*
X110616420Y-91648505D01*
X110630318Y-91664545D01*
X110731752Y-91804158D01*
X110731756Y-91804163D01*
X110887636Y-91960043D01*
X110887641Y-91960047D01*
X111043192Y-92073060D01*
X111065978Y-92089615D01*
X111194375Y-92155037D01*
X111262393Y-92189695D01*
X111262396Y-92189696D01*
X111367221Y-92223755D01*
X111472049Y-92257815D01*
X111689778Y-92292300D01*
X111689779Y-92292300D01*
X111910221Y-92292300D01*
X111910222Y-92292300D01*
X112127951Y-92257815D01*
X112337606Y-92189695D01*
X112534022Y-92089615D01*
X112712365Y-91960042D01*
X112868242Y-91804165D01*
X112878804Y-91789626D01*
X112969682Y-91664545D01*
X113025011Y-91621879D01*
X113094625Y-91615900D01*
X113156420Y-91648505D01*
X113170318Y-91664545D01*
X113271752Y-91804158D01*
X113271756Y-91804163D01*
X113427636Y-91960043D01*
X113427641Y-91960047D01*
X113583192Y-92073060D01*
X113605978Y-92089615D01*
X113734375Y-92155037D01*
X113802393Y-92189695D01*
X113802396Y-92189696D01*
X113907221Y-92223755D01*
X114012049Y-92257815D01*
X114229778Y-92292300D01*
X114229779Y-92292300D01*
X114450221Y-92292300D01*
X114450222Y-92292300D01*
X114667951Y-92257815D01*
X114877606Y-92189695D01*
X115074022Y-92089615D01*
X115252365Y-91960042D01*
X115408242Y-91804165D01*
X115418804Y-91789626D01*
X115509682Y-91664545D01*
X115565011Y-91621879D01*
X115634625Y-91615900D01*
X115696420Y-91648505D01*
X115710318Y-91664545D01*
X115811752Y-91804158D01*
X115811756Y-91804163D01*
X115967636Y-91960043D01*
X115967641Y-91960047D01*
X116123192Y-92073060D01*
X116145978Y-92089615D01*
X116274375Y-92155037D01*
X116342393Y-92189695D01*
X116342396Y-92189696D01*
X116447221Y-92223755D01*
X116552049Y-92257815D01*
X116769778Y-92292300D01*
X116769779Y-92292300D01*
X116990221Y-92292300D01*
X116990222Y-92292300D01*
X117207951Y-92257815D01*
X117417606Y-92189695D01*
X117614022Y-92089615D01*
X117792365Y-91960042D01*
X117948242Y-91804165D01*
X117958804Y-91789626D01*
X118049682Y-91664545D01*
X118105011Y-91621879D01*
X118174625Y-91615900D01*
X118236420Y-91648505D01*
X118250318Y-91664545D01*
X118351752Y-91804158D01*
X118351756Y-91804163D01*
X118507636Y-91960043D01*
X118507641Y-91960047D01*
X118663192Y-92073060D01*
X118685978Y-92089615D01*
X118814375Y-92155037D01*
X118882393Y-92189695D01*
X118882396Y-92189696D01*
X118987221Y-92223755D01*
X119092049Y-92257815D01*
X119309778Y-92292300D01*
X119309779Y-92292300D01*
X119530221Y-92292300D01*
X119530222Y-92292300D01*
X119747951Y-92257815D01*
X119957606Y-92189695D01*
X120154022Y-92089615D01*
X120332365Y-91960042D01*
X120488242Y-91804165D01*
X120589991Y-91664117D01*
X120645320Y-91621453D01*
X120714933Y-91615474D01*
X120776729Y-91648079D01*
X120790627Y-91664118D01*
X120892142Y-91803841D01*
X121047958Y-91959657D01*
X121226239Y-92089186D01*
X121422589Y-92189232D01*
X121632163Y-92257326D01*
X121709999Y-92269654D01*
X121710000Y-92269654D01*
X121710000Y-91336360D01*
X121763147Y-91367045D01*
X121892857Y-91401800D01*
X122027143Y-91401800D01*
X122156853Y-91367045D01*
X122210000Y-91336360D01*
X122210000Y-92269654D01*
X122287834Y-92257326D01*
X122287837Y-92257326D01*
X122497410Y-92189232D01*
X122693760Y-92089186D01*
X122872041Y-91959657D01*
X123027857Y-91803841D01*
X123157386Y-91625560D01*
X123257432Y-91429210D01*
X123325526Y-91219638D01*
X123325526Y-91219635D01*
X123337855Y-91141800D01*
X122404560Y-91141800D01*
X122435245Y-91088653D01*
X122470000Y-90958943D01*
X122470000Y-90824657D01*
X122435245Y-90694947D01*
X122404560Y-90641800D01*
X123337855Y-90641800D01*
X123325526Y-90563964D01*
X123325526Y-90563961D01*
X123257432Y-90354389D01*
X123173637Y-90189933D01*
X123173636Y-90189931D01*
X123157388Y-90158041D01*
X123027857Y-89979758D01*
X122872041Y-89823942D01*
X122693760Y-89694413D01*
X122497410Y-89594367D01*
X122287836Y-89526273D01*
X122210000Y-89513944D01*
X122210000Y-90447239D01*
X122156853Y-90416555D01*
X122027143Y-90381800D01*
X121892857Y-90381800D01*
X121763147Y-90416555D01*
X121710000Y-90447239D01*
X121710000Y-89513944D01*
X121632164Y-89526273D01*
X121632161Y-89526273D01*
X121422589Y-89594367D01*
X121226239Y-89694413D01*
X121047958Y-89823942D01*
X120892142Y-89979758D01*
X120892142Y-89979759D01*
X120790627Y-90119481D01*
X120735297Y-90162146D01*
X120665683Y-90168125D01*
X120603888Y-90135519D01*
X120589991Y-90119480D01*
X120488247Y-89979441D01*
X120488243Y-89979436D01*
X120332363Y-89823556D01*
X120332358Y-89823552D01*
X120154025Y-89693987D01*
X120154024Y-89693986D01*
X120154022Y-89693985D01*
X120052939Y-89642480D01*
X119957606Y-89593904D01*
X119957603Y-89593903D01*
X119747952Y-89525785D01*
X119639086Y-89508542D01*
X119530222Y-89491300D01*
X119309778Y-89491300D01*
X119237201Y-89502795D01*
X119092047Y-89525785D01*
X118882396Y-89593903D01*
X118882393Y-89593904D01*
X118685974Y-89693987D01*
X118507641Y-89823552D01*
X118507636Y-89823556D01*
X118351756Y-89979436D01*
X118351752Y-89979441D01*
X118250318Y-90119054D01*
X118194988Y-90161720D01*
X118125375Y-90167699D01*
X118063580Y-90135093D01*
X118049682Y-90119054D01*
X117948247Y-89979441D01*
X117948243Y-89979436D01*
X117792363Y-89823556D01*
X117792358Y-89823552D01*
X117614025Y-89693987D01*
X117614024Y-89693986D01*
X117614022Y-89693985D01*
X117512939Y-89642480D01*
X117417606Y-89593904D01*
X117417603Y-89593903D01*
X117207952Y-89525785D01*
X117099086Y-89508542D01*
X116990222Y-89491300D01*
X116769778Y-89491300D01*
X116697201Y-89502795D01*
X116552047Y-89525785D01*
X116342396Y-89593903D01*
X116342393Y-89593904D01*
X116145974Y-89693987D01*
X115967641Y-89823552D01*
X115967636Y-89823556D01*
X115811756Y-89979436D01*
X115811752Y-89979441D01*
X115710318Y-90119054D01*
X115654988Y-90161720D01*
X115585375Y-90167699D01*
X115523580Y-90135093D01*
X115509682Y-90119054D01*
X115408247Y-89979441D01*
X115408243Y-89979436D01*
X115252363Y-89823556D01*
X115252358Y-89823552D01*
X115074025Y-89693987D01*
X115074024Y-89693986D01*
X115074022Y-89693985D01*
X114972939Y-89642480D01*
X114877606Y-89593904D01*
X114877603Y-89593903D01*
X114667952Y-89525785D01*
X114559086Y-89508542D01*
X114450222Y-89491300D01*
X114229778Y-89491300D01*
X114157201Y-89502795D01*
X114012047Y-89525785D01*
X113802396Y-89593903D01*
X113802393Y-89593904D01*
X113605974Y-89693987D01*
X113427641Y-89823552D01*
X113427636Y-89823556D01*
X113271756Y-89979436D01*
X113271752Y-89979441D01*
X113170318Y-90119054D01*
X113114988Y-90161720D01*
X113045375Y-90167699D01*
X112983580Y-90135093D01*
X112969682Y-90119054D01*
X112868247Y-89979441D01*
X112868243Y-89979436D01*
X112712363Y-89823556D01*
X112712358Y-89823552D01*
X112534027Y-89693988D01*
X112534024Y-89693986D01*
X112534022Y-89693985D01*
X112518201Y-89685924D01*
X112467408Y-89637949D01*
X112450500Y-89575441D01*
X112450500Y-88635928D01*
X112425502Y-88510261D01*
X112425501Y-88510260D01*
X112425501Y-88510256D01*
X112383766Y-88409500D01*
X112376466Y-88391875D01*
X112368423Y-88379837D01*
X112368423Y-88379836D01*
X112305274Y-88285327D01*
X110719673Y-86699726D01*
X110719669Y-86699723D01*
X110613127Y-86628535D01*
X110494744Y-86579499D01*
X110494738Y-86579497D01*
X110455453Y-86571683D01*
X110369071Y-86554500D01*
X110369069Y-86554500D01*
X94874409Y-86554500D01*
X94807370Y-86534815D01*
X94774091Y-86503386D01*
X94739774Y-86456153D01*
X116434500Y-86456153D01*
X116434500Y-86613846D01*
X116465261Y-86768489D01*
X116465264Y-86768501D01*
X116525602Y-86914172D01*
X116525609Y-86914185D01*
X116613210Y-87045288D01*
X116613213Y-87045292D01*
X116724707Y-87156786D01*
X116724711Y-87156789D01*
X116855814Y-87244390D01*
X116855827Y-87244397D01*
X116943230Y-87280599D01*
X117001503Y-87304737D01*
X117068581Y-87318079D01*
X117130490Y-87350463D01*
X117132070Y-87352015D01*
X117629724Y-87849669D01*
X117686669Y-87906614D01*
X117720332Y-87940277D01*
X117826866Y-88011461D01*
X117826872Y-88011464D01*
X117826873Y-88011465D01*
X117945256Y-88060501D01*
X117945260Y-88060501D01*
X117945261Y-88060502D01*
X118070928Y-88085500D01*
X118070931Y-88085500D01*
X129750382Y-88085500D01*
X129817421Y-88105185D01*
X129851099Y-88139591D01*
X129852085Y-88138875D01*
X129979890Y-88314786D01*
X130119068Y-88453964D01*
X130152553Y-88515287D01*
X130147569Y-88584979D01*
X130105697Y-88640912D01*
X130096484Y-88647183D01*
X129941659Y-88742680D01*
X129941655Y-88742683D01*
X129817684Y-88866654D01*
X129725643Y-89015875D01*
X129725641Y-89015880D01*
X129670494Y-89182302D01*
X129670493Y-89182309D01*
X129660000Y-89285013D01*
X129660000Y-89685000D01*
X130730854Y-89685000D01*
X130692370Y-89751657D01*
X130660000Y-89872465D01*
X130660000Y-89997535D01*
X130692370Y-90118343D01*
X130730854Y-90185000D01*
X129660001Y-90185000D01*
X129660001Y-90584986D01*
X129670494Y-90687697D01*
X129725641Y-90854119D01*
X129725643Y-90854124D01*
X129817684Y-91003345D01*
X129941654Y-91127315D01*
X130090875Y-91219356D01*
X130090880Y-91219358D01*
X130257302Y-91274505D01*
X130257309Y-91274506D01*
X130360019Y-91284999D01*
X130884999Y-91284999D01*
X130885000Y-91284998D01*
X130885000Y-90339145D01*
X130951657Y-90377630D01*
X131072465Y-90410000D01*
X131197535Y-90410000D01*
X131318343Y-90377630D01*
X131385000Y-90339145D01*
X131385000Y-91284999D01*
X131909972Y-91284999D01*
X131909986Y-91284998D01*
X132012697Y-91274505D01*
X132179119Y-91219358D01*
X132179124Y-91219356D01*
X132328345Y-91127315D01*
X132452315Y-91003345D01*
X132544356Y-90854124D01*
X132544358Y-90854119D01*
X132599505Y-90687697D01*
X132599506Y-90687690D01*
X132609999Y-90584986D01*
X132610000Y-90584973D01*
X132610000Y-90185000D01*
X131539146Y-90185000D01*
X131577630Y-90118343D01*
X131610000Y-89997535D01*
X131610000Y-89872465D01*
X131577630Y-89751657D01*
X131539146Y-89685000D01*
X132609999Y-89685000D01*
X132609999Y-89285028D01*
X132609998Y-89285013D01*
X132599505Y-89182302D01*
X132544358Y-89015880D01*
X132544356Y-89015875D01*
X132452315Y-88866654D01*
X132328345Y-88742684D01*
X132173515Y-88647184D01*
X132126791Y-88595236D01*
X132115568Y-88526273D01*
X132143412Y-88462191D01*
X132150909Y-88453986D01*
X132290104Y-88314792D01*
X132311512Y-88285327D01*
X132415048Y-88142820D01*
X132415047Y-88142820D01*
X132415051Y-88142816D01*
X132511557Y-87953412D01*
X132577246Y-87751243D01*
X132610500Y-87541287D01*
X132610500Y-87328713D01*
X132577246Y-87118757D01*
X132511557Y-86916588D01*
X132415051Y-86727184D01*
X132415049Y-86727181D01*
X132415048Y-86727179D01*
X132290109Y-86555213D01*
X132139792Y-86404896D01*
X132139784Y-86404890D01*
X131975204Y-86285316D01*
X131932540Y-86229989D01*
X131926561Y-86160376D01*
X131959166Y-86098580D01*
X131975199Y-86084686D01*
X132139792Y-85965104D01*
X132290104Y-85814792D01*
X132290106Y-85814788D01*
X132290109Y-85814786D01*
X132415048Y-85642820D01*
X132415047Y-85642820D01*
X132415051Y-85642816D01*
X132511557Y-85453412D01*
X132577246Y-85251243D01*
X132610500Y-85041287D01*
X132610500Y-84828713D01*
X132577246Y-84618757D01*
X132511557Y-84416588D01*
X132415051Y-84227184D01*
X132415049Y-84227181D01*
X132415048Y-84227179D01*
X132290109Y-84055213D01*
X132139792Y-83904896D01*
X132040350Y-83832648D01*
X131975204Y-83785316D01*
X131932540Y-83729989D01*
X131926561Y-83660376D01*
X131959166Y-83598580D01*
X131975199Y-83584686D01*
X132139792Y-83465104D01*
X132290104Y-83314792D01*
X132290106Y-83314788D01*
X132290109Y-83314786D01*
X132415048Y-83142820D01*
X132415047Y-83142820D01*
X132415051Y-83142816D01*
X132511557Y-82953412D01*
X132577246Y-82751243D01*
X132610500Y-82541287D01*
X132610500Y-82328713D01*
X132577246Y-82118757D01*
X132511557Y-81916588D01*
X132415051Y-81727184D01*
X132415049Y-81727181D01*
X132415048Y-81727179D01*
X132290109Y-81555213D01*
X132139792Y-81404896D01*
X132139784Y-81404890D01*
X131975204Y-81285316D01*
X131932540Y-81229989D01*
X131926561Y-81160376D01*
X131959166Y-81098580D01*
X131975199Y-81084686D01*
X132139792Y-80965104D01*
X132290104Y-80814792D01*
X132290106Y-80814788D01*
X132290109Y-80814786D01*
X132415048Y-80642820D01*
X132415047Y-80642820D01*
X132415051Y-80642816D01*
X132511557Y-80453412D01*
X132577246Y-80251243D01*
X132610500Y-80041287D01*
X132610500Y-79828713D01*
X132577246Y-79618757D01*
X132511557Y-79416588D01*
X132415051Y-79227184D01*
X132415049Y-79227181D01*
X132415048Y-79227179D01*
X132290109Y-79055213D01*
X132139786Y-78904890D01*
X131967820Y-78779951D01*
X131778414Y-78683444D01*
X131778413Y-78683443D01*
X131778412Y-78683443D01*
X131576243Y-78617754D01*
X131576241Y-78617753D01*
X131576240Y-78617753D01*
X131414957Y-78592208D01*
X131366287Y-78584500D01*
X130903713Y-78584500D01*
X130855042Y-78592208D01*
X130693760Y-78617753D01*
X130491585Y-78683444D01*
X130302179Y-78779951D01*
X130130213Y-78904890D01*
X129979890Y-79055213D01*
X129854951Y-79227179D01*
X129758444Y-79416585D01*
X129692753Y-79618760D01*
X129659500Y-79828713D01*
X129659500Y-80041286D01*
X129684934Y-80201873D01*
X129692754Y-80251243D01*
X129731236Y-80369679D01*
X129758444Y-80453414D01*
X129854951Y-80642820D01*
X129979890Y-80814786D01*
X130130209Y-80965105D01*
X130130214Y-80965109D01*
X130294793Y-81084682D01*
X130337459Y-81140011D01*
X130343438Y-81209625D01*
X130310833Y-81271420D01*
X130294793Y-81285318D01*
X130130214Y-81404890D01*
X130130209Y-81404894D01*
X129979890Y-81555213D01*
X129854951Y-81727179D01*
X129758444Y-81916585D01*
X129692753Y-82118760D01*
X129659500Y-82328713D01*
X129659500Y-82541286D01*
X129692636Y-82750502D01*
X129692754Y-82751243D01*
X129744233Y-82909679D01*
X129758444Y-82953414D01*
X129854951Y-83142820D01*
X129979890Y-83314786D01*
X130130209Y-83465105D01*
X130130214Y-83465109D01*
X130294793Y-83584682D01*
X130337459Y-83640011D01*
X130343438Y-83709625D01*
X130310833Y-83771420D01*
X130294793Y-83785318D01*
X130130214Y-83904890D01*
X130130209Y-83904894D01*
X129979890Y-84055213D01*
X129854951Y-84227179D01*
X129758444Y-84416585D01*
X129692753Y-84618760D01*
X129659500Y-84828713D01*
X129659500Y-85041286D01*
X129690260Y-85235500D01*
X129692754Y-85251243D01*
X129757230Y-85449680D01*
X129758444Y-85453414D01*
X129854951Y-85642820D01*
X129979890Y-85814786D01*
X130130209Y-85965105D01*
X130130214Y-85965109D01*
X130294793Y-86084682D01*
X130337459Y-86140011D01*
X130343438Y-86209625D01*
X130310833Y-86271420D01*
X130294793Y-86285318D01*
X130130214Y-86404890D01*
X130130209Y-86404894D01*
X129979890Y-86555213D01*
X129852085Y-86731125D01*
X129850740Y-86730148D01*
X129804295Y-86772166D01*
X129750382Y-86784500D01*
X118455807Y-86784500D01*
X118388768Y-86764815D01*
X118368126Y-86748181D01*
X118052015Y-86432070D01*
X118018530Y-86370747D01*
X118018095Y-86368660D01*
X118004737Y-86301503D01*
X117966680Y-86209625D01*
X117944397Y-86155827D01*
X117944390Y-86155814D01*
X117856789Y-86024711D01*
X117856786Y-86024707D01*
X117745292Y-85913213D01*
X117745288Y-85913210D01*
X117614185Y-85825609D01*
X117614172Y-85825602D01*
X117468501Y-85765264D01*
X117468489Y-85765261D01*
X117313845Y-85734500D01*
X117313842Y-85734500D01*
X117156158Y-85734500D01*
X117156155Y-85734500D01*
X117001510Y-85765261D01*
X117001498Y-85765264D01*
X116855827Y-85825602D01*
X116855814Y-85825609D01*
X116724711Y-85913210D01*
X116724707Y-85913213D01*
X116613213Y-86024707D01*
X116613210Y-86024711D01*
X116525609Y-86155814D01*
X116525602Y-86155827D01*
X116465264Y-86301498D01*
X116465261Y-86301510D01*
X116434500Y-86456153D01*
X94739774Y-86456153D01*
X94713741Y-86420321D01*
X94579679Y-86286259D01*
X94426296Y-86174819D01*
X94257368Y-86088746D01*
X94147139Y-86052930D01*
X94089465Y-86013493D01*
X94062267Y-85949135D01*
X94074182Y-85880288D01*
X94121426Y-85828813D01*
X94147138Y-85817070D01*
X94257368Y-85781254D01*
X94426296Y-85695181D01*
X94579679Y-85583741D01*
X94713741Y-85449679D01*
X94825181Y-85296296D01*
X94911254Y-85127368D01*
X94969842Y-84947055D01*
X94995950Y-84782213D01*
X94999500Y-84759800D01*
X94999500Y-84570199D01*
X94975170Y-84416585D01*
X94969842Y-84382945D01*
X94911254Y-84202632D01*
X94911252Y-84202629D01*
X94911252Y-84202627D01*
X94836140Y-84055213D01*
X94825181Y-84033704D01*
X94713741Y-83880321D01*
X94666068Y-83832648D01*
X116524500Y-83832648D01*
X116524500Y-84037351D01*
X116556522Y-84239534D01*
X116619781Y-84434223D01*
X116683691Y-84559653D01*
X116712585Y-84616359D01*
X116712715Y-84616613D01*
X116833028Y-84782213D01*
X116977786Y-84926971D01*
X117098226Y-85014474D01*
X117143390Y-85047287D01*
X117259607Y-85106503D01*
X117325776Y-85140218D01*
X117325778Y-85140218D01*
X117325781Y-85140220D01*
X117418281Y-85170275D01*
X117520465Y-85203477D01*
X117621557Y-85219488D01*
X117722648Y-85235500D01*
X117722649Y-85235500D01*
X117927351Y-85235500D01*
X117927352Y-85235500D01*
X118129534Y-85203477D01*
X118324219Y-85140220D01*
X118506610Y-85047287D01*
X118644576Y-84947050D01*
X118672213Y-84926971D01*
X118672215Y-84926968D01*
X118672219Y-84926966D01*
X118816966Y-84782219D01*
X118816968Y-84782215D01*
X118816971Y-84782213D01*
X118869732Y-84709590D01*
X118937287Y-84616610D01*
X119030220Y-84434219D01*
X119093477Y-84239534D01*
X119125500Y-84037352D01*
X119125500Y-83832682D01*
X124145000Y-83832682D01*
X124145000Y-84037317D01*
X124177009Y-84239417D01*
X124240244Y-84434031D01*
X124333141Y-84616350D01*
X124333147Y-84616359D01*
X124365523Y-84660921D01*
X124365524Y-84660922D01*
X125045000Y-83981446D01*
X125045000Y-83987661D01*
X125072259Y-84089394D01*
X125124920Y-84180606D01*
X125199394Y-84255080D01*
X125290606Y-84307741D01*
X125392339Y-84335000D01*
X125398553Y-84335000D01*
X124719076Y-85014474D01*
X124763650Y-85046859D01*
X124945968Y-85139755D01*
X125140582Y-85202990D01*
X125342683Y-85235000D01*
X125547317Y-85235000D01*
X125749417Y-85202990D01*
X125944031Y-85139755D01*
X126126349Y-85046859D01*
X126170921Y-85014474D01*
X125491447Y-84335000D01*
X125497661Y-84335000D01*
X125599394Y-84307741D01*
X125690606Y-84255080D01*
X125765080Y-84180606D01*
X125817741Y-84089394D01*
X125845000Y-83987661D01*
X125845000Y-83981447D01*
X126524474Y-84660921D01*
X126556859Y-84616349D01*
X126649755Y-84434031D01*
X126712990Y-84239417D01*
X126745000Y-84037317D01*
X126745000Y-83832682D01*
X126712990Y-83630582D01*
X126649755Y-83435968D01*
X126556859Y-83253650D01*
X126524474Y-83209077D01*
X126524474Y-83209076D01*
X125845000Y-83888551D01*
X125845000Y-83882339D01*
X125817741Y-83780606D01*
X125765080Y-83689394D01*
X125690606Y-83614920D01*
X125599394Y-83562259D01*
X125497661Y-83535000D01*
X125491446Y-83535000D01*
X126170922Y-82855524D01*
X126170921Y-82855523D01*
X126126359Y-82823147D01*
X126126350Y-82823141D01*
X125944031Y-82730244D01*
X125749417Y-82667009D01*
X125547317Y-82635000D01*
X125342683Y-82635000D01*
X125140582Y-82667009D01*
X124945968Y-82730244D01*
X124763644Y-82823143D01*
X124719077Y-82855523D01*
X124719077Y-82855524D01*
X125398554Y-83535000D01*
X125392339Y-83535000D01*
X125290606Y-83562259D01*
X125199394Y-83614920D01*
X125124920Y-83689394D01*
X125072259Y-83780606D01*
X125045000Y-83882339D01*
X125045000Y-83888553D01*
X124365524Y-83209077D01*
X124365523Y-83209077D01*
X124333143Y-83253644D01*
X124240244Y-83435968D01*
X124177009Y-83630582D01*
X124145000Y-83832682D01*
X119125500Y-83832682D01*
X119125500Y-83832648D01*
X119109240Y-83729989D01*
X119093477Y-83630465D01*
X119062458Y-83535000D01*
X119030220Y-83435781D01*
X119030218Y-83435778D01*
X119030218Y-83435776D01*
X118981564Y-83340288D01*
X118937287Y-83253390D01*
X118905092Y-83209077D01*
X118816971Y-83087786D01*
X118672213Y-82943028D01*
X118506613Y-82822715D01*
X118506612Y-82822714D01*
X118506610Y-82822713D01*
X118449653Y-82793691D01*
X118324223Y-82729781D01*
X118129534Y-82666522D01*
X117954995Y-82638878D01*
X117927352Y-82634500D01*
X117722648Y-82634500D01*
X117698329Y-82638351D01*
X117520465Y-82666522D01*
X117325776Y-82729781D01*
X117143386Y-82822715D01*
X116977786Y-82943028D01*
X116833028Y-83087786D01*
X116712715Y-83253386D01*
X116619781Y-83435776D01*
X116556522Y-83630465D01*
X116524500Y-83832648D01*
X94666068Y-83832648D01*
X94579679Y-83746259D01*
X94426296Y-83634819D01*
X94257368Y-83548746D01*
X94147139Y-83512930D01*
X94089465Y-83473493D01*
X94062267Y-83409135D01*
X94074182Y-83340288D01*
X94121426Y-83288813D01*
X94147138Y-83277070D01*
X94257368Y-83241254D01*
X94426296Y-83155181D01*
X94579679Y-83043741D01*
X94713741Y-82909679D01*
X94825181Y-82756296D01*
X94911254Y-82587368D01*
X94969842Y-82407055D01*
X94986318Y-82303022D01*
X94999500Y-82219800D01*
X94999500Y-82030199D01*
X94983023Y-81926171D01*
X94969842Y-81842945D01*
X94911254Y-81662632D01*
X94911252Y-81662629D01*
X94911252Y-81662627D01*
X94825180Y-81493703D01*
X94784841Y-81438181D01*
X94713741Y-81340321D01*
X94579679Y-81206259D01*
X94426296Y-81094819D01*
X94257368Y-81008746D01*
X94147139Y-80972930D01*
X94089465Y-80933493D01*
X94062267Y-80869135D01*
X94074182Y-80800288D01*
X94121426Y-80748813D01*
X94147138Y-80737070D01*
X94257368Y-80701254D01*
X94426296Y-80615181D01*
X94579679Y-80503741D01*
X94713741Y-80369679D01*
X94825181Y-80216296D01*
X94911254Y-80047368D01*
X94969842Y-79867055D01*
X94975292Y-79832648D01*
X116524500Y-79832648D01*
X116524500Y-80037352D01*
X116526087Y-80047372D01*
X116556522Y-80239534D01*
X116619781Y-80434223D01*
X116655202Y-80503739D01*
X116712585Y-80616359D01*
X116712715Y-80616613D01*
X116833028Y-80782213D01*
X116977786Y-80926971D01*
X117098226Y-81014474D01*
X117143390Y-81047287D01*
X117216780Y-81084681D01*
X117325776Y-81140218D01*
X117325778Y-81140218D01*
X117325781Y-81140220D01*
X117387815Y-81160376D01*
X117520465Y-81203477D01*
X117559282Y-81209625D01*
X117722648Y-81235500D01*
X117722649Y-81235500D01*
X117927351Y-81235500D01*
X117927352Y-81235500D01*
X118129534Y-81203477D01*
X118324219Y-81140220D01*
X118506610Y-81047287D01*
X118619726Y-80965104D01*
X118672213Y-80926971D01*
X118672215Y-80926968D01*
X118672219Y-80926966D01*
X118816966Y-80782219D01*
X118816968Y-80782215D01*
X118816971Y-80782213D01*
X118875791Y-80701252D01*
X118937287Y-80616610D01*
X119030220Y-80434219D01*
X119093477Y-80239534D01*
X119125500Y-80037352D01*
X119125500Y-79832682D01*
X124145000Y-79832682D01*
X124145000Y-80037317D01*
X124177009Y-80239417D01*
X124240244Y-80434031D01*
X124333141Y-80616350D01*
X124333147Y-80616359D01*
X124365523Y-80660921D01*
X124365524Y-80660922D01*
X125045000Y-79981446D01*
X125045000Y-79987661D01*
X125072259Y-80089394D01*
X125124920Y-80180606D01*
X125199394Y-80255080D01*
X125290606Y-80307741D01*
X125392339Y-80335000D01*
X125398553Y-80335000D01*
X124719076Y-81014474D01*
X124763650Y-81046859D01*
X124945968Y-81139755D01*
X125140582Y-81202990D01*
X125342683Y-81235000D01*
X125547317Y-81235000D01*
X125749417Y-81202990D01*
X125944031Y-81139755D01*
X126126349Y-81046859D01*
X126170921Y-81014474D01*
X125491447Y-80335000D01*
X125497661Y-80335000D01*
X125599394Y-80307741D01*
X125690606Y-80255080D01*
X125765080Y-80180606D01*
X125817741Y-80089394D01*
X125845000Y-79987661D01*
X125845000Y-79981447D01*
X126524474Y-80660921D01*
X126556859Y-80616349D01*
X126649755Y-80434031D01*
X126712990Y-80239417D01*
X126745000Y-80037317D01*
X126745000Y-79832682D01*
X126712990Y-79630582D01*
X126649755Y-79435968D01*
X126556859Y-79253650D01*
X126524474Y-79209077D01*
X126524474Y-79209076D01*
X125845000Y-79888551D01*
X125845000Y-79882339D01*
X125817741Y-79780606D01*
X125765080Y-79689394D01*
X125690606Y-79614920D01*
X125599394Y-79562259D01*
X125497661Y-79535000D01*
X125491446Y-79535000D01*
X126170922Y-78855524D01*
X126170921Y-78855523D01*
X126126359Y-78823147D01*
X126126350Y-78823141D01*
X125944031Y-78730244D01*
X125749417Y-78667009D01*
X125547317Y-78635000D01*
X125342683Y-78635000D01*
X125140582Y-78667009D01*
X124945968Y-78730244D01*
X124763644Y-78823143D01*
X124719077Y-78855523D01*
X124719077Y-78855524D01*
X125398554Y-79535000D01*
X125392339Y-79535000D01*
X125290606Y-79562259D01*
X125199394Y-79614920D01*
X125124920Y-79689394D01*
X125072259Y-79780606D01*
X125045000Y-79882339D01*
X125045000Y-79888553D01*
X124365524Y-79209077D01*
X124365523Y-79209077D01*
X124333143Y-79253644D01*
X124240244Y-79435968D01*
X124177009Y-79630582D01*
X124145000Y-79832682D01*
X119125500Y-79832682D01*
X119125500Y-79832648D01*
X119117257Y-79780606D01*
X119093477Y-79630465D01*
X119040201Y-79466499D01*
X119030220Y-79435781D01*
X119030218Y-79435778D01*
X119030218Y-79435776D01*
X118974482Y-79326390D01*
X118937287Y-79253390D01*
X118929556Y-79242749D01*
X118816971Y-79087786D01*
X118672213Y-78943028D01*
X118506613Y-78822715D01*
X118506612Y-78822714D01*
X118506610Y-78822713D01*
X118422681Y-78779949D01*
X118324223Y-78729781D01*
X118129534Y-78666522D01*
X117954995Y-78638878D01*
X117927352Y-78634500D01*
X117722648Y-78634500D01*
X117698329Y-78638351D01*
X117520465Y-78666522D01*
X117325776Y-78729781D01*
X117143386Y-78822715D01*
X116977786Y-78943028D01*
X116833028Y-79087786D01*
X116712715Y-79253386D01*
X116619781Y-79435776D01*
X116556522Y-79630465D01*
X116528344Y-79808377D01*
X116524500Y-79832648D01*
X94975292Y-79832648D01*
X94975915Y-79828713D01*
X94979136Y-79808378D01*
X94979136Y-79808377D01*
X94999499Y-79679801D01*
X94999500Y-79679801D01*
X94999500Y-79490199D01*
X94973555Y-79326390D01*
X94969842Y-79302945D01*
X94911254Y-79122632D01*
X94911252Y-79122629D01*
X94911252Y-79122627D01*
X94825180Y-78953703D01*
X94713741Y-78800321D01*
X94579679Y-78666259D01*
X94426296Y-78554819D01*
X94257368Y-78468746D01*
X94147139Y-78432930D01*
X94089465Y-78393493D01*
X94062267Y-78329135D01*
X94074182Y-78260288D01*
X94121426Y-78208813D01*
X94147138Y-78197070D01*
X94257368Y-78161254D01*
X94426296Y-78075181D01*
X94579679Y-77963741D01*
X94713741Y-77829679D01*
X94825181Y-77676296D01*
X94911254Y-77507368D01*
X94969842Y-77327055D01*
X94994364Y-77172226D01*
X94999500Y-77139800D01*
X94999500Y-76950199D01*
X94983023Y-76846171D01*
X94969842Y-76762945D01*
X94911254Y-76582632D01*
X94911252Y-76582629D01*
X94911252Y-76582627D01*
X94865846Y-76493515D01*
X94825181Y-76413704D01*
X94713741Y-76260321D01*
X94579679Y-76126259D01*
X94426296Y-76014819D01*
X94257368Y-75928746D01*
X94147139Y-75892930D01*
X94089465Y-75853493D01*
X94062267Y-75789135D01*
X94074182Y-75720288D01*
X94121426Y-75668813D01*
X94147138Y-75657070D01*
X94257368Y-75621254D01*
X94426296Y-75535181D01*
X94579679Y-75423741D01*
X94713741Y-75289679D01*
X94825181Y-75136296D01*
X94911254Y-74967368D01*
X94969842Y-74787055D01*
X94993518Y-74637566D01*
X94999500Y-74599800D01*
X94999500Y-74410199D01*
X94977489Y-74271230D01*
X94969842Y-74222945D01*
X94911254Y-74042632D01*
X94911252Y-74042629D01*
X94911252Y-74042627D01*
X94825180Y-73873703D01*
X94784841Y-73818181D01*
X94713741Y-73720321D01*
X94579679Y-73586259D01*
X94426296Y-73474819D01*
X94257368Y-73388746D01*
X94147139Y-73352930D01*
X94089465Y-73313493D01*
X94062267Y-73249135D01*
X94074182Y-73180288D01*
X94121426Y-73128813D01*
X94147138Y-73117070D01*
X94257368Y-73081254D01*
X94426296Y-72995181D01*
X94579679Y-72883741D01*
X94713741Y-72749679D01*
X94825181Y-72596296D01*
X94911254Y-72427368D01*
X94969842Y-72247055D01*
X94992739Y-72102485D01*
X94999500Y-72059800D01*
X94999500Y-71870199D01*
X94979908Y-71746500D01*
X94969842Y-71682945D01*
X94911254Y-71502632D01*
X94911252Y-71502629D01*
X94911252Y-71502627D01*
X94825180Y-71333703D01*
X94797136Y-71295104D01*
X94713741Y-71180321D01*
X94579679Y-71046259D01*
X94426296Y-70934819D01*
X94257368Y-70848746D01*
X94147139Y-70812930D01*
X94089465Y-70773493D01*
X94062267Y-70709135D01*
X94074182Y-70640288D01*
X94121426Y-70588813D01*
X94147138Y-70577070D01*
X94257368Y-70541254D01*
X94426296Y-70455181D01*
X94579679Y-70343741D01*
X94713741Y-70209679D01*
X94825181Y-70056296D01*
X94911254Y-69887368D01*
X94969842Y-69707055D01*
X94992775Y-69562257D01*
X94999500Y-69519800D01*
X94999500Y-69330199D01*
X94974298Y-69171081D01*
X94969842Y-69142945D01*
X94911254Y-68962632D01*
X94911252Y-68962629D01*
X94911252Y-68962627D01*
X94825180Y-68793703D01*
X94742191Y-68679479D01*
X94713741Y-68640321D01*
X94579679Y-68506259D01*
X94426296Y-68394819D01*
X94287273Y-68323983D01*
X94236478Y-68276010D01*
X94219683Y-68208189D01*
X94242220Y-68142054D01*
X94296935Y-68098602D01*
X94343568Y-68089499D01*
X94546872Y-68089499D01*
X94606483Y-68083091D01*
X94741331Y-68032796D01*
X94856546Y-67946546D01*
X94942796Y-67831331D01*
X94993091Y-67696483D01*
X94999500Y-67636873D01*
X94999499Y-66133128D01*
X94993091Y-66073517D01*
X94992453Y-66071807D01*
X94942797Y-65938671D01*
X94942793Y-65938664D01*
X94856547Y-65823455D01*
X94856544Y-65823452D01*
X94741335Y-65737206D01*
X94741328Y-65737202D01*
X94606482Y-65686908D01*
X94606483Y-65686908D01*
X94546883Y-65680501D01*
X94546881Y-65680500D01*
X94546873Y-65680500D01*
X94546864Y-65680500D01*
X93043129Y-65680500D01*
X93043123Y-65680501D01*
X92983516Y-65686908D01*
X92848671Y-65737202D01*
X92848664Y-65737206D01*
X92733455Y-65823452D01*
X92733452Y-65823455D01*
X92647206Y-65938664D01*
X92647202Y-65938671D01*
X92596908Y-66073517D01*
X92591114Y-66127415D01*
X92590501Y-66133123D01*
X92590500Y-66133135D01*
X83148000Y-66133135D01*
X83148000Y-62823118D01*
X83167685Y-62756079D01*
X83184319Y-62735437D01*
X84235437Y-61684319D01*
X84296760Y-61650834D01*
X84323118Y-61648000D01*
X92532916Y-61648000D01*
X92599955Y-61667685D01*
X92645710Y-61720489D01*
X92655654Y-61789647D01*
X92626629Y-61853203D01*
X92589211Y-61882485D01*
X92515680Y-61919951D01*
X92343713Y-62044890D01*
X92193390Y-62195213D01*
X92068451Y-62367179D01*
X91971944Y-62556585D01*
X91906253Y-62758760D01*
X91873000Y-62968713D01*
X91873000Y-63181286D01*
X91906253Y-63391239D01*
X91971944Y-63593414D01*
X92068451Y-63782820D01*
X92193390Y-63954786D01*
X92343713Y-64105109D01*
X92515679Y-64230048D01*
X92515681Y-64230049D01*
X92515684Y-64230051D01*
X92705088Y-64326557D01*
X92907257Y-64392246D01*
X93117213Y-64425500D01*
X93117214Y-64425500D01*
X93329786Y-64425500D01*
X93329787Y-64425500D01*
X93539743Y-64392246D01*
X93741912Y-64326557D01*
X93931316Y-64230051D01*
X94034767Y-64154890D01*
X94103286Y-64105109D01*
X94103288Y-64105106D01*
X94103292Y-64105104D01*
X94253604Y-63954792D01*
X94253606Y-63954788D01*
X94253609Y-63954786D01*
X94378548Y-63782820D01*
X94378547Y-63782820D01*
X94378551Y-63782816D01*
X94475057Y-63593412D01*
X94540746Y-63391243D01*
X94574000Y-63181287D01*
X94574000Y-62968713D01*
X94540746Y-62758757D01*
X94475057Y-62556588D01*
X94381941Y-62373838D01*
X94369046Y-62305171D01*
X94395322Y-62240430D01*
X94452429Y-62200173D01*
X94522234Y-62197181D01*
X94580108Y-62229864D01*
X95685681Y-63335437D01*
X95719166Y-63396760D01*
X95722000Y-63423118D01*
X95722000Y-76115078D01*
X95753241Y-76272135D01*
X95753243Y-76272143D01*
X95814528Y-76420098D01*
X95903502Y-76553259D01*
X95903503Y-76553260D01*
X98703501Y-79353257D01*
X98816743Y-79466499D01*
X98949900Y-79555471D01*
X99097857Y-79616757D01*
X99254921Y-79647999D01*
X99254924Y-79648000D01*
X99254926Y-79648000D01*
X105015076Y-79648000D01*
X105015077Y-79647999D01*
X105172143Y-79616757D01*
X105320100Y-79555471D01*
X105453257Y-79466499D01*
X107766499Y-77153257D01*
X107855471Y-77020100D01*
X107916757Y-76872143D01*
X107948000Y-76715074D01*
X107948000Y-76554926D01*
X107948000Y-71223118D01*
X107967685Y-71156079D01*
X107984319Y-71135437D01*
X109295437Y-69824319D01*
X109356760Y-69790834D01*
X109383118Y-69788000D01*
X110771193Y-69788000D01*
X110838232Y-69807685D01*
X110858874Y-69824319D01*
X110972536Y-69937981D01*
X111133306Y-70054787D01*
X111251832Y-70115179D01*
X111289780Y-70134515D01*
X111340576Y-70182490D01*
X111357371Y-70250311D01*
X111334833Y-70316446D01*
X111289780Y-70355485D01*
X111133305Y-70435213D01*
X110972533Y-70552021D01*
X110832021Y-70692533D01*
X110715213Y-70853305D01*
X110624994Y-71030367D01*
X110624993Y-71030370D01*
X110563587Y-71219362D01*
X110563587Y-71219364D01*
X110532500Y-71415639D01*
X110532500Y-71614361D01*
X110539867Y-71660873D01*
X110563587Y-71810637D01*
X110624993Y-71999629D01*
X110624994Y-71999632D01*
X110705570Y-72157769D01*
X110715213Y-72176694D01*
X110832019Y-72337464D01*
X110972536Y-72477981D01*
X111133306Y-72594787D01*
X111251832Y-72655179D01*
X111289780Y-72674515D01*
X111340576Y-72722490D01*
X111357371Y-72790311D01*
X111334833Y-72856446D01*
X111289780Y-72895485D01*
X111133305Y-72975213D01*
X110972533Y-73092021D01*
X110832021Y-73232533D01*
X110715213Y-73393305D01*
X110624994Y-73570367D01*
X110624993Y-73570370D01*
X110563587Y-73759362D01*
X110551637Y-73834815D01*
X110532500Y-73955639D01*
X110532500Y-74154361D01*
X110539867Y-74200873D01*
X110563587Y-74350637D01*
X110624993Y-74539629D01*
X110624994Y-74539632D01*
X110655650Y-74599796D01*
X110715213Y-74716694D01*
X110832019Y-74877464D01*
X110972536Y-75017981D01*
X111133306Y-75134787D01*
X111251832Y-75195179D01*
X111289780Y-75214515D01*
X111340576Y-75262490D01*
X111357371Y-75330311D01*
X111334833Y-75396446D01*
X111289780Y-75435485D01*
X111133305Y-75515213D01*
X110972533Y-75632021D01*
X110832021Y-75772533D01*
X110715213Y-75933305D01*
X110624994Y-76110367D01*
X110624993Y-76110370D01*
X110563587Y-76299362D01*
X110532500Y-76495639D01*
X110532500Y-76694360D01*
X110563587Y-76890637D01*
X110624993Y-77079629D01*
X110624994Y-77079632D01*
X110696772Y-77220502D01*
X110715213Y-77256694D01*
X110832019Y-77417464D01*
X110972536Y-77557981D01*
X111133306Y-77674787D01*
X111136268Y-77676296D01*
X111310367Y-77765005D01*
X111310370Y-77765006D01*
X111404866Y-77795709D01*
X111499364Y-77826413D01*
X111695639Y-77857500D01*
X111695640Y-77857500D01*
X111894360Y-77857500D01*
X111894361Y-77857500D01*
X112090636Y-77826413D01*
X112279632Y-77765005D01*
X112456694Y-77674787D01*
X112617464Y-77557981D01*
X112757981Y-77417464D01*
X112845783Y-77296615D01*
X112901113Y-77253949D01*
X112946101Y-77245500D01*
X117239071Y-77245500D01*
X117323615Y-77228682D01*
X117364744Y-77220501D01*
X117483127Y-77171465D01*
X117589669Y-77100277D01*
X121440277Y-73249669D01*
X121511465Y-73143127D01*
X121517357Y-73128902D01*
X124904500Y-73128902D01*
X124904500Y-73365097D01*
X124941446Y-73598368D01*
X125014433Y-73822996D01*
X125082018Y-73955638D01*
X125121657Y-74033433D01*
X125260483Y-74224510D01*
X125427490Y-74391517D01*
X125618567Y-74530343D01*
X125636798Y-74539632D01*
X125829003Y-74637566D01*
X125829005Y-74637566D01*
X125829008Y-74637568D01*
X125949412Y-74676689D01*
X126053631Y-74710553D01*
X126286903Y-74747500D01*
X126286908Y-74747500D01*
X126523097Y-74747500D01*
X126756368Y-74710553D01*
X126980992Y-74637568D01*
X127191433Y-74530343D01*
X127382510Y-74391517D01*
X127549517Y-74224510D01*
X127688343Y-74033433D01*
X127795568Y-73822992D01*
X127868553Y-73598368D01*
X127870471Y-73586259D01*
X127905500Y-73365097D01*
X127905500Y-73128902D01*
X139884500Y-73128902D01*
X139884500Y-73365097D01*
X139921446Y-73598368D01*
X139994433Y-73822996D01*
X140062018Y-73955638D01*
X140101657Y-74033433D01*
X140240483Y-74224510D01*
X140407490Y-74391517D01*
X140598567Y-74530343D01*
X140616798Y-74539632D01*
X140809003Y-74637566D01*
X140809005Y-74637566D01*
X140809008Y-74637568D01*
X140929412Y-74676689D01*
X141033631Y-74710553D01*
X141266903Y-74747500D01*
X141266908Y-74747500D01*
X141503097Y-74747500D01*
X141736368Y-74710553D01*
X141960992Y-74637568D01*
X142171433Y-74530343D01*
X142362510Y-74391517D01*
X142529517Y-74224510D01*
X142668343Y-74033433D01*
X142775568Y-73822992D01*
X142848553Y-73598368D01*
X142850471Y-73586259D01*
X142885500Y-73365097D01*
X142885500Y-73128902D01*
X142848553Y-72895631D01*
X142795594Y-72732642D01*
X142775568Y-72671008D01*
X142775566Y-72671005D01*
X142775566Y-72671003D01*
X142719002Y-72559991D01*
X142668343Y-72460567D01*
X142529517Y-72269490D01*
X142362510Y-72102483D01*
X142171433Y-71963657D01*
X141960996Y-71856433D01*
X141736368Y-71783446D01*
X141503097Y-71746500D01*
X141503092Y-71746500D01*
X141266908Y-71746500D01*
X141266903Y-71746500D01*
X141033631Y-71783446D01*
X140809003Y-71856433D01*
X140598566Y-71963657D01*
X140489550Y-72042862D01*
X140407490Y-72102483D01*
X140407488Y-72102485D01*
X140407487Y-72102485D01*
X140240485Y-72269487D01*
X140240485Y-72269488D01*
X140240483Y-72269490D01*
X140191097Y-72337464D01*
X140101657Y-72460566D01*
X139994433Y-72671003D01*
X139921446Y-72895631D01*
X139884500Y-73128902D01*
X127905500Y-73128902D01*
X127868553Y-72895631D01*
X127815594Y-72732642D01*
X127795568Y-72671008D01*
X127795566Y-72671005D01*
X127795566Y-72671003D01*
X127739002Y-72559991D01*
X127688343Y-72460567D01*
X127549517Y-72269490D01*
X127382510Y-72102483D01*
X127191433Y-71963657D01*
X126980996Y-71856433D01*
X126756368Y-71783446D01*
X126523097Y-71746500D01*
X126523092Y-71746500D01*
X126286908Y-71746500D01*
X126286903Y-71746500D01*
X126053631Y-71783446D01*
X125829003Y-71856433D01*
X125618566Y-71963657D01*
X125509550Y-72042862D01*
X125427490Y-72102483D01*
X125427488Y-72102485D01*
X125427487Y-72102485D01*
X125260485Y-72269487D01*
X125260485Y-72269488D01*
X125260483Y-72269490D01*
X125211097Y-72337464D01*
X125121657Y-72460566D01*
X125014433Y-72671003D01*
X124941446Y-72895631D01*
X124904500Y-73128902D01*
X121517357Y-73128902D01*
X121560501Y-73024744D01*
X121585499Y-72899069D01*
X121585499Y-72770931D01*
X121577883Y-72732642D01*
X121575500Y-72708450D01*
X121575500Y-71524617D01*
X121595185Y-71457578D01*
X121629592Y-71423902D01*
X121628874Y-71422914D01*
X121632811Y-71420053D01*
X121632816Y-71420051D01*
X121804792Y-71295104D01*
X121955104Y-71144792D01*
X121955106Y-71144788D01*
X121955109Y-71144786D01*
X122080048Y-70972820D01*
X122080047Y-70972820D01*
X122080051Y-70972816D01*
X122176557Y-70783412D01*
X122242246Y-70581243D01*
X122275500Y-70371287D01*
X122275500Y-70158713D01*
X122242246Y-69948757D01*
X122176557Y-69746588D01*
X122080051Y-69557184D01*
X122080049Y-69557181D01*
X122080048Y-69557179D01*
X121955109Y-69385213D01*
X121804786Y-69234890D01*
X121632820Y-69109951D01*
X121632115Y-69109591D01*
X121624054Y-69105485D01*
X121573259Y-69057512D01*
X121556463Y-68989692D01*
X121578999Y-68923556D01*
X121624054Y-68884515D01*
X121632816Y-68880051D01*
X121654789Y-68864086D01*
X121804786Y-68755109D01*
X121804788Y-68755106D01*
X121804792Y-68755104D01*
X121955104Y-68604792D01*
X121955106Y-68604788D01*
X121955109Y-68604786D01*
X122080048Y-68432820D01*
X122080050Y-68432817D01*
X122080051Y-68432816D01*
X122176557Y-68243412D01*
X122242246Y-68041243D01*
X122275500Y-67831287D01*
X122275500Y-67618713D01*
X122242246Y-67408757D01*
X122176557Y-67206588D01*
X122080051Y-67017184D01*
X122080049Y-67017181D01*
X122080048Y-67017179D01*
X121955109Y-66845213D01*
X121804786Y-66694890D01*
X121632820Y-66569951D01*
X121632115Y-66569591D01*
X121624054Y-66565485D01*
X121573259Y-66517512D01*
X121556463Y-66449692D01*
X121578999Y-66383556D01*
X121624054Y-66344515D01*
X121632816Y-66340051D01*
X121727150Y-66271514D01*
X121804786Y-66215109D01*
X121804788Y-66215106D01*
X121804792Y-66215104D01*
X121955104Y-66064792D01*
X121955106Y-66064788D01*
X121955109Y-66064786D01*
X122080048Y-65892820D01*
X122080047Y-65892820D01*
X122080051Y-65892816D01*
X122176557Y-65703412D01*
X122242246Y-65501243D01*
X122275500Y-65291287D01*
X122275500Y-65078713D01*
X122264443Y-65008902D01*
X124904500Y-65008902D01*
X124904500Y-65245097D01*
X124941446Y-65478368D01*
X125014433Y-65702996D01*
X125093685Y-65858535D01*
X125121657Y-65913433D01*
X125260483Y-66104510D01*
X125427490Y-66271517D01*
X125618567Y-66410343D01*
X125642676Y-66422627D01*
X125829003Y-66517566D01*
X125829005Y-66517566D01*
X125829008Y-66517568D01*
X125884194Y-66535499D01*
X126053631Y-66590553D01*
X126286903Y-66627500D01*
X126286908Y-66627500D01*
X126523097Y-66627500D01*
X126756368Y-66590553D01*
X126980992Y-66517568D01*
X127191433Y-66410343D01*
X127382510Y-66271517D01*
X127549517Y-66104510D01*
X127688343Y-65913433D01*
X127795568Y-65702992D01*
X127868553Y-65478368D01*
X127883845Y-65381817D01*
X127905500Y-65245097D01*
X127905500Y-65008902D01*
X127868553Y-64775631D01*
X127795566Y-64551003D01*
X127735034Y-64432203D01*
X127688343Y-64340567D01*
X127549517Y-64149490D01*
X127382510Y-63982483D01*
X127191433Y-63843657D01*
X126980996Y-63736433D01*
X126756368Y-63663446D01*
X126523097Y-63626500D01*
X126523092Y-63626500D01*
X126286908Y-63626500D01*
X126286903Y-63626500D01*
X126053631Y-63663446D01*
X125829003Y-63736433D01*
X125618566Y-63843657D01*
X125540760Y-63900187D01*
X125427490Y-63982483D01*
X125427488Y-63982485D01*
X125427487Y-63982485D01*
X125260485Y-64149487D01*
X125260485Y-64149488D01*
X125260483Y-64149490D01*
X125209014Y-64220331D01*
X125121657Y-64340566D01*
X125014433Y-64551003D01*
X124941446Y-64775631D01*
X124904500Y-65008902D01*
X122264443Y-65008902D01*
X122242246Y-64868757D01*
X122176557Y-64666588D01*
X122080051Y-64477184D01*
X122080049Y-64477181D01*
X122080048Y-64477179D01*
X121955109Y-64305213D01*
X121804786Y-64154890D01*
X121632820Y-64029951D01*
X121443414Y-63933444D01*
X121443413Y-63933443D01*
X121443412Y-63933443D01*
X121241243Y-63867754D01*
X121241241Y-63867753D01*
X121241240Y-63867753D01*
X121079957Y-63842208D01*
X121031287Y-63834500D01*
X120818713Y-63834500D01*
X120770042Y-63842208D01*
X120608760Y-63867753D01*
X120406585Y-63933444D01*
X120217179Y-64029951D01*
X120045213Y-64154890D01*
X119894894Y-64305209D01*
X119894885Y-64305219D01*
X119891330Y-64310113D01*
X119835997Y-64352775D01*
X119766383Y-64358748D01*
X119704591Y-64326137D01*
X119673312Y-64276223D01*
X119669814Y-64265667D01*
X119669812Y-64265664D01*
X119577712Y-64116344D01*
X119453656Y-63992288D01*
X119304334Y-63900186D01*
X119137797Y-63845001D01*
X119137795Y-63845000D01*
X119035010Y-63834500D01*
X117734998Y-63834500D01*
X117734981Y-63834501D01*
X117632203Y-63845000D01*
X117632200Y-63845001D01*
X117465668Y-63900185D01*
X117465663Y-63900187D01*
X117316342Y-63992289D01*
X117192289Y-64116342D01*
X117100187Y-64265663D01*
X117100187Y-64265664D01*
X117100186Y-64265666D01*
X117045001Y-64432203D01*
X117045001Y-64432204D01*
X117045000Y-64432204D01*
X117034500Y-64534983D01*
X117034500Y-65835001D01*
X117034501Y-65835018D01*
X117045000Y-65937796D01*
X117045001Y-65937799D01*
X117100185Y-66104331D01*
X117100189Y-66104340D01*
X117148327Y-66182384D01*
X117166767Y-66249776D01*
X117145844Y-66316440D01*
X117092202Y-66361209D01*
X117022871Y-66369870D01*
X116959864Y-66339673D01*
X116955107Y-66335161D01*
X116021819Y-65401873D01*
X115988334Y-65340550D01*
X115985500Y-65314192D01*
X115985500Y-64570928D01*
X115960502Y-64445261D01*
X115960501Y-64445260D01*
X115960501Y-64445256D01*
X115911465Y-64326873D01*
X115870568Y-64265666D01*
X115846770Y-64230048D01*
X115840279Y-64220333D01*
X115840277Y-64220331D01*
X115009674Y-63389727D01*
X115009673Y-63389726D01*
X114928423Y-63335437D01*
X114903127Y-63318535D01*
X114784744Y-63269499D01*
X114784738Y-63269497D01*
X114659071Y-63244500D01*
X114659069Y-63244500D01*
X113181499Y-63244500D01*
X113114460Y-63224815D01*
X113068705Y-63172011D01*
X113057499Y-63120500D01*
X113057499Y-63085129D01*
X113057498Y-63085123D01*
X113057497Y-63085116D01*
X113051091Y-63025517D01*
X113034286Y-62980461D01*
X113000797Y-62890671D01*
X113000793Y-62890664D01*
X112914547Y-62775455D01*
X112914544Y-62775452D01*
X112799335Y-62689206D01*
X112799328Y-62689202D01*
X112664482Y-62638908D01*
X112664483Y-62638908D01*
X112604883Y-62632501D01*
X112604881Y-62632500D01*
X112604873Y-62632500D01*
X112604864Y-62632500D01*
X110985129Y-62632500D01*
X110985123Y-62632501D01*
X110925516Y-62638908D01*
X110790671Y-62689202D01*
X110790664Y-62689206D01*
X110675455Y-62775452D01*
X110675452Y-62775455D01*
X110589206Y-62890664D01*
X110589202Y-62890671D01*
X110538908Y-63025517D01*
X110532501Y-63085116D01*
X110532501Y-63085123D01*
X110532500Y-63085135D01*
X110532500Y-64704870D01*
X110532501Y-64704876D01*
X110538908Y-64764483D01*
X110589202Y-64899328D01*
X110589206Y-64899335D01*
X110675452Y-65014544D01*
X110675455Y-65014547D01*
X110790664Y-65100793D01*
X110790671Y-65100797D01*
X110925517Y-65151091D01*
X110925516Y-65151091D01*
X110932444Y-65151835D01*
X110985127Y-65157500D01*
X111023801Y-65157499D01*
X111090838Y-65177182D01*
X111136594Y-65229985D01*
X111146539Y-65299143D01*
X111117516Y-65362699D01*
X111096687Y-65381816D01*
X110972542Y-65472014D01*
X110972533Y-65472021D01*
X110832021Y-65612533D01*
X110715213Y-65773305D01*
X110624994Y-65950367D01*
X110624993Y-65950370D01*
X110563587Y-66139362D01*
X110546099Y-66249776D01*
X110532500Y-66335639D01*
X110532500Y-66534361D01*
X110547252Y-66627499D01*
X110563587Y-66730637D01*
X110624993Y-66919629D01*
X110624994Y-66919632D01*
X110674699Y-67017182D01*
X110715213Y-67096694D01*
X110832019Y-67257464D01*
X110972536Y-67397981D01*
X111133306Y-67514787D01*
X111251832Y-67575179D01*
X111289780Y-67594515D01*
X111340576Y-67642490D01*
X111357371Y-67710311D01*
X111334833Y-67776446D01*
X111289780Y-67815485D01*
X111133305Y-67895213D01*
X110972533Y-68012021D01*
X110858874Y-68125681D01*
X110797551Y-68159166D01*
X110771193Y-68162000D01*
X108914923Y-68162000D01*
X108757864Y-68193241D01*
X108757856Y-68193243D01*
X108609901Y-68254528D01*
X108476740Y-68343502D01*
X108476739Y-68343503D01*
X107073659Y-69746585D01*
X106616743Y-70203501D01*
X106582744Y-70237500D01*
X106503501Y-70316742D01*
X106414528Y-70449901D01*
X106353243Y-70597856D01*
X106353241Y-70597864D01*
X106322000Y-70754921D01*
X106322000Y-76246882D01*
X106302315Y-76313921D01*
X106285681Y-76334563D01*
X104634563Y-77985681D01*
X104573240Y-78019166D01*
X104546882Y-78022000D01*
X102111588Y-78022000D01*
X102044549Y-78002315D01*
X101998794Y-77949511D01*
X101988850Y-77880353D01*
X102017875Y-77816797D01*
X102073270Y-77780069D01*
X102119629Y-77765006D01*
X102119632Y-77765005D01*
X102296694Y-77674787D01*
X102457464Y-77557981D01*
X102597981Y-77417464D01*
X102714787Y-77256694D01*
X102805005Y-77079632D01*
X102866413Y-76890636D01*
X102897500Y-76694361D01*
X102897500Y-76495639D01*
X102866413Y-76299364D01*
X102810169Y-76126260D01*
X102805006Y-76110370D01*
X102805005Y-76110367D01*
X102725803Y-75954926D01*
X102714787Y-75933306D01*
X102597981Y-75772536D01*
X102457464Y-75632019D01*
X102296694Y-75515213D01*
X102140218Y-75435484D01*
X102089423Y-75387510D01*
X102072628Y-75319689D01*
X102095165Y-75253554D01*
X102140218Y-75214515D01*
X102296694Y-75134787D01*
X102457464Y-75017981D01*
X102597981Y-74877464D01*
X102714787Y-74716694D01*
X102805005Y-74539632D01*
X102866413Y-74350636D01*
X102897500Y-74154361D01*
X102897500Y-73955639D01*
X102866413Y-73759364D01*
X102810169Y-73586260D01*
X102805006Y-73570370D01*
X102805005Y-73570367D01*
X102756320Y-73474819D01*
X102714787Y-73393306D01*
X102597981Y-73232536D01*
X102457464Y-73092019D01*
X102296694Y-72975213D01*
X102140218Y-72895484D01*
X102089423Y-72847510D01*
X102072628Y-72779689D01*
X102095165Y-72713554D01*
X102140218Y-72674515D01*
X102296694Y-72594787D01*
X102457464Y-72477981D01*
X102597981Y-72337464D01*
X102714787Y-72176694D01*
X102805005Y-71999632D01*
X102866413Y-71810636D01*
X102897500Y-71614361D01*
X102897500Y-71415639D01*
X102866413Y-71219364D01*
X102810169Y-71046260D01*
X102805006Y-71030370D01*
X102805005Y-71030367D01*
X102748259Y-70918999D01*
X102714787Y-70853306D01*
X102597981Y-70692536D01*
X102457464Y-70552019D01*
X102296694Y-70435213D01*
X102139667Y-70355203D01*
X102088872Y-70307229D01*
X102072077Y-70239408D01*
X102094614Y-70173273D01*
X102139669Y-70134234D01*
X102296422Y-70054364D01*
X102333716Y-70027268D01*
X101770942Y-69464494D01*
X101831081Y-69448381D01*
X101946920Y-69381502D01*
X102041502Y-69286920D01*
X102108381Y-69171081D01*
X102124495Y-69110942D01*
X102687268Y-69673715D01*
X102714362Y-69636425D01*
X102804542Y-69459437D01*
X102865924Y-69270523D01*
X102865924Y-69270520D01*
X102897000Y-69074321D01*
X102897000Y-68875678D01*
X102865924Y-68679479D01*
X102865924Y-68679476D01*
X102804542Y-68490562D01*
X102714358Y-68313567D01*
X102687268Y-68276283D01*
X102124494Y-68839057D01*
X102108381Y-68778919D01*
X102041502Y-68663080D01*
X101946920Y-68568498D01*
X101831081Y-68501619D01*
X101770942Y-68485504D01*
X102333716Y-67922731D01*
X102333715Y-67922730D01*
X102296432Y-67895641D01*
X102139668Y-67815765D01*
X102088872Y-67767790D01*
X102072077Y-67699969D01*
X102094615Y-67633834D01*
X102139667Y-67594796D01*
X102296694Y-67514787D01*
X102457464Y-67397981D01*
X102597981Y-67257464D01*
X102714787Y-67096694D01*
X102805005Y-66919632D01*
X102866413Y-66730636D01*
X102897500Y-66534361D01*
X102897500Y-66335639D01*
X102866413Y-66139364D01*
X102831128Y-66030767D01*
X102805006Y-65950370D01*
X102805005Y-65950367D01*
X102740338Y-65823452D01*
X102714787Y-65773306D01*
X102597981Y-65612536D01*
X102457464Y-65472019D01*
X102333310Y-65381816D01*
X102290646Y-65326487D01*
X102284667Y-65256874D01*
X102317273Y-65195079D01*
X102378112Y-65160721D01*
X102406197Y-65157499D01*
X102444871Y-65157499D01*
X102444872Y-65157499D01*
X102504483Y-65151091D01*
X102639331Y-65100796D01*
X102754546Y-65014546D01*
X102840796Y-64899331D01*
X102891091Y-64764483D01*
X102897500Y-64704873D01*
X102897499Y-63085128D01*
X102891091Y-63025517D01*
X102874286Y-62980461D01*
X102840797Y-62890671D01*
X102840793Y-62890664D01*
X102754547Y-62775455D01*
X102754544Y-62775452D01*
X102639335Y-62689206D01*
X102639328Y-62689202D01*
X102504482Y-62638908D01*
X102504483Y-62638908D01*
X102444883Y-62632501D01*
X102444881Y-62632500D01*
X102444873Y-62632500D01*
X102444865Y-62632500D01*
X102409500Y-62632500D01*
X102342461Y-62612815D01*
X102296706Y-62560011D01*
X102285500Y-62508500D01*
X102285500Y-62270928D01*
X102260502Y-62145261D01*
X102260501Y-62145260D01*
X102260501Y-62145256D01*
X102211465Y-62026873D01*
X102211464Y-62026872D01*
X102211461Y-62026866D01*
X102140277Y-61920332D01*
X102102430Y-61882485D01*
X102049669Y-61829724D01*
X99840271Y-59620326D01*
X97486793Y-57266847D01*
X97403984Y-57184038D01*
X114164500Y-57184038D01*
X114164500Y-57435962D01*
X114188026Y-57584500D01*
X114203910Y-57684785D01*
X114281760Y-57924383D01*
X114396132Y-58148848D01*
X114544201Y-58352649D01*
X114544205Y-58352654D01*
X114722345Y-58530794D01*
X114722350Y-58530798D01*
X114900117Y-58659952D01*
X114926155Y-58678870D01*
X115069184Y-58751747D01*
X115150616Y-58793239D01*
X115150618Y-58793239D01*
X115150621Y-58793241D01*
X115390215Y-58871090D01*
X115639038Y-58910500D01*
X115639039Y-58910500D01*
X115890961Y-58910500D01*
X115890962Y-58910500D01*
X116139785Y-58871090D01*
X116379379Y-58793241D01*
X116603845Y-58678870D01*
X116807656Y-58530793D01*
X116947319Y-58391130D01*
X117008642Y-58357645D01*
X117078334Y-58362629D01*
X117122681Y-58391130D01*
X117262345Y-58530794D01*
X117262350Y-58530798D01*
X117440117Y-58659952D01*
X117466155Y-58678870D01*
X117609184Y-58751747D01*
X117690616Y-58793239D01*
X117690618Y-58793239D01*
X117690621Y-58793241D01*
X117930215Y-58871090D01*
X118179038Y-58910500D01*
X118179039Y-58910500D01*
X118430961Y-58910500D01*
X118430962Y-58910500D01*
X118679785Y-58871090D01*
X118919379Y-58793241D01*
X119143845Y-58678870D01*
X119347656Y-58530793D01*
X119487319Y-58391130D01*
X119548642Y-58357645D01*
X119618334Y-58362629D01*
X119662681Y-58391130D01*
X119802345Y-58530794D01*
X119802350Y-58530798D01*
X119980117Y-58659952D01*
X120006155Y-58678870D01*
X120149184Y-58751747D01*
X120230616Y-58793239D01*
X120230618Y-58793239D01*
X120230621Y-58793241D01*
X120470215Y-58871090D01*
X120719038Y-58910500D01*
X120719039Y-58910500D01*
X120970961Y-58910500D01*
X120970962Y-58910500D01*
X121219785Y-58871090D01*
X121459379Y-58793241D01*
X121683845Y-58678870D01*
X121776936Y-58611234D01*
X121842742Y-58587754D01*
X121910796Y-58603579D01*
X121937503Y-58623871D01*
X121942288Y-58628656D01*
X122066344Y-58752712D01*
X122215665Y-58844814D01*
X122382202Y-58899999D01*
X122484990Y-58910500D01*
X122484995Y-58910500D01*
X124285005Y-58910500D01*
X124285010Y-58910500D01*
X124387798Y-58899999D01*
X124554335Y-58844814D01*
X124703656Y-58752712D01*
X124827712Y-58628656D01*
X124919814Y-58479335D01*
X124974999Y-58312798D01*
X124975000Y-58312793D01*
X124975912Y-58308535D01*
X125009198Y-58247104D01*
X125070412Y-58213420D01*
X125097163Y-58210500D01*
X136960638Y-58210500D01*
X137027677Y-58230185D01*
X137048319Y-58246819D01*
X140448181Y-61646680D01*
X140481666Y-61708003D01*
X140484500Y-61734361D01*
X140484500Y-63502500D01*
X140464815Y-63569539D01*
X140412011Y-63615294D01*
X140360505Y-63626500D01*
X140337132Y-63626500D01*
X140337123Y-63626501D01*
X140277516Y-63632908D01*
X140142671Y-63683202D01*
X140142664Y-63683206D01*
X140027455Y-63769452D01*
X140027452Y-63769455D01*
X139941206Y-63884664D01*
X139941202Y-63884671D01*
X139890908Y-64019517D01*
X139885959Y-64065554D01*
X139884501Y-64079123D01*
X139884500Y-64079135D01*
X139884500Y-66174870D01*
X139884501Y-66174876D01*
X139890908Y-66234483D01*
X139941202Y-66369328D01*
X139941206Y-66369335D01*
X140027452Y-66484544D01*
X140027455Y-66484547D01*
X140142664Y-66570793D01*
X140142671Y-66570797D01*
X140277517Y-66621091D01*
X140277516Y-66621091D01*
X140284444Y-66621835D01*
X140337127Y-66627500D01*
X142432872Y-66627499D01*
X142492483Y-66621091D01*
X142627331Y-66570796D01*
X142742546Y-66484546D01*
X142828796Y-66369331D01*
X142879091Y-66234483D01*
X142885500Y-66174873D01*
X142885499Y-64079128D01*
X142879091Y-64019517D01*
X142868935Y-63992288D01*
X142828797Y-63884671D01*
X142828793Y-63884664D01*
X142742547Y-63769455D01*
X142742544Y-63769452D01*
X142627335Y-63683206D01*
X142627328Y-63683202D01*
X142492482Y-63632908D01*
X142492483Y-63632908D01*
X142432883Y-63626501D01*
X142432881Y-63626500D01*
X142432873Y-63626500D01*
X142432865Y-63626500D01*
X142409500Y-63626500D01*
X142342461Y-63606815D01*
X142296706Y-63554011D01*
X142285500Y-63502500D01*
X142285500Y-61221309D01*
X142285499Y-61221305D01*
X142283151Y-61209496D01*
X142283151Y-61209495D01*
X142250896Y-61047341D01*
X142250895Y-61047334D01*
X142206550Y-60940277D01*
X142206550Y-60940276D01*
X142183016Y-60883459D01*
X142183009Y-60883446D01*
X142084465Y-60735966D01*
X142084464Y-60735965D01*
X141959035Y-60610536D01*
X137959036Y-56610536D01*
X137959035Y-56610535D01*
X137959030Y-56610531D01*
X137905036Y-56574455D01*
X137905034Y-56574453D01*
X137899959Y-56571063D01*
X137811547Y-56511987D01*
X137712969Y-56471155D01*
X137707348Y-56468826D01*
X137707345Y-56468825D01*
X137647666Y-56444105D01*
X137647658Y-56444103D01*
X137473696Y-56409500D01*
X137473692Y-56409500D01*
X137473691Y-56409500D01*
X125097163Y-56409500D01*
X125030124Y-56389815D01*
X124984369Y-56337011D01*
X124975912Y-56311465D01*
X124975000Y-56307206D01*
X124961793Y-56267350D01*
X124919814Y-56140665D01*
X124827712Y-55991344D01*
X124703656Y-55867288D01*
X124580922Y-55791585D01*
X124554337Y-55775187D01*
X124554332Y-55775185D01*
X124523037Y-55764815D01*
X124387798Y-55720001D01*
X124387796Y-55720000D01*
X124285017Y-55709500D01*
X124285010Y-55709500D01*
X122484990Y-55709500D01*
X122484982Y-55709500D01*
X122382203Y-55720000D01*
X122382202Y-55720001D01*
X122299669Y-55747349D01*
X122215667Y-55775185D01*
X122215662Y-55775187D01*
X122066345Y-55867287D01*
X121937503Y-55996128D01*
X121876179Y-56029612D01*
X121806488Y-56024627D01*
X121776937Y-56008764D01*
X121683848Y-55941132D01*
X121683847Y-55941131D01*
X121683845Y-55941130D01*
X121613747Y-55905413D01*
X121459383Y-55826760D01*
X121219785Y-55748910D01*
X120970962Y-55709500D01*
X120719038Y-55709500D01*
X120652738Y-55720001D01*
X120470214Y-55748910D01*
X120230616Y-55826760D01*
X120006151Y-55941132D01*
X119802350Y-56089201D01*
X119802345Y-56089205D01*
X119662681Y-56228870D01*
X119601358Y-56262355D01*
X119531666Y-56257371D01*
X119487319Y-56228870D01*
X119347654Y-56089205D01*
X119347649Y-56089201D01*
X119143848Y-55941132D01*
X119143847Y-55941131D01*
X119143845Y-55941130D01*
X119073747Y-55905413D01*
X118919383Y-55826760D01*
X118679785Y-55748910D01*
X118430962Y-55709500D01*
X118179038Y-55709500D01*
X118112738Y-55720001D01*
X117930214Y-55748910D01*
X117690616Y-55826760D01*
X117466151Y-55941132D01*
X117262350Y-56089201D01*
X117262345Y-56089205D01*
X117122681Y-56228870D01*
X117061358Y-56262355D01*
X116991666Y-56257371D01*
X116947319Y-56228870D01*
X116807654Y-56089205D01*
X116807649Y-56089201D01*
X116603848Y-55941132D01*
X116603847Y-55941131D01*
X116603845Y-55941130D01*
X116533747Y-55905413D01*
X116379383Y-55826760D01*
X116139785Y-55748910D01*
X115890962Y-55709500D01*
X115639038Y-55709500D01*
X115572738Y-55720001D01*
X115390214Y-55748910D01*
X115150616Y-55826760D01*
X114926151Y-55941132D01*
X114722350Y-56089201D01*
X114722345Y-56089205D01*
X114544205Y-56267345D01*
X114544201Y-56267350D01*
X114396132Y-56471151D01*
X114281760Y-56695616D01*
X114203910Y-56935214D01*
X114164500Y-57184038D01*
X97403984Y-57184038D01*
X95549674Y-55329727D01*
X95549673Y-55329726D01*
X95475096Y-55279896D01*
X95443127Y-55258535D01*
X95324744Y-55209499D01*
X95324738Y-55209497D01*
X95199071Y-55184500D01*
X95199069Y-55184500D01*
X81670931Y-55184500D01*
X81670929Y-55184500D01*
X81545261Y-55209497D01*
X81545255Y-55209499D01*
X81426874Y-55258534D01*
X81320326Y-55329726D01*
X77029726Y-59620326D01*
X76958534Y-59726874D01*
X76909499Y-59845255D01*
X76909497Y-59845261D01*
X76884500Y-59970928D01*
X76884500Y-72114192D01*
X76864815Y-72181231D01*
X76848181Y-72201873D01*
X75231873Y-73818181D01*
X75170550Y-73851666D01*
X75144192Y-73854500D01*
X74554409Y-73854500D01*
X74487370Y-73834815D01*
X74454091Y-73803386D01*
X74393741Y-73720321D01*
X74259679Y-73586259D01*
X74106296Y-73474819D01*
X73937368Y-73388746D01*
X73827139Y-73352930D01*
X73769465Y-73313493D01*
X73742267Y-73249135D01*
X73754182Y-73180288D01*
X73801426Y-73128813D01*
X73827138Y-73117070D01*
X73937368Y-73081254D01*
X74106296Y-72995181D01*
X74259679Y-72883741D01*
X74393741Y-72749679D01*
X74505181Y-72596296D01*
X74591254Y-72427368D01*
X74649842Y-72247055D01*
X74672739Y-72102485D01*
X74679500Y-72059800D01*
X74679500Y-71870199D01*
X74659908Y-71746500D01*
X74649842Y-71682945D01*
X74591254Y-71502632D01*
X74591252Y-71502629D01*
X74591252Y-71502627D01*
X74505180Y-71333703D01*
X74477136Y-71295104D01*
X74393741Y-71180321D01*
X74259679Y-71046259D01*
X74106296Y-70934819D01*
X73937368Y-70848746D01*
X73827139Y-70812930D01*
X73769465Y-70773493D01*
X73742267Y-70709135D01*
X73754182Y-70640288D01*
X73801426Y-70588813D01*
X73827138Y-70577070D01*
X73937368Y-70541254D01*
X74106296Y-70455181D01*
X74259679Y-70343741D01*
X74393741Y-70209679D01*
X74505181Y-70056296D01*
X74591254Y-69887368D01*
X74649842Y-69707055D01*
X74672775Y-69562257D01*
X74679500Y-69519800D01*
X74679500Y-69330199D01*
X74654298Y-69171081D01*
X74649842Y-69142945D01*
X74591254Y-68962632D01*
X74591252Y-68962629D01*
X74591252Y-68962627D01*
X74505180Y-68793703D01*
X74422191Y-68679479D01*
X74393741Y-68640321D01*
X74259679Y-68506259D01*
X74106296Y-68394819D01*
X73937368Y-68308746D01*
X73827139Y-68272930D01*
X73769465Y-68233493D01*
X73742267Y-68169135D01*
X73754182Y-68100288D01*
X73801426Y-68048813D01*
X73827138Y-68037070D01*
X73937368Y-68001254D01*
X74106296Y-67915181D01*
X74259679Y-67803741D01*
X74393741Y-67669679D01*
X74505181Y-67516296D01*
X74591254Y-67347368D01*
X74649842Y-67167055D01*
X74673579Y-67017182D01*
X74679500Y-66979800D01*
X74679500Y-66790199D01*
X74663023Y-66686171D01*
X74649842Y-66602945D01*
X74591254Y-66422632D01*
X74591252Y-66422629D01*
X74591252Y-66422627D01*
X74545846Y-66333515D01*
X74505181Y-66253704D01*
X74393741Y-66100321D01*
X74259679Y-65966259D01*
X74106296Y-65854819D01*
X73937372Y-65768747D01*
X73840299Y-65737206D01*
X73757055Y-65710158D01*
X73757051Y-65710157D01*
X73757050Y-65710157D01*
X73569800Y-65680500D01*
X73569796Y-65680500D01*
X73380204Y-65680500D01*
X73380200Y-65680500D01*
X73192949Y-65710157D01*
X73192946Y-65710157D01*
X73192945Y-65710158D01*
X73134482Y-65729153D01*
X73012627Y-65768747D01*
X72843703Y-65854819D01*
X72690319Y-65966260D01*
X72556260Y-66100319D01*
X72444819Y-66253703D01*
X72358747Y-66422627D01*
X72325014Y-66526447D01*
X72304185Y-66590553D01*
X72300157Y-66602949D01*
X72270500Y-66790199D01*
X71135500Y-66790199D01*
X71135500Y-62968713D01*
X72759500Y-62968713D01*
X72759500Y-63181286D01*
X72792753Y-63391239D01*
X72858444Y-63593414D01*
X72954951Y-63782820D01*
X73079890Y-63954786D01*
X73230213Y-64105109D01*
X73402179Y-64230048D01*
X73402181Y-64230049D01*
X73402184Y-64230051D01*
X73591588Y-64326557D01*
X73793757Y-64392246D01*
X74003713Y-64425500D01*
X74003714Y-64425500D01*
X74216286Y-64425500D01*
X74216287Y-64425500D01*
X74426243Y-64392246D01*
X74628412Y-64326557D01*
X74817816Y-64230051D01*
X74921267Y-64154890D01*
X74989786Y-64105109D01*
X74989788Y-64105106D01*
X74989792Y-64105104D01*
X75140104Y-63954792D01*
X75140106Y-63954788D01*
X75140109Y-63954786D01*
X75265048Y-63782820D01*
X75265047Y-63782820D01*
X75265051Y-63782816D01*
X75361557Y-63593412D01*
X75427246Y-63391243D01*
X75460500Y-63181287D01*
X75460500Y-62968713D01*
X75427246Y-62758757D01*
X75361557Y-62556588D01*
X75265051Y-62367184D01*
X75265049Y-62367181D01*
X75265048Y-62367179D01*
X75140109Y-62195213D01*
X74989786Y-62044890D01*
X74817820Y-61919951D01*
X74628414Y-61823444D01*
X74628413Y-61823443D01*
X74628412Y-61823443D01*
X74426243Y-61757754D01*
X74426241Y-61757753D01*
X74426240Y-61757753D01*
X74264957Y-61732208D01*
X74216287Y-61724500D01*
X74003713Y-61724500D01*
X73955042Y-61732208D01*
X73793760Y-61757753D01*
X73591585Y-61823444D01*
X73402179Y-61919951D01*
X73230213Y-62044890D01*
X73079890Y-62195213D01*
X72954951Y-62367179D01*
X72858444Y-62556585D01*
X72792753Y-62758760D01*
X72759500Y-62968713D01*
X71135500Y-62968713D01*
X71135500Y-56959500D01*
X71155185Y-56892461D01*
X71207989Y-56846706D01*
X71259500Y-56835500D01*
X71561067Y-56835500D01*
X71628106Y-56855185D01*
X71671552Y-56903205D01*
X71729950Y-57017817D01*
X71729956Y-57017826D01*
X71854890Y-57189786D01*
X72005213Y-57340109D01*
X72177179Y-57465048D01*
X72177181Y-57465049D01*
X72177184Y-57465051D01*
X72366588Y-57561557D01*
X72568757Y-57627246D01*
X72778713Y-57660500D01*
X72778714Y-57660500D01*
X72991286Y-57660500D01*
X72991287Y-57660500D01*
X73201243Y-57627246D01*
X73403412Y-57561557D01*
X73592816Y-57465051D01*
X73678224Y-57402999D01*
X73764786Y-57340109D01*
X73764788Y-57340106D01*
X73764792Y-57340104D01*
X73915104Y-57189792D01*
X73915106Y-57189788D01*
X73915109Y-57189786D01*
X74040048Y-57017820D01*
X74040050Y-57017817D01*
X74040051Y-57017816D01*
X74136557Y-56828412D01*
X74202246Y-56626243D01*
X74235500Y-56416287D01*
X74235500Y-56203713D01*
X74202246Y-55993757D01*
X74136557Y-55791588D01*
X74040051Y-55602184D01*
X74040049Y-55602181D01*
X74040048Y-55602179D01*
X73915109Y-55430213D01*
X73764786Y-55279890D01*
X73592817Y-55154949D01*
X73478204Y-55096550D01*
X73427409Y-55048576D01*
X73410500Y-54986066D01*
X73410500Y-54559500D01*
X73430185Y-54492461D01*
X73482989Y-54446706D01*
X73534500Y-54435500D01*
X142235500Y-54435500D01*
X142302539Y-54455185D01*
G37*
%TD.AperFunction*%
%TD*%
M02*
