%TF.GenerationSoftware,KiCad,Pcbnew,9.0.2*%
%TF.CreationDate,2025-08-08T12:44:55+02:00*%
%TF.ProjectId,PCB_MainBoard,5043425f-4d61-4696-9e42-6f6172642e6b,rev?*%
%TF.SameCoordinates,Original*%
%TF.FileFunction,Soldermask,Top*%
%TF.FilePolarity,Negative*%
%FSLAX46Y46*%
G04 Gerber Fmt 4.6, Leading zero omitted, Abs format (unit mm)*
G04 Created by KiCad (PCBNEW 9.0.2) date 2025-08-08 12:44:55*
%MOMM*%
%LPD*%
G01*
G04 APERTURE LIST*
G04 Aperture macros list*
%AMRoundRect*
0 Rectangle with rounded corners*
0 $1 Rounding radius*
0 $2 $3 $4 $5 $6 $7 $8 $9 X,Y pos of 4 corners*
0 Add a 4 corners polygon primitive as box body*
4,1,4,$2,$3,$4,$5,$6,$7,$8,$9,$2,$3,0*
0 Add four circle primitives for the rounded corners*
1,1,$1+$1,$2,$3*
1,1,$1+$1,$4,$5*
1,1,$1+$1,$6,$7*
1,1,$1+$1,$8,$9*
0 Add four rect primitives between the rounded corners*
20,1,$1+$1,$2,$3,$4,$5,0*
20,1,$1+$1,$4,$5,$6,$7,0*
20,1,$1+$1,$6,$7,$8,$9,0*
20,1,$1+$1,$8,$9,$2,$3,0*%
G04 Aperture macros list end*
%ADD10C,1.600000*%
%ADD11C,2.200000*%
%ADD12RoundRect,0.102000X0.704000X-0.704000X0.704000X0.704000X-0.704000X0.704000X-0.704000X-0.704000X0*%
%ADD13C,1.612000*%
%ADD14C,3.720000*%
%ADD15RoundRect,0.250000X0.725000X-0.600000X0.725000X0.600000X-0.725000X0.600000X-0.725000X-0.600000X0*%
%ADD16O,1.950000X1.700000*%
%ADD17RoundRect,0.050800X1.000000X1.000000X-1.000000X1.000000X-1.000000X-1.000000X1.000000X-1.000000X0*%
%ADD18C,2.101600*%
%ADD19C,1.700000*%
%ADD20RoundRect,0.250000X-0.600000X-0.600000X0.600000X-0.600000X0.600000X0.600000X-0.600000X0.600000X0*%
%ADD21C,1.728000*%
%ADD22RoundRect,0.102000X-0.762000X-0.762000X0.762000X-0.762000X0.762000X0.762000X-0.762000X0.762000X0*%
%ADD23C,1.901600*%
%ADD24C,3.301600*%
%ADD25RoundRect,0.249999X0.850001X0.850001X-0.850001X0.850001X-0.850001X-0.850001X0.850001X-0.850001X0*%
G04 APERTURE END LIST*
D10*
%TO.C,R3*%
X117825000Y-79935000D03*
X125445000Y-79935000D03*
%TD*%
D11*
%TO.C,U3*%
X74110000Y-63075000D03*
X93223500Y-63075000D03*
D12*
X93795000Y-66885000D03*
D13*
X93795000Y-69425000D03*
X93795000Y-71965000D03*
X93795000Y-74505000D03*
X93795000Y-77045000D03*
X93795000Y-79585000D03*
X93795000Y-82125000D03*
X93795000Y-84665000D03*
X93795000Y-87205000D03*
X93795000Y-89745000D03*
X93795000Y-92285000D03*
X93795000Y-94825000D03*
X93795000Y-97365000D03*
X93795000Y-99905000D03*
X93795000Y-102445000D03*
X93795000Y-104985000D03*
X73475000Y-94825000D03*
X73475000Y-92285000D03*
X73475000Y-89745000D03*
X73475000Y-87205000D03*
X73475000Y-84665000D03*
X73475000Y-82125000D03*
X73475000Y-79585000D03*
X73475000Y-77045000D03*
X73475000Y-74505000D03*
X73475000Y-71965000D03*
X73475000Y-69425000D03*
X73475000Y-66885000D03*
D14*
X92525000Y-108795000D03*
X74745000Y-108795000D03*
%TD*%
D10*
%TO.C,R4*%
X117825000Y-83935000D03*
X125445000Y-83935000D03*
%TD*%
D15*
%TO.C,J2*%
X131135000Y-89935000D03*
D16*
X131135000Y-87435000D03*
X131135000Y-84935000D03*
X131135000Y-82435000D03*
X131135000Y-79935000D03*
%TD*%
D17*
%TO.C,U1*%
X141385000Y-65127000D03*
D18*
X141385000Y-73247000D03*
X126405000Y-65127000D03*
X126405000Y-73247000D03*
%TD*%
D19*
%TO.C,J5*%
X120925000Y-70265000D03*
X118385000Y-70265000D03*
X120925000Y-67725000D03*
X118385000Y-67725000D03*
X120925000Y-65185000D03*
D20*
X118385000Y-65185000D03*
%TD*%
D21*
%TO.C,U2*%
X111795000Y-71515000D03*
X101635000Y-71515000D03*
X111795000Y-68975000D03*
D22*
X111795000Y-63895000D03*
D21*
X111795000Y-66435000D03*
X111795000Y-74055000D03*
X111795000Y-76595000D03*
X101635000Y-68975000D03*
D22*
X101635000Y-63895000D03*
D21*
X101635000Y-66435000D03*
X101635000Y-74055000D03*
X101635000Y-76595000D03*
%TD*%
D23*
%TO.C,U7*%
X106720000Y-90891800D03*
X119420000Y-90891800D03*
X111800000Y-90891800D03*
X114340000Y-90891800D03*
X116880000Y-90891800D03*
X121960000Y-90891800D03*
X109260000Y-90891800D03*
X104180000Y-90891800D03*
D24*
X121960000Y-108671800D03*
X104180000Y-108671800D03*
%TD*%
D11*
%TO.C,REF\u002A\u002A*%
X138885000Y-105810000D03*
%TD*%
D15*
%TO.C,J1*%
X131135000Y-105335000D03*
D16*
X131135000Y-102835000D03*
X131135000Y-100335000D03*
X131135000Y-97835000D03*
%TD*%
D11*
%TO.C,REF\u002A\u002A*%
X142885000Y-56310000D03*
%TD*%
D25*
%TO.C,J7*%
X123385000Y-57310000D03*
D11*
X120845000Y-57310000D03*
X118305000Y-57310000D03*
X115765000Y-57310000D03*
%TD*%
%TO.C,REF\u002A\u002A*%
X72885000Y-56310000D03*
%TD*%
M02*
