M48
; DRILL file {KiCad 9.0.2} date 2025-08-08T12:44:59+0200
; FORMAT={-:-/ absolute / metric / decimal}
; #@! TF.CreationDate,2025-08-08T12:44:59+02:00
; #@! TF.GenerationSoftware,Kicad,Pcbnew,9.0.2
; #@! TF.FileFunction,Plated,1,2,PTH
FMAT,2
METRIC
; #@! TA.AperFunction,Plated,PTH,ViaDrill
T1C0.300
; #@! TA.AperFunction,Plated,PTH,ComponentDrill
T2C0.800
; #@! TA.AperFunction,Plated,PTH,ComponentDrill
T3C0.900
; #@! TA.AperFunction,Plated,PTH,ComponentDrill
T4C0.950
; #@! TA.AperFunction,Plated,PTH,ComponentDrill
T5C1.000
; #@! TA.AperFunction,Plated,PTH,ComponentDrill
T6C1.016
; #@! TA.AperFunction,Plated,PTH,ComponentDrill
T7C1.020
; #@! TA.AperFunction,Plated,PTH,ComponentDrill
T8C1.100
; #@! TA.AperFunction,Plated,PTH,ComponentDrill
T9C2.500
%
G90
G05
T1
X117.235Y-86.535
T2
X117.825Y-79.935
X117.825Y-83.935
X125.445Y-79.935
X125.445Y-83.935
T3
X73.475Y-66.885
X73.475Y-69.425
X73.475Y-71.965
X73.475Y-74.505
X73.475Y-77.045
X73.475Y-79.585
X73.475Y-82.125
X73.475Y-84.665
X73.475Y-87.205
X73.475Y-89.745
X73.475Y-92.285
X73.475Y-94.825
X93.795Y-66.885
X93.795Y-69.425
X93.795Y-71.965
X93.795Y-74.505
X93.795Y-77.045
X93.795Y-79.585
X93.795Y-82.125
X93.795Y-84.665
X93.795Y-87.205
X93.795Y-89.745
X93.795Y-92.285
X93.795Y-94.825
X93.795Y-97.365
X93.795Y-99.905
X93.795Y-102.445
X93.795Y-104.985
T4
X131.135Y-79.935
X131.135Y-82.435
X131.135Y-84.935
X131.135Y-87.435
X131.135Y-89.935
X131.135Y-97.835
X131.135Y-100.335
X131.135Y-102.835
X131.135Y-105.335
T5
X118.385Y-65.185
X118.385Y-67.725
X118.385Y-70.265
X120.925Y-65.185
X120.925Y-67.725
X120.925Y-70.265
T6
X101.635Y-63.895
X101.635Y-66.435
X101.635Y-68.975
X101.635Y-71.515
X101.635Y-74.055
X101.635Y-76.595
X111.795Y-63.895
X111.795Y-66.435
X111.795Y-68.975
X111.795Y-71.515
X111.795Y-74.055
X111.795Y-76.595
T7
X104.18Y-90.892
X106.72Y-90.892
X109.26Y-90.892
X111.8Y-90.892
X114.34Y-90.892
X116.88Y-90.892
X119.42Y-90.892
X121.96Y-90.892
X126.405Y-65.127
X126.405Y-73.247
X141.385Y-65.127
X141.385Y-73.247
T8
X115.765Y-57.31
X118.305Y-57.31
X120.845Y-57.31
X123.385Y-57.31
T9
X74.745Y-108.795
X92.525Y-108.795
X104.18Y-108.672
X121.96Y-108.672
M30
