ISO-10303-21;
HEADER;
FILE_DESCRIPTION (( 'STEP AP214' ),
    '1' );
FILE_NAME ('couvercle_panneau.STEP',
    '2025-07-21T09:55:25',
    ( '' ),
    ( '' ),
    'SwSTEP 2.0',
    'SolidWorks 2025',
    '' );
FILE_SCHEMA (( 'AUTOMOTIVE_DESIGN' ));
ENDSEC;

DATA;
#1 = CARTESIAN_POINT ( 'NONE',  ( -7.500000000000002665, 1.550000000000000266, 1.500000000000000000 ) ) ;
#2 = DIRECTION ( 'NONE',  ( 0.000000000000000000, -0.4472135954999579277, -0.8944271909999158554 ) ) ;
#3 = ORIENTED_EDGE ( 'NONE', *, *, #323, .F. ) ;
#4 = CARTESIAN_POINT ( 'NONE',  ( -3.050000000000005151, 110.6875000000000000, 1.500000000000000000 ) ) ;
#5 = ADVANCED_BREP_SHAPE_REPRESENTATION ( 'couvercle_panneau', ( #339, #897 ), #964 ) ;
#6 = FACE_BOUND ( 'NONE', #769, .T. ) ;
#7 = EDGE_CURVE ( 'NONE', #249, #229, #1183, .T. ) ;
#8 = CARTESIAN_POINT ( 'NONE',  ( -18.95000000000000995, 33.56249999999999289, 5.500000000000000888 ) ) ;
#9 = CARTESIAN_POINT ( 'NONE',  ( -12.50000000000000178, 3.050000000000000266, 1.500000000000000000 ) ) ;
#10 = PLANE ( 'NONE',  #1430 ) ;
#11 = DIRECTION ( 'NONE',  ( 2.602085213965208669E-16, -1.000000000000000000, 0.000000000000000000 ) ) ;
#12 = ORIENTED_EDGE ( 'NONE', *, *, #453, .F. ) ;
#13 = EDGE_CURVE ( 'NONE', #275, #482, #747, .T. ) ;
#14 = EDGE_LOOP ( 'NONE', ( #916, #434, #1425, #86, #1158, #364 ) ) ;
#15 = VECTOR ( 'NONE', #432, 1000.000000000000000 ) ;
#16 = DIRECTION ( 'NONE',  ( 1.000000000000000000, 0.000000000000000000, 0.000000000000000000 ) ) ;
#17 = VECTOR ( 'NONE', #1291, 1000.000000000000000 ) ;
#18 = CARTESIAN_POINT ( 'NONE',  ( -7.500000000000002665, 142.6999999999999886, 1.500000000000000000 ) ) ;
#19 = ORIENTED_EDGE ( 'NONE', *, *, #250, .T. ) ;
#20 = ADVANCED_FACE ( 'NONE', ( #1199 ), #1093, .F. ) ;
#21 = VERTEX_POINT ( 'NONE', #203 ) ;
#22 = PLANE ( 'NONE',  #1432 ) ;
#23 = ORIENTED_EDGE ( 'NONE', *, *, #1294, .T. ) ;
#24 = LINE ( 'NONE', #903, #698 ) ;
#25 = ORIENTED_EDGE ( 'NONE', *, *, #102, .F. ) ;
#26 = VERTEX_POINT ( 'NONE', #406 ) ;
#27 = CARTESIAN_POINT ( 'NONE',  ( 0.000000000000000000, 0.000000000000000000, 1.500000000000000000 ) ) ;
#28 = ORIENTED_EDGE ( 'NONE', *, *, #674, .T. ) ;
#29 = DIRECTION ( 'NONE',  ( -1.000000000000000000, 0.000000000000000000, 0.000000000000000000 ) ) ;
#30 = ORIENTED_EDGE ( 'NONE', *, *, #942, .T. ) ;
#31 = DIRECTION ( 'NONE',  ( -2.602085213965208669E-16, 1.000000000000000000, -0.000000000000000000 ) ) ;
#32 = ORIENTED_EDGE ( 'NONE', *, *, #1370, .F. ) ;
#33 = CARTESIAN_POINT ( 'NONE',  ( -18.45000000000000639, 105.6874999999999858, 5.500000000000000888 ) ) ;
#34 = ADVANCED_FACE ( 'NONE', ( #1176 ), #951, .F. ) ;
#35 = COLOUR_RGB ( '',0.7921568627450980005, 0.8196078431372548767, 0.9333333333333333481 ) ;
#36 = DIRECTION ( 'NONE',  ( 0.000000000000000000, -1.000000000000000000, 0.000000000000000000 ) ) ;
#37 = VECTOR ( 'NONE', #1399, 1000.000000000000000 ) ;
#38 = PLANE ( 'NONE',  #84 ) ;
#39 = VERTEX_POINT ( 'NONE', #872 ) ;
#40 = PLANE ( 'NONE',  #427 ) ;
#41 = ORIENTED_EDGE ( 'NONE', *, *, #324, .F. ) ;
#42 = DIRECTION ( 'NONE',  ( 0.000000000000000000, 0.4472135954999579277, -0.8944271909999158554 ) ) ;
#43 = FACE_OUTER_BOUND ( 'NONE', #47, .T. ) ;
#44 = ORIENTED_EDGE ( 'NONE', *, *, #487, .T. ) ;
#45 = ADVANCED_FACE ( 'NONE', ( #1391 ), #1075, .T. ) ;
#46 = DIRECTION ( 'NONE',  ( 0.000000000000000000, -0.000000000000000000, -1.000000000000000000 ) ) ;
#47 = EDGE_LOOP ( 'NONE', ( #1362, #693, #745, #489 ) ) ;
#48 = CARTESIAN_POINT ( 'NONE',  ( -20.00000000000000355, 0.000000000000000000, 6.500000000000000888 ) ) ;
#49 = CARTESIAN_POINT ( 'NONE',  ( -3.050000000000003819, 105.6874999999999858, 6.500000000000000888 ) ) ;
#50 = CARTESIAN_POINT ( 'NONE',  ( -18.45000000000000639, 33.56249999999999289, 1.500000000000000000 ) ) ;
#51 = EDGE_LOOP ( 'NONE', ( #1256, #998, #1302, #194 ) ) ;
#52 = CARTESIAN_POINT ( 'NONE',  ( -20.00000000000000355, 0.000000000000000000, 1.500000000000000000 ) ) ;
#53 = DIRECTION ( 'NONE',  ( 0.000000000000000000, -1.000000000000000000, 0.000000000000000000 ) ) ;
#54 = EDGE_CURVE ( 'NONE', #1251, #249, #1282, .T. ) ;
#55 = VERTEX_POINT ( 'NONE', #1417 ) ;
#56 = CARTESIAN_POINT ( 'NONE',  ( -12.50000000000000178, 141.1999999999999886, 6.500000000000000888 ) ) ;
#57 = CARTESIAN_POINT ( 'NONE',  ( -18.95000000000000995, 105.6874999999999858, 5.500000000000000888 ) ) ;
#58 = CARTESIAN_POINT ( 'NONE',  ( -12.50000000000000178, 142.6999999999999886, 1.500000000000000000 ) ) ;
#59 = ORIENTED_EDGE ( 'NONE', *, *, #265, .F. ) ;
#60 = VECTOR ( 'NONE', #231, 1000.000000000000000 ) ;
#61 = CARTESIAN_POINT ( 'NONE',  ( 0.000000000000000000, 0.000000000000000000, 0.000000000000000000 ) ) ;
#62 = AXIS2_PLACEMENT_3D ( 'NONE', #758, #189, #979 ) ;
#63 = ORIENTED_EDGE ( 'NONE', *, *, #1054, .T. ) ;
#64 = EDGE_CURVE ( 'NONE', #994, #598, #1398, .T. ) ;
#65 = ORIENTED_EDGE ( 'NONE', *, *, #1018, .T. ) ;
#66 = ORIENTED_EDGE ( 'NONE', *, *, #620, .T. ) ;
#67 = FACE_OUTER_BOUND ( 'NONE', #1000, .T. ) ;
#68 = CARTESIAN_POINT ( 'NONE',  ( -18.95000000000000995, 38.56249999999999289, 5.500000000000000888 ) ) ;
#69 = ORIENTED_EDGE ( 'NONE', *, *, #714, .F. ) ;
#70 = EDGE_CURVE ( 'NONE', #589, #1109, #91, .T. ) ;
#71 = ADVANCED_FACE ( 'NONE', ( #1305 ), #530, .F. ) ;
#72 = CARTESIAN_POINT ( 'NONE',  ( -3.049999999999995381, 33.56249999999999289, 1.500000000000000000 ) ) ;
#73 = ORIENTED_EDGE ( 'NONE', *, *, #1213, .F. ) ;
#74 = PLANE ( 'NONE',  #1059 ) ;
#75 = CARTESIAN_POINT ( 'NONE',  ( -18.45000000000000639, 38.56249999999999289, 6.500000000000000888 ) ) ;
#76 = FILL_AREA_STYLE_COLOUR ( '', #35 ) ;
#77 = ORIENTED_EDGE ( 'NONE', *, *, #885, .T. ) ;
#78 = DIRECTION ( 'NONE',  ( -0.000000000000000000, -0.000000000000000000, -1.000000000000000000 ) ) ;
#79 = EDGE_LOOP ( 'NONE', ( #25, #218, #1214, #1313 ) ) ;
#80 = CARTESIAN_POINT ( 'NONE',  ( -16.94999999999999929, 110.6875000000000000, 6.500000000000000888 ) ) ;
#81 = CARTESIAN_POINT ( 'NONE',  ( -1.549999999999995381, 38.56249999999999289, 5.500000000000000888 ) ) ;
#82 = LINE ( 'NONE', #423, #351 ) ;
#83 = DIRECTION ( 'NONE',  ( 0.000000000000000000, 0.000000000000000000, -1.000000000000000000 ) ) ;
#84 = AXIS2_PLACEMENT_3D ( 'NONE', #141, #706, #1154 ) ;
#85 = VECTOR ( 'NONE', #856, 1000.000000000000000 ) ;
#86 = ORIENTED_EDGE ( 'NONE', *, *, #1224, .T. ) ;
#87 = VECTOR ( 'NONE', #654, 1000.000000000000114 ) ;
#88 = VECTOR ( 'NONE', #1169, 1000.000000000000000 ) ;
#89 = MECHANICAL_DESIGN_GEOMETRIC_PRESENTATION_REPRESENTATION (  '', ( #675 ), #1007 ) ;
#90 = PLANE ( 'NONE',  #848 ) ;
#91 = LINE ( 'NONE', #413, #877 ) ;
#92 = EDGE_CURVE ( 'NONE', #368, #761, #289, .T. ) ;
#93 = DIRECTION ( 'NONE',  ( 1.000000000000000000, 0.000000000000000000, 0.000000000000000000 ) ) ;
#94 = LINE ( 'NONE', #1071, #1329 ) ;
#95 = ADVANCED_FACE ( 'NONE', ( #615 ), #74, .T. ) ;
#96 = ORIENTED_EDGE ( 'NONE', *, *, #619, .F. ) ;
#97 = DIRECTION ( 'NONE',  ( 0.000000000000000000, -1.000000000000000000, -0.000000000000000000 ) ) ;
#98 = DIRECTION ( 'NONE',  ( -0.000000000000000000, -1.000000000000000000, -0.000000000000000000 ) ) ;
#99 = PLANE ( 'NONE',  #247 ) ;
#100 = PRODUCT_DEFINITION_SHAPE ( 'NONE', 'NONE',  #755 ) ;
#101 = SURFACE_STYLE_USAGE ( .BOTH. , #303 ) ;
#102 = EDGE_CURVE ( 'NONE', #110, #210, #771, .T. ) ;
#103 = DIRECTION ( 'NONE',  ( -0.000000000000000000, -0.000000000000000000, -1.000000000000000000 ) ) ;
#104 = ORIENTED_EDGE ( 'NONE', *, *, #409, .F. ) ;
#105 = LINE ( 'NONE', #881, #678 ) ;
#106 = CARTESIAN_POINT ( 'NONE',  ( 0.000000000000000000, 144.2500000000000000, 1.500000000000000000 ) ) ;
#107 = PLANE ( 'NONE',  #312 ) ;
#108 = DIRECTION ( 'NONE',  ( 0.000000000000000000, 1.000000000000000000, 0.000000000000000000 ) ) ;
#109 = VECTOR ( 'NONE', #78, 1000.000000000000000 ) ;
#110 = VERTEX_POINT ( 'NONE', #430 ) ;
#111 = EDGE_CURVE ( 'NONE', #902, #1266, #320, .T. ) ;
#112 = DIRECTION ( 'NONE',  ( 1.000000000000000000, 0.000000000000000000, 0.000000000000000000 ) ) ;
#113 = ORIENTED_EDGE ( 'NONE', *, *, #506, .F. ) ;
#114 = CARTESIAN_POINT ( 'NONE',  ( -12.50000000000000178, 1.050000000000000044, 5.500000000000000888 ) ) ;
#115 = CARTESIAN_POINT ( 'NONE',  ( -16.95000000000000639, 38.56249999999999289, 6.500000000000000888 ) ) ;
#116 = EDGE_CURVE ( 'NONE', #707, #1340, #650, .T. ) ;
#117 = FACE_BOUND ( 'NONE', #79, .T. ) ;
#118 = LINE ( 'NONE', #1120, #1145 ) ;
#119 = ORIENTED_EDGE ( 'NONE', *, *, #70, .F. ) ;
#120 = ORIENTED_EDGE ( 'NONE', *, *, #1274, .F. ) ;
#121 = DIRECTION ( 'NONE',  ( 0.000000000000000000, 0.000000000000000000, 1.000000000000000000 ) ) ;
#122 = PLANE ( 'NONE',  #1407 ) ;
#123 = ORIENTED_EDGE ( 'NONE', *, *, #481, .F. ) ;
#124 = EDGE_CURVE ( 'NONE', #229, #1390, #105, .T. ) ;
#125 = VERTEX_POINT ( 'NONE', #689 ) ;
#126 = VECTOR ( 'NONE', #365, 1000.000000000000000 ) ;
#127 = FACE_OUTER_BOUND ( 'NONE', #1166, .T. ) ;
#128 = VECTOR ( 'NONE', #381, 1000.000000000000000 ) ;
#129 = DIRECTION ( 'NONE',  ( 0.000000000000000000, -1.000000000000000000, -0.000000000000000000 ) ) ;
#130 = AXIS2_PLACEMENT_3D ( 'NONE', #195, #1069, #1314 ) ;
#131 = FACE_OUTER_BOUND ( 'NONE', #1226, .T. ) ;
#132 = ORIENTED_EDGE ( 'NONE', *, *, #1037, .F. ) ;
#133 = EDGE_LOOP ( 'NONE', ( #1186, #32, #671, #66 ) ) ;
#134 = DIRECTION ( 'NONE',  ( -1.000000000000000000, 0.000000000000000000, 0.000000000000000000 ) ) ;
#135 = CARTESIAN_POINT ( 'NONE',  ( -16.94999999999999929, 110.6875000000000000, 1.500000000000000000 ) ) ;
#136 = CARTESIAN_POINT ( 'NONE',  ( -1.049999999999995381, 38.56249999999999289, 5.500000000000000888 ) ) ;
#137 = ORIENTED_EDGE ( 'NONE', *, *, #1337, .F. ) ;
#138 = EDGE_CURVE ( 'NONE', #660, #1375, #280, .T. ) ;
#139 = ORIENTED_EDGE ( 'NONE', *, *, #645, .F. ) ;
#140 = DIRECTION ( 'NONE',  ( 1.000000000000000000, 0.000000000000000000, 0.000000000000000000 ) ) ;
#141 = CARTESIAN_POINT ( 'NONE',  ( 0.000000000000000000, 0.000000000000000000, 6.500000000000000888 ) ) ;
#142 = ORIENTED_EDGE ( 'NONE', *, *, #785, .F. ) ;
#143 = LINE ( 'NONE', #162, #333 ) ;
#144 = ORIENTED_EDGE ( 'NONE', *, *, #1224, .F. ) ;
#145 = CARTESIAN_POINT ( 'NONE',  ( 0.000000000000000000, 0.000000000000000000, 0.000000000000000000 ) ) ;
#146 = VECTOR ( 'NONE', #358, 1000.000000000000000 ) ;
#147 = ADVANCED_FACE ( 'NONE', ( #573 ), #817, .F. ) ;
#148 = FACE_OUTER_BOUND ( 'NONE', #1062, .T. ) ;
#149 = VECTOR ( 'NONE', #140, 1000.000000000000000 ) ;
#150 = DIRECTION ( 'NONE',  ( -0.000000000000000000, 0.000000000000000000, 1.000000000000000000 ) ) ;
#151 = ORIENTED_EDGE ( 'NONE', *, *, #1303, .F. ) ;
#152 = VECTOR ( 'NONE', #103, 1000.000000000000000 ) ;
#153 = VECTOR ( 'NONE', #622, 1000.000000000000000 ) ;
#154 = DIRECTION ( 'NONE',  ( 0.000000000000000000, 1.000000000000000000, 0.000000000000000000 ) ) ;
#155 = AXIS2_PLACEMENT_3D ( 'NONE', #571, #150, #681 ) ;
#156 = LINE ( 'NONE', #480, #804 ) ;
#157 = EDGE_LOOP ( 'NONE', ( #308, #1180, #225, #1057, #682, #911 ) ) ;
#158 = DIRECTION ( 'NONE',  ( -1.000000000000000000, 0.000000000000000000, 0.000000000000000000 ) ) ;
#159 = ADVANCED_FACE ( 'NONE', ( #1135 ), #697, .F. ) ;
#160 = DIRECTION ( 'NONE',  ( 0.000000000000000000, 0.000000000000000000, 1.000000000000000000 ) ) ;
#161 = ORIENTED_EDGE ( 'NONE', *, *, #315, .T. ) ;
#162 = CARTESIAN_POINT ( 'NONE',  ( -1.550000000000004929, 110.6875000000000000, 6.500000000000000888 ) ) ;
#163 = ORIENTED_EDGE ( 'NONE', *, *, #138, .F. ) ;
#164 = LINE ( 'NONE', #705, #493 ) ;
#165 = FACE_OUTER_BOUND ( 'NONE', #340, .T. ) ;
#166 = ORIENTED_EDGE ( 'NONE', *, *, #387, .F. ) ;
#167 = FACE_OUTER_BOUND ( 'NONE', #592, .T. ) ;
#168 = DIRECTION ( 'NONE',  ( -0.4472135954999579277, 0.000000000000000000, -0.8944271909999158554 ) ) ;
#169 = EDGE_CURVE ( 'NONE', #1167, #666, #926, .T. ) ;
#170 = VERTEX_POINT ( 'NONE', #264 ) ;
#171 = ORIENTED_EDGE ( 'NONE', *, *, #1111, .F. ) ;
#172 = VECTOR ( 'NONE', #36, 1000.000000000000000 ) ;
#173 = CARTESIAN_POINT ( 'NONE',  ( -7.500000000000002665, 143.1999999999999886, 5.500000000000000888 ) ) ;
#174 = ADVANCED_FACE ( 'NONE', ( #488 ), #917, .F. ) ;
#175 = DIRECTION ( 'NONE',  ( 1.000000000000000000, 0.000000000000000000, -0.000000000000000000 ) ) ;
#176 = VECTOR ( 'NONE', #648, 1000.000000000000000 ) ;
#177 = VECTOR ( 'NONE', #1402, 1000.000000000000000 ) ;
#178 = EDGE_CURVE ( 'NONE', #637, #260, #1257, .T. ) ;
#179 = ORIENTED_EDGE ( 'NONE', *, *, #1181, .T. ) ;
#180 = DIRECTION ( 'NONE',  ( 0.000000000000000000, -1.000000000000000000, 0.000000000000000000 ) ) ;
#181 = ORIENTED_EDGE ( 'NONE', *, *, #116, .F. ) ;
#182 = DIRECTION ( 'NONE',  ( -0.000000000000000000, -1.000000000000000000, -0.000000000000000000 ) ) ;
#183 = DIRECTION ( 'NONE',  ( -1.000000000000000000, 0.000000000000000000, 0.000000000000000000 ) ) ;
#184 = CARTESIAN_POINT ( 'NONE',  ( -3.049999999999995381, 38.56249999999999289, 6.500000000000000888 ) ) ;
#185 = ORIENTED_EDGE ( 'NONE', *, *, #1303, .T. ) ;
#186 = EDGE_CURVE ( 'NONE', #388, #255, #143, .T. ) ;
#187 = CARTESIAN_POINT ( 'NONE',  ( 0.000000000000000000, 0.000000000000000000, 0.000000000000000000 ) ) ;
#188 = ORIENTED_EDGE ( 'NONE', *, *, #1337, .T. ) ;
#189 = DIRECTION ( 'NONE',  ( 0.000000000000000000, 1.000000000000000000, 0.000000000000000000 ) ) ;
#190 = CARTESIAN_POINT ( 'NONE',  ( -18.45000000000000284, 105.6874999999999858, 6.500000000000000888 ) ) ;
#191 = ORIENTED_EDGE ( 'NONE', *, *, #468, .T. ) ;
#192 = CARTESIAN_POINT ( 'NONE',  ( -12.50000000000000178, 141.1999999999999886, 6.500000000000000888 ) ) ;
#193 = EDGE_CURVE ( 'NONE', #21, #976, #840, .T. ) ;
#194 = ORIENTED_EDGE ( 'NONE', *, *, #1328, .T. ) ;
#195 = CARTESIAN_POINT ( 'NONE',  ( 0.000000000000000000, 0.000000000000000000, 6.500000000000000888 ) ) ;
#196 = LINE ( 'NONE', #525, #464 ) ;
#197 = CARTESIAN_POINT ( 'NONE',  ( -12.50000000000000178, 142.6999999999999886, 6.500000000000000888 ) ) ;
#198 = VECTOR ( 'NONE', #1192, 1000.000000000000000 ) ;
#199 = VECTOR ( 'NONE', #627, 1000.000000000000114 ) ;
#200 = VERTEX_POINT ( 'NONE', #591 ) ;
#201 = LINE ( 'NONE', #1289, #1171 ) ;
#202 = ORIENTED_EDGE ( 'NONE', *, *, #703, .T. ) ;
#203 = CARTESIAN_POINT ( 'NONE',  ( -18.45000000000000639, 38.56249999999999289, 6.500000000000000888 ) ) ;
#204 = LINE ( 'NONE', #414, #873 ) ;
#205 = EDGE_CURVE ( 'NONE', #200, #668, #1147, .T. ) ;
#206 = LINE ( 'NONE', #431, #801 ) ;
#207 = CARTESIAN_POINT ( 'NONE',  ( -1.049999999999995381, 105.6874999999999858, 5.500000000000000888 ) ) ;
#208 = ORIENTED_EDGE ( 'NONE', *, *, #868, .F. ) ;
#209 = LINE ( 'NONE', #313, #199 ) ;
#210 = VERTEX_POINT ( 'NONE', #356 ) ;
#211 = DIRECTION ( 'NONE',  ( 1.000000000000000000, 0.000000000000000000, 0.000000000000000000 ) ) ;
#212 = LINE ( 'NONE', #399, #556 ) ;
#213 = LINE ( 'NONE', #1412, #892 ) ;
#214 = ADVANCED_FACE ( 'NONE', ( #1031 ), #1378, .F. ) ;
#215 = CARTESIAN_POINT ( 'NONE',  ( 0.000000000000000000, 0.000000000000000000, 0.000000000000000000 ) ) ;
#216 = ORIENTED_EDGE ( 'NONE', *, *, #1433, .T. ) ;
#217 = LINE ( 'NONE', #1318, #802 ) ;
#218 = ORIENTED_EDGE ( 'NONE', *, *, #913, .F. ) ;
#219 = DIRECTION ( 'NONE',  ( 0.000000000000000000, 1.000000000000000000, 0.000000000000000000 ) ) ;
#220 = CARTESIAN_POINT ( 'NONE',  ( -16.94999999999999929, 110.6875000000000000, 6.500000000000000888 ) ) ;
#221 = EDGE_CURVE ( 'NONE', #1422, #761, #584, .T. ) ;
#222 = VECTOR ( 'NONE', #551, 1000.000000000000000 ) ;
#223 = VECTOR ( 'NONE', #950, 1000.000000000000000 ) ;
#224 = ADVANCED_FACE ( 'NONE', ( #1264 ), #40, .T. ) ;
#225 = ORIENTED_EDGE ( 'NONE', *, *, #276, .F. ) ;
#226 = VECTOR ( 'NONE', #182, 1000.000000000000000 ) ;
#227 = FACE_OUTER_BOUND ( 'NONE', #1229, .T. ) ;
#228 = VECTOR ( 'NONE', #701, 1000.000000000000000 ) ;
#229 = VERTEX_POINT ( 'NONE', #1163 ) ;
#230 = FACE_BOUND ( 'NONE', #663, .T. ) ;
#231 = DIRECTION ( 'NONE',  ( 1.000000000000000000, -0.000000000000000000, -0.000000000000000000 ) ) ;
#232 = ORIENTED_EDGE ( 'NONE', *, *, #728, .T. ) ;
#233 = ORIENTED_EDGE ( 'NONE', *, *, #1389, .T. ) ;
#234 = CARTESIAN_POINT ( 'NONE',  ( -18.45000000000000284, 105.6874999999999858, 1.500000000000000000 ) ) ;
#235 = ORIENTED_EDGE ( 'NONE', *, *, #437, .F. ) ;
#236 = EDGE_CURVE ( 'NONE', #1390, #589, #938, .T. ) ;
#237 = CARTESIAN_POINT ( 'NONE',  ( -16.95000000000000639, 38.56249999999999289, 6.500000000000000888 ) ) ;
#238 = CARTESIAN_POINT ( 'NONE',  ( 0.000000000000000000, 144.2500000000000000, 1.500000000000000000 ) ) ;
#239 = VERTEX_POINT ( 'NONE', #378 ) ;
#240 = ORIENTED_EDGE ( 'NONE', *, *, #1241, .T. ) ;
#241 = DIRECTION ( 'NONE',  ( -0.000000000000000000, -0.000000000000000000, -1.000000000000000000 ) ) ;
#242 = EDGE_CURVE ( 'NONE', #482, #1371, #833, .T. ) ;
#243 = CARTESIAN_POINT ( 'NONE',  ( -12.50000000000000178, 3.050000000000000266, 1.500000000000000000 ) ) ;
#244 = ORIENTED_EDGE ( 'NONE', *, *, #341, .T. ) ;
#245 = ORIENTED_EDGE ( 'NONE', *, *, #1138, .F. ) ;
#246 = DIRECTION ( 'NONE',  ( 0.000000000000000000, 0.000000000000000000, -1.000000000000000000 ) ) ;
#247 = AXIS2_PLACEMENT_3D ( 'NONE', #1427, #422, #874 ) ;
#248 = LINE ( 'NONE', #946, #555 ) ;
#249 = VERTEX_POINT ( 'NONE', #1361 ) ;
#250 = EDGE_CURVE ( 'NONE', #819, #368, #156, .T. ) ;
#251 = ORIENTED_EDGE ( 'NONE', *, *, #506, .T. ) ;
#252 = CARTESIAN_POINT ( 'NONE',  ( -20.00000000000000355, 144.2500000000000000, 1.500000000000000000 ) ) ;
#253 = LINE ( 'NONE', #922, #1349 ) ;
#254 = FACE_OUTER_BOUND ( 'NONE', #317, .T. ) ;
#255 = VERTEX_POINT ( 'NONE', #1369 ) ;
#256 = DIRECTION ( 'NONE',  ( 0.000000000000000000, 1.000000000000000000, 0.000000000000000000 ) ) ;
#257 = EDGE_CURVE ( 'NONE', #568, #1023, #293, .T. ) ;
#258 = EDGE_LOOP ( 'NONE', ( #1019, #350, #806, #822 ) ) ;
#259 = DIRECTION ( 'NONE',  ( 0.000000000000000000, 1.000000000000000000, 0.000000000000000000 ) ) ;
#260 = VERTEX_POINT ( 'NONE', #860 ) ;
#261 = CARTESIAN_POINT ( 'NONE',  ( -3.050000000000003819, 105.6874999999999858, 1.500000000000000000 ) ) ;
#262 = DIRECTION ( 'NONE',  ( -1.000000000000000000, 0.000000000000000000, -0.000000000000000000 ) ) ;
#263 = ORIENTED_EDGE ( 'NONE', *, *, #665, .T. ) ;
#264 = CARTESIAN_POINT ( 'NONE',  ( -1.549999999999995381, 33.56249999999999289, 1.500000000000000000 ) ) ;
#265 = EDGE_CURVE ( 'NONE', #272, #388, #1179, .T. ) ;
#266 = EDGE_LOOP ( 'NONE', ( #1203, #1130, #1128, #463 ) ) ;
#267 = ADVANCED_FACE ( 'NONE', ( #749 ), #1316, .F. ) ;
#268 = CARTESIAN_POINT ( 'NONE',  ( -7.500000000000002665, 1.050000000000000044, 5.500000000000000888 ) ) ;
#269 = DIRECTION ( 'NONE',  ( 0.000000000000000000, -0.8944271909999159664, 0.4472135954999579832 ) ) ;
#270 = AXIS2_PLACEMENT_3D ( 'NONE', #977, #870, #642 ) ;
#271 = LINE ( 'NONE', #50, #871 ) ;
#272 = VERTEX_POINT ( 'NONE', #1064 ) ;
#273 = VECTOR ( 'NONE', #929, 1000.000000000000000 ) ;
#274 = CARTESIAN_POINT ( 'NONE',  ( -3.050000000000005151, 110.6875000000000000, 6.500000000000000888 ) ) ;
#275 = VERTEX_POINT ( 'NONE', #190 ) ;
#276 = EDGE_CURVE ( 'NONE', #1390, #1251, #316, .T. ) ;
#277 = DIRECTION ( 'NONE',  ( -0.8944271909999159664, 0.000000000000000000, 0.4472135954999579832 ) ) ;
#278 = VERTEX_POINT ( 'NONE', #1420 ) ;
#279 = DIRECTION ( 'NONE',  ( -0.000000000000000000, -0.000000000000000000, -1.000000000000000000 ) ) ;
#280 = LINE ( 'NONE', #1354, #991 ) ;
#281 = EDGE_LOOP ( 'NONE', ( #614, #12, #452, #1190 ) ) ;
#282 = LINE ( 'NONE', #1126, #1215 ) ;
#283 = PLANE ( 'NONE',  #1265 ) ;
#284 = ORIENTED_EDGE ( 'NONE', *, *, #569, .T. ) ;
#285 = DIRECTION ( 'NONE',  ( 0.000000000000000000, 0.000000000000000000, 1.000000000000000000 ) ) ;
#286 = ORIENTED_EDGE ( 'NONE', *, *, #347, .T. ) ;
#287 = FACE_OUTER_BOUND ( 'NONE', #392, .T. ) ;
#288 = VERTEX_POINT ( 'NONE', #532 ) ;
#289 = LINE ( 'NONE', #730, #226 ) ;
#290 = AXIS2_PLACEMENT_3D ( 'NONE', #1408, #1424, #386 ) ;
#291 = LINE ( 'NONE', #616, #332 ) ;
#292 = LINE ( 'NONE', #1428, #1081 ) ;
#293 = LINE ( 'NONE', #197, #177 ) ;
#294 = ADVANCED_FACE ( 'NONE', ( #416 ), #981, .T. ) ;
#295 = ORIENTED_EDGE ( 'NONE', *, *, #546, .F. ) ;
#296 = DIRECTION ( 'NONE',  ( -0.000000000000000000, -0.000000000000000000, -1.000000000000000000 ) ) ;
#297 = DIRECTION ( 'NONE',  ( 1.000000000000000000, 2.602085213965208669E-16, -0.000000000000000000 ) ) ;
#298 = PLANE ( 'NONE',  #62 ) ;
#299 = VERTEX_POINT ( 'NONE', #207 ) ;
#300 = EDGE_CURVE ( 'NONE', #710, #855, #1300, .T. ) ;
#301 = PLANE ( 'NONE',  #941 ) ;
#302 = DIRECTION ( 'NONE',  ( 0.000000000000000000, -1.000000000000000000, 0.000000000000000000 ) ) ;
#303 = SURFACE_SIDE_STYLE ('',( #1307 ) ) ;
#304 = LINE ( 'NONE', #750, #394 ) ;
#305 = ORIENTED_EDGE ( 'NONE', *, *, #169, .T. ) ;
#306 = ADVANCED_FACE ( 'NONE', ( #400 ), #876, .T. ) ;
#307 = FACE_OUTER_BOUND ( 'NONE', #504, .T. ) ;
#308 = ORIENTED_EDGE ( 'NONE', *, *, #1096, .T. ) ;
#309 = LINE ( 'NONE', #81, #516 ) ;
#310 = CARTESIAN_POINT ( 'NONE',  ( -16.94999999999999929, 110.6875000000000000, 6.500000000000000888 ) ) ;
#311 = VECTOR ( 'NONE', #1372, 1000.000000000000000 ) ;
#312 = AXIS2_PLACEMENT_3D ( 'NONE', #310, #1077, #1178 ) ;
#313 = CARTESIAN_POINT ( 'NONE',  ( -18.45000000000000639, 33.56249999999999289, 6.500000000000000888 ) ) ;
#314 = CARTESIAN_POINT ( 'NONE',  ( -7.500000000000002665, 142.6999999999999886, 5.500000000000000888 ) ) ;
#315 = EDGE_CURVE ( 'NONE', #1422, #278, #634, .T. ) ;
#316 = LINE ( 'NONE', #184, #1353 ) ;
#317 = EDGE_LOOP ( 'NONE', ( #144, #1239, #77, #1360 ) ) ;
#318 = CARTESIAN_POINT ( 'NONE',  ( -20.00000000000000355, 144.2500000000000000, 1.500000000000000000 ) ) ;
#319 = VERTEX_POINT ( 'NONE', #408 ) ;
#320 = LINE ( 'NONE', #987, #496 ) ;
#321 = ADVANCED_FACE ( 'NONE', ( #1095 ), #617, .F. ) ;
#322 = CARTESIAN_POINT ( 'NONE',  ( -1.549999999999995381, 105.6874999999999858, 6.500000000000000888 ) ) ;
#323 = EDGE_CURVE ( 'NONE', #1281, #1060, #213, .T. ) ;
#324 = EDGE_CURVE ( 'NONE', #1060, #21, #94, .T. ) ;
#325 = APPLICATION_CONTEXT ( 'automotive_design' ) ;
#326 = CARTESIAN_POINT ( 'NONE',  ( -7.500000000000002665, 142.6999999999999886, 6.500000000000000888 ) ) ;
#327 = CARTESIAN_POINT ( 'NONE',  ( -3.049999999999995381, 33.56249999999999289, 6.500000000000000888 ) ) ;
#328 = CARTESIAN_POINT ( 'NONE',  ( -18.95000000000000995, 105.6874999999999858, 5.500000000000000888 ) ) ;
#329 = LINE ( 'NONE', #652, #847 ) ;
#330 = ORIENTED_EDGE ( 'NONE', *, *, #453, .T. ) ;
#331 = AXIS2_PLACEMENT_3D ( 'NONE', #1207, #1393, #767 ) ;
#332 = VECTOR ( 'NONE', #517, 1000.000000000000000 ) ;
#333 = VECTOR ( 'NONE', #31, 1000.000000000000000 ) ;
#334 = CARTESIAN_POINT ( 'NONE',  ( -1.550000000000003597, 105.6874999999999858, 1.500000000000000000 ) ) ;
#335 = VECTOR ( 'NONE', #867, 1000.000000000000000 ) ;
#336 = DIRECTION ( 'NONE',  ( -1.000000000000000000, 0.000000000000000000, -0.000000000000000000 ) ) ;
#337 = LINE ( 'NONE', #1233, #898 ) ;
#338 = ORIENTED_EDGE ( 'NONE', *, *, #766, .T. ) ;
#339 = MANIFOLD_SOLID_BREP ( 'Mirror5', #1380 ) ;
#340 = EDGE_LOOP ( 'NONE', ( #295, #879, #940, #721, #1338, #286 ) ) ;
#341 = EDGE_CURVE ( 'NONE', #170, #376, #337, .T. ) ;
#342 = DIRECTION ( 'NONE',  ( 2.602085213965208669E-16, 1.000000000000000000, 0.000000000000000000 ) ) ;
#343 = CARTESIAN_POINT ( 'NONE',  ( -1.550000000000004929, 110.6875000000000000, 1.500000000000000000 ) ) ;
#344 = DIRECTION ( 'NONE',  ( -0.000000000000000000, 1.000000000000000000, -0.000000000000000000 ) ) ;
#345 = EDGE_LOOP ( 'NONE', ( #132, #887, #142, #1395, #602, #566 ) ) ;
#346 = LINE ( 'NONE', #1231, #631 ) ;
#347 = EDGE_CURVE ( 'NONE', #907, #791, #1284, .T. ) ;
#348 = FACE_OUTER_BOUND ( 'NONE', #258, .T. ) ;
#349 = ORIENTED_EDGE ( 'NONE', *, *, #714, .T. ) ;
#350 = ORIENTED_EDGE ( 'NONE', *, *, #790, .F. ) ;
#351 = VECTOR ( 'NONE', #1411, 1000.000000000000000 ) ;
#352 = DIRECTION ( 'NONE',  ( 0.000000000000000000, 1.000000000000000000, 0.000000000000000000 ) ) ;
#353 = DIRECTION ( 'NONE',  ( 0.000000000000000000, 1.000000000000000000, 0.000000000000000000 ) ) ;
#354 = ORIENTED_EDGE ( 'NONE', *, *, #1342, .T. ) ;
#355 = EDGE_CURVE ( 'NONE', #791, #486, #1098, .T. ) ;
#356 = CARTESIAN_POINT ( 'NONE',  ( -7.500000000000002665, 3.050000000000000266, 1.500000000000000000 ) ) ;
#357 = ORIENTED_EDGE ( 'NONE', *, *, #1267, .T. ) ;
#358 = DIRECTION ( 'NONE',  ( 1.000000000000000000, 0.000000000000000000, 0.000000000000000000 ) ) ;
#359 = PLANE ( 'NONE',  #1056 ) ;
#360 = PLANE ( 'NONE',  #1194 ) ;
#361 = ORIENTED_EDGE ( 'NONE', *, *, #221, .F. ) ;
#362 = DIRECTION ( 'NONE',  ( -1.000000000000000000, 0.000000000000000000, 0.000000000000000000 ) ) ;
#363 = EDGE_CURVE ( 'NONE', #512, #1416, #883, .T. ) ;
#364 = ORIENTED_EDGE ( 'NONE', *, *, #1138, .T. ) ;
#365 = DIRECTION ( 'NONE',  ( 0.000000000000000000, -1.000000000000000000, 0.000000000000000000 ) ) ;
#366 = CARTESIAN_POINT ( 'NONE',  ( -1.549999999999995381, 105.6874999999999858, 5.500000000000000888 ) ) ;
#367 = CARTESIAN_POINT ( 'NONE',  ( -7.500000000000002665, 1.550000000000000266, 6.500000000000000888 ) ) ;
#368 = VERTEX_POINT ( 'NONE', #243 ) ;
#369 = CARTESIAN_POINT ( 'NONE',  ( -18.45000000000000639, 110.6875000000000000, 6.500000000000000888 ) ) ;
#370 = EDGE_LOOP ( 'NONE', ( #889, #552, #607, #924 ) ) ;
#371 = EDGE_CURVE ( 'NONE', #39, #272, #451, .T. ) ;
#372 = VECTOR ( 'NONE', #477, 1000.000000000000000 ) ;
#373 = CARTESIAN_POINT ( 'NONE',  ( -1.549999999999995381, 38.56249999999999289, 6.500000000000000888 ) ) ;
#374 = VECTOR ( 'NONE', #439, 1000.000000000000000 ) ;
#375 = DIRECTION ( 'NONE',  ( 0.4472135954999579277, 0.000000000000000000, 0.8944271909999158554 ) ) ;
#376 = VERTEX_POINT ( 'NONE', #909 ) ;
#377 = LINE ( 'NONE', #52, #962 ) ;
#378 = CARTESIAN_POINT ( 'NONE',  ( -1.549999999999995381, 110.6875000000000000, 5.500000000000000888 ) ) ;
#379 = ORIENTED_EDGE ( 'NONE', *, *, #466, .T. ) ;
#380 = DIRECTION ( 'NONE',  ( -1.000000000000000000, 0.000000000000000000, -0.000000000000000000 ) ) ;
#381 = DIRECTION ( 'NONE',  ( 1.000000000000000000, 0.000000000000000000, 0.000000000000000000 ) ) ;
#382 = LINE ( 'NONE', #1038, #372 ) ;
#383 = ORIENTED_EDGE ( 'NONE', *, *, #186, .T. ) ;
#384 = CARTESIAN_POINT ( 'NONE',  ( -16.94999999999999929, 110.6875000000000000, 1.500000000000000000 ) ) ;
#385 = EDGE_LOOP ( 'NONE', ( #1198, #120, #456, #240 ) ) ;
#386 = DIRECTION ( 'NONE',  ( -1.000000000000000000, 0.000000000000000000, -0.000000000000000000 ) ) ;
#387 = EDGE_CURVE ( 'NONE', #666, #994, #893, .T. ) ;
#388 = VERTEX_POINT ( 'NONE', #322 ) ;
#389 = DIRECTION ( 'NONE',  ( 0.000000000000000000, -0.000000000000000000, -1.000000000000000000 ) ) ;
#390 = LINE ( 'NONE', #844, #781 ) ;
#391 = DIRECTION ( 'NONE',  ( -1.000000000000000000, 0.000000000000000000, 0.000000000000000000 ) ) ;
#392 = EDGE_LOOP ( 'NONE', ( #1235, #1115, #763, #611 ) ) ;
#393 = LINE ( 'NONE', #1311, #653 ) ;
#394 = VECTOR ( 'NONE', #154, 1000.000000000000000 ) ;
#395 = EDGE_LOOP ( 'NONE', ( #1118, #361, #662, #104, #123, #19 ) ) ;
#396 = DIRECTION ( 'NONE',  ( 0.000000000000000000, 0.000000000000000000, 1.000000000000000000 ) ) ;
#397 = VECTOR ( 'NONE', #342, 1000.000000000000000 ) ;
#398 = CARTESIAN_POINT ( 'NONE',  ( 0.000000000000000000, 144.2500000000000000, 1.500000000000000000 ) ) ;
#399 = CARTESIAN_POINT ( 'NONE',  ( -18.45000000000000639, 38.56249999999999289, 6.500000000000000888 ) ) ;
#400 = FACE_OUTER_BOUND ( 'NONE', #1246, .T. ) ;
#401 = AXIS2_PLACEMENT_3D ( 'NONE', #823, #1055, #600 ) ;
#402 = ADVANCED_FACE ( 'NONE', ( #348 ), #886, .F. ) ;
#403 = VECTOR ( 'NONE', #560, 1000.000000000000000 ) ;
#404 = VERTEX_POINT ( 'NONE', #238 ) ;
#405 = LINE ( 'NONE', #72, #85 ) ;
#406 = CARTESIAN_POINT ( 'NONE',  ( -7.500000000000002665, 141.1999999999999886, 1.500000000000000000 ) ) ;
#407 = LINE ( 'NONE', #967, #603 ) ;
#408 = CARTESIAN_POINT ( 'NONE',  ( -18.45000000000000639, 38.56249999999999289, 5.500000000000000888 ) ) ;
#409 = EDGE_CURVE ( 'NONE', #606, #660, #118, .T. ) ;
#410 = EDGE_LOOP ( 'NONE', ( #857, #1193, #383, #188 ) ) ;
#411 = PLANE ( 'NONE',  #290 ) ;
#412 = EDGE_LOOP ( 'NONE', ( #305, #1297, #474, #1089 ) ) ;
#413 = CARTESIAN_POINT ( 'NONE',  ( -1.049999999999995381, 38.56249999999999289, 5.500000000000000888 ) ) ;
#414 = CARTESIAN_POINT ( 'NONE',  ( -7.500000000000002665, 3.050000000000000266, 6.500000000000000888 ) ) ;
#415 = FACE_OUTER_BOUND ( 'NONE', #677, .T. ) ;
#416 = FACE_OUTER_BOUND ( 'NONE', #1345, .T. ) ;
#417 = ORIENTED_EDGE ( 'NONE', *, *, #169, .F. ) ;
#418 = EDGE_CURVE ( 'NONE', #855, #1355, #1212, .T. ) ;
#419 = DIRECTION ( 'NONE',  ( 0.4472135954999579277, 0.000000000000000000, -0.8944271909999158554 ) ) ;
#420 = ORIENTED_EDGE ( 'NONE', *, *, #993, .T. ) ;
#421 = DIRECTION ( 'NONE',  ( -2.602085213965208669E-16, 1.000000000000000000, 0.000000000000000000 ) ) ;
#422 = DIRECTION ( 'NONE',  ( 0.000000000000000000, 1.000000000000000000, 0.000000000000000000 ) ) ;
#423 = CARTESIAN_POINT ( 'NONE',  ( -1.049999999999995381, 33.56249999999999289, 5.500000000000000888 ) ) ;
#424 = CARTESIAN_POINT ( 'NONE',  ( -12.50000000000000178, 1.050000000000000044, 5.500000000000000888 ) ) ;
#425 = VECTOR ( 'NONE', #835, 1000.000000000000114 ) ;
#426 = VECTOR ( 'NONE', #935, 1000.000000000000000 ) ;
#427 = AXIS2_PLACEMENT_3D ( 'NONE', #471, #175, #811 ) ;
#428 = EDGE_LOOP ( 'NONE', ( #1366, #1104, #684, #1150, #59, #816 ) ) ;
#429 = CARTESIAN_POINT ( 'NONE',  ( -18.45000000000000639, 33.56249999999999289, 5.500000000000000888 ) ) ;
#430 = CARTESIAN_POINT ( 'NONE',  ( -7.500000000000002665, 1.550000000000000266, 1.500000000000000000 ) ) ;
#431 = CARTESIAN_POINT ( 'NONE',  ( -20.00000000000000355, 0.000000000000000000, 0.000000000000000000 ) ) ;
#432 = DIRECTION ( 'NONE',  ( 0.000000000000000000, -1.000000000000000000, 0.000000000000000000 ) ) ;
#433 = UNCERTAINTY_MEASURE_WITH_UNIT (LENGTH_MEASURE( 1.000000000000000082E-05 ), #1293, 'distance_accuracy_value', 'NONE');
#434 = ORIENTED_EDGE ( 'NONE', *, *, #1328, .F. ) ;
#435 = DIRECTION ( 'NONE',  ( 0.000000000000000000, -1.000000000000000000, 0.000000000000000000 ) ) ;
#436 = ORIENTED_EDGE ( 'NONE', *, *, #956, .F. ) ;
#437 = EDGE_CURVE ( 'NONE', #319, #1355, #1227, .T. ) ;
#438 = DIRECTION ( 'NONE',  ( -0.000000000000000000, -0.000000000000000000, -1.000000000000000000 ) ) ;
#439 = DIRECTION ( 'NONE',  ( -0.000000000000000000, -0.000000000000000000, -1.000000000000000000 ) ) ;
#440 = DIRECTION ( 'NONE',  ( 1.000000000000000000, 0.000000000000000000, 0.000000000000000000 ) ) ;
#441 = EDGE_LOOP ( 'NONE', ( #800, #960, #780, #586 ) ) ;
#442 = LINE ( 'NONE', #326, #87 ) ;
#443 = AXIS2_PLACEMENT_3D ( 'NONE', #813, #1383, #380 ) ;
#444 = EDGE_CURVE ( 'NONE', #388, #299, #1326, .T. ) ;
#445 = AXIS2_PLACEMENT_3D ( 'NONE', #599, #865, #632 ) ;
#446 = EDGE_LOOP ( 'NONE', ( #669, #1209, #930, #1024 ) ) ;
#447 = AXIS2_PLACEMENT_3D ( 'NONE', #80, #978, #515 ) ;
#448 = LINE ( 'NONE', #4, #702 ) ;
#449 = AXIS2_PLACEMENT_3D ( 'NONE', #1052, #494, #1160 ) ;
#450 = ORIENTED_EDGE ( 'NONE', *, *, #1389, .F. ) ;
#451 = LINE ( 'NONE', #788, #628 ) ;
#452 = ORIENTED_EDGE ( 'NONE', *, *, #13, .F. ) ;
#453 = EDGE_CURVE ( 'NONE', #482, #548, #1238, .T. ) ;
#454 = VERTEX_POINT ( 'NONE', #1334 ) ;
#455 = DIRECTION ( 'NONE',  ( -0.000000000000000000, -0.000000000000000000, -1.000000000000000000 ) ) ;
#456 = ORIENTED_EDGE ( 'NONE', *, *, #205, .T. ) ;
#457 = ORIENTED_EDGE ( 'NONE', *, *, #1035, .T. ) ;
#458 = EDGE_CURVE ( 'NONE', #668, #568, #329, .T. ) ;
#459 = FACE_OUTER_BOUND ( 'NONE', #1039, .T. ) ;
#460 = ORIENTED_EDGE ( 'NONE', *, *, #869, .F. ) ;
#461 = DIRECTION ( 'NONE',  ( 1.000000000000000000, -0.000000000000000000, -0.000000000000000000 ) ) ;
#462 = ADVANCED_FACE ( 'NONE', ( #131 ), #122, .T. ) ;
#463 = ORIENTED_EDGE ( 'NONE', *, *, #868, .T. ) ;
#464 = VECTOR ( 'NONE', #93, 1000.000000000000000 ) ;
#465 = LINE ( 'NONE', #1050, #311 ) ;
#466 = EDGE_CURVE ( 'NONE', #660, #1422, #547, .T. ) ;
#467 = DIRECTION ( 'NONE',  ( 0.000000000000000000, -0.4472135954999579277, -0.8944271909999158554 ) ) ;
#468 = EDGE_CURVE ( 'NONE', #239, #707, #24, .T. ) ;
#469 = FACE_OUTER_BOUND ( 'NONE', #937, .T. ) ;
#470 = ORIENTED_EDGE ( 'NONE', *, *, #315, .F. ) ;
#471 = CARTESIAN_POINT ( 'NONE',  ( -7.500000000000002665, 142.6999999999999886, 6.500000000000000888 ) ) ;
#472 = EDGE_LOOP ( 'NONE', ( #417, #557, #1161, #166 ) ) ;
#473 = DIRECTION ( 'NONE',  ( 0.000000000000000000, -0.000000000000000000, -1.000000000000000000 ) ) ;
#474 = ORIENTED_EDGE ( 'NONE', *, *, #827, .F. ) ;
#475 = CARTESIAN_POINT ( 'NONE',  ( -18.95000000000000995, 105.6874999999999858, 5.500000000000000888 ) ) ;
#476 = CARTESIAN_POINT ( 'NONE',  ( -16.94999999999999929, 105.6874999999999858, 6.500000000000000888 ) ) ;
#477 = DIRECTION ( 'NONE',  ( -2.602085213965208669E-16, -1.000000000000000000, 0.000000000000000000 ) ) ;
#478 = EDGE_LOOP ( 'NONE', ( #96, #894, #933, #965 ) ) ;
#479 = CARTESIAN_POINT ( 'NONE',  ( -18.45000000000000639, 105.6874999999999858, 6.500000000000000888 ) ) ;
#480 = CARTESIAN_POINT ( 'NONE',  ( -12.50000000000000178, 3.050000000000000266, 6.500000000000000888 ) ) ;
#481 = EDGE_CURVE ( 'NONE', #819, #606, #779, .T. ) ;
#482 = VERTEX_POINT ( 'NONE', #1008 ) ;
#483 = ORIENTED_EDGE ( 'NONE', *, *, #7, .F. ) ;
#484 = FACE_OUTER_BOUND ( 'NONE', #446, .T. ) ;
#485 = PLANE ( 'NONE',  #449 ) ;
#486 = VERTEX_POINT ( 'NONE', #18 ) ;
#487 = EDGE_CURVE ( 'NONE', #548, #1137, #382, .T. ) ;
#488 = FACE_OUTER_BOUND ( 'NONE', #1295, .T. ) ;
#489 = ORIENTED_EDGE ( 'NONE', *, *, #13, .T. ) ;
#490 = LINE ( 'NONE', #268, #228 ) ;
#491 = VECTOR ( 'NONE', #1259, 1000.000000000000000 ) ;
#492 = FACE_OUTER_BOUND ( 'NONE', #428, .T. ) ;
#493 = VECTOR ( 'NONE', #1061, 1000.000000000000000 ) ;
#494 = DIRECTION ( 'NONE',  ( -0.000000000000000000, 0.000000000000000000, -1.000000000000000000 ) ) ;
#495 = ORIENTED_EDGE ( 'NONE', *, *, #257, .T. ) ;
#496 = VECTOR ( 'NONE', #535, 1000.000000000000000 ) ;
#497 = CARTESIAN_POINT ( 'NONE',  ( 0.000000000000000000, 0.000000000000000000, 1.500000000000000000 ) ) ;
#498 = ORIENTED_EDGE ( 'NONE', *, *, #347, .F. ) ;
#499 = EDGE_CURVE ( 'NONE', #548, #260, #923, .T. ) ;
#500 = CARTESIAN_POINT ( 'NONE',  ( 0.000000000000000000, 0.000000000000000000, 1.500000000000000000 ) ) ;
#501 = CARTESIAN_POINT ( 'NONE',  ( -3.049999999999995381, 33.56249999999999289, 6.500000000000000888 ) ) ;
#502 = CARTESIAN_POINT ( 'NONE',  ( -18.45000000000000284, 105.6874999999999858, 6.500000000000000888 ) ) ;
#503 = DIRECTION ( 'NONE',  ( -1.000000000000000000, 0.000000000000000000, -0.000000000000000000 ) ) ;
#504 = EDGE_LOOP ( 'NONE', ( #171, #1258, #202, #338, #457, #30 ) ) ;
#505 = DIRECTION ( 'NONE',  ( -0.000000000000000000, -1.000000000000000000, -0.000000000000000000 ) ) ;
#506 = EDGE_CURVE ( 'NONE', #299, #1017, #1359, .T. ) ;
#507 = ORIENTED_EDGE ( 'NONE', *, *, #942, .F. ) ;
#508 = CARTESIAN_POINT ( 'NONE',  ( -16.95000000000000639, 38.56249999999999289, 6.500000000000000888 ) ) ;
#509 = CARTESIAN_POINT ( 'NONE',  ( 0.000000000000000000, 0.000000000000000000, 1.500000000000000000 ) ) ;
#510 = PLANE ( 'NONE',  #676 ) ;
#511 = FILL_AREA_STYLE ('',( #76 ) ) ;
#512 = VERTEX_POINT ( 'NONE', #597 ) ;
#513 = CARTESIAN_POINT ( 'NONE',  ( -16.95000000000000639, 33.56249999999999289, 1.500000000000000000 ) ) ;
#514 = VECTOR ( 'NONE', #1114, 1000.000000000000114 ) ;
#515 = DIRECTION ( 'NONE',  ( 2.602085213965208669E-16, 1.000000000000000000, 0.000000000000000000 ) ) ;
#516 = VECTOR ( 'NONE', #302, 1000.000000000000000 ) ;
#517 = DIRECTION ( 'NONE',  ( -0.000000000000000000, -0.000000000000000000, -1.000000000000000000 ) ) ;
#518 = EDGE_CURVE ( 'NONE', #26, #1385, #248, .T. ) ;
#519 = CARTESIAN_POINT ( 'NONE',  ( 0.000000000000000000, 0.000000000000000000, 1.500000000000000000 ) ) ;
#520 = DIRECTION ( 'NONE',  ( -1.000000000000000000, 0.000000000000000000, 0.000000000000000000 ) ) ;
#521 = VECTOR ( 'NONE', #1047, 1000.000000000000000 ) ;
#522 = VECTOR ( 'NONE', #1301, 1000.000000000000000 ) ;
#523 = ORIENTED_EDGE ( 'NONE', *, *, #932, .F. ) ;
#524 = CARTESIAN_POINT ( 'NONE',  ( -7.500000000000002665, 1.550000000000000266, 6.500000000000000888 ) ) ;
#525 = CARTESIAN_POINT ( 'NONE',  ( -18.95000000000000995, 110.6875000000000000, 5.500000000000000888 ) ) ;
#526 = ADVANCED_FACE ( 'NONE', ( #165 ), #360, .T. ) ;
#527 = VERTEX_POINT ( 'NONE', #367 ) ;
#528 = ORIENTED_EDGE ( 'NONE', *, *, #885, .F. ) ;
#529 = PLANE ( 'NONE',  #270 ) ;
#530 = PLANE ( 'NONE',  #851 ) ;
#531 = CARTESIAN_POINT ( 'NONE',  ( -3.049999999999995381, 38.56249999999999289, 6.500000000000000888 ) ) ;
#532 = CARTESIAN_POINT ( 'NONE',  ( -1.549999999999995381, 33.56249999999999289, 5.500000000000000888 ) ) ;
#533 = PRODUCT_DEFINITION_CONTEXT ( 'detailed design', #1022, 'design' ) ;
#534 = LINE ( 'NONE', #984, #988 ) ;
#535 = DIRECTION ( 'NONE',  ( -0.000000000000000000, -0.000000000000000000, -1.000000000000000000 ) ) ;
#536 = DIRECTION ( 'NONE',  ( 0.000000000000000000, 1.000000000000000000, 0.000000000000000000 ) ) ;
#537 = AXIS2_PLACEMENT_3D ( 'NONE', #1296, #180, #842 ) ;
#538 = AXIS2_PLACEMENT_3D ( 'NONE', #1088, #734, #503 ) ;
#539 = ADVANCED_FACE ( 'NONE', ( #588 ), #38, .T. ) ;
#540 = DIRECTION ( 'NONE',  ( -1.000000000000000000, -0.000000000000000000, -0.000000000000000000 ) ) ;
#541 = ORIENTED_EDGE ( 'NONE', *, *, #499, .F. ) ;
#542 = FACE_BOUND ( 'NONE', #1164, .T. ) ;
#543 = DIRECTION ( 'NONE',  ( 0.000000000000000000, 1.000000000000000000, 0.000000000000000000 ) ) ;
#544 = DIRECTION ( 'NONE',  ( 1.000000000000000000, 0.000000000000000000, 0.000000000000000000 ) ) ;
#545 = CARTESIAN_POINT ( 'NONE',  ( -7.500000000000002665, 1.050000000000000044, 5.500000000000000888 ) ) ;
#546 = EDGE_CURVE ( 'NONE', #1385, #791, #694, .T. ) ;
#547 = LINE ( 'NONE', #114, #1308 ) ;
#548 = VERTEX_POINT ( 'NONE', #1255 ) ;
#549 = ORIENTED_EDGE ( 'NONE', *, *, #665, .F. ) ;
#550 = LINE ( 'NONE', #318, #1105 ) ;
#551 = DIRECTION ( 'NONE',  ( -0.000000000000000000, -1.000000000000000000, -0.000000000000000000 ) ) ;
#552 = ORIENTED_EDGE ( 'NONE', *, *, #276, .T. ) ;
#553 = ADVANCED_FACE ( 'NONE', ( #469 ), #1143, .F. ) ;
#554 = LINE ( 'NONE', #1012, #829 ) ;
#555 = VECTOR ( 'NONE', #262, 1000.000000000000000 ) ;
#556 = VECTOR ( 'NONE', #1419, 1000.000000000000000 ) ;
#557 = ORIENTED_EDGE ( 'NONE', *, *, #997, .F. ) ;
#558 = CARTESIAN_POINT ( 'NONE',  ( -3.050000000000005151, 110.6875000000000000, 6.500000000000000888 ) ) ;
#559 = PLANE ( 'NONE',  #1237 ) ;
#560 = DIRECTION ( 'NONE',  ( -1.000000000000000000, 0.000000000000000000, 0.000000000000000000 ) ) ;
#561 = ORIENTED_EDGE ( 'NONE', *, *, #724, .T. ) ;
#562 = ADVANCED_FACE ( 'NONE', ( #581 ), #485, .F. ) ;
#563 = ORIENTED_EDGE ( 'NONE', *, *, #888, .T. ) ;
#564 = CARTESIAN_POINT ( 'NONE',  ( -1.550000000000004929, 110.6875000000000000, 1.500000000000000000 ) ) ;
#565 = CARTESIAN_POINT ( 'NONE',  ( -12.50000000000000178, 142.6999999999999886, 6.500000000000000888 ) ) ;
#566 = ORIENTED_EDGE ( 'NONE', *, *, #1274, .T. ) ;
#567 = ADVANCED_FACE ( 'NONE', ( #43 ), #1045, .F. ) ;
#568 = VERTEX_POINT ( 'NONE', #1127 ) ;
#569 = EDGE_CURVE ( 'NONE', #1416, #643, #271, .T. ) ;
#570 = CARTESIAN_POINT ( 'NONE',  ( -12.50000000000000178, 142.6999999999999886, 6.500000000000000888 ) ) ;
#571 = CARTESIAN_POINT ( 'NONE',  ( -12.50000000000000178, 143.1999999999999886, 5.500000000000000888 ) ) ;
#572 = ORIENTED_EDGE ( 'NONE', *, *, #499, .T. ) ;
#573 = FACE_OUTER_BOUND ( 'NONE', #1253, .T. ) ;
#574 = VECTOR ( 'NONE', #708, 1000.000000000000114 ) ;
#575 = ORIENTED_EDGE ( 'NONE', *, *, #1181, .F. ) ;
#576 = VECTOR ( 'NONE', #731, 1000.000000000000114 ) ;
#577 = PLANE ( 'NONE',  #853 ) ;
#578 = AXIS2_PLACEMENT_3D ( 'NONE', #1271, #1386, #723 ) ;
#579 = ORIENTED_EDGE ( 'NONE', *, *, #355, .F. ) ;
#580 = VECTOR ( 'NONE', #440, 1000.000000000000000 ) ;
#581 = FACE_OUTER_BOUND ( 'NONE', #478, .T. ) ;
#582 = ORIENTED_EDGE ( 'NONE', *, *, #1026, .T. ) ;
#583 = CARTESIAN_POINT ( 'NONE',  ( -7.500000000000002665, 143.1999999999999886, 5.500000000000000888 ) ) ;
#584 = LINE ( 'NONE', #709, #88 ) ;
#585 = DIRECTION ( 'NONE',  ( -0.000000000000000000, 0.000000000000000000, -1.000000000000000000 ) ) ;
#586 = ORIENTED_EDGE ( 'NONE', *, *, #546, .T. ) ;
#587 = ORIENTED_EDGE ( 'NONE', *, *, #993, .F. ) ;
#588 = FACE_OUTER_BOUND ( 'NONE', #410, .T. ) ;
#589 = VERTEX_POINT ( 'NONE', #136 ) ;
#590 = ADVANCED_FACE ( 'NONE', ( #459 ), #915, .T. ) ;
#591 = CARTESIAN_POINT ( 'NONE',  ( -7.500000000000002665, 141.1999999999999886, 6.500000000000000888 ) ) ;
#592 = EDGE_LOOP ( 'NONE', ( #1155, #185, #244, #1015 ) ) ;
#593 = LINE ( 'NONE', #1356, #146 ) ;
#594 = SHAPE_DEFINITION_REPRESENTATION ( #100, #5 ) ;
#595 = ORIENTED_EDGE ( 'NONE', *, *, #736, .T. ) ;
#596 = LINE ( 'NONE', #1254, #172 ) ;
#597 = CARTESIAN_POINT ( 'NONE',  ( -16.95000000000000639, 33.56249999999999289, 1.500000000000000000 ) ) ;
#598 = VERTEX_POINT ( 'NONE', #1244 ) ;
#599 = CARTESIAN_POINT ( 'NONE',  ( -1.549999999999995381, 33.56249999999999289, 6.500000000000000888 ) ) ;
#600 = DIRECTION ( 'NONE',  ( 1.000000000000000000, 0.000000000000000000, -0.000000000000000000 ) ) ;
#601 = ADVANCED_FACE ( 'NONE', ( #254 ), #936, .T. ) ;
#602 = ORIENTED_EDGE ( 'NONE', *, *, #619, .T. ) ;
#603 = VECTOR ( 'NONE', #183, 1000.000000000000000 ) ;
#604 = LINE ( 'NONE', #1373, #1331 ) ;
#605 = PRODUCT_DEFINITION_FORMATION_WITH_SPECIFIED_SOURCE ( 'ANY', '', #1230, .NOT_KNOWN. ) ;
#606 = VERTEX_POINT ( 'NONE', #687 ) ;
#607 = ORIENTED_EDGE ( 'NONE', *, *, #54, .T. ) ;
#608 = VECTOR ( 'NONE', #219, 1000.000000000000000 ) ;
#609 = PLANE ( 'NONE',  #445 ) ;
#610 = CARTESIAN_POINT ( 'NONE',  ( -1.549999999999995381, 38.56249999999999289, 6.500000000000000888 ) ) ;
#611 = ORIENTED_EDGE ( 'NONE', *, *, #437, .T. ) ;
#612 = ADVANCED_FACE ( 'NONE', ( #831 ), #1133, .T. ) ;
#613 = DIRECTION ( 'NONE',  ( -1.000000000000000000, 0.000000000000000000, 0.000000000000000000 ) ) ;
#614 = ORIENTED_EDGE ( 'NONE', *, *, #487, .F. ) ;
#615 = FACE_OUTER_BOUND ( 'NONE', #729, .T. ) ;
#616 = CARTESIAN_POINT ( 'NONE',  ( -3.050000000000003819, 105.6874999999999858, 6.500000000000000888 ) ) ;
#617 = PLANE ( 'NONE',  #331 ) ;
#618 = ORIENTED_EDGE ( 'NONE', *, *, #674, .F. ) ;
#619 = EDGE_CURVE ( 'NONE', #1023, #200, #1273, .T. ) ;
#620 = EDGE_CURVE ( 'NONE', #404, #994, #465, .T. ) ;
#621 = DIRECTION ( 'NONE',  ( 0.000000000000000000, 0.000000000000000000, -1.000000000000000000 ) ) ;
#622 = DIRECTION ( 'NONE',  ( 2.602085213965208669E-16, 1.000000000000000000, 0.000000000000000000 ) ) ;
#623 = CARTESIAN_POINT ( 'NONE',  ( -1.549999999999995381, 105.6874999999999858, 5.500000000000000888 ) ) ;
#624 = DIRECTION ( 'NONE',  ( 0.000000000000000000, 1.000000000000000000, -0.000000000000000000 ) ) ;
#625 = DIRECTION ( 'NONE',  ( 0.000000000000000000, 0.000000000000000000, 1.000000000000000000 ) ) ;
#626 = EDGE_LOOP ( 'NONE', ( #595, #216, #1065, #65 ) ) ;
#627 = DIRECTION ( 'NONE',  ( -0.4472135954999579277, 0.000000000000000000, -0.8944271909999158554 ) ) ;
#628 = VECTOR ( 'NONE', #11, 1000.000000000000000 ) ;
#629 = EDGE_LOOP ( 'NONE', ( #233, #1351, #812, #649 ) ) ;
#630 = CARTESIAN_POINT ( 'NONE',  ( 0.000000000000000000, 144.2500000000000000, 0.000000000000000000 ) ) ;
#631 = VECTOR ( 'NONE', #1001, 1000.000000000000000 ) ;
#632 = DIRECTION ( 'NONE',  ( 0.000000000000000000, 0.000000000000000000, 1.000000000000000000 ) ) ;
#633 = ADVANCED_FACE ( 'NONE', ( #1131 ), #577, .T. ) ;
#634 = LINE ( 'NONE', #968, #1263 ) ;
#635 = ORIENTED_EDGE ( 'NONE', *, *, #862, .T. ) ;
#636 = CARTESIAN_POINT ( 'NONE',  ( -1.049999999999995381, 110.6875000000000000, 5.500000000000000888 ) ) ;
#637 = VERTEX_POINT ( 'NONE', #711 ) ;
#638 = LINE ( 'NONE', #75, #576 ) ;
#639 = DIRECTION ( 'NONE',  ( 0.000000000000000000, 0.000000000000000000, 1.000000000000000000 ) ) ;
#640 = CARTESIAN_POINT ( 'NONE',  ( -3.050000000000003819, 105.6874999999999858, 6.500000000000000888 ) ) ;
#641 = EDGE_LOOP ( 'NONE', ( #971, #349, #563, #787 ) ) ;
#642 = DIRECTION ( 'NONE',  ( 0.000000000000000000, -0.000000000000000000, -1.000000000000000000 ) ) ;
#643 = VERTEX_POINT ( 'NONE', #692 ) ;
#644 = DIRECTION ( 'NONE',  ( -0.000000000000000000, -0.000000000000000000, -1.000000000000000000 ) ) ;
#645 = EDGE_CURVE ( 'NONE', #229, #1221, #934, .T. ) ;
#646 = CARTESIAN_POINT ( 'NONE',  ( -16.95000000000000639, 33.56249999999999289, 6.500000000000000888 ) ) ;
#647 = DIRECTION ( 'NONE',  ( 0.000000000000000000, 0.000000000000000000, 1.000000000000000000 ) ) ;
#648 = DIRECTION ( 'NONE',  ( -1.000000000000000000, -0.000000000000000000, -0.000000000000000000 ) ) ;
#649 = ORIENTED_EDGE ( 'NONE', *, *, #1099, .T. ) ;
#650 = LINE ( 'NONE', #1319, #1312 ) ;
#651 = VECTOR ( 'NONE', #799, 1000.000000000000000 ) ;
#652 = CARTESIAN_POINT ( 'NONE',  ( -12.50000000000000178, 142.6999999999999886, 6.500000000000000888 ) ) ;
#653 = VECTOR ( 'NONE', #419, 1000.000000000000114 ) ;
#654 = DIRECTION ( 'NONE',  ( 0.000000000000000000, 0.4472135954999579277, -0.8944271909999158554 ) ) ;
#655 = VECTOR ( 'NONE', #540, 1000.000000000000000 ) ;
#656 = AXIS2_PLACEMENT_3D ( 'NONE', #1290, #297, #421 ) ;
#657 = ORIENTED_EDGE ( 'NONE', *, *, #116, .T. ) ;
#658 = EDGE_CURVE ( 'NONE', #55, #1068, #828, .T. ) ;
#659 = CARTESIAN_POINT ( 'NONE',  ( -3.049999999999995381, 33.56249999999999289, 1.500000000000000000 ) ) ;
#660 = VERTEX_POINT ( 'NONE', #920 ) ;
#661 = DIRECTION ( 'NONE',  ( 0.8944271909999159664, -0.000000000000000000, 0.4472135954999579832 ) ) ;
#662 = ORIENTED_EDGE ( 'NONE', *, *, #466, .F. ) ;
#663 = EDGE_LOOP ( 'NONE', ( #450, #181, #1101, #523 ) ) ;
#664 = CARTESIAN_POINT ( 'NONE',  ( -18.95000000000000995, 110.6875000000000000, 5.500000000000000888 ) ) ;
#665 = EDGE_CURVE ( 'NONE', #907, #927, #593, .T. ) ;
#666 = VERTEX_POINT ( 'NONE', #145 ) ;
#667 = CARTESIAN_POINT ( 'NONE',  ( -1.549999999999995381, 105.6874999999999858, 6.500000000000000888 ) ) ;
#668 = VERTEX_POINT ( 'NONE', #56 ) ;
#669 = ORIENTED_EDGE ( 'NONE', *, *, #645, .T. ) ;
#670 = LINE ( 'NONE', #558, #655 ) ;
#671 = ORIENTED_EDGE ( 'NONE', *, *, #888, .F. ) ;
#672 = CARTESIAN_POINT ( 'NONE',  ( -20.00000000000000355, 0.000000000000000000, 1.500000000000000000 ) ) ;
#673 = ORIENTED_EDGE ( 'NONE', *, *, #221, .T. ) ;
#674 = EDGE_CURVE ( 'NONE', #1375, #278, #490, .T. ) ;
#675 = STYLED_ITEM ( 'NONE', ( #959 ), #339 ) ;
#676 = AXIS2_PLACEMENT_3D ( 'NONE', #519, #624, #639 ) ;
#677 = EDGE_LOOP ( 'NONE', ( #1344, #1242, #1004, #825, #330, #572 ) ) ;
#678 = VECTOR ( 'NONE', #256, 1000.000000000000000 ) ;
#679 = LINE ( 'NONE', #1216, #152 ) ;
#680 = ORIENTED_EDGE ( 'NONE', *, *, #1250, .T. ) ;
#681 = DIRECTION ( 'NONE',  ( 1.000000000000000000, 0.000000000000000000, 0.000000000000000000 ) ) ;
#682 = ORIENTED_EDGE ( 'NONE', *, *, #70, .T. ) ;
#683 = LINE ( 'NONE', #1247, #850 ) ;
#684 = ORIENTED_EDGE ( 'NONE', *, *, #836, .F. ) ;
#685 = ORIENTED_EDGE ( 'NONE', *, *, #1170, .T. ) ;
#686 = CARTESIAN_POINT ( 'NONE',  ( -12.50000000000000178, 143.1999999999999886, 5.500000000000000888 ) ) ;
#687 = CARTESIAN_POINT ( 'NONE',  ( -12.50000000000000178, 1.550000000000000266, 6.500000000000000888 ) ) ;
#688 = EDGE_LOOP ( 'NONE', ( #1228, #919, #797, #23 ) ) ;
#689 = CARTESIAN_POINT ( 'NONE',  ( -16.94999999999999929, 105.6874999999999858, 1.500000000000000000 ) ) ;
#690 = ADVANCED_FACE ( 'NONE', ( #943 ), #1346, .T. ) ;
#691 = ORIENTED_EDGE ( 'NONE', *, *, #1111, .T. ) ;
#692 = CARTESIAN_POINT ( 'NONE',  ( -18.45000000000000639, 38.56249999999999289, 1.500000000000000000 ) ) ;
#693 = ORIENTED_EDGE ( 'NONE', *, *, #728, .F. ) ;
#694 = LINE ( 'NONE', #58, #1119 ) ;
#695 = ORIENTED_EDGE ( 'NONE', *, *, #836, .T. ) ;
#696 = DIRECTION ( 'NONE',  ( 0.000000000000000000, 0.4472135954999579277, -0.8944271909999158554 ) ) ;
#697 = PLANE ( 'NONE',  #1219 ) ;
#698 = VECTOR ( 'NONE', #644, 1000.000000000000000 ) ;
#699 = ORIENTED_EDGE ( 'NONE', *, *, #193, .F. ) ;
#700 = VECTOR ( 'NONE', #753, 1000.000000000000000 ) ;
#701 = DIRECTION ( 'NONE',  ( 0.000000000000000000, 1.000000000000000000, 0.000000000000000000 ) ) ;
#702 = VECTOR ( 'NONE', #770, 1000.000000000000000 ) ;
#703 = EDGE_CURVE ( 'NONE', #1137, #275, #282, .T. ) ;
#704 = AXIS2_PLACEMENT_3D ( 'NONE', #953, #520, #625 ) ;
#705 = CARTESIAN_POINT ( 'NONE',  ( -3.050000000000005151, 110.6875000000000000, 6.500000000000000888 ) ) ;
#706 = DIRECTION ( 'NONE',  ( -0.000000000000000000, 0.000000000000000000, 1.000000000000000000 ) ) ;
#707 = VERTEX_POINT ( 'NONE', #564 ) ;
#708 = DIRECTION ( 'NONE',  ( -0.4472135954999579277, 0.000000000000000000, -0.8944271909999158554 ) ) ;
#709 = CARTESIAN_POINT ( 'NONE',  ( -12.50000000000000178, 1.550000000000000266, 6.500000000000000888 ) ) ;
#710 = VERTEX_POINT ( 'NONE', #1252 ) ;
#711 = CARTESIAN_POINT ( 'NONE',  ( -18.44999999999999929, 110.6875000000000000, 1.500000000000000000 ) ) ;
#712 = ORIENTED_EDGE ( 'NONE', *, *, #444, .T. ) ;
#713 = FACE_OUTER_BOUND ( 'NONE', #1325, .T. ) ;
#714 = EDGE_CURVE ( 'NONE', #846, #404, #1020, .T. ) ;
#715 = DIRECTION ( 'NONE',  ( 0.000000000000000000, -1.000000000000000000, 0.000000000000000000 ) ) ;
#716 = ORIENTED_EDGE ( 'NONE', *, *, #724, .F. ) ;
#717 = DIRECTION ( 'NONE',  ( -0.000000000000000000, -0.000000000000000000, -1.000000000000000000 ) ) ;
#718 = DIRECTION ( 'NONE',  ( 1.000000000000000000, -0.000000000000000000, -0.000000000000000000 ) ) ;
#719 = VERTEX_POINT ( 'NONE', #912 ) ;
#720 = CARTESIAN_POINT ( 'NONE',  ( -12.50000000000000178, 143.1999999999999886, 5.500000000000000888 ) ) ;
#721 = ORIENTED_EDGE ( 'NONE', *, *, #737, .T. ) ;
#722 = LINE ( 'NONE', #479, #574 ) ;
#723 = DIRECTION ( 'NONE',  ( 2.602085213965208669E-16, -1.000000000000000000, 0.000000000000000000 ) ) ;
#724 = EDGE_CURVE ( 'NONE', #260, #125, #805, .T. ) ;
#725 = VERTEX_POINT ( 'NONE', #252 ) ;
#726 = VECTOR ( 'NONE', #1377, 1000.000000000000000 ) ;
#727 = FACE_OUTER_BOUND ( 'NONE', #809, .T. ) ;
#728 = EDGE_CURVE ( 'NONE', #1116, #1371, #1357, .T. ) ;
#729 = EDGE_LOOP ( 'NONE', ( #1084, #587, #1381, #528, #1134, #1323 ) ) ;
#730 = CARTESIAN_POINT ( 'NONE',  ( -12.50000000000000178, 1.550000000000000266, 1.500000000000000000 ) ) ;
#731 = DIRECTION ( 'NONE',  ( -0.4472135954999579277, 0.000000000000000000, -0.8944271909999158554 ) ) ;
#732 = DIRECTION ( 'NONE',  ( 1.000000000000000000, 0.000000000000000000, 0.000000000000000000 ) ) ;
#733 = ADVANCED_FACE ( 'NONE', ( #760 ), #775, .T. ) ;
#734 = DIRECTION ( 'NONE',  ( 0.000000000000000000, 0.000000000000000000, -1.000000000000000000 ) ) ;
#735 = EDGE_CURVE ( 'NONE', #589, #1221, #1042, .T. ) ;
#736 = EDGE_CURVE ( 'NONE', #527, #744, #304, .T. ) ;
#737 = EDGE_CURVE ( 'NONE', #568, #1049, #839, .T. ) ;
#738 = ORIENTED_EDGE ( 'NONE', *, *, #409, .T. ) ;
#739 = CARTESIAN_POINT ( 'NONE',  ( -18.45000000000000639, 33.56249999999999289, 6.500000000000000888 ) ) ;
#740 = CARTESIAN_POINT ( 'NONE',  ( -18.44999999999999929, 110.6875000000000000, 6.500000000000000888 ) ) ;
#741 = DIRECTION ( 'NONE',  ( 0.000000000000000000, -0.000000000000000000, -1.000000000000000000 ) ) ;
#742 = FACE_OUTER_BOUND ( 'NONE', #412, .T. ) ;
#743 =( NAMED_UNIT ( * ) PLANE_ANGLE_UNIT ( ) SI_UNIT ( $, .RADIAN. ) );
#744 = VERTEX_POINT ( 'NONE', #1277 ) ;
#745 = ORIENTED_EDGE ( 'NONE', *, *, #766, .F. ) ;
#746 = CARTESIAN_POINT ( 'NONE',  ( -18.44999999999999929, 110.6875000000000000, 6.500000000000000888 ) ) ;
#747 = LINE ( 'NONE', #740, #153 ) ;
#748 = CARTESIAN_POINT ( 'NONE',  ( -12.50000000000000178, 142.6999999999999886, 5.500000000000000888 ) ) ;
#749 = FACE_OUTER_BOUND ( 'NONE', #626, .T. ) ;
#750 = CARTESIAN_POINT ( 'NONE',  ( -7.500000000000002665, 1.550000000000000266, 6.500000000000000888 ) ) ;
#751 = VERTEX_POINT ( 'NONE', #583 ) ;
#752 = PRODUCT_CONTEXT ( 'NONE', #325, 'mechanical' ) ;
#753 = DIRECTION ( 'NONE',  ( -0.000000000000000000, -0.000000000000000000, -1.000000000000000000 ) ) ;
#754 = AXIS2_PLACEMENT_3D ( 'NONE', #1269, #715, #473 ) ;
#755 = PRODUCT_DEFINITION ( 'UNKNOWN', '', #605, #533 ) ;
#756 = ORIENTED_EDGE ( 'NONE', *, *, #1035, .F. ) ;
#757 = VECTOR ( 'NONE', #211, 1000.000000000000000 ) ;
#758 = CARTESIAN_POINT ( 'NONE',  ( -3.049999999999995381, 33.56249999999999289, 6.500000000000000888 ) ) ;
#759 = VECTOR ( 'NONE', #852, 1000.000000000000000 ) ;
#760 = FACE_OUTER_BOUND ( 'NONE', #51, .T. ) ;
#761 = VERTEX_POINT ( 'NONE', #1040 ) ;
#762 = LINE ( 'NONE', #192, #1103 ) ;
#763 = ORIENTED_EDGE ( 'NONE', *, *, #1048, .T. ) ;
#764 = DIRECTION ( 'NONE',  ( 0.000000000000000000, -1.000000000000000000, 0.000000000000000000 ) ) ;
#765 = LINE ( 'NONE', #1206, #757 ) ;
#766 = EDGE_CURVE ( 'NONE', #275, #1116, #722, .T. ) ;
#767 = DIRECTION ( 'NONE',  ( 0.000000000000000000, 0.000000000000000000, -1.000000000000000000 ) ) ;
#768 = APPLICATION_PROTOCOL_DEFINITION ( 'draft international standard', 'automotive_design', 1998, #325 ) ;
#769 = EDGE_LOOP ( 'NONE', ( #1279, #561, #691, #357 ) ) ;
#770 = DIRECTION ( 'NONE',  ( 2.602085213965208669E-16, -1.000000000000000000, 0.000000000000000000 ) ) ;
#771 = LINE ( 'NONE', #1, #608 ) ;
#772 = DIRECTION ( 'NONE',  ( 0.000000000000000000, -0.000000000000000000, -1.000000000000000000 ) ) ;
#773 = DIRECTION ( 'NONE',  ( 0.000000000000000000, 0.000000000000000000, -1.000000000000000000 ) ) ;
#774 = EDGE_CURVE ( 'NONE', #1137, #125, #1367, .T. ) ;
#775 = PLANE ( 'NONE',  #1151 ) ;
#776 = CARTESIAN_POINT ( 'NONE',  ( -12.50000000000000178, 141.1999999999999886, 1.500000000000000000 ) ) ;
#777 = FACE_OUTER_BOUND ( 'NONE', #133, .T. ) ;
#778 = VECTOR ( 'NONE', #279, 1000.000000000000000 ) ;
#779 = LINE ( 'NONE', #1108, #222 ) ;
#780 = ORIENTED_EDGE ( 'NONE', *, *, #518, .T. ) ;
#781 = VECTOR ( 'NONE', #129, 1000.000000000000000 ) ;
#782 = VECTOR ( 'NONE', #455, 1000.000000000000000 ) ;
#783 = VECTOR ( 'NONE', #461, 1000.000000000000000 ) ;
#784 = VECTOR ( 'NONE', #259, 1000.000000000000000 ) ;
#785 = EDGE_CURVE ( 'NONE', #751, #927, #1168, .T. ) ;
#786 = DIRECTION ( 'NONE',  ( 0.000000000000000000, 0.000000000000000000, -1.000000000000000000 ) ) ;
#787 = ORIENTED_EDGE ( 'NONE', *, *, #1421, .T. ) ;
#788 = CARTESIAN_POINT ( 'NONE',  ( -3.050000000000005151, 110.6875000000000000, 6.500000000000000888 ) ) ;
#789 = ORIENTED_EDGE ( 'NONE', *, *, #1140, .T. ) ;
#790 = EDGE_CURVE ( 'NONE', #1175, #1167, #377, .T. ) ;
#791 = VERTEX_POINT ( 'NONE', #1162 ) ;
#792 = DIRECTION ( 'NONE',  ( -0.000000000000000000, -0.000000000000000000, -1.000000000000000000 ) ) ;
#793 = ADVANCED_FACE ( 'NONE', ( #167 ), #609, .F. ) ;
#794 = DIRECTION ( 'NONE',  ( -2.602085213965208669E-16, 1.000000000000000000, -0.000000000000000000 ) ) ;
#795 = CARTESIAN_POINT ( 'NONE',  ( -12.50000000000000178, 142.6999999999999886, 6.500000000000000888 ) ) ;
#796 = ORIENTED_EDGE ( 'NONE', *, *, #1018, .F. ) ;
#797 = ORIENTED_EDGE ( 'NONE', *, *, #54, .F. ) ;
#798 = LINE ( 'NONE', #1110, #1196 ) ;
#799 = DIRECTION ( 'NONE',  ( 1.000000000000000000, 0.000000000000000000, 0.000000000000000000 ) ) ;
#800 = ORIENTED_EDGE ( 'NONE', *, *, #355, .T. ) ;
#801 = VECTOR ( 'NONE', #1292, 1000.000000000000000 ) ;
#802 = VECTOR ( 'NONE', #792, 1000.000000000000000 ) ;
#803 = ORIENTED_EDGE ( 'NONE', *, *, #387, .T. ) ;
#804 = VECTOR ( 'NONE', #931, 1000.000000000000000 ) ;
#805 = LINE ( 'NONE', #135, #966 ) ;
#806 = ORIENTED_EDGE ( 'NONE', *, *, #1421, .F. ) ;
#807 = CARTESIAN_POINT ( 'NONE',  ( -16.95000000000000639, 38.56249999999999289, 1.500000000000000000 ) ) ;
#808 = DIRECTION ( 'NONE',  ( 0.000000000000000000, -0.000000000000000000, 1.000000000000000000 ) ) ;
#809 = EDGE_LOOP ( 'NONE', ( #1234, #208, #832, #1125, #28, #949 ) ) ;
#810 = ADVANCED_FACE ( 'NONE', ( #1086 ), #1306, .F. ) ;
#811 = DIRECTION ( 'NONE',  ( -0.000000000000000000, 0.000000000000000000, -1.000000000000000000 ) ) ;
#812 = ORIENTED_EDGE ( 'NONE', *, *, #371, .F. ) ;
#813 = CARTESIAN_POINT ( 'NONE',  ( -1.049999999999995381, 105.6874999999999858, 5.500000000000000888 ) ) ;
#814 = CARTESIAN_POINT ( 'NONE',  ( -12.50000000000000178, 1.550000000000000266, 6.500000000000000888 ) ) ;
#815 = DIRECTION ( 'NONE',  ( -0.000000000000000000, 1.000000000000000000, -0.000000000000000000 ) ) ;
#816 = ORIENTED_EDGE ( 'NONE', *, *, #818, .T. ) ;
#817 = PLANE ( 'NONE',  #401 ) ;
#818 = EDGE_CURVE ( 'NONE', #272, #1091, #291, .T. ) ;
#819 = VERTEX_POINT ( 'NONE', #1177 ) ;
#820 = DIRECTION ( 'NONE',  ( 0.000000000000000000, -0.000000000000000000, 1.000000000000000000 ) ) ;
#821 = DIRECTION ( 'NONE',  ( -0.4472135954999579277, 0.000000000000000000, -0.8944271909999158554 ) ) ;
#822 = ORIENTED_EDGE ( 'NONE', *, *, #1370, .T. ) ;
#823 = CARTESIAN_POINT ( 'NONE',  ( -18.95000000000000995, 105.6874999999999858, 5.500000000000000888 ) ) ;
#824 = VECTOR ( 'NONE', #438, 1000.000000000000000 ) ;
#825 = ORIENTED_EDGE ( 'NONE', *, *, #242, .F. ) ;
#826 = AXIS2_PLACEMENT_3D ( 'NONE', #814, #269, #467 ) ;
#827 = EDGE_CURVE ( 'NONE', #1175, #846, #1070, .T. ) ;
#828 = LINE ( 'NONE', #33, #491 ) ;
#829 = VECTOR ( 'NONE', #905, 1000.000000000000000 ) ;
#830 = CARTESIAN_POINT ( 'NONE',  ( -18.95000000000000995, 38.56249999999999289, 5.500000000000000888 ) ) ;
#831 = FACE_OUTER_BOUND ( 'NONE', #14, .T. ) ;
#832 = ORIENTED_EDGE ( 'NONE', *, *, #736, .F. ) ;
#833 = LINE ( 'NONE', #369, #1435 ) ;
#834 = ORIENTED_EDGE ( 'NONE', *, *, #111, .T. ) ;
#835 = DIRECTION ( 'NONE',  ( 0.000000000000000000, -0.4472135954999579277, -0.8944271909999158554 ) ) ;
#836 = EDGE_CURVE ( 'NONE', #299, #902, #407, .T. ) ;
#837 = CARTESIAN_POINT ( 'NONE',  ( -18.45000000000000639, 105.6874999999999858, 6.500000000000000888 ) ) ;
#838 = ORIENTED_EDGE ( 'NONE', *, *, #1129, .F. ) ;
#839 = LINE ( 'NONE', #1270, #1336 ) ;
#840 = LINE ( 'NONE', #1157, #1149 ) ;
#841 = ORIENTED_EDGE ( 'NONE', *, *, #785, .T. ) ;
#842 = DIRECTION ( 'NONE',  ( 0.000000000000000000, -0.000000000000000000, -1.000000000000000000 ) ) ;
#843 = ORIENTED_EDGE ( 'NONE', *, *, #341, .F. ) ;
#844 = CARTESIAN_POINT ( 'NONE',  ( -16.95000000000000639, 33.56249999999999289, 6.500000000000000888 ) ) ;
#845 = DIRECTION ( 'NONE',  ( 1.000000000000000000, 0.000000000000000000, 0.000000000000000000 ) ) ;
#846 = VERTEX_POINT ( 'NONE', #509 ) ;
#847 = VECTOR ( 'NONE', #344, 1000.000000000000000 ) ;
#848 = AXIS2_PLACEMENT_3D ( 'NONE', #187, #621, #1073 ) ;
#849 = LINE ( 'NONE', #739, #109 ) ;
#850 = VECTOR ( 'NONE', #878, 1000.000000000000000 ) ;
#851 = AXIS2_PLACEMENT_3D ( 'NONE', #1426, #764, #389 ) ;
#852 = DIRECTION ( 'NONE',  ( 1.000000000000000000, 0.000000000000000000, 0.000000000000000000 ) ) ;
#853 = AXIS2_PLACEMENT_3D ( 'NONE', #48, #1034, #1044 ) ;
#854 = DIRECTION ( 'NONE',  ( -0.000000000000000000, -0.000000000000000000, -1.000000000000000000 ) ) ;
#855 = VERTEX_POINT ( 'NONE', #1410 ) ;
#856 = DIRECTION ( 'NONE',  ( 1.000000000000000000, 0.000000000000000000, 0.000000000000000000 ) ) ;
#857 = ORIENTED_EDGE ( 'NONE', *, *, #371, .T. ) ;
#858 = CARTESIAN_POINT ( 'NONE',  ( -3.049999999999995381, 33.56249999999999289, 6.500000000000000888 ) ) ;
#859 = CARTESIAN_POINT ( 'NONE',  ( -7.500000000000002665, 142.6999999999999886, 6.500000000000000888 ) ) ;
#860 = CARTESIAN_POINT ( 'NONE',  ( -16.94999999999999929, 110.6875000000000000, 1.500000000000000000 ) ) ;
#861 = ORIENTED_EDGE ( 'NONE', *, *, #1129, .T. ) ;
#862 = EDGE_CURVE ( 'NONE', #1371, #1068, #196, .T. ) ;
#863 = LINE ( 'NONE', #513, #1032 ) ;
#864 = DIRECTION ( 'NONE',  ( -1.000000000000000000, 0.000000000000000000, 0.000000000000000000 ) ) ;
#865 = DIRECTION ( 'NONE',  ( -1.000000000000000000, 0.000000000000000000, 0.000000000000000000 ) ) ;
#866 = DIRECTION ( 'NONE',  ( 0.000000000000000000, 1.000000000000000000, 0.000000000000000000 ) ) ;
#867 = DIRECTION ( 'NONE',  ( 0.000000000000000000, 1.000000000000000000, 0.000000000000000000 ) ) ;
#868 = EDGE_CURVE ( 'NONE', #744, #210, #204, .T. ) ;
#869 = EDGE_CURVE ( 'NONE', #278, #110, #973, .T. ) ;
#870 = DIRECTION ( 'NONE',  ( 0.000000000000000000, -1.000000000000000000, 0.000000000000000000 ) ) ;
#871 = VECTOR ( 'NONE', #1384, 1000.000000000000000 ) ;
#872 = CARTESIAN_POINT ( 'NONE',  ( -3.050000000000005151, 110.6875000000000000, 6.500000000000000888 ) ) ;
#873 = VECTOR ( 'NONE', #1184, 1000.000000000000000 ) ;
#874 = DIRECTION ( 'NONE',  ( 0.000000000000000000, -0.000000000000000000, 1.000000000000000000 ) ) ;
#875 = LINE ( 'NONE', #328, #128 ) ;
#876 = PLANE ( 'NONE',  #704 ) ;
#877 = VECTOR ( 'NONE', #864, 1000.000000000000000 ) ;
#878 = DIRECTION ( 'NONE',  ( -1.000000000000000000, -0.000000000000000000, -0.000000000000000000 ) ) ;
#879 = ORIENTED_EDGE ( 'NONE', *, *, #1241, .F. ) ;
#880 = CARTESIAN_POINT ( 'NONE',  ( -18.44999999999999929, 110.6875000000000000, 1.500000000000000000 ) ) ;
#881 = CARTESIAN_POINT ( 'NONE',  ( -1.549999999999995381, 33.56249999999999289, 6.500000000000000888 ) ) ;
#882 = EDGE_CURVE ( 'NONE', #927, #486, #1418, .T. ) ;
#883 = LINE ( 'NONE', #1322, #403 ) ;
#884 = PLANE ( 'NONE',  #1240 ) ;
#885 = EDGE_CURVE ( 'NONE', #21, #710, #638, .T. ) ;
#886 = PLANE ( 'NONE',  #1085 ) ;
#887 = ORIENTED_EDGE ( 'NONE', *, *, #882, .F. ) ;
#888 = EDGE_CURVE ( 'NONE', #404, #725, #958, .T. ) ;
#889 = ORIENTED_EDGE ( 'NONE', *, *, #124, .T. ) ;
#890 = PLANE ( 'NONE',  #1352 ) ;
#891 = CARTESIAN_POINT ( 'NONE',  ( 0.000000000000000000, 0.000000000000000000, 1.500000000000000000 ) ) ;
#892 = VECTOR ( 'NONE', #391, 1000.000000000000000 ) ;
#893 = LINE ( 'NONE', #1343, #1222 ) ;
#894 = ORIENTED_EDGE ( 'NONE', *, *, #257, .F. ) ;
#895 = VECTOR ( 'NONE', #613, 1000.000000000000000 ) ;
#896 = CARTESIAN_POINT ( 'NONE',  ( -18.45000000000000639, 33.56249999999999289, 1.500000000000000000 ) ) ;
#897 = AXIS2_PLACEMENT_3D ( 'NONE', #215, #647, #544 ) ;
#898 = VECTOR ( 'NONE', #108, 1000.000000000000000 ) ;
#899 = ADVANCED_FACE ( 'NONE', ( #1076 ), #298, .F. ) ;
#900 = ORIENTED_EDGE ( 'NONE', *, *, #906, .F. ) ;
#901 = DIRECTION ( 'NONE',  ( 1.000000000000000000, 0.000000000000000000, -0.000000000000000000 ) ) ;
#902 = VERTEX_POINT ( 'NONE', #623 ) ;
#903 = CARTESIAN_POINT ( 'NONE',  ( -1.550000000000004929, 110.6875000000000000, 6.500000000000000888 ) ) ;
#904 = ORIENTED_EDGE ( 'NONE', *, *, #735, .T. ) ;
#905 = DIRECTION ( 'NONE',  ( -0.000000000000000000, -1.000000000000000000, -0.000000000000000000 ) ) ;
#906 = EDGE_CURVE ( 'NONE', #1109, #288, #309, .T. ) ;
#907 = VERTEX_POINT ( 'NONE', #748 ) ;
#908 = CARTESIAN_POINT ( 'NONE',  ( -1.049999999999995381, 38.56249999999999289, 5.500000000000000888 ) ) ;
#909 = CARTESIAN_POINT ( 'NONE',  ( -1.549999999999995381, 38.56249999999999289, 1.500000000000000000 ) ) ;
#910 = ORIENTED_EDGE ( 'NONE', *, *, #1201, .F. ) ;
#911 = ORIENTED_EDGE ( 'NONE', *, *, #1400, .T. ) ;
#912 = CARTESIAN_POINT ( 'NONE',  ( -16.95000000000000639, 38.56249999999999289, 1.500000000000000000 ) ) ;
#913 = EDGE_CURVE ( 'NONE', #761, #110, #1191, .T. ) ;
#914 = CARTESIAN_POINT ( 'NONE',  ( -7.500000000000002665, 1.550000000000000266, 6.500000000000000888 ) ) ;
#915 = PLANE ( 'NONE',  #1030 ) ;
#916 = ORIENTED_EDGE ( 'NONE', *, *, #363, .F. ) ;
#917 = PLANE ( 'NONE',  #578 ) ;
#918 = VECTOR ( 'NONE', #854, 1000.000000000000000 ) ;
#919 = ORIENTED_EDGE ( 'NONE', *, *, #1342, .F. ) ;
#920 = CARTESIAN_POINT ( 'NONE',  ( -12.50000000000000178, 1.050000000000000044, 5.500000000000000888 ) ) ;
#921 = DIRECTION ( 'NONE',  ( -2.602085213965208669E-16, -1.000000000000000000, 0.000000000000000000 ) ) ;
#922 = CARTESIAN_POINT ( 'NONE',  ( -16.94999999999999929, 105.6874999999999858, 1.500000000000000000 ) ) ;
#923 = LINE ( 'NONE', #1028, #273 ) ;
#924 = ORIENTED_EDGE ( 'NONE', *, *, #7, .T. ) ;
#925 = ADVANCED_FACE ( 'NONE', ( #67 ), #99, .F. ) ;
#926 = LINE ( 'NONE', #61, #783 ) ;
#927 = VERTEX_POINT ( 'NONE', #314 ) ;
#928 = LINE ( 'NONE', #830, #426 ) ;
#929 = DIRECTION ( 'NONE',  ( -0.000000000000000000, -0.000000000000000000, -1.000000000000000000 ) ) ;
#930 = ORIENTED_EDGE ( 'NONE', *, *, #236, .F. ) ;
#931 = DIRECTION ( 'NONE',  ( -0.000000000000000000, -0.000000000000000000, -1.000000000000000000 ) ) ;
#932 = EDGE_CURVE ( 'NONE', #1091, #1266, #765, .T. ) ;
#933 = ORIENTED_EDGE ( 'NONE', *, *, #458, .F. ) ;
#934 = LINE ( 'NONE', #1141, #1080 ) ;
#935 = DIRECTION ( 'NONE',  ( 1.000000000000000000, 0.000000000000000000, 0.000000000000000000 ) ) ;
#936 = PLANE ( 'NONE',  #1376 ) ;
#937 = EDGE_LOOP ( 'NONE', ( #841, #549, #1275, #861 ) ) ;
#938 = LINE ( 'NONE', #610, #1083 ) ;
#939 = AXIS2_PLACEMENT_3D ( 'NONE', #424, #83, #1078 ) ;
#940 = ORIENTED_EDGE ( 'NONE', *, *, #458, .T. ) ;
#941 = AXIS2_PLACEMENT_3D ( 'NONE', #746, #1189, #1396 ) ;
#942 = EDGE_CURVE ( 'NONE', #55, #1335, #1063, .T. ) ;
#943 = FACE_OUTER_BOUND ( 'NONE', #1394, .T. ) ;
#944 = VECTOR ( 'NONE', #98, 1000.000000000000000 ) ;
#945 = LINE ( 'NONE', #914, #425 ) ;
#946 = CARTESIAN_POINT ( 'NONE',  ( -12.50000000000000178, 141.1999999999999886, 1.500000000000000000 ) ) ;
#947 = ORIENTED_EDGE ( 'NONE', *, *, #1267, .F. ) ;
#948 = DIRECTION ( 'NONE',  ( 1.000000000000000000, 0.000000000000000000, 0.000000000000000000 ) ) ;
#949 = ORIENTED_EDGE ( 'NONE', *, *, #869, .T. ) ;
#950 = DIRECTION ( 'NONE',  ( -0.000000000000000000, -0.000000000000000000, -1.000000000000000000 ) ) ;
#951 = PLANE ( 'NONE',  #130 ) ;
#952 = CARTESIAN_POINT ( 'NONE',  ( 0.000000000000000000, 0.000000000000000000, 1.500000000000000000 ) ) ;
#953 = CARTESIAN_POINT ( 'NONE',  ( -18.45000000000000639, 33.56249999999999289, 6.500000000000000888 ) ) ;
#954 = ORIENTED_EDGE ( 'NONE', *, *, #658, .T. ) ;
#955 = CARTESIAN_POINT ( 'NONE',  ( -1.049999999999995381, 33.56249999999999289, 5.500000000000000888 ) ) ;
#956 = EDGE_CURVE ( 'NONE', #976, #1281, #390, .T. ) ;
#957 = DIRECTION ( 'NONE',  ( 0.000000000000000000, 1.000000000000000000, -0.000000000000000000 ) ) ;
#958 = LINE ( 'NONE', #398, #17 ) ;
#959 = PRESENTATION_STYLE_ASSIGNMENT (( #101 ) ) ;
#960 = ORIENTED_EDGE ( 'NONE', *, *, #1037, .T. ) ;
#961 = PRESENTATION_LAYER_ASSIGNMENT (  '', '', ( #675 ) ) ;
#962 = VECTOR ( 'NONE', #717, 1000.000000000000000 ) ;
#963 = CARTESIAN_POINT ( 'NONE',  ( -20.00000000000000355, 0.000000000000000000, 1.500000000000000000 ) ) ;
#964 =( GEOMETRIC_REPRESENTATION_CONTEXT ( 3 ) GLOBAL_UNCERTAINTY_ASSIGNED_CONTEXT ( ( #992 ) ) GLOBAL_UNIT_ASSIGNED_CONTEXT ( ( #1090, #1317, #1309 ) ) REPRESENTATION_CONTEXT ( 'NONE', 'WORKASPACE' ) );
#965 = ORIENTED_EDGE ( 'NONE', *, *, #205, .F. ) ;
#966 = VECTOR ( 'NONE', #921, 1000.000000000000000 ) ;
#967 = CARTESIAN_POINT ( 'NONE',  ( -1.049999999999995381, 105.6874999999999858, 5.500000000000000888 ) ) ;
#968 = CARTESIAN_POINT ( 'NONE',  ( -12.50000000000000178, 1.550000000000000266, 5.500000000000000888 ) ) ;
#969 = ADVANCED_FACE ( 'NONE', ( #777 ), #559, .F. ) ;
#970 = CARTESIAN_POINT ( 'NONE',  ( -1.049999999999995381, 38.56249999999999289, 5.500000000000000888 ) ) ;
#971 = ORIENTED_EDGE ( 'NONE', *, *, #827, .T. ) ;
#972 = DIRECTION ( 'NONE',  ( -1.000000000000000000, 0.000000000000000000, 0.000000000000000000 ) ) ;
#973 = LINE ( 'NONE', #1283, #918 ) ;
#974 = DIRECTION ( 'NONE',  ( -1.000000000000000000, -0.000000000000000000, -0.000000000000000000 ) ) ;
#975 = ADVANCED_FACE ( 'NONE', ( #6, #542, #999, #1112, #1218, #117, #230 ), #10, .F. ) ;
#976 = VERTEX_POINT ( 'NONE', #237 ) ;
#977 = CARTESIAN_POINT ( 'NONE',  ( -12.50000000000000178, 141.1999999999999886, 6.500000000000000888 ) ) ;
#978 = DIRECTION ( 'NONE',  ( 1.000000000000000000, -2.602085213965208669E-16, 0.000000000000000000 ) ) ;
#979 = DIRECTION ( 'NONE',  ( 0.000000000000000000, -0.000000000000000000, 1.000000000000000000 ) ) ;
#980 = CARTESIAN_POINT ( 'NONE',  ( -1.049999999999995381, 110.6875000000000000, 5.500000000000000888 ) ) ;
#981 = PLANE ( 'NONE',  #939 ) ;
#982 = ORIENTED_EDGE ( 'NONE', *, *, #1099, .F. ) ;
#983 = EDGE_CURVE ( 'NONE', #1266, #707, #1006, .T. ) ;
#984 = CARTESIAN_POINT ( 'NONE',  ( -12.50000000000000178, 143.1999999999999886, 5.500000000000000888 ) ) ;
#985 = AXIS2_PLACEMENT_3D ( 'NONE', #524, #972, #1304 ) ;
#986 = ORIENTED_EDGE ( 'NONE', *, *, #186, .F. ) ;
#987 = CARTESIAN_POINT ( 'NONE',  ( -1.550000000000003597, 105.6874999999999858, 6.500000000000000888 ) ) ;
#988 = VECTOR ( 'NONE', #435, 1000.000000000000000 ) ;
#989 = CARTESIAN_POINT ( 'NONE',  ( 0.000000000000000000, 144.2500000000000000, 0.000000000000000000 ) ) ;
#990 = DIRECTION ( 'NONE',  ( 1.000000000000000000, 0.000000000000000000, 0.000000000000000000 ) ) ;
#991 = VECTOR ( 'NONE', #948, 1000.000000000000000 ) ;
#992 = UNCERTAINTY_MEASURE_WITH_UNIT (LENGTH_MEASURE( 1.000000000000000082E-05 ), #1090, 'distance_accuracy_value', 'NONE');
#993 = EDGE_CURVE ( 'NONE', #319, #643, #212, .T. ) ;
#994 = VERTEX_POINT ( 'NONE', #989 ) ;
#995 = CARTESIAN_POINT ( 'NONE',  ( -3.049999999999995381, 33.56249999999999289, 6.500000000000000888 ) ) ;
#996 = ADVANCED_FACE ( 'NONE', ( #415 ), #107, .T. ) ;
#997 = EDGE_CURVE ( 'NONE', #598, #1167, #206, .T. ) ;
#998 = ORIENTED_EDGE ( 'NONE', *, *, #1286, .F. ) ;
#999 = FACE_BOUND ( 'NONE', #441, .T. ) ;
#1000 = EDGE_LOOP ( 'NONE', ( #460, #470, #673, #1397 ) ) ;
#1001 = DIRECTION ( 'NONE',  ( -0.000000000000000000, -0.000000000000000000, -1.000000000000000000 ) ) ;
#1002 = CARTESIAN_POINT ( 'NONE',  ( -12.50000000000000178, 142.6999999999999886, 1.500000000000000000 ) ) ;
#1003 = ORIENTED_EDGE ( 'NONE', *, *, #1213, .T. ) ;
#1004 = ORIENTED_EDGE ( 'NONE', *, *, #862, .F. ) ;
#1005 = LINE ( 'NONE', #115, #1011 ) ;
#1006 = LINE ( 'NONE', #343, #1058 ) ;
#1007 =( GEOMETRIC_REPRESENTATION_CONTEXT ( 3 ) GLOBAL_UNCERTAINTY_ASSIGNED_CONTEXT ( ( #433 ) ) GLOBAL_UNIT_ASSIGNED_CONTEXT ( ( #1293, #743, #1202 ) ) REPRESENTATION_CONTEXT ( 'NONE', 'WORKASPACE' ) );
#1008 = CARTESIAN_POINT ( 'NONE',  ( -18.45000000000000639, 110.6875000000000000, 6.500000000000000888 ) ) ;
#1009 = ADVANCED_FACE ( 'NONE', ( #742 ), #510, .F. ) ;
#1010 = ORIENTED_EDGE ( 'NONE', *, *, #569, .F. ) ;
#1011 = VECTOR ( 'NONE', #1102, 1000.000000000000000 ) ;
#1012 = CARTESIAN_POINT ( 'NONE',  ( -20.00000000000000355, 0.000000000000000000, 1.500000000000000000 ) ) ;
#1013 = ORIENTED_EDGE ( 'NONE', *, *, #363, .T. ) ;
#1014 = FACE_OUTER_BOUND ( 'NONE', #688, .T. ) ;
#1015 = ORIENTED_EDGE ( 'NONE', *, *, #1400, .F. ) ;
#1016 = CARTESIAN_POINT ( 'NONE',  ( -1.549999999999995381, 105.6874999999999858, 6.500000000000000888 ) ) ;
#1017 = VERTEX_POINT ( 'NONE', #980 ) ;
#1018 = EDGE_CURVE ( 'NONE', #606, #527, #292, .T. ) ;
#1019 = ORIENTED_EDGE ( 'NONE', *, *, #997, .T. ) ;
#1020 = LINE ( 'NONE', #27, #784 ) ;
#1021 = CARTESIAN_POINT ( 'NONE',  ( -1.049999999999995381, 105.6874999999999858, 5.500000000000000888 ) ) ;
#1022 = APPLICATION_CONTEXT ( 'automotive_design' ) ;
#1023 = VERTEX_POINT ( 'NONE', #1185 ) ;
#1024 = ORIENTED_EDGE ( 'NONE', *, *, #124, .F. ) ;
#1025 = DIRECTION ( 'NONE',  ( 0.4472135954999579277, 0.000000000000000000, -0.8944271909999158554 ) ) ;
#1026 = EDGE_CURVE ( 'NONE', #1221, #288, #82, .T. ) ;
#1027 = DIRECTION ( 'NONE',  ( 0.000000000000000000, -0.8944271909999159664, -0.4472135954999579832 ) ) ;
#1028 = CARTESIAN_POINT ( 'NONE',  ( -16.94999999999999929, 110.6875000000000000, 6.500000000000000888 ) ) ;
#1029 = ORIENTED_EDGE ( 'NONE', *, *, #1123, .F. ) ;
#1030 = AXIS2_PLACEMENT_3D ( 'NONE', #1350, #353, #808 ) ;
#1031 = FACE_OUTER_BOUND ( 'NONE', #1079, .T. ) ;
#1032 = VECTOR ( 'NONE', #97, 1000.000000000000000 ) ;
#1033 = ORIENTED_EDGE ( 'NONE', *, *, #774, .T. ) ;
#1034 = DIRECTION ( 'NONE',  ( 0.000000000000000000, 0.000000000000000000, 1.000000000000000000 ) ) ;
#1035 = EDGE_CURVE ( 'NONE', #1116, #55, #875, .T. ) ;
#1036 = DIRECTION ( 'NONE',  ( -0.4472135954999579277, 0.000000000000000000, 0.8944271909999158554 ) ) ;
#1037 = EDGE_CURVE ( 'NONE', #486, #26, #596, .T. ) ;
#1038 = CARTESIAN_POINT ( 'NONE',  ( -16.94999999999999929, 110.6875000000000000, 6.500000000000000888 ) ) ;
#1039 = EDGE_LOOP ( 'NONE', ( #498, #263, #1423, #579 ) ) ;
#1040 = CARTESIAN_POINT ( 'NONE',  ( -12.50000000000000178, 1.550000000000000266, 1.500000000000000000 ) ) ;
#1041 = DIRECTION ( 'NONE',  ( 1.000000000000000000, -0.000000000000000000, -0.000000000000000000 ) ) ;
#1042 = LINE ( 'NONE', #970, #522 ) ;
#1043 = ORIENTED_EDGE ( 'NONE', *, *, #1187, .F. ) ;
#1044 = DIRECTION ( 'NONE',  ( -1.000000000000000000, 0.000000000000000000, 0.000000000000000000 ) ) ;
#1045 = PLANE ( 'NONE',  #1285 ) ;
#1046 = ORIENTED_EDGE ( 'NONE', *, *, #658, .F. ) ;
#1047 = DIRECTION ( 'NONE',  ( -1.000000000000000000, 0.000000000000000000, -0.000000000000000000 ) ) ;
#1048 = EDGE_CURVE ( 'NONE', #710, #319, #928, .T. ) ;
#1049 = VERTEX_POINT ( 'NONE', #720 ) ;
#1050 = CARTESIAN_POINT ( 'NONE',  ( 0.000000000000000000, 144.2500000000000000, 1.500000000000000000 ) ) ;
#1051 = CARTESIAN_POINT ( 'NONE',  ( -18.45000000000000639, 33.56249999999999289, 6.500000000000000888 ) ) ;
#1052 = CARTESIAN_POINT ( 'NONE',  ( 0.000000000000000000, 144.2500000000000000, 6.500000000000000888 ) ) ;
#1053 = ORIENTED_EDGE ( 'NONE', *, *, #620, .F. ) ;
#1054 = EDGE_CURVE ( 'NONE', #902, #239, #1132, .T. ) ;
#1055 = DIRECTION ( 'NONE',  ( 0.000000000000000000, 0.000000000000000000, 1.000000000000000000 ) ) ;
#1056 = AXIS2_PLACEMENT_3D ( 'NONE', #570, #1027, #42 ) ;
#1057 = ORIENTED_EDGE ( 'NONE', *, *, #236, .T. ) ;
#1058 = VECTOR ( 'NONE', #794, 1000.000000000000000 ) ;
#1059 = AXIS2_PLACEMENT_3D ( 'NONE', #508, #957, #396 ) ;
#1060 = VERTEX_POINT ( 'NONE', #1051 ) ;
#1061 = DIRECTION ( 'NONE',  ( -0.000000000000000000, -0.000000000000000000, -1.000000000000000000 ) ) ;
#1062 = EDGE_LOOP ( 'NONE', ( #1144, #838, #1272, #495 ) ) ;
#1063 = LINE ( 'NONE', #502, #1287 ) ;
#1064 = CARTESIAN_POINT ( 'NONE',  ( -3.050000000000003819, 105.6874999999999858, 6.500000000000000888 ) ) ;
#1065 = ORIENTED_EDGE ( 'NONE', *, *, #481, .T. ) ;
#1066 = ADVANCED_FACE ( 'NONE', ( #492 ), #1159, .F. ) ;
#1067 = CARTESIAN_POINT ( 'NONE',  ( -18.44999999999999929, 110.6875000000000000, 6.500000000000000888 ) ) ;
#1068 = VERTEX_POINT ( 'NONE', #1268 ) ;
#1069 = DIRECTION ( 'NONE',  ( 0.000000000000000000, 0.000000000000000000, -1.000000000000000000 ) ) ;
#1070 = LINE ( 'NONE', #952, #37 ) ;
#1071 = CARTESIAN_POINT ( 'NONE',  ( -18.45000000000000639, 33.56249999999999289, 6.500000000000000888 ) ) ;
#1072 = ORIENTED_EDGE ( 'NONE', *, *, #1026, .F. ) ;
#1073 = DIRECTION ( 'NONE',  ( -1.000000000000000000, 0.000000000000000000, -0.000000000000000000 ) ) ;
#1074 = ADVANCED_FACE ( 'NONE', ( #713 ), #1165, .T. ) ;
#1075 = PLANE ( 'NONE',  #447 ) ;
#1076 = FACE_OUTER_BOUND ( 'NONE', #1205, .T. ) ;
#1077 = DIRECTION ( 'NONE',  ( 0.000000000000000000, 1.000000000000000000, -0.000000000000000000 ) ) ;
#1078 = DIRECTION ( 'NONE',  ( -1.000000000000000000, 0.000000000000000000, -0.000000000000000000 ) ) ;
#1079 = EDGE_LOOP ( 'NONE', ( #657, #982, #137, #179, #1003, #191 ) ) ;
#1080 = VECTOR ( 'NONE', #1025, 1000.000000000000114 ) ;
#1081 = VECTOR ( 'NONE', #732, 1000.000000000000000 ) ;
#1082 = FACE_OUTER_BOUND ( 'NONE', #472, .T. ) ;
#1083 = VECTOR ( 'NONE', #1248, 1000.000000000000114 ) ;
#1084 = ORIENTED_EDGE ( 'NONE', *, *, #1087, .F. ) ;
#1085 = AXIS2_PLACEMENT_3D ( 'NONE', #672, #990, #773 ) ;
#1086 = FACE_OUTER_BOUND ( 'NONE', #157, .T. ) ;
#1087 = EDGE_CURVE ( 'NONE', #643, #719, #1142, .T. ) ;
#1088 = CARTESIAN_POINT ( 'NONE',  ( 0.000000000000000000, 0.000000000000000000, 6.500000000000000888 ) ) ;
#1089 = ORIENTED_EDGE ( 'NONE', *, *, #790, .T. ) ;
#1090 =( LENGTH_UNIT ( ) NAMED_UNIT ( * ) SI_UNIT ( .MILLI., .METRE. ) );
#1091 = VERTEX_POINT ( 'NONE', #261 ) ;
#1092 = PLANE ( 'NONE',  #985 ) ;
#1093 = PLANE ( 'NONE',  #656 ) ;
#1094 = CARTESIAN_POINT ( 'NONE',  ( -12.50000000000000178, 1.550000000000000266, 1.500000000000000000 ) ) ;
#1095 = FACE_OUTER_BOUND ( 'NONE', #395, .T. ) ;
#1096 = EDGE_CURVE ( 'NONE', #376, #454, #604, .T. ) ;
#1097 = LINE ( 'NONE', #500, #223 ) ;
#1098 = LINE ( 'NONE', #1002, #580 ) ;
#1099 = EDGE_CURVE ( 'NONE', #39, #1340, #164, .T. ) ;
#1100 = DIRECTION ( 'NONE',  ( 1.000000000000000000, 0.000000000000000000, -0.000000000000000000 ) ) ;
#1101 = ORIENTED_EDGE ( 'NONE', *, *, #983, .F. ) ;
#1102 = DIRECTION ( 'NONE',  ( -0.000000000000000000, -0.000000000000000000, -1.000000000000000000 ) ) ;
#1103 = VECTOR ( 'NONE', #296, 1000.000000000000000 ) ;
#1104 = ORIENTED_EDGE ( 'NONE', *, *, #111, .F. ) ;
#1105 = VECTOR ( 'NONE', #1324, 1000.000000000000000 ) ;
#1106 = DIRECTION ( 'NONE',  ( 0.4472135954999579277, 0.000000000000000000, -0.8944271909999158554 ) ) ;
#1107 = CARTESIAN_POINT ( 'NONE',  ( -3.049999999999995381, 38.56249999999999289, 6.500000000000000888 ) ) ;
#1108 = CARTESIAN_POINT ( 'NONE',  ( -12.50000000000000178, 1.550000000000000266, 6.500000000000000888 ) ) ;
#1109 = VERTEX_POINT ( 'NONE', #1152 ) ;
#1110 = CARTESIAN_POINT ( 'NONE',  ( -1.549999999999995381, 33.56249999999999289, 6.500000000000000888 ) ) ;
#1111 = EDGE_CURVE ( 'NONE', #125, #1335, #253, .T. ) ;
#1112 = FACE_BOUND ( 'NONE', #1276, .T. ) ;
#1113 = ADVANCED_FACE ( 'NONE', ( #484 ), #283, .F. ) ;
#1114 = DIRECTION ( 'NONE',  ( 0.4472135954999579277, 0.000000000000000000, -0.8944271909999158554 ) ) ;
#1115 = ORIENTED_EDGE ( 'NONE', *, *, #300, .F. ) ;
#1116 = VERTEX_POINT ( 'NONE', #57 ) ;
#1117 = LINE ( 'NONE', #1107, #374 ) ;
#1118 = ORIENTED_EDGE ( 'NONE', *, *, #92, .T. ) ;
#1119 = VECTOR ( 'NONE', #815, 1000.000000000000000 ) ;
#1120 = CARTESIAN_POINT ( 'NONE',  ( -12.50000000000000178, 1.550000000000000266, 6.500000000000000888 ) ) ;
#1121 = ORIENTED_EDGE ( 'NONE', *, *, #138, .T. ) ;
#1122 = AXIS2_PLACEMENT_3D ( 'NONE', #49, #1364, #820 ) ;
#1123 = EDGE_CURVE ( 'NONE', #527, #1375, #945, .T. ) ;
#1124 = VECTOR ( 'NONE', #1298, 1000.000000000000000 ) ;
#1125 = ORIENTED_EDGE ( 'NONE', *, *, #1123, .T. ) ;
#1126 = CARTESIAN_POINT ( 'NONE',  ( -16.94999999999999929, 105.6874999999999858, 6.500000000000000888 ) ) ;
#1127 = CARTESIAN_POINT ( 'NONE',  ( -12.50000000000000178, 142.6999999999999886, 6.500000000000000888 ) ) ;
#1128 = ORIENTED_EDGE ( 'NONE', *, *, #1433, .F. ) ;
#1129 = EDGE_CURVE ( 'NONE', #1049, #751, #1348, .T. ) ;
#1130 = ORIENTED_EDGE ( 'NONE', *, *, #250, .F. ) ;
#1131 = FACE_OUTER_BOUND ( 'NONE', #281, .T. ) ;
#1132 = LINE ( 'NONE', #366, #1310 ) ;
#1133 = PLANE ( 'NONE',  #754 ) ;
#1134 = ORIENTED_EDGE ( 'NONE', *, *, #193, .T. ) ;
#1135 = FACE_OUTER_BOUND ( 'NONE', #1172, .T. ) ;
#1136 = ADVANCED_FACE ( 'NONE', ( #148 ), #359, .F. ) ;
#1137 = VERTEX_POINT ( 'NONE', #476 ) ;
#1138 = EDGE_CURVE ( 'NONE', #1355, #1416, #849, .T. ) ;
#1139 = PRODUCT_RELATED_PRODUCT_CATEGORY ( 'part', '', ( #1230 ) ) ;
#1140 = EDGE_CURVE ( 'NONE', #1068, #637, #1174, .T. ) ;
#1141 = CARTESIAN_POINT ( 'NONE',  ( -1.549999999999995381, 33.56249999999999289, 6.500000000000000888 ) ) ;
#1142 = LINE ( 'NONE', #807, #1217 ) ;
#1143 = PLANE ( 'NONE',  #155 ) ;
#1144 = ORIENTED_EDGE ( 'NONE', *, *, #1413, .T. ) ;
#1145 = VECTOR ( 'NONE', #2, 1000.000000000000114 ) ;
#1146 = CARTESIAN_POINT ( 'NONE',  ( -12.50000000000000178, 1.550000000000000266, 5.500000000000000888 ) ) ;
#1147 = LINE ( 'NONE', #1278, #521 ) ;
#1148 = VECTOR ( 'NONE', #1299, 1000.000000000000000 ) ;
#1149 = VECTOR ( 'NONE', #1041, 1000.000000000000000 ) ;
#1150 = ORIENTED_EDGE ( 'NONE', *, *, #444, .F. ) ;
#1151 = AXIS2_PLACEMENT_3D ( 'NONE', #646, #1100, #585 ) ;
#1152 = CARTESIAN_POINT ( 'NONE',  ( -1.549999999999995381, 38.56249999999999289, 5.500000000000000888 ) ) ;
#1153 = ADVANCED_FACE ( 'NONE', ( #287 ), #411, .T. ) ;
#1154 = DIRECTION ( 'NONE',  ( 1.000000000000000000, 0.000000000000000000, 0.000000000000000000 ) ) ;
#1155 = ORIENTED_EDGE ( 'NONE', *, *, #906, .T. ) ;
#1156 = CARTESIAN_POINT ( 'NONE',  ( -16.94999999999999929, 105.6874999999999858, 6.500000000000000888 ) ) ;
#1157 = CARTESIAN_POINT ( 'NONE',  ( -16.95000000000000639, 38.56249999999999289, 6.500000000000000888 ) ) ;
#1158 = ORIENTED_EDGE ( 'NONE', *, *, #418, .T. ) ;
#1159 = PLANE ( 'NONE',  #1122 ) ;
#1160 = DIRECTION ( 'NONE',  ( -1.000000000000000000, -0.000000000000000000, 0.000000000000000000 ) ) ;
#1161 = ORIENTED_EDGE ( 'NONE', *, *, #64, .F. ) ;
#1162 = CARTESIAN_POINT ( 'NONE',  ( -12.50000000000000178, 142.6999999999999886, 1.500000000000000000 ) ) ;
#1163 = CARTESIAN_POINT ( 'NONE',  ( -1.549999999999995381, 33.56249999999999289, 6.500000000000000888 ) ) ;
#1164 = EDGE_LOOP ( 'NONE', ( #1013, #284, #1414, #685 ) ) ;
#1165 = PLANE ( 'NONE',  #826 ) ;
#1166 = EDGE_LOOP ( 'NONE', ( #582, #900, #119, #904 ) ) ;
#1167 = VERTEX_POINT ( 'NONE', #1415 ) ;
#1168 = LINE ( 'NONE', #173, #726 ) ;
#1169 = DIRECTION ( 'NONE',  ( -0.000000000000000000, -0.000000000000000000, -1.000000000000000000 ) ) ;
#1170 = EDGE_CURVE ( 'NONE', #719, #512, #863, .T. ) ;
#1171 = VECTOR ( 'NONE', #505, 1000.000000000000000 ) ;
#1172 = EDGE_LOOP ( 'NONE', ( #803, #1053, #69, #680 ) ) ;
#1173 = VECTOR ( 'NONE', #1429, 1000.000000000000000 ) ;
#1174 = LINE ( 'NONE', #1067, #700 ) ;
#1175 = VERTEX_POINT ( 'NONE', #963 ) ;
#1176 = FACE_OUTER_BOUND ( 'NONE', #370, .T. ) ;
#1177 = CARTESIAN_POINT ( 'NONE',  ( -12.50000000000000178, 3.050000000000000266, 6.500000000000000888 ) ) ;
#1178 = DIRECTION ( 'NONE',  ( 0.000000000000000000, 0.000000000000000000, 1.000000000000000000 ) ) ;
#1179 = LINE ( 'NONE', #640, #1173 ) ;
#1180 = ORIENTED_EDGE ( 'NONE', *, *, #1294, .F. ) ;
#1181 = EDGE_CURVE ( 'NONE', #255, #1017, #393, .T. ) ;
#1182 = FACE_OUTER_BOUND ( 'NONE', #385, .T. ) ;
#1183 = LINE ( 'NONE', #501, #759 ) ;
#1184 = DIRECTION ( 'NONE',  ( -0.000000000000000000, -0.000000000000000000, -1.000000000000000000 ) ) ;
#1185 = CARTESIAN_POINT ( 'NONE',  ( -7.500000000000002665, 142.6999999999999886, 6.500000000000000888 ) ) ;
#1186 = ORIENTED_EDGE ( 'NONE', *, *, #64, .T. ) ;
#1187 = EDGE_CURVE ( 'NONE', #1405, #170, #405, .T. ) ;
#1188 = ADVANCED_FACE ( 'NONE', ( #727 ), #1092, .F. ) ;
#1189 = DIRECTION ( 'NONE',  ( -1.000000000000000000, 2.602085213965208669E-16, 0.000000000000000000 ) ) ;
#1190 = ORIENTED_EDGE ( 'NONE', *, *, #703, .F. ) ;
#1191 = LINE ( 'NONE', #1094, #1379 ) ;
#1192 = DIRECTION ( 'NONE',  ( 0.000000000000000000, -1.000000000000000000, 0.000000000000000000 ) ) ;
#1193 = ORIENTED_EDGE ( 'NONE', *, *, #265, .T. ) ;
#1194 = AXIS2_PLACEMENT_3D ( 'NONE', #565, #29, #160 ) ;
#1195 = APPLICATION_PROTOCOL_DEFINITION ( 'draft international standard', 'automotive_design', 1998, #1022 ) ;
#1196 = VECTOR ( 'NONE', #241, 1000.000000000000000 ) ;
#1197 = FACE_OUTER_BOUND ( 'NONE', #1327, .T. ) ;
#1198 = ORIENTED_EDGE ( 'NONE', *, *, #518, .F. ) ;
#1199 = FACE_OUTER_BOUND ( 'NONE', #629, .T. ) ;
#1200 = DIRECTION ( 'NONE',  ( 1.000000000000000000, 0.000000000000000000, 0.000000000000000000 ) ) ;
#1201 = EDGE_CURVE ( 'NONE', #454, #1405, #201, .T. ) ;
#1202 =( NAMED_UNIT ( * ) SI_UNIT ( $, .STERADIAN. ) SOLID_ANGLE_UNIT ( ) );
#1203 = ORIENTED_EDGE ( 'NONE', *, *, #1368, .T. ) ;
#1204 = PLANE ( 'NONE',  #537 ) ;
#1205 = EDGE_LOOP ( 'NONE', ( #1409, #151, #1072, #139, #483, #354 ) ) ;
#1206 = CARTESIAN_POINT ( 'NONE',  ( -3.050000000000003819, 105.6874999999999858, 1.500000000000000000 ) ) ;
#1207 = CARTESIAN_POINT ( 'NONE',  ( -12.50000000000000178, 1.550000000000000266, 6.500000000000000888 ) ) ;
#1208 = ADVANCED_FACE ( 'NONE', ( #307 ), #1204, .T. ) ;
#1209 = ORIENTED_EDGE ( 'NONE', *, *, #735, .F. ) ;
#1210 = LINE ( 'NONE', #880, #397 ) ;
#1211 = DIRECTION ( 'NONE',  ( -1.000000000000000000, -0.000000000000000000, -0.000000000000000000 ) ) ;
#1212 = LINE ( 'NONE', #8, #651 ) ;
#1213 = EDGE_CURVE ( 'NONE', #1017, #239, #1388, .T. ) ;
#1214 = ORIENTED_EDGE ( 'NONE', *, *, #92, .F. ) ;
#1215 = VECTOR ( 'NONE', #134, 1000.000000000000000 ) ;
#1216 = CARTESIAN_POINT ( 'NONE',  ( -1.549999999999995381, 38.56249999999999289, 6.500000000000000888 ) ) ;
#1217 = VECTOR ( 'NONE', #1260, 1000.000000000000000 ) ;
#1218 = FACE_OUTER_BOUND ( 'NONE', #641, .T. ) ;
#1219 = AXIS2_PLACEMENT_3D ( 'NONE', #497, #362, #285 ) ;
#1220 = CARTESIAN_POINT ( 'NONE',  ( -18.45000000000000639, 38.56249999999999289, 5.500000000000000888 ) ) ;
#1221 = VERTEX_POINT ( 'NONE', #955 ) ;
#1222 = VECTOR ( 'NONE', #536, 1000.000000000000000 ) ;
#1223 = ORIENTED_EDGE ( 'NONE', *, *, #468, .F. ) ;
#1224 = EDGE_CURVE ( 'NONE', #1060, #855, #209, .T. ) ;
#1225 = LINE ( 'NONE', #9, #176 ) ;
#1226 = EDGE_LOOP ( 'NONE', ( #575, #986, #712, #251 ) ) ;
#1227 = LINE ( 'NONE', #1220, #15 ) ;
#1228 = ORIENTED_EDGE ( 'NONE', *, *, #1201, .T. ) ;
#1229 = EDGE_LOOP ( 'NONE', ( #41, #3, #436, #699 ) ) ;
#1230 = PRODUCT ( 'couvercle_panneau', 'couvercle_panneau', '', ( #752 ) ) ;
#1231 = CARTESIAN_POINT ( 'NONE',  ( -7.500000000000002665, 141.1999999999999886, 6.500000000000000888 ) ) ;
#1232 = ADVANCED_FACE ( 'NONE', ( #1197 ), #301, .T. ) ;
#1233 = CARTESIAN_POINT ( 'NONE',  ( -1.549999999999995381, 33.56249999999999289, 1.500000000000000000 ) ) ;
#1234 = ORIENTED_EDGE ( 'NONE', *, *, #102, .T. ) ;
#1235 = ORIENTED_EDGE ( 'NONE', *, *, #418, .F. ) ;
#1236 = CARTESIAN_POINT ( 'NONE',  ( -20.00000000000000355, 0.000000000000000000, 6.500000000000000888 ) ) ;
#1237 = AXIS2_PLACEMENT_3D ( 'NONE', #106, #1320, #772 ) ;
#1238 = LINE ( 'NONE', #220, #60 ) ;
#1239 = ORIENTED_EDGE ( 'NONE', *, *, #324, .T. ) ;
#1240 = AXIS2_PLACEMENT_3D ( 'NONE', #995, #112, #786 ) ;
#1241 = EDGE_CURVE ( 'NONE', #668, #1385, #762, .T. ) ;
#1242 = ORIENTED_EDGE ( 'NONE', *, *, #1140, .F. ) ;
#1243 = DIRECTION ( 'NONE',  ( -1.000000000000000000, -0.000000000000000000, -0.000000000000000000 ) ) ;
#1244 = CARTESIAN_POINT ( 'NONE',  ( -20.00000000000000355, 144.2500000000000000, 0.000000000000000000 ) ) ;
#1245 = ADVANCED_FACE ( 'NONE', ( #1182 ), #529, .T. ) ;
#1246 = EDGE_LOOP ( 'NONE', ( #235, #420, #1010, #245 ) ) ;
#1247 = CARTESIAN_POINT ( 'NONE',  ( -12.50000000000000178, 3.050000000000000266, 6.500000000000000888 ) ) ;
#1248 = DIRECTION ( 'NONE',  ( 0.4472135954999579277, 0.000000000000000000, -0.8944271909999158554 ) ) ;
#1249 = ADVANCED_FACE ( 'NONE', ( #1082 ), #90, .T. ) ;
#1250 = EDGE_CURVE ( 'NONE', #846, #666, #1097, .T. ) ;
#1251 = VERTEX_POINT ( 'NONE', #1280 ) ;
#1252 = CARTESIAN_POINT ( 'NONE',  ( -18.95000000000000995, 38.56249999999999289, 5.500000000000000888 ) ) ;
#1253 = EDGE_LOOP ( 'NONE', ( #635, #1046, #756, #232 ) ) ;
#1254 = CARTESIAN_POINT ( 'NONE',  ( -7.500000000000002665, 142.6999999999999886, 1.500000000000000000 ) ) ;
#1255 = CARTESIAN_POINT ( 'NONE',  ( -16.94999999999999929, 110.6875000000000000, 6.500000000000000888 ) ) ;
#1256 = ORIENTED_EDGE ( 'NONE', *, *, #1170, .F. ) ;
#1257 = LINE ( 'NONE', #384, #1406 ) ;
#1258 = ORIENTED_EDGE ( 'NONE', *, *, #774, .F. ) ;
#1259 = DIRECTION ( 'NONE',  ( 0.000000000000000000, 1.000000000000000000, 0.000000000000000000 ) ) ;
#1260 = DIRECTION ( 'NONE',  ( 1.000000000000000000, -0.000000000000000000, -0.000000000000000000 ) ) ;
#1261 = DIRECTION ( 'NONE',  ( 0.000000000000000000, 1.000000000000000000, 0.000000000000000000 ) ) ;
#1262 = EDGE_LOOP ( 'NONE', ( #716, #541, #44, #1033 ) ) ;
#1263 = VECTOR ( 'NONE', #845, 1000.000000000000000 ) ;
#1264 = FACE_OUTER_BOUND ( 'NONE', #345, .T. ) ;
#1265 = AXIS2_PLACEMENT_3D ( 'NONE', #373, #1358, #1036 ) ;
#1266 = VERTEX_POINT ( 'NONE', #334 ) ;
#1267 = EDGE_CURVE ( 'NONE', #1335, #637, #1210, .T. ) ;
#1268 = CARTESIAN_POINT ( 'NONE',  ( -18.44999999999999929, 110.6875000000000000, 5.500000000000000888 ) ) ;
#1269 = CARTESIAN_POINT ( 'NONE',  ( -16.95000000000000639, 33.56249999999999289, 6.500000000000000888 ) ) ;
#1270 = CARTESIAN_POINT ( 'NONE',  ( -12.50000000000000178, 142.6999999999999886, 6.500000000000000888 ) ) ;
#1271 = CARTESIAN_POINT ( 'NONE',  ( -1.550000000000004929, 110.6875000000000000, 6.500000000000000888 ) ) ;
#1272 = ORIENTED_EDGE ( 'NONE', *, *, #737, .F. ) ;
#1273 = LINE ( 'NONE', #1363, #126 ) ;
#1274 = EDGE_CURVE ( 'NONE', #200, #26, #346, .T. ) ;
#1275 = ORIENTED_EDGE ( 'NONE', *, *, #1401, .F. ) ;
#1276 = EDGE_LOOP ( 'NONE', ( #843, #1043, #910, #1431 ) ) ;
#1277 = CARTESIAN_POINT ( 'NONE',  ( -7.500000000000002665, 3.050000000000000266, 6.500000000000000888 ) ) ;
#1278 = CARTESIAN_POINT ( 'NONE',  ( -12.50000000000000178, 141.1999999999999886, 6.500000000000000888 ) ) ;
#1279 = ORIENTED_EDGE ( 'NONE', *, *, #178, .T. ) ;
#1280 = CARTESIAN_POINT ( 'NONE',  ( -3.049999999999995381, 38.56249999999999289, 6.500000000000000888 ) ) ;
#1281 = VERTEX_POINT ( 'NONE', #1434 ) ;
#1282 = LINE ( 'NONE', #858, #944 ) ;
#1283 = CARTESIAN_POINT ( 'NONE',  ( -7.500000000000002665, 1.550000000000000266, 6.500000000000000888 ) ) ;
#1284 = LINE ( 'NONE', #795, #824 ) ;
#1285 = AXIS2_PLACEMENT_3D ( 'NONE', #837, #1365, #821 ) ;
#1286 = EDGE_CURVE ( 'NONE', #976, #719, #1005, .T. ) ;
#1287 = VECTOR ( 'NONE', #1392, 1000.000000000000000 ) ;
#1288 = ORIENTED_EDGE ( 'NONE', *, *, #983, .T. ) ;
#1289 = CARTESIAN_POINT ( 'NONE',  ( -3.049999999999995381, 33.56249999999999289, 1.500000000000000000 ) ) ;
#1290 = CARTESIAN_POINT ( 'NONE',  ( -3.050000000000005151, 110.6875000000000000, 6.500000000000000888 ) ) ;
#1291 = DIRECTION ( 'NONE',  ( -1.000000000000000000, 0.000000000000000000, 0.000000000000000000 ) ) ;
#1292 = DIRECTION ( 'NONE',  ( -0.000000000000000000, -1.000000000000000000, -0.000000000000000000 ) ) ;
#1293 =( LENGTH_UNIT ( ) NAMED_UNIT ( * ) SI_UNIT ( .MILLI., .METRE. ) );
#1294 = EDGE_CURVE ( 'NONE', #1251, #454, #1117, .T. ) ;
#1295 = EDGE_LOOP ( 'NONE', ( #1223, #1387, #834, #1288 ) ) ;
#1296 = CARTESIAN_POINT ( 'NONE',  ( -16.94999999999999929, 105.6874999999999858, 6.500000000000000888 ) ) ;
#1297 = ORIENTED_EDGE ( 'NONE', *, *, #1250, .F. ) ;
#1298 = DIRECTION ( 'NONE',  ( -1.000000000000000000, 0.000000000000000000, 0.000000000000000000 ) ) ;
#1299 = DIRECTION ( 'NONE',  ( -0.000000000000000000, -0.000000000000000000, -1.000000000000000000 ) ) ;
#1300 = LINE ( 'NONE', #68, #198 ) ;
#1301 = DIRECTION ( 'NONE',  ( 0.000000000000000000, -1.000000000000000000, 0.000000000000000000 ) ) ;
#1302 = ORIENTED_EDGE ( 'NONE', *, *, #956, .T. ) ;
#1303 = EDGE_CURVE ( 'NONE', #288, #170, #798, .T. ) ;
#1304 = DIRECTION ( 'NONE',  ( 0.000000000000000000, 0.000000000000000000, 1.000000000000000000 ) ) ;
#1305 = FACE_OUTER_BOUND ( 'NONE', #266, .T. ) ;
#1306 = PLANE ( 'NONE',  #1404 ) ;
#1307 = SURFACE_STYLE_FILL_AREA ( #511 ) ;
#1308 = VECTOR ( 'NONE', #543, 1000.000000000000000 ) ;
#1309 =( NAMED_UNIT ( * ) SI_UNIT ( $, .STERADIAN. ) SOLID_ANGLE_UNIT ( ) );
#1310 = VECTOR ( 'NONE', #352, 1000.000000000000000 ) ;
#1311 = CARTESIAN_POINT ( 'NONE',  ( -1.549999999999995381, 110.6875000000000000, 6.500000000000000888 ) ) ;
#1312 = VECTOR ( 'NONE', #1211, 1000.000000000000000 ) ;
#1313 = ORIENTED_EDGE ( 'NONE', *, *, #1368, .F. ) ;
#1314 = DIRECTION ( 'NONE',  ( -1.000000000000000000, 0.000000000000000000, -0.000000000000000000 ) ) ;
#1315 = DIRECTION ( 'NONE',  ( 0.000000000000000000, -1.000000000000000000, 0.000000000000000000 ) ) ;
#1316 = PLANE ( 'NONE',  #538 ) ;
#1317 =( NAMED_UNIT ( * ) PLANE_ANGLE_UNIT ( ) SI_UNIT ( $, .RADIAN. ) );
#1318 = CARTESIAN_POINT ( 'NONE',  ( -16.95000000000000639, 33.56249999999999289, 6.500000000000000888 ) ) ;
#1319 = CARTESIAN_POINT ( 'NONE',  ( -3.050000000000005151, 110.6875000000000000, 1.500000000000000000 ) ) ;
#1320 = DIRECTION ( 'NONE',  ( 0.000000000000000000, -1.000000000000000000, 0.000000000000000000 ) ) ;
#1321 = ADVANCED_FACE ( 'NONE', ( #127 ), #890, .F. ) ;
#1322 = CARTESIAN_POINT ( 'NONE',  ( -16.95000000000000639, 33.56249999999999289, 1.500000000000000000 ) ) ;
#1323 = ORIENTED_EDGE ( 'NONE', *, *, #1286, .T. ) ;
#1324 = DIRECTION ( 'NONE',  ( -0.000000000000000000, -0.000000000000000000, -1.000000000000000000 ) ) ;
#1325 = EDGE_LOOP ( 'NONE', ( #1029, #796, #738, #1121 ) ) ;
#1326 = LINE ( 'NONE', #667, #514 ) ;
#1327 = EDGE_LOOP ( 'NONE', ( #507, #954, #789, #947 ) ) ;
#1328 = EDGE_CURVE ( 'NONE', #1281, #512, #217, .T. ) ;
#1329 = VECTOR ( 'NONE', #866, 1000.000000000000000 ) ;
#1330 = LINE ( 'NONE', #327, #782 ) ;
#1331 = VECTOR ( 'NONE', #1243, 1000.000000000000000 ) ;
#1332 = DIRECTION ( 'NONE',  ( 0.000000000000000000, 0.000000000000000000, -1.000000000000000000 ) ) ;
#1333 = AXIS2_PLACEMENT_3D ( 'NONE', #274, #53, #46 ) ;
#1334 = CARTESIAN_POINT ( 'NONE',  ( -3.049999999999995381, 38.56249999999999289, 1.500000000000000000 ) ) ;
#1335 = VERTEX_POINT ( 'NONE', #234 ) ;
#1336 = VECTOR ( 'NONE', #696, 1000.000000000000114 ) ;
#1337 = EDGE_CURVE ( 'NONE', #255, #39, #670, .T. ) ;
#1338 = ORIENTED_EDGE ( 'NONE', *, *, #1401, .T. ) ;
#1339 = CARTESIAN_POINT ( 'NONE',  ( -1.549999999999995381, 38.56249999999999289, 6.500000000000000888 ) ) ;
#1340 = VERTEX_POINT ( 'NONE', #1341 ) ;
#1341 = CARTESIAN_POINT ( 'NONE',  ( -3.050000000000005151, 110.6875000000000000, 1.500000000000000000 ) ) ;
#1342 = EDGE_CURVE ( 'NONE', #249, #1405, #1330, .T. ) ;
#1343 = CARTESIAN_POINT ( 'NONE',  ( 0.000000000000000000, 0.000000000000000000, 0.000000000000000000 ) ) ;
#1344 = ORIENTED_EDGE ( 'NONE', *, *, #178, .F. ) ;
#1345 = EDGE_LOOP ( 'NONE', ( #618, #163, #379, #161 ) ) ;
#1346 = PLANE ( 'NONE',  #443 ) ;
#1347 = ADVANCED_FACE ( 'NONE', ( #1014 ), #884, .F. ) ;
#1348 = LINE ( 'NONE', #686, #149 ) ;
#1349 = VECTOR ( 'NONE', #158, 1000.000000000000000 ) ;
#1350 = CARTESIAN_POINT ( 'NONE',  ( -12.50000000000000178, 142.6999999999999886, 6.500000000000000888 ) ) ;
#1351 = ORIENTED_EDGE ( 'NONE', *, *, #818, .F. ) ;
#1352 = AXIS2_PLACEMENT_3D ( 'NONE', #908, #121, #901 ) ;
#1353 = VECTOR ( 'NONE', #974, 1000.000000000000000 ) ;
#1354 = CARTESIAN_POINT ( 'NONE',  ( -12.50000000000000178, 1.050000000000000044, 5.500000000000000888 ) ) ;
#1355 = VERTEX_POINT ( 'NONE', #429 ) ;
#1356 = CARTESIAN_POINT ( 'NONE',  ( -12.50000000000000178, 142.6999999999999886, 5.500000000000000888 ) ) ;
#1357 = LINE ( 'NONE', #475, #335 ) ;
#1358 = DIRECTION ( 'NONE',  ( -0.8944271909999159664, 0.000000000000000000, -0.4472135954999579832 ) ) ;
#1359 = LINE ( 'NONE', #1021, #1403 ) ;
#1360 = ORIENTED_EDGE ( 'NONE', *, *, #300, .T. ) ;
#1361 = CARTESIAN_POINT ( 'NONE',  ( -3.049999999999995381, 33.56249999999999289, 6.500000000000000888 ) ) ;
#1362 = ORIENTED_EDGE ( 'NONE', *, *, #242, .T. ) ;
#1363 = CARTESIAN_POINT ( 'NONE',  ( -7.500000000000002665, 142.6999999999999886, 6.500000000000000888 ) ) ;
#1364 = DIRECTION ( 'NONE',  ( 0.000000000000000000, 1.000000000000000000, 0.000000000000000000 ) ) ;
#1365 = DIRECTION ( 'NONE',  ( 0.8944271909999159664, 0.000000000000000000, -0.4472135954999579832 ) ) ;
#1366 = ORIENTED_EDGE ( 'NONE', *, *, #932, .T. ) ;
#1367 = LINE ( 'NONE', #1156, #778 ) ;
#1368 = EDGE_CURVE ( 'NONE', #210, #368, #1225, .T. ) ;
#1369 = CARTESIAN_POINT ( 'NONE',  ( -1.550000000000004929, 110.6875000000000000, 6.500000000000000888 ) ) ;
#1370 = EDGE_CURVE ( 'NONE', #725, #598, #550, .T. ) ;
#1371 = VERTEX_POINT ( 'NONE', #664 ) ;
#1372 = DIRECTION ( 'NONE',  ( -0.000000000000000000, -0.000000000000000000, -1.000000000000000000 ) ) ;
#1373 = CARTESIAN_POINT ( 'NONE',  ( -3.049999999999995381, 38.56249999999999289, 1.500000000000000000 ) ) ;
#1374 = CARTESIAN_POINT ( 'NONE',  ( -18.45000000000000639, 38.56249999999999289, 6.500000000000000888 ) ) ;
#1375 = VERTEX_POINT ( 'NONE', #545 ) ;
#1376 = AXIS2_PLACEMENT_3D ( 'NONE', #1374, #277, #375 ) ;
#1377 = DIRECTION ( 'NONE',  ( 0.000000000000000000, -1.000000000000000000, 0.000000000000000000 ) ) ;
#1378 = PLANE ( 'NONE',  #1333 ) ;
#1379 = VECTOR ( 'NONE', #1200, 1000.000000000000000 ) ;
#1380 = CLOSED_SHELL ( 'NONE', ( #1232, #590, #793, #975, #1009, #159, #969, #402, #1249, #1188, #71, #321, #925, #267, #294, #1074, #810, #1347, #899, #34, #20, #1066, #174, #214, #539, #1113, #1321, #690, #462, #224, #526, #1245, #562, #1136, #553, #306, #612, #733, #95, #1382, #45, #996, #1208, #633, #1153, #601, #567, #147 ) ) ;
#1381 = ORIENTED_EDGE ( 'NONE', *, *, #1048, .F. ) ;
#1382 = ADVANCED_FACE ( 'NONE', ( #227 ), #22, .F. ) ;
#1383 = DIRECTION ( 'NONE',  ( 0.000000000000000000, 0.000000000000000000, -1.000000000000000000 ) ) ;
#1384 = DIRECTION ( 'NONE',  ( 0.000000000000000000, 1.000000000000000000, 0.000000000000000000 ) ) ;
#1385 = VERTEX_POINT ( 'NONE', #776 ) ;
#1386 = DIRECTION ( 'NONE',  ( -1.000000000000000000, -2.602085213965208669E-16, 0.000000000000000000 ) ) ;
#1387 = ORIENTED_EDGE ( 'NONE', *, *, #1054, .F. ) ;
#1388 = LINE ( 'NONE', #636, #895 ) ;
#1389 = EDGE_CURVE ( 'NONE', #1340, #1091, #448, .T. ) ;
#1390 = VERTEX_POINT ( 'NONE', #1339 ) ;
#1391 = FACE_OUTER_BOUND ( 'NONE', #1262, .T. ) ;
#1392 = DIRECTION ( 'NONE',  ( -0.000000000000000000, -0.000000000000000000, -1.000000000000000000 ) ) ;
#1393 = DIRECTION ( 'NONE',  ( 1.000000000000000000, 0.000000000000000000, 0.000000000000000000 ) ) ;
#1394 = EDGE_LOOP ( 'NONE', ( #73, #113, #695, #63 ) ) ;
#1395 = ORIENTED_EDGE ( 'NONE', *, *, #1413, .F. ) ;
#1396 = DIRECTION ( 'NONE',  ( -2.602085213965208669E-16, -1.000000000000000000, 0.000000000000000000 ) ) ;
#1397 = ORIENTED_EDGE ( 'NONE', *, *, #913, .T. ) ;
#1398 = LINE ( 'NONE', #630, #1124 ) ;
#1399 = DIRECTION ( 'NONE',  ( 1.000000000000000000, -0.000000000000000000, -0.000000000000000000 ) ) ;
#1400 = EDGE_CURVE ( 'NONE', #1109, #376, #679, .T. ) ;
#1401 = EDGE_CURVE ( 'NONE', #1049, #907, #534, .T. ) ;
#1402 = DIRECTION ( 'NONE',  ( 1.000000000000000000, 0.000000000000000000, 0.000000000000000000 ) ) ;
#1403 = VECTOR ( 'NONE', #1261, 1000.000000000000000 ) ;
#1404 = AXIS2_PLACEMENT_3D ( 'NONE', #531, #1315, #741 ) ;
#1405 = VERTEX_POINT ( 'NONE', #659 ) ;
#1406 = VECTOR ( 'NONE', #718, 1000.000000000000000 ) ;
#1407 = AXIS2_PLACEMENT_3D ( 'NONE', #1016, #661, #1106 ) ;
#1408 = CARTESIAN_POINT ( 'NONE',  ( -18.95000000000000995, 38.56249999999999289, 5.500000000000000888 ) ) ;
#1409 = ORIENTED_EDGE ( 'NONE', *, *, #1187, .T. ) ;
#1410 = CARTESIAN_POINT ( 'NONE',  ( -18.95000000000000995, 33.56249999999999289, 5.500000000000000888 ) ) ;
#1411 = DIRECTION ( 'NONE',  ( -1.000000000000000000, 0.000000000000000000, 0.000000000000000000 ) ) ;
#1412 = CARTESIAN_POINT ( 'NONE',  ( -16.95000000000000639, 33.56249999999999289, 6.500000000000000888 ) ) ;
#1413 = EDGE_CURVE ( 'NONE', #1023, #751, #442, .T. ) ;
#1414 = ORIENTED_EDGE ( 'NONE', *, *, #1087, .T. ) ;
#1415 = CARTESIAN_POINT ( 'NONE',  ( -20.00000000000000355, 0.000000000000000000, 0.000000000000000000 ) ) ;
#1416 = VERTEX_POINT ( 'NONE', #896 ) ;
#1417 = CARTESIAN_POINT ( 'NONE',  ( -18.45000000000000284, 105.6874999999999858, 5.500000000000000888 ) ) ;
#1418 = LINE ( 'NONE', #859, #1148 ) ;
#1419 = DIRECTION ( 'NONE',  ( -0.000000000000000000, -0.000000000000000000, -1.000000000000000000 ) ) ;
#1420 = CARTESIAN_POINT ( 'NONE',  ( -7.500000000000002665, 1.550000000000000266, 5.500000000000000888 ) ) ;
#1421 = EDGE_CURVE ( 'NONE', #725, #1175, #554, .T. ) ;
#1422 = VERTEX_POINT ( 'NONE', #1146 ) ;
#1423 = ORIENTED_EDGE ( 'NONE', *, *, #882, .T. ) ;
#1424 = DIRECTION ( 'NONE',  ( 0.000000000000000000, 0.000000000000000000, -1.000000000000000000 ) ) ;
#1425 = ORIENTED_EDGE ( 'NONE', *, *, #323, .T. ) ;
#1426 = CARTESIAN_POINT ( 'NONE',  ( -12.50000000000000178, 3.050000000000000266, 6.500000000000000888 ) ) ;
#1427 = CARTESIAN_POINT ( 'NONE',  ( -12.50000000000000178, 1.550000000000000266, 6.500000000000000888 ) ) ;
#1428 = CARTESIAN_POINT ( 'NONE',  ( -12.50000000000000178, 1.550000000000000266, 6.500000000000000888 ) ) ;
#1429 = DIRECTION ( 'NONE',  ( 1.000000000000000000, 0.000000000000000000, 0.000000000000000000 ) ) ;
#1430 = AXIS2_PLACEMENT_3D ( 'NONE', #891, #1332, #336 ) ;
#1431 = ORIENTED_EDGE ( 'NONE', *, *, #1096, .F. ) ;
#1432 = AXIS2_PLACEMENT_3D ( 'NONE', #1236, #246, #16 ) ;
#1433 = EDGE_CURVE ( 'NONE', #744, #819, #683, .T. ) ;
#1434 = CARTESIAN_POINT ( 'NONE',  ( -16.95000000000000639, 33.56249999999999289, 6.500000000000000888 ) ) ;
#1435 = VECTOR ( 'NONE', #168, 1000.000000000000114 ) ;
ENDSEC;
END-ISO-10303-21;
