ISO-10303-21;
HEADER;
FILE_DESCRIPTION (( 'STEP AP214' ),
    '1' );
FILE_NAME ('Rectangle_Button.STEP',
    '2025-07-16T14:24:58',
    ( '' ),
    ( '' ),
    'SwSTEP 2.0',
    'SolidWorks 2025',
    '' );
FILE_SCHEMA (( 'AUTOMOTIVE_DESIGN' ));
ENDSEC;

DATA;
#1 = CARTESIAN_POINT ( 'NONE',  ( 3.024999999999999911, 3.024999999999999911, 3.700000000000000622 ) ) ;
#2 = CARTESIAN_POINT ( 'NONE',  ( 10.00000000000000178, 14.89999999999999858, 1.500000000000000000 ) ) ;
#3 = CARTESIAN_POINT ( 'NONE',  ( -3.024999999999999911, 3.024999999999999911, 4.500000000000000888 ) ) ;
#4 = ADVANCED_FACE ( 'NONE', ( #211 ), #204, .F. ) ;
#5 = VECTOR ( 'NONE', #373, 1000.000000000000000 ) ;
#6 = LINE ( 'NONE', #361, #86 ) ;
#7 = CARTESIAN_POINT ( 'NONE',  ( -9.999999999999998224, -14.90000000000000391, 0.000000000000000000 ) ) ;
#8 = ORIENTED_EDGE ( 'NONE', *, *, #265, .F. ) ;
#9 = UNCERTAINTY_MEASURE_WITH_UNIT (LENGTH_MEASURE( 1.000000000000000082E-05 ), #325, 'distance_accuracy_value', 'NONE');
#10 = DIRECTION ( 'NONE',  ( 0.000000000000000000, 0.000000000000000000, -1.000000000000000000 ) ) ;
#11 = PRODUCT_DEFINITION_FORMATION_WITH_SPECIFIED_SOURCE ( 'ANY', '', #17, .NOT_KNOWN. ) ;
#12 = VECTOR ( 'NONE', #250, 1000.000000000000000 ) ;
#13 = PLANE ( 'NONE',  #168 ) ;
#14 = EDGE_CURVE ( 'NONE', #58, #268, #349, .T. ) ;
#15 = LINE ( 'NONE', #376, #198 ) ;
#16 = ORIENTED_EDGE ( 'NONE', *, *, #444, .F. ) ;
#17 = PRODUCT ( 'Rectangle_Button', 'Rectangle_Button', '', ( #72 ) ) ;
#18 = CARTESIAN_POINT ( 'NONE',  ( 3.024999999999999911, -3.024999999999999911, 4.500000000000000888 ) ) ;
#19 = ORIENTED_EDGE ( 'NONE', *, *, #379, .T. ) ;
#20 = EDGE_CURVE ( 'NONE', #344, #162, #200, .T. ) ;
#21 = DIRECTION ( 'NONE',  ( 0.000000000000000000, 0.000000000000000000, -1.000000000000000000 ) ) ;
#22 = VERTEX_POINT ( 'NONE', #274 ) ;
#23 = LINE ( 'NONE', #452, #292 ) ;
#24 = VERTEX_POINT ( 'NONE', #387 ) ;
#25 = DIRECTION ( 'NONE',  ( 0.000000000000000000, 1.000000000000000000, 0.000000000000000000 ) ) ;
#26 = CARTESIAN_POINT ( 'NONE',  ( -3.024999999999999911, -3.024999999999999911, 4.500000000000000888 ) ) ;
#27 = VECTOR ( 'NONE', #165, 1000.000000000000000 ) ;
#28 = EDGE_CURVE ( 'NONE', #256, #162, #166, .T. ) ;
#29 = DIRECTION ( 'NONE',  ( -0.000000000000000000, -0.000000000000000000, -1.000000000000000000 ) ) ;
#30 = DIRECTION ( 'NONE',  ( 0.000000000000000000, 1.000000000000000000, 0.000000000000000000 ) ) ;
#31 = EDGE_CURVE ( 'NONE', #190, #413, #346, .T. ) ;
#32 = DIRECTION ( 'NONE',  ( 1.000000000000000000, 0.000000000000000000, 0.000000000000000000 ) ) ;
#33 = VERTEX_POINT ( 'NONE', #317 ) ;
#34 = CARTESIAN_POINT ( 'NONE',  ( -3.024999999999999911, 3.024999999999999911, 4.500000000000000888 ) ) ;
#35 = VERTEX_POINT ( 'NONE', #1 ) ;
#36 = VECTOR ( 'NONE', #445, 1000.000000000000000 ) ;
#37 = FACE_OUTER_BOUND ( 'NONE', #156, .T. ) ;
#38 = EDGE_CURVE ( 'NONE', #256, #22, #135, .T. ) ;
#39 = VERTEX_POINT ( 'NONE', #430 ) ;
#40 = CLOSED_SHELL ( 'NONE', ( #4, #174, #316, #327, #329, #144, #417, #343, #193, #436, #359, #177, #126, #113, #92 ) ) ;
#41 = DIRECTION ( 'NONE',  ( 0.000000000000000000, 0.000000000000000000, 1.000000000000000000 ) ) ;
#42 =( NAMED_UNIT ( * ) PLANE_ANGLE_UNIT ( ) SI_UNIT ( $, .RADIAN. ) );
#43 = LINE ( 'NONE', #143, #12 ) ;
#44 = DIRECTION ( 'NONE',  ( 0.000000000000000000, 1.000000000000000000, 0.000000000000000000 ) ) ;
#45 = CARTESIAN_POINT ( 'NONE',  ( 10.00000000000000178, -14.90000000000000391, 1.500000000000000000 ) ) ;
#46 = AXIS2_PLACEMENT_3D ( 'NONE', #151, #262, #409 ) ;
#47 = LINE ( 'NONE', #447, #160 ) ;
#48 = EDGE_CURVE ( 'NONE', #91, #190, #458, .T. ) ;
#49 = DIRECTION ( 'NONE',  ( -0.000000000000000000, -0.000000000000000000, -1.000000000000000000 ) ) ;
#50 = ORIENTED_EDGE ( 'NONE', *, *, #265, .T. ) ;
#51 = LINE ( 'NONE', #18, #36 ) ;
#52 = ORIENTED_EDGE ( 'NONE', *, *, #282, .T. ) ;
#53 = LINE ( 'NONE', #369, #206 ) ;
#54 = ORIENTED_EDGE ( 'NONE', *, *, #282, .F. ) ;
#55 = PRODUCT_RELATED_PRODUCT_CATEGORY ( 'part', '', ( #17 ) ) ;
#56 = DIRECTION ( 'NONE',  ( -0.000000000000000000, -0.000000000000000000, -1.000000000000000000 ) ) ;
#57 = ORIENTED_EDGE ( 'NONE', *, *, #275, .T. ) ;
#58 = VERTEX_POINT ( 'NONE', #137 ) ;
#59 = CARTESIAN_POINT ( 'NONE',  ( -3.024999999999999911, -3.024999999999999911, 4.500000000000000888 ) ) ;
#60 = EDGE_CURVE ( 'NONE', #125, #197, #431, .T. ) ;
#61 = DIRECTION ( 'NONE',  ( 0.000000000000000000, -0.000000000000000000, -1.000000000000000000 ) ) ;
#62 = PLANE ( 'NONE',  #285 ) ;
#63 = EDGE_LOOP ( 'NONE', ( #443, #152, #54, #392 ) ) ;
#64 = CARTESIAN_POINT ( 'NONE',  ( 10.00000000000000178, 14.89999999999999858, 1.500000000000000000 ) ) ;
#65 = CARTESIAN_POINT ( 'NONE',  ( 10.00000000000000178, -14.90000000000000391, 0.000000000000000000 ) ) ;
#66 = EDGE_CURVE ( 'NONE', #70, #190, #456, .T. ) ;
#67 = DIRECTION ( 'NONE',  ( 0.000000000000000000, 1.000000000000000000, 0.000000000000000000 ) ) ;
#68 = ORIENTED_EDGE ( 'NONE', *, *, #38, .F. ) ;
#69 = VECTOR ( 'NONE', #226, 1000.000000000000000 ) ;
#70 = VERTEX_POINT ( 'NONE', #114 ) ;
#71 = VECTOR ( 'NONE', #441, 1000.000000000000000 ) ;
#72 = PRODUCT_CONTEXT ( 'NONE', #347, 'mechanical' ) ;
#73 = DIRECTION ( 'NONE',  ( 0.9701425001453318764, -0.000000000000000000, 0.2425356250363331079 ) ) ;
#74 = FACE_OUTER_BOUND ( 'NONE', #383, .T. ) ;
#75 = APPLICATION_PROTOCOL_DEFINITION ( 'draft international standard', 'automotive_design', 1998, #314 ) ;
#76 = DIRECTION ( 'NONE',  ( -1.000000000000000000, 0.000000000000000000, -0.000000000000000000 ) ) ;
#77 = EDGE_CURVE ( 'NONE', #271, #91, #43, .T. ) ;
#78 = SURFACE_SIDE_STYLE ('',( #286 ) ) ;
#79 = MECHANICAL_DESIGN_GEOMETRIC_PRESENTATION_REPRESENTATION (  '', ( #353 ), #336 ) ;
#80 = CARTESIAN_POINT ( 'NONE',  ( 3.024999999999999911, -3.024999999999999911, 4.500000000000000888 ) ) ;
#81 = ORIENTED_EDGE ( 'NONE', *, *, #401, .T. ) ;
#82 = FACE_OUTER_BOUND ( 'NONE', #94, .T. ) ;
#83 = ORIENTED_EDGE ( 'NONE', *, *, #338, .F. ) ;
#84 = CARTESIAN_POINT ( 'NONE',  ( -3.024999999999999911, -3.024999999999999911, 4.500000000000000888 ) ) ;
#85 = ORIENTED_EDGE ( 'NONE', *, *, #363, .F. ) ;
#86 = VECTOR ( 'NONE', #140, 1000.000000000000000 ) ;
#87 = CARTESIAN_POINT ( 'NONE',  ( -9.999999999999998224, 14.89999999999999858, 0.000000000000000000 ) ) ;
#88 = ORIENTED_EDGE ( 'NONE', *, *, #237, .F. ) ;
#89 = CARTESIAN_POINT ( 'NONE',  ( -3.024999999999999911, -3.024999999999999911, 1.500000000000000000 ) ) ;
#90 = AXIS2_PLACEMENT_3D ( 'NONE', #311, #169, #61 ) ;
#91 = VERTEX_POINT ( 'NONE', #7 ) ;
#92 = ADVANCED_FACE ( 'NONE', ( #103 ), #435, .T. ) ;
#93 = CARTESIAN_POINT ( 'NONE',  ( 3.024999999999999911, 3.024999999999999911, 4.500000000000000888 ) ) ;
#94 = EDGE_LOOP ( 'NONE', ( #239, #118, #266, #303 ) ) ;
#95 = LINE ( 'NONE', #34, #245 ) ;
#96 = DIRECTION ( 'NONE',  ( 0.2425356250363331079, -0.000000000000000000, -0.9701425001453318764 ) ) ;
#97 = DIRECTION ( 'NONE',  ( -1.000000000000000000, 0.000000000000000000, -0.000000000000000000 ) ) ;
#98 = ORIENTED_EDGE ( 'NONE', *, *, #60, .T. ) ;
#99 = EDGE_CURVE ( 'NONE', #192, #22, #217, .T. ) ;
#100 = FACE_OUTER_BOUND ( 'NONE', #133, .T. ) ;
#101 = ORIENTED_EDGE ( 'NONE', *, *, #450, .F. ) ;
#102 = ORIENTED_EDGE ( 'NONE', *, *, #426, .F. ) ;
#103 = FACE_OUTER_BOUND ( 'NONE', #335, .T. ) ;
#104 = ORIENTED_EDGE ( 'NONE', *, *, #106, .T. ) ;
#105 = CARTESIAN_POINT ( 'NONE',  ( 0.000000000000000000, 0.000000000000000000, 0.000000000000000000 ) ) ;
#106 = EDGE_CURVE ( 'NONE', #428, #187, #395, .T. ) ;
#107 = DIRECTION ( 'NONE',  ( 0.000000000000000000, 1.000000000000000000, 0.000000000000000000 ) ) ;
#108 = PLANE ( 'NONE',  #229 ) ;
#109 = COLOUR_RGB ( '',0.7921568627450980005, 0.8196078431372548767, 0.9333333333333333481 ) ;
#110 = EDGE_CURVE ( 'NONE', #70, #33, #147, .T. ) ;
#111 = DIRECTION ( 'NONE',  ( 0.000000000000000000, 0.000000000000000000, -1.000000000000000000 ) ) ;
#112 = ORIENTED_EDGE ( 'NONE', *, *, #31, .F. ) ;
#113 = ADVANCED_FACE ( 'NONE', ( #74 ), #176, .T. ) ;
#114 = CARTESIAN_POINT ( 'NONE',  ( 10.00000000000000178, -14.90000000000000391, 1.500000000000000000 ) ) ;
#115 = LINE ( 'NONE', #124, #146 ) ;
#116 = ORIENTED_EDGE ( 'NONE', *, *, #295, .T. ) ;
#117 = CARTESIAN_POINT ( 'NONE',  ( -3.024999999999999911, -3.849621125123532384, 3.700000000000001510 ) ) ;
#118 = ORIENTED_EDGE ( 'NONE', *, *, #432, .F. ) ;
#119 = CARTESIAN_POINT ( 'NONE',  ( 3.024999999999999911, -3.024999999999999911, 4.500000000000000888 ) ) ;
#120 = VERTEX_POINT ( 'NONE', #289 ) ;
#121 = CARTESIAN_POINT ( 'NONE',  ( 10.00000000000000178, -14.90000000000000391, 0.000000000000000000 ) ) ;
#122 = ORIENTED_EDGE ( 'NONE', *, *, #222, .F. ) ;
#123 = AXIS2_PLACEMENT_3D ( 'NONE', #382, #235, #388 ) ;
#124 = CARTESIAN_POINT ( 'NONE',  ( -3.024999999999999911, 3.024999999999999911, 1.500000000000000000 ) ) ;
#125 = VERTEX_POINT ( 'NONE', #212 ) ;
#126 = ADVANCED_FACE ( 'NONE', ( #405 ), #358, .T. ) ;
#127 = MANIFOLD_SOLID_BREP ( 'Boss-Extrude3', #40 ) ;
#128 = FACE_BOUND ( 'NONE', #305, .T. ) ;
#129 = CARTESIAN_POINT ( 'NONE',  ( 10.00000000000000178, -14.90000000000000391, 1.500000000000000000 ) ) ;
#130 = DIRECTION ( 'NONE',  ( 1.000000000000000000, 0.000000000000000000, 0.000000000000000000 ) ) ;
#131 = EDGE_LOOP ( 'NONE', ( #448, #145, #279, #83 ) ) ;
#132 = DIRECTION ( 'NONE',  ( -0.000000000000000000, -0.000000000000000000, -1.000000000000000000 ) ) ;
#133 = EDGE_LOOP ( 'NONE', ( #439, #52, #381, #277 ) ) ;
#134 = DIRECTION ( 'NONE',  ( 0.000000000000000000, 0.000000000000000000, 1.000000000000000000 ) ) ;
#135 = LINE ( 'NONE', #164, #356 ) ;
#136 = FACE_OUTER_BOUND ( 'NONE', #398, .T. ) ;
#137 = CARTESIAN_POINT ( 'NONE',  ( 3.024999999999999911, 3.024999999999999911, 4.500000000000000888 ) ) ;
#138 = VECTOR ( 'NONE', #49, 1000.000000000000000 ) ;
#139 = EDGE_CURVE ( 'NONE', #125, #192, #6, .T. ) ;
#140 = DIRECTION ( 'NONE',  ( -0.2425356250363331079, 0.000000000000000000, -0.9701425001453318764 ) ) ;
#141 = ORIENTED_EDGE ( 'NONE', *, *, #20, .T. ) ;
#142 = PRODUCT_DEFINITION_CONTEXT ( 'detailed design', #314, 'design' ) ;
#143 = CARTESIAN_POINT ( 'NONE',  ( -9.999999999999998224, -14.90000000000000391, 0.000000000000000000 ) ) ;
#144 = ADVANCED_FACE ( 'NONE', ( #434 ), #108, .T. ) ;
#145 = ORIENTED_EDGE ( 'NONE', *, *, #244, .T. ) ;
#146 = VECTOR ( 'NONE', #259, 1000.000000000000000 ) ;
#147 = LINE ( 'NONE', #45, #331 ) ;
#148 = VECTOR ( 'NONE', #422, 1000.000000000000000 ) ;
#149 = CARTESIAN_POINT ( 'NONE',  ( -9.999999999999998224, -14.90000000000000391, 1.500000000000000000 ) ) ;
#150 = ORIENTED_EDGE ( 'NONE', *, *, #210, .T. ) ;
#151 = CARTESIAN_POINT ( 'NONE',  ( 10.00000000000000178, -14.90000000000000391, 1.500000000000000000 ) ) ;
#152 = ORIENTED_EDGE ( 'NONE', *, *, #210, .F. ) ;
#153 = CARTESIAN_POINT ( 'NONE',  ( -3.024999999999999911, 3.024999999999999911, 3.700000000000001510 ) ) ;
#154 = EDGE_LOOP ( 'NONE', ( #404, #236, #104, #313, #299, #460, #424, #57 ) ) ;
#155 = DIRECTION ( 'NONE',  ( -0.000000000000000000, -0.000000000000000000, -1.000000000000000000 ) ) ;
#156 = EDGE_LOOP ( 'NONE', ( #116, #263, #234, #246 ) ) ;
#157 = CARTESIAN_POINT ( 'NONE',  ( -3.024999999999999911, -3.849621125123532384, 3.700000000000001510 ) ) ;
#158 = EDGE_CURVE ( 'NONE', #428, #35, #438, .T. ) ;
#159 = EDGE_LOOP ( 'NONE', ( #181, #98, #88, #260 ) ) ;
#160 = VECTOR ( 'NONE', #442, 1000.000000000000000 ) ;
#161 = LINE ( 'NONE', #2, #214 ) ;
#162 = VERTEX_POINT ( 'NONE', #179 ) ;
#163 = LINE ( 'NONE', #310, #261 ) ;
#164 = CARTESIAN_POINT ( 'NONE',  ( -3.024999999999999911, 3.024999999999999911, 3.700000000000001510 ) ) ;
#165 = DIRECTION ( 'NONE',  ( 0.000000000000000000, 1.000000000000000000, 0.000000000000000000 ) ) ;
#166 = LINE ( 'NONE', #3, #378 ) ;
#167 = CARTESIAN_POINT ( 'NONE',  ( 3.024999999999999911, -3.024999999999999911, 1.500000000000000000 ) ) ;
#168 = AXIS2_PLACEMENT_3D ( 'NONE', #80, #304, #366 ) ;
#169 = DIRECTION ( 'NONE',  ( 0.000000000000000000, -1.000000000000000000, 0.000000000000000000 ) ) ;
#170 = DIRECTION ( 'NONE',  ( -1.000000000000000000, 0.000000000000000000, 0.000000000000000000 ) ) ;
#171 = VECTOR ( 'NONE', #389, 1000.000000000000000 ) ;
#172 = ORIENTED_EDGE ( 'NONE', *, *, #14, .T. ) ;
#173 = SHAPE_DEFINITION_REPRESENTATION ( #230, #362 ) ;
#174 = ADVANCED_FACE ( 'NONE', ( #324 ), #255, .F. ) ;
#175 = CARTESIAN_POINT ( 'NONE',  ( -3.225000000000000089, -3.849621125123532384, 3.700000000000001510 ) ) ;
#176 = PLANE ( 'NONE',  #437 ) ;
#177 = ADVANCED_FACE ( 'NONE', ( #334 ), #231, .T. ) ;
#178 = UNCERTAINTY_MEASURE_WITH_UNIT (LENGTH_MEASURE( 1.000000000000000082E-05 ), #397, 'distance_accuracy_value', 'NONE');
#179 = CARTESIAN_POINT ( 'NONE',  ( -3.024999999999999911, 3.024999999999999911, 1.500000000000000000 ) ) ;
#180 = CARTESIAN_POINT ( 'NONE',  ( 3.024999999999999911, -3.024999999999999911, 3.700000000000000622 ) ) ;
#181 = ORIENTED_EDGE ( 'NONE', *, *, #139, .F. ) ;
#182 = VECTOR ( 'NONE', #67, 1000.000000000000000 ) ;
#183 =( GEOMETRIC_REPRESENTATION_CONTEXT ( 3 ) GLOBAL_UNCERTAINTY_ASSIGNED_CONTEXT ( ( #9 ) ) GLOBAL_UNIT_ASSIGNED_CONTEXT ( ( #325, #321, #254 ) ) REPRESENTATION_CONTEXT ( 'NONE', 'WORKASPACE' ) );
#184 = CARTESIAN_POINT ( 'NONE',  ( 3.225000000000000089, 3.024999999999999911, 3.700000000000000622 ) ) ;
#185 = VECTOR ( 'NONE', #30, 1000.000000000000000 ) ;
#186 = DIRECTION ( 'NONE',  ( 0.2425356250363331079, 0.000000000000000000, 0.9701425001453318764 ) ) ;
#187 = VERTEX_POINT ( 'NONE', #449 ) ;
#188 = EDGE_CURVE ( 'NONE', #428, #24, #296, .T. ) ;
#189 = CARTESIAN_POINT ( 'NONE',  ( 10.00000000000000178, -14.90000000000000391, 1.500000000000000000 ) ) ;
#190 = VERTEX_POINT ( 'NONE', #121 ) ;
#191 = DIRECTION ( 'NONE',  ( 1.000000000000000000, 0.000000000000000000, 0.000000000000000000 ) ) ;
#192 = VERTEX_POINT ( 'NONE', #219 ) ;
#193 = ADVANCED_FACE ( 'NONE', ( #371 ), #13, .F. ) ;
#194 = LINE ( 'NONE', #189, #269 ) ;
#195 = ORIENTED_EDGE ( 'NONE', *, *, #28, .F. ) ;
#196 = PLANE ( 'NONE',  #433 ) ;
#197 = VERTEX_POINT ( 'NONE', #300 ) ;
#198 = VECTOR ( 'NONE', #56, 1000.000000000000000 ) ;
#199 = LINE ( 'NONE', #167, #182 ) ;
#200 = LINE ( 'NONE', #241, #185 ) ;
#201 = CARTESIAN_POINT ( 'NONE',  ( -3.024999999999999911, -3.024999999999999911, 3.700000000000001510 ) ) ;
#202 = DIRECTION ( 'NONE',  ( -0.000000000000000000, -0.000000000000000000, -1.000000000000000000 ) ) ;
#203 = DIRECTION ( 'NONE',  ( -1.000000000000000000, 0.000000000000000000, 0.000000000000000000 ) ) ;
#204 = PLANE ( 'NONE',  #90 ) ;
#205 = CARTESIAN_POINT ( 'NONE',  ( 0.000000000000000000, 0.000000000000000000, 4.500000000000000888 ) ) ;
#206 = VECTOR ( 'NONE', #332, 1000.000000000000000 ) ;
#207 = CARTESIAN_POINT ( 'NONE',  ( 10.00000000000000178, -14.90000000000000391, 0.000000000000000000 ) ) ;
#208 = AXIS2_PLACEMENT_3D ( 'NONE', #105, #41, #402 ) ;
#209 = APPLICATION_PROTOCOL_DEFINITION ( 'draft international standard', 'automotive_design', 1998, #347 ) ;
#210 = EDGE_CURVE ( 'NONE', #39, #91, #412, .T. ) ;
#211 = FACE_OUTER_BOUND ( 'NONE', #297, .T. ) ;
#212 = CARTESIAN_POINT ( 'NONE',  ( -3.024999999999999911, -3.024999999999999911, 4.500000000000000888 ) ) ;
#213 = SURFACE_STYLE_USAGE ( .BOTH. , #78 ) ;
#214 = VECTOR ( 'NONE', #132, 1000.000000000000000 ) ;
#215 = VERTEX_POINT ( 'NONE', #406 ) ;
#216 = FILL_AREA_STYLE ('',( #322 ) ) ;
#217 = LINE ( 'NONE', #248, #272 ) ;
#218 = ORIENTED_EDGE ( 'NONE', *, *, #106, .F. ) ;
#219 = CARTESIAN_POINT ( 'NONE',  ( -3.225000000000000089, -3.024999999999999911, 3.700000000000001510 ) ) ;
#220 = AXIS2_PLACEMENT_3D ( 'NONE', #157, #21, #302 ) ;
#221 = LINE ( 'NONE', #117, #425 ) ;
#222 = EDGE_CURVE ( 'NONE', #39, #70, #194, .T. ) ;
#223 = ORIENTED_EDGE ( 'NONE', *, *, #350, .T. ) ;
#224 = PLANE ( 'NONE',  #328 ) ;
#225 = EDGE_LOOP ( 'NONE', ( #360, #249, #411, #223 ) ) ;
#226 = DIRECTION ( 'NONE',  ( 1.000000000000000000, 0.000000000000000000, 0.000000000000000000 ) ) ;
#227 = ORIENTED_EDGE ( 'NONE', *, *, #66, .F. ) ;
#228 = EDGE_CURVE ( 'NONE', #287, #58, #51, .T. ) ;
#229 = AXIS2_PLACEMENT_3D ( 'NONE', #252, #111, #76 ) ;
#230 = PRODUCT_DEFINITION_SHAPE ( 'NONE', 'NONE',  #394 ) ;
#231 = PLANE ( 'NONE',  #220 ) ;
#232 = ORIENTED_EDGE ( 'NONE', *, *, #48, .F. ) ;
#233 = CARTESIAN_POINT ( 'NONE',  ( -3.024999999999999911, 3.024999999999999911, 4.500000000000000888 ) ) ;
#234 = ORIENTED_EDGE ( 'NONE', *, *, #20, .F. ) ;
#235 = DIRECTION ( 'NONE',  ( 0.000000000000000000, 0.000000000000000000, -1.000000000000000000 ) ) ;
#236 = ORIENTED_EDGE ( 'NONE', *, *, #188, .F. ) ;
#237 = EDGE_CURVE ( 'NONE', #22, #197, #23, .T. ) ;
#238 = PLANE ( 'NONE',  #390 ) ;
#239 = ORIENTED_EDGE ( 'NONE', *, *, #31, .T. ) ;
#240 = CARTESIAN_POINT ( 'NONE',  ( -3.024999999999999911, -3.024999999999999911, 3.700000000000001510 ) ) ;
#241 = CARTESIAN_POINT ( 'NONE',  ( -3.024999999999999911, -3.024999999999999911, 1.500000000000000000 ) ) ;
#242 = CARTESIAN_POINT ( 'NONE',  ( 10.00000000000000178, -14.90000000000000391, 1.500000000000000000 ) ) ;
#243 = ORIENTED_EDGE ( 'NONE', *, *, #258, .F. ) ;
#244 = EDGE_CURVE ( 'NONE', #125, #287, #414, .T. ) ;
#245 = VECTOR ( 'NONE', #130, 1000.000000000000000 ) ;
#246 = ORIENTED_EDGE ( 'NONE', *, *, #275, .F. ) ;
#247 = VECTOR ( 'NONE', #96, 1000.000000000000114 ) ;
#248 = CARTESIAN_POINT ( 'NONE',  ( -3.225000000000000089, -3.849621125123532384, 3.700000000000001510 ) ) ;
#249 = ORIENTED_EDGE ( 'NONE', *, *, #158, .F. ) ;
#250 = DIRECTION ( 'NONE',  ( -0.000000000000000000, -1.000000000000000000, -0.000000000000000000 ) ) ;
#251 = ORIENTED_EDGE ( 'NONE', *, *, #295, .F. ) ;
#252 = CARTESIAN_POINT ( 'NONE',  ( 0.000000000000000000, 0.000000000000000000, 0.000000000000000000 ) ) ;
#253 = AXIS2_PLACEMENT_3D ( 'NONE', #403, #191, #267 ) ;
#254 =( NAMED_UNIT ( * ) SI_UNIT ( $, .STERADIAN. ) SOLID_ANGLE_UNIT ( ) );
#255 = PLANE ( 'NONE',  #253 ) ;
#256 = VERTEX_POINT ( 'NONE', #153 ) ;
#257 = CARTESIAN_POINT ( 'NONE',  ( 3.225000000000000089, -3.849621125123532384, 3.700000000000000622 ) ) ;
#258 = EDGE_CURVE ( 'NONE', #120, #271, #47, .T. ) ;
#259 = DIRECTION ( 'NONE',  ( 1.000000000000000000, 0.000000000000000000, 0.000000000000000000 ) ) ;
#260 = ORIENTED_EDGE ( 'NONE', *, *, #99, .F. ) ;
#261 = VECTOR ( 'NONE', #315, 1000.000000000000000 ) ;
#262 = DIRECTION ( 'NONE',  ( 0.000000000000000000, 1.000000000000000000, -0.000000000000000000 ) ) ;
#263 = ORIENTED_EDGE ( 'NONE', *, *, #28, .T. ) ;
#264 = DIRECTION ( 'NONE',  ( 0.000000000000000000, 1.000000000000000000, 0.000000000000000000 ) ) ;
#265 = EDGE_CURVE ( 'NONE', #162, #215, #115, .T. ) ;
#266 = ORIENTED_EDGE ( 'NONE', *, *, #110, .F. ) ;
#267 = DIRECTION ( 'NONE',  ( 0.000000000000000000, 0.000000000000000000, -1.000000000000000000 ) ) ;
#268 = VERTEX_POINT ( 'NONE', #184 ) ;
#269 = VECTOR ( 'NONE', #337, 1000.000000000000000 ) ;
#270 = CARTESIAN_POINT ( 'NONE',  ( -9.999999999999998224, -14.90000000000000391, 1.500000000000000000 ) ) ;
#271 = VERTEX_POINT ( 'NONE', #87 ) ;
#272 = VECTOR ( 'NONE', #288, 1000.000000000000000 ) ;
#273 = DIRECTION ( 'NONE',  ( 0.000000000000000000, 0.000000000000000000, -1.000000000000000000 ) ) ;
#274 = CARTESIAN_POINT ( 'NONE',  ( -3.225000000000000089, 3.024999999999999911, 3.700000000000001510 ) ) ;
#275 = EDGE_CURVE ( 'NONE', #339, #344, #15, .T. ) ;
#276 = FACE_OUTER_BOUND ( 'NONE', #131, .T. ) ;
#277 = ORIENTED_EDGE ( 'NONE', *, *, #110, .T. ) ;
#278 = DIRECTION ( 'NONE',  ( 0.000000000000000000, -0.000000000000000000, 1.000000000000000000 ) ) ;
#279 = ORIENTED_EDGE ( 'NONE', *, *, #228, .T. ) ;
#280 = PLANE ( 'NONE',  #368 ) ;
#281 = DIRECTION ( 'NONE',  ( -1.000000000000000000, 0.000000000000000000, 0.000000000000000000 ) ) ;
#282 = EDGE_CURVE ( 'NONE', #120, #39, #298, .T. ) ;
#283 = PLANE ( 'NONE',  #123 ) ;
#284 = CARTESIAN_POINT ( 'NONE',  ( 3.225000000000000089, 3.024999999999999911, 3.700000000000000622 ) ) ;
#285 = AXIS2_PLACEMENT_3D ( 'NONE', #461, #348, #134 ) ;
#286 = SURFACE_STYLE_FILL_AREA ( #216 ) ;
#287 = VERTEX_POINT ( 'NONE', #119 ) ;
#288 = DIRECTION ( 'NONE',  ( 0.000000000000000000, 1.000000000000000000, 0.000000000000000000 ) ) ;
#289 = CARTESIAN_POINT ( 'NONE',  ( -9.999999999999998224, 14.89999999999999858, 1.500000000000000000 ) ) ;
#290 = ORIENTED_EDGE ( 'NONE', *, *, #158, .T. ) ;
#291 = CARTESIAN_POINT ( 'NONE',  ( 3.024999999999999911, -3.849621125123532384, 3.700000000000000622 ) ) ;
#292 = VECTOR ( 'NONE', #186, 1000.000000000000114 ) ;
#293 = VECTOR ( 'NONE', #380, 1000.000000000000000 ) ;
#294 = DIRECTION ( 'NONE',  ( 0.2425356250363331079, 0.000000000000000000, 0.9701425001453318764 ) ) ;
#295 = EDGE_CURVE ( 'NONE', #339, #256, #221, .T. ) ;
#296 = LINE ( 'NONE', #418, #375 ) ;
#297 = EDGE_LOOP ( 'NONE', ( #453, #243, #101, #415 ) ) ;
#298 = LINE ( 'NONE', #270, #5 ) ;
#299 = ORIENTED_EDGE ( 'NONE', *, *, #244, .F. ) ;
#300 = CARTESIAN_POINT ( 'NONE',  ( -3.024999999999999911, 3.024999999999999911, 4.500000000000001776 ) ) ;
#301 = ORIENTED_EDGE ( 'NONE', *, *, #228, .F. ) ;
#302 = DIRECTION ( 'NONE',  ( -1.000000000000000000, 0.000000000000000000, -0.000000000000000000 ) ) ;
#303 = ORIENTED_EDGE ( 'NONE', *, *, #66, .T. ) ;
#304 = DIRECTION ( 'NONE',  ( -1.000000000000000000, 0.000000000000000000, 0.000000000000000000 ) ) ;
#305 = EDGE_LOOP ( 'NONE', ( #102, #141, #50, #446 ) ) ;
#306 = VECTOR ( 'NONE', #29, 1000.000000000000000 ) ;
#307 = CARTESIAN_POINT ( 'NONE',  ( 3.225000000000000089, -3.849621125123532384, 3.700000000000000622 ) ) ;
#308 = DIRECTION ( 'NONE',  ( 0.000000000000000000, 1.000000000000000000, 0.000000000000000000 ) ) ;
#309 = EDGE_CURVE ( 'NONE', #268, #35, #53, .T. ) ;
#310 = CARTESIAN_POINT ( 'NONE',  ( 3.225000000000000089, -3.024999999999999911, 3.700000000000000622 ) ) ;
#311 = CARTESIAN_POINT ( 'NONE',  ( 10.00000000000000178, 14.89999999999999858, 1.500000000000000000 ) ) ;
#312 = CARTESIAN_POINT ( 'NONE',  ( -3.024999999999999911, -3.024999999999999911, 1.500000000000000000 ) ) ;
#313 = ORIENTED_EDGE ( 'NONE', *, *, #410, .T. ) ;
#314 = APPLICATION_CONTEXT ( 'automotive_design' ) ;
#315 = DIRECTION ( 'NONE',  ( -0.2425356250363331079, 0.000000000000000000, 0.9701425001453318764 ) ) ;
#316 = ADVANCED_FACE ( 'NONE', ( #340 ), #330, .F. ) ;
#317 = CARTESIAN_POINT ( 'NONE',  ( 10.00000000000000178, 14.89999999999999858, 1.500000000000000000 ) ) ;
#318 = LINE ( 'NONE', #312, #407 ) ;
#319 = DIRECTION ( 'NONE',  ( 1.000000000000000000, -0.000000000000000000, -0.000000000000000000 ) ) ;
#320 =( NAMED_UNIT ( * ) SI_UNIT ( $, .STERADIAN. ) SOLID_ANGLE_UNIT ( ) );
#321 =( NAMED_UNIT ( * ) PLANE_ANGLE_UNIT ( ) SI_UNIT ( $, .RADIAN. ) );
#322 = FILL_AREA_STYLE_COLOUR ( '', #109 ) ;
#323 = DIRECTION ( 'NONE',  ( 0.2425356250363331079, 0.000000000000000000, -0.9701425001453318764 ) ) ;
#324 = FACE_OUTER_BOUND ( 'NONE', #63, .T. ) ;
#325 =( LENGTH_UNIT ( ) NAMED_UNIT ( * ) SI_UNIT ( .MILLI., .METRE. ) );
#326 = DIRECTION ( 'NONE',  ( -0.9701425001453318764, 0.000000000000000000, 0.2425356250363331079 ) ) ;
#327 = ADVANCED_FACE ( 'NONE', ( #82 ), #224, .F. ) ;
#328 = AXIS2_PLACEMENT_3D ( 'NONE', #242, #457, #351 ) ;
#329 = ADVANCED_FACE ( 'NONE', ( #128, #100 ), #283, .F. ) ;
#330 = PLANE ( 'NONE',  #46 ) ;
#331 = VECTOR ( 'NONE', #107, 1000.000000000000000 ) ;
#332 = DIRECTION ( 'NONE',  ( -1.000000000000000000, -0.000000000000000000, -0.000000000000000000 ) ) ;
#333 = ORIENTED_EDGE ( 'NONE', *, *, #309, .T. ) ;
#334 = FACE_OUTER_BOUND ( 'NONE', #377, .T. ) ;
#335 = EDGE_LOOP ( 'NONE', ( #218, #290, #370, #374 ) ) ;
#336 =( GEOMETRIC_REPRESENTATION_CONTEXT ( 3 ) GLOBAL_UNCERTAINTY_ASSIGNED_CONTEXT ( ( #178 ) ) GLOBAL_UNIT_ASSIGNED_CONTEXT ( ( #397, #42, #320 ) ) REPRESENTATION_CONTEXT ( 'NONE', 'WORKASPACE' ) );
#337 = DIRECTION ( 'NONE',  ( 1.000000000000000000, -0.000000000000000000, -0.000000000000000000 ) ) ;
#338 = EDGE_CURVE ( 'NONE', #197, #58, #95, .T. ) ;
#339 = VERTEX_POINT ( 'NONE', #201 ) ;
#340 = FACE_OUTER_BOUND ( 'NONE', #419, .T. ) ;
#341 = ORIENTED_EDGE ( 'NONE', *, *, #38, .T. ) ;
#342 = LINE ( 'NONE', #93, #306 ) ;
#343 = ADVANCED_FACE ( 'NONE', ( #427 ), #238, .F. ) ;
#344 = VERTEX_POINT ( 'NONE', #89 ) ;
#345 = CARTESIAN_POINT ( 'NONE',  ( 10.00000000000000178, 14.89999999999999858, 0.000000000000000000 ) ) ;
#346 = LINE ( 'NONE', #65, #171 ) ;
#347 = APPLICATION_CONTEXT ( 'automotive_design' ) ;
#348 = DIRECTION ( 'NONE',  ( -1.000000000000000000, 0.000000000000000000, 0.000000000000000000 ) ) ;
#349 = LINE ( 'NONE', #284, #247 ) ;
#350 = EDGE_CURVE ( 'NONE', #24, #215, #199, .T. ) ;
#351 = DIRECTION ( 'NONE',  ( 0.000000000000000000, 0.000000000000000000, 1.000000000000000000 ) ) ;
#352 = ORIENTED_EDGE ( 'NONE', *, *, #48, .T. ) ;
#353 = STYLED_ITEM ( 'NONE', ( #357 ), #127 ) ;
#354 = LINE ( 'NONE', #307, #27 ) ;
#355 = ORIENTED_EDGE ( 'NONE', *, *, #237, .T. ) ;
#356 = VECTOR ( 'NONE', #281, 1000.000000000000000 ) ;
#357 = PRESENTATION_STYLE_ASSIGNMENT (( #213 ) ) ;
#358 = PLANE ( 'NONE',  #416 ) ;
#359 = ADVANCED_FACE ( 'NONE', ( #276 ), #196, .F. ) ;
#360 = ORIENTED_EDGE ( 'NONE', *, *, #379, .F. ) ;
#361 = CARTESIAN_POINT ( 'NONE',  ( -3.225000000000000089, -3.024999999999999911, 3.700000000000001510 ) ) ;
#362 = ADVANCED_BREP_SHAPE_REPRESENTATION ( 'Rectangle_Button', ( #127, #208 ), #183 ) ;
#363 = EDGE_CURVE ( 'NONE', #413, #271, #421, .T. ) ;
#364 = DIRECTION ( 'NONE',  ( -1.000000000000000000, 0.000000000000000000, -0.000000000000000000 ) ) ;
#365 = ORIENTED_EDGE ( 'NONE', *, *, #338, .T. ) ;
#366 = DIRECTION ( 'NONE',  ( 0.000000000000000000, 0.000000000000000000, 1.000000000000000000 ) ) ;
#367 = PRESENTATION_LAYER_ASSIGNMENT (  '', '', ( #353 ) ) ;
#368 = AXIS2_PLACEMENT_3D ( 'NONE', #233, #455, #278 ) ;
#369 = CARTESIAN_POINT ( 'NONE',  ( 3.024999999999999911, 3.024999999999999911, 3.700000000000000622 ) ) ;
#370 = ORIENTED_EDGE ( 'NONE', *, *, #309, .F. ) ;
#371 = FACE_OUTER_BOUND ( 'NONE', #225, .T. ) ;
#372 = EDGE_LOOP ( 'NONE', ( #85, #112, #232, #385 ) ) ;
#373 = DIRECTION ( 'NONE',  ( -0.000000000000000000, -1.000000000000000000, -0.000000000000000000 ) ) ;
#374 = ORIENTED_EDGE ( 'NONE', *, *, #401, .F. ) ;
#375 = VECTOR ( 'NONE', #155, 1000.000000000000000 ) ;
#376 = CARTESIAN_POINT ( 'NONE',  ( -3.024999999999999911, -3.024999999999999911, 4.500000000000000888 ) ) ;
#377 = EDGE_LOOP ( 'NONE', ( #16, #408, #68, #251 ) ) ;
#378 = VECTOR ( 'NONE', #202, 1000.000000000000000 ) ;
#379 = EDGE_CURVE ( 'NONE', #35, #215, #342, .T. ) ;
#380 = DIRECTION ( 'NONE',  ( 1.000000000000000000, -0.000000000000000000, 0.000000000000000000 ) ) ;
#381 = ORIENTED_EDGE ( 'NONE', *, *, #222, .T. ) ;
#382 = CARTESIAN_POINT ( 'NONE',  ( 0.000000000000000000, 0.000000000000000000, 1.500000000000000000 ) ) ;
#383 = EDGE_LOOP ( 'NONE', ( #451, #81, #396, #301 ) ) ;
#384 = CARTESIAN_POINT ( 'NONE',  ( 10.00000000000000178, 14.89999999999999858, 0.000000000000000000 ) ) ;
#385 = ORIENTED_EDGE ( 'NONE', *, *, #77, .F. ) ;
#386 = LINE ( 'NONE', #64, #391 ) ;
#387 = CARTESIAN_POINT ( 'NONE',  ( 3.024999999999999911, -3.024999999999999911, 1.500000000000000000 ) ) ;
#388 = DIRECTION ( 'NONE',  ( -1.000000000000000000, 0.000000000000000000, -0.000000000000000000 ) ) ;
#389 = DIRECTION ( 'NONE',  ( 0.000000000000000000, 1.000000000000000000, 0.000000000000000000 ) ) ;
#390 = AXIS2_PLACEMENT_3D ( 'NONE', #59, #25, #423 ) ;
#391 = VECTOR ( 'NONE', #203, 1000.000000000000000 ) ;
#392 = ORIENTED_EDGE ( 'NONE', *, *, #258, .T. ) ;
#393 = VECTOR ( 'NONE', #308, 1000.000000000000000 ) ;
#394 = PRODUCT_DEFINITION ( 'UNKNOWN', '', #11, #142 ) ;
#395 = LINE ( 'NONE', #180, #71 ) ;
#396 = ORIENTED_EDGE ( 'NONE', *, *, #14, .F. ) ;
#397 =( LENGTH_UNIT ( ) NAMED_UNIT ( * ) SI_UNIT ( .MILLI., .METRE. ) );
#398 = EDGE_LOOP ( 'NONE', ( #8, #195, #341, #355, #365, #172, #333, #19 ) ) ;
#399 = VECTOR ( 'NONE', #44, 1000.000000000000000 ) ;
#400 = CARTESIAN_POINT ( 'NONE',  ( 3.024999999999999911, -3.849621125123532384, 3.700000000000000622 ) ) ;
#401 = EDGE_CURVE ( 'NONE', #187, #268, #354, .T. ) ;
#402 = DIRECTION ( 'NONE',  ( 1.000000000000000000, 0.000000000000000000, 0.000000000000000000 ) ) ;
#403 = CARTESIAN_POINT ( 'NONE',  ( -9.999999999999998224, -14.90000000000000391, 1.500000000000000000 ) ) ;
#404 = ORIENTED_EDGE ( 'NONE', *, *, #426, .T. ) ;
#405 = FACE_OUTER_BOUND ( 'NONE', #159, .T. ) ;
#406 = CARTESIAN_POINT ( 'NONE',  ( 3.024999999999999911, 3.024999999999999911, 1.500000000000000000 ) ) ;
#407 = VECTOR ( 'NONE', #32, 1000.000000000000000 ) ;
#408 = ORIENTED_EDGE ( 'NONE', *, *, #99, .T. ) ;
#409 = DIRECTION ( 'NONE',  ( 0.000000000000000000, 0.000000000000000000, 1.000000000000000000 ) ) ;
#410 = EDGE_CURVE ( 'NONE', #187, #287, #163, .T. ) ;
#411 = ORIENTED_EDGE ( 'NONE', *, *, #188, .T. ) ;
#412 = LINE ( 'NONE', #149, #138 ) ;
#413 = VERTEX_POINT ( 'NONE', #384 ) ;
#414 = LINE ( 'NONE', #84, #69 ) ;
#415 = ORIENTED_EDGE ( 'NONE', *, *, #432, .T. ) ;
#416 = AXIS2_PLACEMENT_3D ( 'NONE', #175, #326, #294 ) ;
#417 = ADVANCED_FACE ( 'NONE', ( #37 ), #62, .T. ) ;
#418 = CARTESIAN_POINT ( 'NONE',  ( 3.024999999999999911, -3.024999999999999911, 4.500000000000000888 ) ) ;
#419 = EDGE_LOOP ( 'NONE', ( #352, #227, #122, #150 ) ) ;
#420 = AXIS2_PLACEMENT_3D ( 'NONE', #291, #10, #364 ) ;
#421 = LINE ( 'NONE', #345, #454 ) ;
#422 = DIRECTION ( 'NONE',  ( -0.000000000000000000, -0.000000000000000000, -1.000000000000000000 ) ) ;
#423 = DIRECTION ( 'NONE',  ( 0.000000000000000000, -0.000000000000000000, 1.000000000000000000 ) ) ;
#424 = ORIENTED_EDGE ( 'NONE', *, *, #444, .T. ) ;
#425 = VECTOR ( 'NONE', #264, 1000.000000000000000 ) ;
#426 = EDGE_CURVE ( 'NONE', #344, #24, #318, .T. ) ;
#427 = FACE_OUTER_BOUND ( 'NONE', #154, .T. ) ;
#428 = VERTEX_POINT ( 'NONE', #459 ) ;
#429 = LINE ( 'NONE', #240, #293 ) ;
#430 = CARTESIAN_POINT ( 'NONE',  ( -9.999999999999998224, -14.90000000000000391, 1.500000000000000000 ) ) ;
#431 = LINE ( 'NONE', #26, #393 ) ;
#432 = EDGE_CURVE ( 'NONE', #33, #413, #161, .T. ) ;
#433 = AXIS2_PLACEMENT_3D ( 'NONE', #205, #273, #97 ) ;
#434 = FACE_OUTER_BOUND ( 'NONE', #372, .T. ) ;
#435 = PLANE ( 'NONE',  #420 ) ;
#436 = ADVANCED_FACE ( 'NONE', ( #136 ), #280, .T. ) ;
#437 = AXIS2_PLACEMENT_3D ( 'NONE', #257, #73, #323 ) ;
#438 = LINE ( 'NONE', #400, #399 ) ;
#439 = ORIENTED_EDGE ( 'NONE', *, *, #450, .T. ) ;
#440 = VECTOR ( 'NONE', #319, 1000.000000000000000 ) ;
#441 = DIRECTION ( 'NONE',  ( 1.000000000000000000, -0.000000000000000000, 0.000000000000000000 ) ) ;
#442 = DIRECTION ( 'NONE',  ( -0.000000000000000000, -0.000000000000000000, -1.000000000000000000 ) ) ;
#443 = ORIENTED_EDGE ( 'NONE', *, *, #77, .T. ) ;
#444 = EDGE_CURVE ( 'NONE', #192, #339, #429, .T. ) ;
#445 = DIRECTION ( 'NONE',  ( 0.000000000000000000, 1.000000000000000000, 0.000000000000000000 ) ) ;
#446 = ORIENTED_EDGE ( 'NONE', *, *, #350, .F. ) ;
#447 = CARTESIAN_POINT ( 'NONE',  ( -9.999999999999998224, 14.89999999999999858, 1.500000000000000000 ) ) ;
#448 = ORIENTED_EDGE ( 'NONE', *, *, #60, .F. ) ;
#449 = CARTESIAN_POINT ( 'NONE',  ( 3.225000000000000089, -3.024999999999999911, 3.700000000000000622 ) ) ;
#450 = EDGE_CURVE ( 'NONE', #33, #120, #386, .T. ) ;
#451 = ORIENTED_EDGE ( 'NONE', *, *, #410, .F. ) ;
#452 = CARTESIAN_POINT ( 'NONE',  ( -3.225000000000000089, 3.024999999999999911, 3.700000000000001510 ) ) ;
#453 = ORIENTED_EDGE ( 'NONE', *, *, #363, .T. ) ;
#454 = VECTOR ( 'NONE', #170, 1000.000000000000000 ) ;
#455 = DIRECTION ( 'NONE',  ( 0.000000000000000000, 1.000000000000000000, 0.000000000000000000 ) ) ;
#456 = LINE ( 'NONE', #129, #148 ) ;
#457 = DIRECTION ( 'NONE',  ( -1.000000000000000000, 0.000000000000000000, 0.000000000000000000 ) ) ;
#458 = LINE ( 'NONE', #207, #440 ) ;
#459 = CARTESIAN_POINT ( 'NONE',  ( 3.024999999999999911, -3.024999999999999911, 3.700000000000000622 ) ) ;
#460 = ORIENTED_EDGE ( 'NONE', *, *, #139, .T. ) ;
#461 = CARTESIAN_POINT ( 'NONE',  ( -3.024999999999999911, -3.024999999999999911, 4.500000000000000888 ) ) ;
ENDSEC;
END-ISO-10303-21;
