ISO-10303-21;
HEADER;
FILE_DESCRIPTION (( 'STEP AP214' ),
    '1' );
FILE_NAME ('Square_Button.STEP',
    '2025-07-16T14:29:23',
    ( '' ),
    ( '' ),
    'SwSTEP 2.0',
    'SolidWorks 2025',
    '' );
FILE_SCHEMA (( 'AUTOMOTIVE_DESIGN' ));
ENDSEC;

DATA;
#1 = PLANE ( 'NONE',  #355 ) ;
#2 = ADVANCED_FACE ( 'NONE', ( #342 ), #171, .T. ) ;
#3 = CARTESIAN_POINT ( 'NONE',  ( 3.879400374531752682, -3.324999999999999734, 3.700000000000001510 ) ) ;
#4 =( NAMED_UNIT ( * ) SI_UNIT ( $, .STERADIAN. ) SOLID_ANGLE_UNIT ( ) );
#5 = ORIENTED_EDGE ( 'NONE', *, *, #11, .T. ) ;
#6 = FACE_OUTER_BOUND ( 'NONE', #82, .T. ) ;
#7 = MANIFOLD_SOLID_BREP ( 'Boss-Extrude3', #126 ) ;
#8 = ORIENTED_EDGE ( 'NONE', *, *, #79, .F. ) ;
#9 = DIRECTION ( 'NONE',  ( -1.000000000000000000, 0.000000000000000000, 0.000000000000000000 ) ) ;
#10 = ORIENTED_EDGE ( 'NONE', *, *, #65, .F. ) ;
#11 = EDGE_CURVE ( 'NONE', #301, #292, #237, .T. ) ;
#12 = VECTOR ( 'NONE', #320, 1000.000000000000000 ) ;
#13 = FACE_OUTER_BOUND ( 'NONE', #60, .T. ) ;
#14 = ORIENTED_EDGE ( 'NONE', *, *, #185, .F. ) ;
#15 = VECTOR ( 'NONE', #427, 1000.000000000000000 ) ;
#16 = LINE ( 'NONE', #57, #299 ) ;
#17 = ORIENTED_EDGE ( 'NONE', *, *, #133, .F. ) ;
#18 = AXIS2_PLACEMENT_3D ( 'NONE', #260, #190, #397 ) ;
#19 = LINE ( 'NONE', #202, #382 ) ;
#20 = VERTEX_POINT ( 'NONE', #346 ) ;
#21 = CARTESIAN_POINT ( 'NONE',  ( -3.024999999999999911, -3.024999999999999911, 4.500000000000000888 ) ) ;
#22 = ORIENTED_EDGE ( 'NONE', *, *, #137, .T. ) ;
#23 = ORIENTED_EDGE ( 'NONE', *, *, #425, .T. ) ;
#24 = EDGE_CURVE ( 'NONE', #89, #301, #274, .T. ) ;
#25 = EDGE_CURVE ( 'NONE', #288, #301, #116, .T. ) ;
#26 = CARTESIAN_POINT ( 'NONE',  ( -10.00000000000000000, -9.900000000000000355, 1.500000000000000000 ) ) ;
#27 = VECTOR ( 'NONE', #127, 1000.000000000000000 ) ;
#28 = DIRECTION ( 'NONE',  ( -0.000000000000000000, -1.000000000000000000, -0.000000000000000000 ) ) ;
#29 = ORIENTED_EDGE ( 'NONE', *, *, #24, .F. ) ;
#30 = CARTESIAN_POINT ( 'NONE',  ( 3.024999999999999911, -3.024999999999999911, 3.700000000000001510 ) ) ;
#31 = FACE_OUTER_BOUND ( 'NONE', #266, .T. ) ;
#32 = ADVANCED_FACE ( 'NONE', ( #247, #213 ), #179, .F. ) ;
#33 = CARTESIAN_POINT ( 'NONE',  ( 3.024999999999999911, 3.024999999999999911, 1.500000000000000000 ) ) ;
#34 = AXIS2_PLACEMENT_3D ( 'NONE', #245, #388, #435 ) ;
#35 = CARTESIAN_POINT ( 'NONE',  ( 3.024999999999999911, -3.324999999999999734, 3.700000000000001510 ) ) ;
#36 = AXIS2_PLACEMENT_3D ( 'NONE', #324, #286, #156 ) ;
#37 = PLANE ( 'NONE',  #36 ) ;
#38 =( GEOMETRIC_REPRESENTATION_CONTEXT ( 3 ) GLOBAL_UNCERTAINTY_ASSIGNED_CONTEXT ( ( #123 ) ) GLOBAL_UNIT_ASSIGNED_CONTEXT ( ( #440, #321, #4 ) ) REPRESENTATION_CONTEXT ( 'NONE', 'WORKASPACE' ) );
#39 = VERTEX_POINT ( 'NONE', #184 ) ;
#40 = EDGE_CURVE ( 'NONE', #272, #292, #107, .T. ) ;
#41 = PRODUCT_DEFINITION_CONTEXT ( 'detailed design', #387, 'design' ) ;
#42 = DIRECTION ( 'NONE',  ( -1.000000000000000000, 0.000000000000000000, 0.000000000000000000 ) ) ;
#43 = VERTEX_POINT ( 'NONE', #182 ) ;
#44 = LINE ( 'NONE', #262, #175 ) ;
#45 = ORIENTED_EDGE ( 'NONE', *, *, #254, .T. ) ;
#46 = CARTESIAN_POINT ( 'NONE',  ( 10.00000000000000000, -9.900000000000000355, 0.000000000000000000 ) ) ;
#47 = DIRECTION ( 'NONE',  ( 0.000000000000000000, 1.000000000000000000, 0.000000000000000000 ) ) ;
#48 = ORIENTED_EDGE ( 'NONE', *, *, #96, .F. ) ;
#49 = ADVANCED_FACE ( 'NONE', ( #209 ), #457, .F. ) ;
#50 = DIRECTION ( 'NONE',  ( -0.000000000000000000, -0.000000000000000000, -1.000000000000000000 ) ) ;
#51 = ORIENTED_EDGE ( 'NONE', *, *, #358, .T. ) ;
#52 = VECTOR ( 'NONE', #233, 1000.000000000000000 ) ;
#53 = VECTOR ( 'NONE', #85, 1000.000000000000000 ) ;
#54 = CARTESIAN_POINT ( 'NONE',  ( 10.00000000000000000, 9.900000000000000355, 1.500000000000000000 ) ) ;
#55 = ORIENTED_EDGE ( 'NONE', *, *, #374, .T. ) ;
#56 = VECTOR ( 'NONE', #94, 1000.000000000000000 ) ;
#57 = CARTESIAN_POINT ( 'NONE',  ( 3.024999999999999911, 3.324999999999999734, 3.700000000000000622 ) ) ;
#58 = VERTEX_POINT ( 'NONE', #33 ) ;
#59 = CARTESIAN_POINT ( 'NONE',  ( -3.024999999999999911, 3.024999999999999911, 3.700000000000000622 ) ) ;
#60 = EDGE_LOOP ( 'NONE', ( #92, #45, #447, #270 ) ) ;
#61 = CARTESIAN_POINT ( 'NONE',  ( -3.024999999999999911, -3.324999999999999734, 3.700000000000001510 ) ) ;
#62 = CARTESIAN_POINT ( 'NONE',  ( 10.00000000000000000, -9.900000000000000355, 0.000000000000000000 ) ) ;
#63 = VECTOR ( 'NONE', #170, 1000.000000000000000 ) ;
#64 = VERTEX_POINT ( 'NONE', #35 ) ;
#65 = EDGE_CURVE ( 'NONE', #131, #434, #319, .T. ) ;
#66 = EDGE_LOOP ( 'NONE', ( #138, #193, #48, #157 ) ) ;
#67 = LINE ( 'NONE', #208, #416 ) ;
#68 = CARTESIAN_POINT ( 'NONE',  ( -3.024999999999999911, 3.024999999999999911, 1.500000000000000000 ) ) ;
#69 = EDGE_CURVE ( 'NONE', #205, #64, #384, .T. ) ;
#70 = DIRECTION ( 'NONE',  ( -0.000000000000000000, -1.000000000000000000, -0.000000000000000000 ) ) ;
#71 = DIRECTION ( 'NONE',  ( -0.000000000000000000, -1.000000000000000000, -0.000000000000000000 ) ) ;
#72 = ORIENTED_EDGE ( 'NONE', *, *, #40, .T. ) ;
#73 = DIRECTION ( 'NONE',  ( 0.000000000000000000, -0.3511234415883916493, -0.9363291775690445462 ) ) ;
#74 = DIRECTION ( 'NONE',  ( -1.000000000000000000, 0.000000000000000000, -0.000000000000000000 ) ) ;
#75 = ORIENTED_EDGE ( 'NONE', *, *, #86, .F. ) ;
#76 = VECTOR ( 'NONE', #396, 1000.000000000000000 ) ;
#77 = LINE ( 'NONE', #215, #372 ) ;
#78 = VECTOR ( 'NONE', #302, 1000.000000000000000 ) ;
#79 = EDGE_CURVE ( 'NONE', #383, #39, #251, .T. ) ;
#80 = FACE_OUTER_BOUND ( 'NONE', #307, .T. ) ;
#81 = PRODUCT_DEFINITION_FORMATION_WITH_SPECIFIED_SOURCE ( 'ANY', '', #93, .NOT_KNOWN. ) ;
#82 = EDGE_LOOP ( 'NONE', ( #336, #100, #441, #159 ) ) ;
#83 = LINE ( 'NONE', #196, #429 ) ;
#84 = ORIENTED_EDGE ( 'NONE', *, *, #24, .T. ) ;
#85 = DIRECTION ( 'NONE',  ( -0.000000000000000000, -0.000000000000000000, -1.000000000000000000 ) ) ;
#86 = EDGE_CURVE ( 'NONE', #205, #43, #461, .T. ) ;
#87 = ORIENTED_EDGE ( 'NONE', *, *, #254, .F. ) ;
#88 = DIRECTION ( 'NONE',  ( 0.000000000000000000, 0.000000000000000000, -1.000000000000000000 ) ) ;
#89 = VERTEX_POINT ( 'NONE', #393 ) ;
#90 = APPLICATION_CONTEXT ( 'automotive_design' ) ;
#91 = LINE ( 'NONE', #439, #27 ) ;
#92 = ORIENTED_EDGE ( 'NONE', *, *, #391, .F. ) ;
#93 = PRODUCT ( 'Square_Button', 'Square_Button', '', ( #326 ) ) ;
#94 = DIRECTION ( 'NONE',  ( -0.000000000000000000, -0.000000000000000000, -1.000000000000000000 ) ) ;
#95 = DIRECTION ( 'NONE',  ( 0.000000000000000000, 1.000000000000000000, 0.000000000000000000 ) ) ;
#96 = EDGE_CURVE ( 'NONE', #434, #58, #77, .T. ) ;
#97 = LINE ( 'NONE', #267, #78 ) ;
#98 = EDGE_LOOP ( 'NONE', ( #203, #14, #258, #453 ) ) ;
#99 = LINE ( 'NONE', #448, #105 ) ;
#100 = ORIENTED_EDGE ( 'NONE', *, *, #316, .T. ) ;
#101 = VECTOR ( 'NONE', #354, 1000.000000000000000 ) ;
#102 = VECTOR ( 'NONE', #399, 1000.000000000000000 ) ;
#103 = ORIENTED_EDGE ( 'NONE', *, *, #137, .F. ) ;
#104 = EDGE_CURVE ( 'NONE', #376, #220, #315, .T. ) ;
#105 = VECTOR ( 'NONE', #135, 1000.000000000000000 ) ;
#106 = ORIENTED_EDGE ( 'NONE', *, *, #330, .F. ) ;
#107 = LINE ( 'NONE', #356, #198 ) ;
#108 = CARTESIAN_POINT ( 'NONE',  ( 3.879400374531752682, 3.024999999999999911, 3.700000000000000622 ) ) ;
#109 = CARTESIAN_POINT ( 'NONE',  ( 3.024999999999999911, 3.024999999999999911, 3.700000000000000622 ) ) ;
#110 = DIRECTION ( 'NONE',  ( 1.000000000000000000, 0.000000000000000000, 0.000000000000000000 ) ) ;
#111 = DIRECTION ( 'NONE',  ( 0.000000000000000000, 0.000000000000000000, 1.000000000000000000 ) ) ;
#112 = DIRECTION ( 'NONE',  ( 0.000000000000000000, 0.000000000000000000, 1.000000000000000000 ) ) ;
#113 = CARTESIAN_POINT ( 'NONE',  ( -3.024999999999999911, -3.024999999999999911, 3.700000000000001510 ) ) ;
#114 = ORIENTED_EDGE ( 'NONE', *, *, #79, .T. ) ;
#115 = EDGE_CURVE ( 'NONE', #20, #317, #277, .T. ) ;
#116 = LINE ( 'NONE', #282, #101 ) ;
#117 = EDGE_CURVE ( 'NONE', #220, #288, #312, .T. ) ;
#118 = AXIS2_PLACEMENT_3D ( 'NONE', #297, #42, #331 ) ;
#119 = FACE_OUTER_BOUND ( 'NONE', #207, .T. ) ;
#120 = ORIENTED_EDGE ( 'NONE', *, *, #172, .F. ) ;
#121 = DIRECTION ( 'NONE',  ( 0.000000000000000000, -0.3511234415883916493, 0.9363291775690445462 ) ) ;
#122 = ORIENTED_EDGE ( 'NONE', *, *, #450, .T. ) ;
#123 = UNCERTAINTY_MEASURE_WITH_UNIT (LENGTH_MEASURE( 1.000000000000000082E-05 ), #440, 'distance_accuracy_value', 'NONE');
#124 = DIRECTION ( 'NONE',  ( 0.000000000000000000, -0.3511234415883916493, -0.9363291775690445462 ) ) ;
#125 = VERTEX_POINT ( 'NONE', #241 ) ;
#126 = CLOSED_SHELL ( 'NONE', ( #322, #155, #49, #323, #32, #293, #444, #287, #240, #2, #275, #263, #199, #279, #408 ) ) ;
#127 = DIRECTION ( 'NONE',  ( -0.000000000000000000, 0.3511234415883916493, -0.9363291775690445462 ) ) ;
#128 = EDGE_LOOP ( 'NONE', ( #120, #445, #432, #290 ) ) ;
#129 = AXIS2_PLACEMENT_3D ( 'NONE', #130, #361, #121 ) ;
#130 = CARTESIAN_POINT ( 'NONE',  ( 3.879400374531752682, 3.324999999999999734, 3.700000000000000622 ) ) ;
#131 = VERTEX_POINT ( 'NONE', #318 ) ;
#132 = LINE ( 'NONE', #411, #56 ) ;
#133 = EDGE_CURVE ( 'NONE', #389, #58, #67, .T. ) ;
#134 = ORIENTED_EDGE ( 'NONE', *, *, #308, .T. ) ;
#135 = DIRECTION ( 'NONE',  ( -0.000000000000000000, -0.000000000000000000, -1.000000000000000000 ) ) ;
#136 = CARTESIAN_POINT ( 'NONE',  ( -3.024999999999999911, -3.024999999999999911, 3.700000000000001510 ) ) ;
#137 = EDGE_CURVE ( 'NONE', #64, #125, #458, .T. ) ;
#138 = ORIENTED_EDGE ( 'NONE', *, *, #425, .F. ) ;
#139 = AXIS2_PLACEMENT_3D ( 'NONE', #460, #144, #210 ) ;
#140 = VECTOR ( 'NONE', #422, 1000.000000000000000 ) ;
#141 =( NAMED_UNIT ( * ) SI_UNIT ( $, .STERADIAN. ) SOLID_ANGLE_UNIT ( ) );
#142 = AXIS2_PLACEMENT_3D ( 'NONE', #168, #377, #343 ) ;
#143 = CARTESIAN_POINT ( 'NONE',  ( -3.024999999999999911, -3.024999999999999911, 1.500000000000000000 ) ) ;
#144 = DIRECTION ( 'NONE',  ( 0.000000000000000000, 0.000000000000000000, -1.000000000000000000 ) ) ;
#145 = FACE_OUTER_BOUND ( 'NONE', #222, .T. ) ;
#146 = PLANE ( 'NONE',  #359 ) ;
#147 = DIRECTION ( 'NONE',  ( 0.000000000000000000, 1.000000000000000000, 0.000000000000000000 ) ) ;
#148 = PLANE ( 'NONE',  #314 ) ;
#149 = VERTEX_POINT ( 'NONE', #109 ) ;
#150 = EDGE_CURVE ( 'NONE', #362, #89, #459, .T. ) ;
#151 = CARTESIAN_POINT ( 'NONE',  ( 3.024999999999999911, -3.024999999999999911, 4.500000000000000888 ) ) ;
#152 = PLANE ( 'NONE',  #129 ) ;
#153 = LINE ( 'NONE', #407, #102 ) ;
#154 = ORIENTED_EDGE ( 'NONE', *, *, #65, .T. ) ;
#155 = ADVANCED_FACE ( 'NONE', ( #145 ), #423, .F. ) ;
#156 = DIRECTION ( 'NONE',  ( 0.000000000000000000, -0.000000000000000000, 1.000000000000000000 ) ) ;
#157 = ORIENTED_EDGE ( 'NONE', *, *, #374, .F. ) ;
#158 = FACE_OUTER_BOUND ( 'NONE', #367, .T. ) ;
#159 = ORIENTED_EDGE ( 'NONE', *, *, #420, .F. ) ;
#160 =( GEOMETRIC_REPRESENTATION_CONTEXT ( 3 ) GLOBAL_UNCERTAINTY_ASSIGNED_CONTEXT ( ( #395 ) ) GLOBAL_UNIT_ASSIGNED_CONTEXT ( ( #347, #455, #141 ) ) REPRESENTATION_CONTEXT ( 'NONE', 'WORKASPACE' ) );
#161 = AXIS2_PLACEMENT_3D ( 'NONE', #433, #88, #328 ) ;
#162 = FACE_OUTER_BOUND ( 'NONE', #128, .T. ) ;
#163 = ADVANCED_BREP_SHAPE_REPRESENTATION ( 'Square_Button', ( #7, #18 ), #38 ) ;
#164 = ORIENTED_EDGE ( 'NONE', *, *, #40, .F. ) ;
#165 = DIRECTION ( 'NONE',  ( 0.000000000000000000, -1.000000000000000000, 0.000000000000000000 ) ) ;
#166 = EDGE_CURVE ( 'NONE', #292, #362, #366, .T. ) ;
#167 = EDGE_LOOP ( 'NONE', ( #5, #164, #191, #246 ) ) ;
#168 = CARTESIAN_POINT ( 'NONE',  ( 10.00000000000000000, -9.900000000000000355, 1.500000000000000000 ) ) ;
#169 = ORIENTED_EDGE ( 'NONE', *, *, #364, .F. ) ;
#170 = DIRECTION ( 'NONE',  ( 0.000000000000000000, 1.000000000000000000, 0.000000000000000000 ) ) ;
#171 = PLANE ( 'NONE',  #380 ) ;
#172 = EDGE_CURVE ( 'NONE', #125, #389, #295, .T. ) ;
#173 = ORIENTED_EDGE ( 'NONE', *, *, #225, .F. ) ;
#174 = ORIENTED_EDGE ( 'NONE', *, *, #115, .F. ) ;
#175 = VECTOR ( 'NONE', #9, 1000.000000000000000 ) ;
#176 = CARTESIAN_POINT ( 'NONE',  ( 10.00000000000000000, -9.900000000000000355, 1.500000000000000000 ) ) ;
#177 = CARTESIAN_POINT ( 'NONE',  ( 3.879400374531752682, 3.024999999999999911, 3.700000000000000622 ) ) ;
#178 = PRODUCT_DEFINITION ( 'UNKNOWN', '', #81, #41 ) ;
#179 = PLANE ( 'NONE',  #139 ) ;
#180 = LINE ( 'NONE', #248, #394 ) ;
#181 = ORIENTED_EDGE ( 'NONE', *, *, #391, .T. ) ;
#182 = CARTESIAN_POINT ( 'NONE',  ( 3.024999999999999911, 3.024999999999999911, 4.500000000000000888 ) ) ;
#183 = COLOUR_RGB ( '',0.7921568627450980005, 0.8196078431372548767, 0.9333333333333333481 ) ;
#184 = CARTESIAN_POINT ( 'NONE',  ( -3.024999999999999911, -3.024999999999999911, 4.500000000000001776 ) ) ;
#185 = EDGE_CURVE ( 'NONE', #220, #89, #83, .T. ) ;
#186 = CARTESIAN_POINT ( 'NONE',  ( -3.024999999999999911, -3.324999999999999734, 3.700000000000001510 ) ) ;
#187 = VECTOR ( 'NONE', #242, 1000.000000000000000 ) ;
#188 = CARTESIAN_POINT ( 'NONE',  ( 3.879400374531752682, -3.024999999999999911, 3.700000000000001510 ) ) ;
#189 = CARTESIAN_POINT ( 'NONE',  ( 0.000000000000000000, 0.000000000000000000, 0.000000000000000000 ) ) ;
#190 = DIRECTION ( 'NONE',  ( 0.000000000000000000, 0.000000000000000000, 1.000000000000000000 ) ) ;
#191 = ORIENTED_EDGE ( 'NONE', *, *, #308, .F. ) ;
#192 = DIRECTION ( 'NONE',  ( -1.000000000000000000, 0.000000000000000000, 0.000000000000000000 ) ) ;
#193 = ORIENTED_EDGE ( 'NONE', *, *, #244, .T. ) ;
#194 = DIRECTION ( 'NONE',  ( 0.000000000000000000, -0.9363291775690445462, 0.3511234415883916493 ) ) ;
#195 = ORIENTED_EDGE ( 'NONE', *, *, #364, .T. ) ;
#196 = CARTESIAN_POINT ( 'NONE',  ( -10.00000000000000000, 9.900000000000000355, 1.500000000000000000 ) ) ;
#197 = ORIENTED_EDGE ( 'NONE', *, *, #211, .F. ) ;
#198 = VECTOR ( 'NONE', #426, 1000.000000000000000 ) ;
#199 = ADVANCED_FACE ( 'NONE', ( #158 ), #291, .T. ) ;
#200 = CARTESIAN_POINT ( 'NONE',  ( 10.00000000000000000, 9.900000000000000355, 0.000000000000000000 ) ) ;
#201 = ORIENTED_EDGE ( 'NONE', *, *, #166, .F. ) ;
#202 = CARTESIAN_POINT ( 'NONE',  ( 10.00000000000000000, -9.900000000000000355, 1.500000000000000000 ) ) ;
#203 = ORIENTED_EDGE ( 'NONE', *, *, #150, .T. ) ;
#204 = FACE_OUTER_BOUND ( 'NONE', #409, .T. ) ;
#205 = VERTEX_POINT ( 'NONE', #259 ) ;
#206 = CARTESIAN_POINT ( 'NONE',  ( 3.024999999999999911, -3.024999999999999911, 1.500000000000000000 ) ) ;
#207 = EDGE_LOOP ( 'NONE', ( #103, #227, #169, #197 ) ) ;
#208 = CARTESIAN_POINT ( 'NONE',  ( 3.024999999999999911, -3.024999999999999911, 1.500000000000000000 ) ) ;
#209 = FACE_OUTER_BOUND ( 'NONE', #167, .T. ) ;
#210 = DIRECTION ( 'NONE',  ( -1.000000000000000000, 0.000000000000000000, -0.000000000000000000 ) ) ;
#211 = EDGE_CURVE ( 'NONE', #125, #412, #153, .T. ) ;
#212 = VECTOR ( 'NONE', #28, 1000.000000000000000 ) ;
#213 = FACE_OUTER_BOUND ( 'NONE', #255, .T. ) ;
#214 = CARTESIAN_POINT ( 'NONE',  ( 3.024999999999999911, 3.324999999999999734, 3.700000000000000622 ) ) ;
#215 = CARTESIAN_POINT ( 'NONE',  ( -3.024999999999999911, 3.024999999999999911, 1.500000000000000000 ) ) ;
#216 = VECTOR ( 'NONE', #300, 1000.000000000000000 ) ;
#217 = PLANE ( 'NONE',  #442 ) ;
#218 = EDGE_LOOP ( 'NONE', ( #224, #23, #174, #87 ) ) ;
#219 = LINE ( 'NONE', #363, #76 ) ;
#220 = VERTEX_POINT ( 'NONE', #401 ) ;
#221 = DIRECTION ( 'NONE',  ( -0.000000000000000000, -0.000000000000000000, -1.000000000000000000 ) ) ;
#222 = EDGE_LOOP ( 'NONE', ( #84, #406, #351, #238 ) ) ;
#223 = CARTESIAN_POINT ( 'NONE',  ( 3.024999999999999911, 3.024999999999999911, 4.500000000000000888 ) ) ;
#224 = ORIENTED_EDGE ( 'NONE', *, *, #340, .F. ) ;
#225 = EDGE_CURVE ( 'NONE', #64, #383, #219, .T. ) ;
#226 = DIRECTION ( 'NONE',  ( 1.000000000000000000, 0.000000000000000000, 0.000000000000000000 ) ) ;
#227 = ORIENTED_EDGE ( 'NONE', *, *, #225, .T. ) ;
#228 = VECTOR ( 'NONE', #70, 1000.000000000000000 ) ;
#229 = CARTESIAN_POINT ( 'NONE',  ( 3.024999999999999911, 3.024999999999999911, 3.700000000000000622 ) ) ;
#230 = FILL_AREA_STYLE_COLOUR ( '', #183 ) ;
#231 = EDGE_CURVE ( 'NONE', #365, #20, #91, .T. ) ;
#232 = CARTESIAN_POINT ( 'NONE',  ( 10.00000000000000000, 9.900000000000000355, 1.500000000000000000 ) ) ;
#233 = DIRECTION ( 'NONE',  ( 1.000000000000000000, -0.000000000000000000, -0.000000000000000000 ) ) ;
#234 = CARTESIAN_POINT ( 'NONE',  ( -3.024999999999999911, 3.024999999999999911, 4.500000000000000888 ) ) ;
#235 = ORIENTED_EDGE ( 'NONE', *, *, #166, .T. ) ;
#236 = VECTOR ( 'NONE', #50, 1000.000000000000000 ) ;
#237 = LINE ( 'NONE', #62, #52 ) ;
#238 = ORIENTED_EDGE ( 'NONE', *, *, #185, .T. ) ;
#239 = FACE_OUTER_BOUND ( 'NONE', #218, .T. ) ;
#240 = ADVANCED_FACE ( 'NONE', ( #443 ), #334, .F. ) ;
#241 = CARTESIAN_POINT ( 'NONE',  ( 3.024999999999999911, -3.024999999999999911, 3.700000000000001510 ) ) ;
#242 = DIRECTION ( 'NONE',  ( -1.000000000000000000, 0.000000000000000000, 0.000000000000000000 ) ) ;
#243 = CARTESIAN_POINT ( 'NONE',  ( 10.00000000000000000, 9.900000000000000355, 0.000000000000000000 ) ) ;
#244 = EDGE_CURVE ( 'NONE', #149, #58, #368, .T. ) ;
#245 = CARTESIAN_POINT ( 'NONE',  ( -10.00000000000000000, -9.900000000000000355, 1.500000000000000000 ) ) ;
#246 = ORIENTED_EDGE ( 'NONE', *, *, #25, .T. ) ;
#247 = FACE_BOUND ( 'NONE', #437, .T. ) ;
#248 = CARTESIAN_POINT ( 'NONE',  ( -3.024999999999999911, 3.024999999999999911, 4.500000000000000888 ) ) ;
#249 = VECTOR ( 'NONE', #147, 1000.000000000000000 ) ;
#250 = VECTOR ( 'NONE', #265, 1000.000000000000000 ) ;
#251 = LINE ( 'NONE', #186, #12 ) ;
#252 = CARTESIAN_POINT ( 'NONE',  ( 10.00000000000000000, -9.900000000000000355, 0.000000000000000000 ) ) ;
#253 = VECTOR ( 'NONE', #271, 1000.000000000000000 ) ;
#254 = EDGE_CURVE ( 'NONE', #398, #20, #44, .T. ) ;
#255 = EDGE_LOOP ( 'NONE', ( #304, #284, #134, #122 ) ) ;
#256 = PRODUCT_DEFINITION_SHAPE ( 'NONE', 'NONE',  #178 ) ;
#257 = CARTESIAN_POINT ( 'NONE',  ( 3.024999999999999911, -3.024999999999999911, 4.500000000000000888 ) ) ;
#258 = ORIENTED_EDGE ( 'NONE', *, *, #104, .F. ) ;
#259 = CARTESIAN_POINT ( 'NONE',  ( 3.024999999999999911, -3.024999999999999911, 4.500000000000000888 ) ) ;
#260 = CARTESIAN_POINT ( 'NONE',  ( 0.000000000000000000, 0.000000000000000000, 0.000000000000000000 ) ) ;
#261 = ORIENTED_EDGE ( 'NONE', *, *, #172, .T. ) ;
#262 = CARTESIAN_POINT ( 'NONE',  ( 3.879400374531752682, 3.324999999999999734, 3.700000000000000622 ) ) ;
#263 = ADVANCED_FACE ( 'NONE', ( #119 ), #1, .T. ) ;
#264 = ORIENTED_EDGE ( 'NONE', *, *, #231, .T. ) ;
#265 = DIRECTION ( 'NONE',  ( 0.000000000000000000, 1.000000000000000000, 0.000000000000000000 ) ) ;
#266 = EDGE_LOOP ( 'NONE', ( #10, #106, #195, #114, #51, #264, #296, #55 ) ) ;
#267 = CARTESIAN_POINT ( 'NONE',  ( -3.024999999999999911, -3.024999999999999911, 1.500000000000000000 ) ) ;
#268 = CARTESIAN_POINT ( 'NONE',  ( -3.024999999999999911, 3.024999999999999911, 4.500000000000000888 ) ) ;
#269 = DIRECTION ( 'NONE',  ( -1.000000000000000000, 0.000000000000000000, -0.000000000000000000 ) ) ;
#270 = ORIENTED_EDGE ( 'NONE', *, *, #420, .T. ) ;
#271 = DIRECTION ( 'NONE',  ( 0.000000000000000000, -1.000000000000000000, 0.000000000000000000 ) ) ;
#272 = VERTEX_POINT ( 'NONE', #360 ) ;
#273 = VECTOR ( 'NONE', #285, 1000.000000000000000 ) ;
#274 = LINE ( 'NONE', #428, #294 ) ;
#275 = ADVANCED_FACE ( 'NONE', ( #6 ), #404, .F. ) ;
#276 = VECTOR ( 'NONE', #47, 1000.000000000000000 ) ;
#277 = LINE ( 'NONE', #421, #212 ) ;
#278 = DIRECTION ( 'NONE',  ( -1.000000000000000000, 0.000000000000000000, 0.000000000000000000 ) ) ;
#279 = ADVANCED_FACE ( 'NONE', ( #13 ), #152, .T. ) ;
#280 = DIRECTION ( 'NONE',  ( 0.000000000000000000, 1.000000000000000000, -0.000000000000000000 ) ) ;
#281 = CARTESIAN_POINT ( 'NONE',  ( -3.024999999999999911, -3.024999999999999911, 4.500000000000000888 ) ) ;
#282 = CARTESIAN_POINT ( 'NONE',  ( -10.00000000000000000, -9.900000000000000355, 1.500000000000000000 ) ) ;
#283 = CARTESIAN_POINT ( 'NONE',  ( 10.00000000000000000, 9.900000000000000355, 1.500000000000000000 ) ) ;
#284 = ORIENTED_EDGE ( 'NONE', *, *, #117, .T. ) ;
#285 = DIRECTION ( 'NONE',  ( 0.000000000000000000, 1.000000000000000000, 0.000000000000000000 ) ) ;
#286 = DIRECTION ( 'NONE',  ( 0.000000000000000000, 1.000000000000000000, 0.000000000000000000 ) ) ;
#287 = ADVANCED_FACE ( 'NONE', ( #162 ), #37, .F. ) ;
#288 = VERTEX_POINT ( 'NONE', #430 ) ;
#289 = DIRECTION ( 'NONE',  ( -0.000000000000000000, 0.000000000000000000, -1.000000000000000000 ) ) ;
#290 = ORIENTED_EDGE ( 'NONE', *, *, #303, .T. ) ;
#291 = PLANE ( 'NONE',  #311 ) ;
#292 = VERTEX_POINT ( 'NONE', #252 ) ;
#293 = ADVANCED_FACE ( 'NONE', ( #80 ), #217, .T. ) ;
#294 = VECTOR ( 'NONE', #71, 1000.000000000000000 ) ;
#295 = LINE ( 'NONE', #257, #53 ) ;
#296 = ORIENTED_EDGE ( 'NONE', *, *, #115, .T. ) ;
#297 = CARTESIAN_POINT ( 'NONE',  ( 3.024999999999999911, -3.024999999999999911, 4.500000000000000888 ) ) ;
#298 = ORIENTED_EDGE ( 'NONE', *, *, #150, .F. ) ;
#299 = VECTOR ( 'NONE', #418, 1000.000000000000000 ) ;
#300 = DIRECTION ( 'NONE',  ( 0.000000000000000000, 1.000000000000000000, 0.000000000000000000 ) ) ;
#301 = VERTEX_POINT ( 'NONE', #305 ) ;
#302 = DIRECTION ( 'NONE',  ( 1.000000000000000000, 0.000000000000000000, 0.000000000000000000 ) ) ;
#303 = EDGE_CURVE ( 'NONE', #131, #389, #97, .T. ) ;
#304 = ORIENTED_EDGE ( 'NONE', *, *, #104, .T. ) ;
#305 = CARTESIAN_POINT ( 'NONE',  ( -10.00000000000000000, -9.900000000000000355, 0.000000000000000000 ) ) ;
#306 = FILL_AREA_STYLE ('',( #230 ) ) ;
#307 = EDGE_LOOP ( 'NONE', ( #298, #201, #344, #29 ) ) ;
#308 = EDGE_CURVE ( 'NONE', #288, #272, #19, .T. ) ;
#309 = ORIENTED_EDGE ( 'NONE', *, *, #410, .F. ) ;
#310 = VECTOR ( 'NONE', #73, 1000.000000000000000 ) ;
#311 = AXIS2_PLACEMENT_3D ( 'NONE', #3, #194, #124 ) ;
#312 = LINE ( 'NONE', #26, #228 ) ;
#313 = LINE ( 'NONE', #108, #187 ) ;
#314 = AXIS2_PLACEMENT_3D ( 'NONE', #177, #350, #74 ) ;
#315 = LINE ( 'NONE', #352, #335 ) ;
#316 = EDGE_CURVE ( 'NONE', #39, #205, #341, .T. ) ;
#317 = VERTEX_POINT ( 'NONE', #59 ) ;
#318 = CARTESIAN_POINT ( 'NONE',  ( -3.024999999999999911, -3.024999999999999911, 1.500000000000000000 ) ) ;
#319 = LINE ( 'NONE', #143, #249 ) ;
#320 = DIRECTION ( 'NONE',  ( 0.000000000000000000, 0.3511234415883916493, 0.9363291775690445462 ) ) ;
#321 =( NAMED_UNIT ( * ) PLANE_ANGLE_UNIT ( ) SI_UNIT ( $, .RADIAN. ) );
#322 = ADVANCED_FACE ( 'NONE', ( #345 ), #451, .F. ) ;
#323 = ADVANCED_FACE ( 'NONE', ( #204 ), #379, .F. ) ;
#324 = CARTESIAN_POINT ( 'NONE',  ( -3.024999999999999911, -3.024999999999999911, 4.500000000000000888 ) ) ;
#325 = DIRECTION ( 'NONE',  ( 0.000000000000000000, 0.000000000000000000, -1.000000000000000000 ) ) ;
#326 = PRODUCT_CONTEXT ( 'NONE', #90, 'mechanical' ) ;
#327 = ORIENTED_EDGE ( 'NONE', *, *, #96, .T. ) ;
#328 = DIRECTION ( 'NONE',  ( -1.000000000000000000, 0.000000000000000000, -0.000000000000000000 ) ) ;
#329 = ORIENTED_EDGE ( 'NONE', *, *, #133, .T. ) ;
#330 = EDGE_CURVE ( 'NONE', #412, #131, #99, .T. ) ;
#331 = DIRECTION ( 'NONE',  ( 0.000000000000000000, 0.000000000000000000, 1.000000000000000000 ) ) ;
#332 = ORIENTED_EDGE ( 'NONE', *, *, #450, .F. ) ;
#333 = PRESENTATION_LAYER_ASSIGNMENT (  '', '', ( #438 ) ) ;
#334 = PLANE ( 'NONE',  #118 ) ;
#335 = VECTOR ( 'NONE', #278, 1000.000000000000000 ) ;
#336 = ORIENTED_EDGE ( 'NONE', *, *, #358, .F. ) ;
#337 = DIRECTION ( 'NONE',  ( 0.000000000000000000, -0.000000000000000000, -1.000000000000000000 ) ) ;
#338 = ORIENTED_EDGE ( 'NONE', *, *, #316, .F. ) ;
#339 = VECTOR ( 'NONE', #226, 1000.000000000000000 ) ;
#340 = EDGE_CURVE ( 'NONE', #149, #398, #446, .T. ) ;
#341 = LINE ( 'NONE', #413, #339 ) ;
#342 = FACE_OUTER_BOUND ( 'NONE', #66, .T. ) ;
#343 = DIRECTION ( 'NONE',  ( 0.000000000000000000, 0.000000000000000000, 1.000000000000000000 ) ) ;
#344 = ORIENTED_EDGE ( 'NONE', *, *, #11, .F. ) ;
#345 = FACE_OUTER_BOUND ( 'NONE', #98, .T. ) ;
#346 = CARTESIAN_POINT ( 'NONE',  ( -3.024999999999999911, 3.324999999999999734, 3.700000000000000622 ) ) ;
#347 =( LENGTH_UNIT ( ) NAMED_UNIT ( * ) SI_UNIT ( .MILLI., .METRE. ) );
#348 = ORIENTED_EDGE ( 'NONE', *, *, #244, .F. ) ;
#349 = DIRECTION ( 'NONE',  ( 0.000000000000000000, 1.000000000000000000, 0.000000000000000000 ) ) ;
#350 = DIRECTION ( 'NONE',  ( 0.000000000000000000, 0.000000000000000000, -1.000000000000000000 ) ) ;
#351 = ORIENTED_EDGE ( 'NONE', *, *, #117, .F. ) ;
#352 = CARTESIAN_POINT ( 'NONE',  ( 10.00000000000000000, 9.900000000000000355, 1.500000000000000000 ) ) ;
#353 = DIRECTION ( 'NONE',  ( 1.000000000000000000, 0.000000000000000000, 0.000000000000000000 ) ) ;
#354 = DIRECTION ( 'NONE',  ( -0.000000000000000000, -0.000000000000000000, -1.000000000000000000 ) ) ;
#355 = AXIS2_PLACEMENT_3D ( 'NONE', #188, #289, #192 ) ;
#356 = CARTESIAN_POINT ( 'NONE',  ( 10.00000000000000000, -9.900000000000000355, 1.500000000000000000 ) ) ;
#357 = LINE ( 'NONE', #283, #15 ) ;
#358 = EDGE_CURVE ( 'NONE', #39, #365, #371, .T. ) ;
#359 = AXIS2_PLACEMENT_3D ( 'NONE', #281, #424, #111 ) ;
#360 = CARTESIAN_POINT ( 'NONE',  ( 10.00000000000000000, -9.900000000000000355, 1.500000000000000000 ) ) ;
#361 = DIRECTION ( 'NONE',  ( 0.000000000000000000, 0.9363291775690445462, 0.3511234415883916493 ) ) ;
#362 = VERTEX_POINT ( 'NONE', #200 ) ;
#363 = CARTESIAN_POINT ( 'NONE',  ( 3.879400374531752682, -3.324999999999999734, 3.700000000000001510 ) ) ;
#364 = EDGE_CURVE ( 'NONE', #412, #383, #375, .T. ) ;
#365 = VERTEX_POINT ( 'NONE', #234 ) ;
#366 = LINE ( 'NONE', #46, #250 ) ;
#367 = EDGE_LOOP ( 'NONE', ( #373, #338, #8, #173 ) ) ;
#368 = LINE ( 'NONE', #223, #236 ) ;
#369 = CARTESIAN_POINT ( 'NONE',  ( 10.00000000000000000, -9.900000000000000355, 1.500000000000000000 ) ) ;
#370 = ORIENTED_EDGE ( 'NONE', *, *, #69, .T. ) ;
#371 = LINE ( 'NONE', #21, #63 ) ;
#372 = VECTOR ( 'NONE', #110, 1000.000000000000000 ) ;
#373 = ORIENTED_EDGE ( 'NONE', *, *, #69, .F. ) ;
#374 = EDGE_CURVE ( 'NONE', #317, #434, #132, .T. ) ;
#375 = LINE ( 'NONE', #136, #253 ) ;
#376 = VERTEX_POINT ( 'NONE', #54 ) ;
#377 = DIRECTION ( 'NONE',  ( -1.000000000000000000, 0.000000000000000000, 0.000000000000000000 ) ) ;
#378 = DIRECTION ( 'NONE',  ( 0.000000000000000000, -0.000000000000000000, 1.000000000000000000 ) ) ;
#379 = PLANE ( 'NONE',  #142 ) ;
#380 = AXIS2_PLACEMENT_3D ( 'NONE', #268, #95, #378 ) ;
#381 = SURFACE_STYLE_USAGE ( .BOTH. , #417 ) ;
#382 = VECTOR ( 'NONE', #414, 1000.000000000000000 ) ;
#383 = VERTEX_POINT ( 'NONE', #61 ) ;
#384 = LINE ( 'NONE', #390, #310 ) ;
#385 = PRODUCT_RELATED_PRODUCT_CATEGORY ( 'part', '', ( #93 ) ) ;
#386 = DIRECTION ( 'NONE',  ( -1.000000000000000000, 0.000000000000000000, 0.000000000000000000 ) ) ;
#387 = APPLICATION_CONTEXT ( 'automotive_design' ) ;
#388 = DIRECTION ( 'NONE',  ( 1.000000000000000000, 0.000000000000000000, 0.000000000000000000 ) ) ;
#389 = VERTEX_POINT ( 'NONE', #206 ) ;
#390 = CARTESIAN_POINT ( 'NONE',  ( 3.024999999999999911, -3.324999999999999734, 3.700000000000001510 ) ) ;
#391 = EDGE_CURVE ( 'NONE', #398, #43, #16, .T. ) ;
#392 = MECHANICAL_DESIGN_GEOMETRIC_PRESENTATION_REPRESENTATION (  '', ( #438 ), #160 ) ;
#393 = CARTESIAN_POINT ( 'NONE',  ( -10.00000000000000000, 9.900000000000000355, 0.000000000000000000 ) ) ;
#394 = VECTOR ( 'NONE', #353, 1000.000000000000000 ) ;
#395 = UNCERTAINTY_MEASURE_WITH_UNIT (LENGTH_MEASURE( 1.000000000000000082E-05 ), #347, 'distance_accuracy_value', 'NONE');
#396 = DIRECTION ( 'NONE',  ( -1.000000000000000000, 0.000000000000000000, 0.000000000000000000 ) ) ;
#397 = DIRECTION ( 'NONE',  ( 1.000000000000000000, 0.000000000000000000, 0.000000000000000000 ) ) ;
#398 = VERTEX_POINT ( 'NONE', #214 ) ;
#399 = DIRECTION ( 'NONE',  ( -1.000000000000000000, 0.000000000000000000, 0.000000000000000000 ) ) ;
#400 = ORIENTED_EDGE ( 'NONE', *, *, #340, .T. ) ;
#401 = CARTESIAN_POINT ( 'NONE',  ( -10.00000000000000000, 9.900000000000000355, 1.500000000000000000 ) ) ;
#402 = SHAPE_DEFINITION_REPRESENTATION ( #256, #163 ) ;
#403 = EDGE_LOOP ( 'NONE', ( #329, #348, #400, #181, #75, #370, #22, #261 ) ) ;
#404 = PLANE ( 'NONE',  #161 ) ;
#405 = APPLICATION_PROTOCOL_DEFINITION ( 'draft international standard', 'automotive_design', 1998, #90 ) ;
#406 = ORIENTED_EDGE ( 'NONE', *, *, #25, .F. ) ;
#407 = CARTESIAN_POINT ( 'NONE',  ( 3.879400374531752682, -3.024999999999999911, 3.700000000000001510 ) ) ;
#408 = ADVANCED_FACE ( 'NONE', ( #239 ), #148, .T. ) ;
#409 = EDGE_LOOP ( 'NONE', ( #235, #309, #332, #72 ) ) ;
#410 = EDGE_CURVE ( 'NONE', #376, #362, #357, .T. ) ;
#411 = CARTESIAN_POINT ( 'NONE',  ( -3.024999999999999911, 3.024999999999999911, 4.500000000000000888 ) ) ;
#412 = VERTEX_POINT ( 'NONE', #113 ) ;
#413 = CARTESIAN_POINT ( 'NONE',  ( -3.024999999999999911, -3.024999999999999911, 4.500000000000000888 ) ) ;
#414 = DIRECTION ( 'NONE',  ( 1.000000000000000000, -0.000000000000000000, -0.000000000000000000 ) ) ;
#415 = ORIENTED_EDGE ( 'NONE', *, *, #303, .F. ) ;
#416 = VECTOR ( 'NONE', #349, 1000.000000000000000 ) ;
#417 = SURFACE_SIDE_STYLE ('',( #452 ) ) ;
#418 = DIRECTION ( 'NONE',  ( 0.000000000000000000, -0.3511234415883916493, 0.9363291775690445462 ) ) ;
#419 = AXIS2_PLACEMENT_3D ( 'NONE', #232, #165, #337 ) ;
#420 = EDGE_CURVE ( 'NONE', #365, #43, #180, .T. ) ;
#421 = CARTESIAN_POINT ( 'NONE',  ( -3.024999999999999911, 3.024999999999999911, 3.700000000000000622 ) ) ;
#422 = DIRECTION ( 'NONE',  ( 0.000000000000000000, 1.000000000000000000, 0.000000000000000000 ) ) ;
#423 = PLANE ( 'NONE',  #34 ) ;
#424 = DIRECTION ( 'NONE',  ( -1.000000000000000000, 0.000000000000000000, 0.000000000000000000 ) ) ;
#425 = EDGE_CURVE ( 'NONE', #149, #317, #313, .T. ) ;
#426 = DIRECTION ( 'NONE',  ( -0.000000000000000000, -0.000000000000000000, -1.000000000000000000 ) ) ;
#427 = DIRECTION ( 'NONE',  ( -0.000000000000000000, -0.000000000000000000, -1.000000000000000000 ) ) ;
#428 = CARTESIAN_POINT ( 'NONE',  ( -10.00000000000000000, -9.900000000000000355, 0.000000000000000000 ) ) ;
#429 = VECTOR ( 'NONE', #221, 1000.000000000000000 ) ;
#430 = CARTESIAN_POINT ( 'NONE',  ( -10.00000000000000000, -9.900000000000000355, 1.500000000000000000 ) ) ;
#431 = APPLICATION_PROTOCOL_DEFINITION ( 'draft international standard', 'automotive_design', 1998, #387 ) ;
#432 = ORIENTED_EDGE ( 'NONE', *, *, #330, .T. ) ;
#433 = CARTESIAN_POINT ( 'NONE',  ( 0.000000000000000000, 0.000000000000000000, 4.500000000000000888 ) ) ;
#434 = VERTEX_POINT ( 'NONE', #68 ) ;
#435 = DIRECTION ( 'NONE',  ( 0.000000000000000000, 0.000000000000000000, -1.000000000000000000 ) ) ;
#436 = LINE ( 'NONE', #369, #276 ) ;
#437 = EDGE_LOOP ( 'NONE', ( #415, #154, #327, #17 ) ) ;
#438 = STYLED_ITEM ( 'NONE', ( #449 ), #7 ) ;
#439 = CARTESIAN_POINT ( 'NONE',  ( -3.024999999999999911, 3.324999999999999734, 3.700000000000000622 ) ) ;
#440 =( LENGTH_UNIT ( ) NAMED_UNIT ( * ) SI_UNIT ( .MILLI., .METRE. ) );
#441 = ORIENTED_EDGE ( 'NONE', *, *, #86, .T. ) ;
#442 = AXIS2_PLACEMENT_3D ( 'NONE', #189, #325, #269 ) ;
#443 = FACE_OUTER_BOUND ( 'NONE', #403, .T. ) ;
#444 = ADVANCED_FACE ( 'NONE', ( #31 ), #146, .T. ) ;
#445 = ORIENTED_EDGE ( 'NONE', *, *, #211, .T. ) ;
#446 = LINE ( 'NONE', #229, #216 ) ;
#447 = ORIENTED_EDGE ( 'NONE', *, *, #231, .F. ) ;
#448 = CARTESIAN_POINT ( 'NONE',  ( -3.024999999999999911, -3.024999999999999911, 4.500000000000000888 ) ) ;
#449 = PRESENTATION_STYLE_ASSIGNMENT (( #381 ) ) ;
#450 = EDGE_CURVE ( 'NONE', #272, #376, #436, .T. ) ;
#451 = PLANE ( 'NONE',  #419 ) ;
#452 = SURFACE_STYLE_FILL_AREA ( #306 ) ;
#453 = ORIENTED_EDGE ( 'NONE', *, *, #410, .T. ) ;
#454 = AXIS2_PLACEMENT_3D ( 'NONE', #176, #280, #112 ) ;
#455 =( NAMED_UNIT ( * ) PLANE_ANGLE_UNIT ( ) SI_UNIT ( $, .RADIAN. ) );
#456 = VECTOR ( 'NONE', #386, 1000.000000000000000 ) ;
#457 = PLANE ( 'NONE',  #454 ) ;
#458 = LINE ( 'NONE', #30, #140 ) ;
#459 = LINE ( 'NONE', #243, #456 ) ;
#460 = CARTESIAN_POINT ( 'NONE',  ( 0.000000000000000000, 0.000000000000000000, 1.500000000000000000 ) ) ;
#461 = LINE ( 'NONE', #151, #273 ) ;
ENDSEC;
END-ISO-10303-21;
