M48
; DRILL file {KiCad 9.0.2} date 2025-06-23T18:11:00+0200
; FORMAT={-:-/ absolute / metric / decimal}
; #@! TF.CreationDate,2025-06-23T18:11:00+02:00
; #@! TF.GenerationSoftware,Kicad,Pcbnew,9.0.2
; #@! TF.FileFunction,Plated,1,2,PTH
FMAT,2
METRIC
; #@! TA.AperFunction,Plated,PTH,ViaDrill
T1C0.300
; #@! TA.AperFunction,Plated,PTH,ComponentDrill
T2C0.800
; #@! TA.AperFunction,Plated,PTH,ComponentDrill
T3C0.900
; #@! TA.AperFunction,Plated,PTH,ComponentDrill
T4C0.914
; #@! TA.AperFunction,Plated,PTH,ComponentDrill
T5C0.950
; #@! TA.AperFunction,Plated,PTH,ComponentDrill
T6C1.000
; #@! TA.AperFunction,Plated,PTH,ComponentDrill
T7C1.016
; #@! TA.AperFunction,Plated,PTH,ComponentDrill
T8C1.100
; #@! TA.AperFunction,Plated,PTH,ComponentDrill
T9C1.500
; #@! TA.AperFunction,Plated,PTH,ComponentDrill
T10C1.540
; #@! TA.AperFunction,Plated,PTH,ComponentDrill
T11C2.500
%
G90
G05
T1
X124.1Y-57.1
T2
X124.69Y-50.5
X124.69Y-54.5
X132.31Y-50.5
X132.31Y-54.5
X188.88Y-92.35
X188.88Y-96.4
X196.5Y-92.35
X196.5Y-96.4
T3
X80.34Y-37.45
X80.34Y-39.99
X80.34Y-42.53
X80.34Y-45.07
X80.34Y-47.61
X80.34Y-50.15
X80.34Y-52.69
X80.34Y-55.23
X80.34Y-57.77
X80.34Y-60.31
X80.34Y-62.85
X80.34Y-65.39
X100.66Y-37.45
X100.66Y-39.99
X100.66Y-42.53
X100.66Y-45.07
X100.66Y-47.61
X100.66Y-50.15
X100.66Y-52.69
X100.66Y-55.23
X100.66Y-57.77
X100.66Y-60.31
X100.66Y-62.85
X100.66Y-65.39
X100.66Y-67.93
X100.66Y-70.47
X100.66Y-73.01
X100.66Y-75.55
T4
X106.22Y-154.42
X106.22Y-156.96
X106.22Y-159.5
X106.22Y-162.04
X106.22Y-164.58
X106.22Y-167.12
X106.22Y-169.66
X106.22Y-172.2
X106.22Y-174.74
X106.22Y-177.28
X108.76Y-154.42
X108.76Y-156.96
X108.76Y-159.5
X108.76Y-162.04
X108.76Y-164.58
X108.76Y-167.12
X108.76Y-169.66
X108.76Y-172.2
X108.76Y-174.74
X108.76Y-177.28
X124.0Y-154.42
X124.0Y-156.96
X124.0Y-159.5
X124.0Y-162.04
X124.0Y-164.58
X124.0Y-167.12
X124.0Y-169.66
X124.0Y-172.2
X124.0Y-174.74
X124.0Y-177.28
T5
X112.0Y-141.7
X114.5Y-141.7
X117.0Y-141.7
X119.5Y-141.7
X122.0Y-141.7
X138.0Y-50.5
X138.0Y-53.0
X138.0Y-55.5
X138.0Y-58.0
X138.0Y-60.5
X138.0Y-68.4
X138.0Y-70.9
X138.0Y-73.4
X138.0Y-75.9
X183.5Y-149.5
X186.0Y-149.5
X188.5Y-149.5
X191.0Y-149.5
T6
X111.045Y-61.457
X113.585Y-61.457
X116.125Y-61.457
X118.665Y-61.457
X121.205Y-61.457
X123.745Y-61.457
X125.25Y-35.75
X125.25Y-38.29
X125.25Y-40.83
X126.285Y-61.457
X127.79Y-35.75
X127.79Y-38.29
X127.79Y-40.83
X128.825Y-61.457
T7
X108.5Y-34.46
X108.5Y-37.0
X108.5Y-39.54
X108.5Y-42.08
X108.5Y-44.62
X108.5Y-47.16
X118.66Y-34.46
X118.66Y-37.0
X118.66Y-39.54
X118.66Y-42.08
X118.66Y-44.62
X118.66Y-47.16
T8
X117.395Y-77.967
X122.475Y-77.967
T9
X133.27Y-35.067
X133.27Y-43.187
X148.25Y-43.187
T10
X148.25Y-35.067
T11
X81.61Y-79.36
X99.39Y-79.36
X111.045Y-79.237
X128.825Y-79.237
M30
