%TF.GenerationSoftware,KiCad,Pcbnew,9.0.2*%
%TF.CreationDate,2025-07-22T10:20:07+02:00*%
%TF.ProjectId,trotten pcb,74726f74-7465-46e2-9070-63622e6b6963,rev?*%
%TF.SameCoordinates,Original*%
%TF.FileFunction,Legend,Top*%
%TF.FilePolarity,Positive*%
%FSLAX46Y46*%
G04 Gerber Fmt 4.6, Leading zero omitted, Abs format (unit mm)*
G04 Created by KiCad (PCBNEW 9.0.2) date 2025-07-22 10:20:07*
%MOMM*%
%LPD*%
G01*
G04 APERTURE LIST*
%ADD10C,0.150000*%
%ADD11C,0.100000*%
%ADD12C,0.203000*%
%ADD13C,0.120000*%
%ADD14C,0.127000*%
%ADD15C,0.254000*%
%ADD16C,0.200000*%
G04 APERTURE END LIST*
D10*
X134654819Y-72483333D02*
X135369104Y-72483333D01*
X135369104Y-72483333D02*
X135511961Y-72530952D01*
X135511961Y-72530952D02*
X135607200Y-72626190D01*
X135607200Y-72626190D02*
X135654819Y-72769047D01*
X135654819Y-72769047D02*
X135654819Y-72864285D01*
X135654819Y-71483333D02*
X135654819Y-72054761D01*
X135654819Y-71769047D02*
X134654819Y-71769047D01*
X134654819Y-71769047D02*
X134797676Y-71864285D01*
X134797676Y-71864285D02*
X134892914Y-71959523D01*
X134892914Y-71959523D02*
X134940533Y-72054761D01*
D11*
X64416667Y-127784800D02*
X64559524Y-127832419D01*
X64559524Y-127832419D02*
X64797619Y-127832419D01*
X64797619Y-127832419D02*
X64892857Y-127784800D01*
X64892857Y-127784800D02*
X64940476Y-127737180D01*
X64940476Y-127737180D02*
X64988095Y-127641942D01*
X64988095Y-127641942D02*
X64988095Y-127546704D01*
X64988095Y-127546704D02*
X64940476Y-127451466D01*
X64940476Y-127451466D02*
X64892857Y-127403847D01*
X64892857Y-127403847D02*
X64797619Y-127356228D01*
X64797619Y-127356228D02*
X64607143Y-127308609D01*
X64607143Y-127308609D02*
X64511905Y-127260990D01*
X64511905Y-127260990D02*
X64464286Y-127213371D01*
X64464286Y-127213371D02*
X64416667Y-127118133D01*
X64416667Y-127118133D02*
X64416667Y-127022895D01*
X64416667Y-127022895D02*
X64464286Y-126927657D01*
X64464286Y-126927657D02*
X64511905Y-126880038D01*
X64511905Y-126880038D02*
X64607143Y-126832419D01*
X64607143Y-126832419D02*
X64845238Y-126832419D01*
X64845238Y-126832419D02*
X64988095Y-126880038D01*
X65321429Y-126832419D02*
X65559524Y-127832419D01*
X65559524Y-127832419D02*
X65750000Y-127118133D01*
X65750000Y-127118133D02*
X65940476Y-127832419D01*
X65940476Y-127832419D02*
X66178572Y-126832419D01*
X66464286Y-126832419D02*
X67083333Y-126832419D01*
X67083333Y-126832419D02*
X66750000Y-127213371D01*
X66750000Y-127213371D02*
X66892857Y-127213371D01*
X66892857Y-127213371D02*
X66988095Y-127260990D01*
X66988095Y-127260990D02*
X67035714Y-127308609D01*
X67035714Y-127308609D02*
X67083333Y-127403847D01*
X67083333Y-127403847D02*
X67083333Y-127641942D01*
X67083333Y-127641942D02*
X67035714Y-127737180D01*
X67035714Y-127737180D02*
X66988095Y-127784800D01*
X66988095Y-127784800D02*
X66892857Y-127832419D01*
X66892857Y-127832419D02*
X66607143Y-127832419D01*
X66607143Y-127832419D02*
X66511905Y-127784800D01*
X66511905Y-127784800D02*
X66464286Y-127737180D01*
X149416667Y-127784800D02*
X149559524Y-127832419D01*
X149559524Y-127832419D02*
X149797619Y-127832419D01*
X149797619Y-127832419D02*
X149892857Y-127784800D01*
X149892857Y-127784800D02*
X149940476Y-127737180D01*
X149940476Y-127737180D02*
X149988095Y-127641942D01*
X149988095Y-127641942D02*
X149988095Y-127546704D01*
X149988095Y-127546704D02*
X149940476Y-127451466D01*
X149940476Y-127451466D02*
X149892857Y-127403847D01*
X149892857Y-127403847D02*
X149797619Y-127356228D01*
X149797619Y-127356228D02*
X149607143Y-127308609D01*
X149607143Y-127308609D02*
X149511905Y-127260990D01*
X149511905Y-127260990D02*
X149464286Y-127213371D01*
X149464286Y-127213371D02*
X149416667Y-127118133D01*
X149416667Y-127118133D02*
X149416667Y-127022895D01*
X149416667Y-127022895D02*
X149464286Y-126927657D01*
X149464286Y-126927657D02*
X149511905Y-126880038D01*
X149511905Y-126880038D02*
X149607143Y-126832419D01*
X149607143Y-126832419D02*
X149845238Y-126832419D01*
X149845238Y-126832419D02*
X149988095Y-126880038D01*
X150321429Y-126832419D02*
X150559524Y-127832419D01*
X150559524Y-127832419D02*
X150750000Y-127118133D01*
X150750000Y-127118133D02*
X150940476Y-127832419D01*
X150940476Y-127832419D02*
X151178572Y-126832419D01*
X151988095Y-127165752D02*
X151988095Y-127832419D01*
X151750000Y-126784800D02*
X151511905Y-127499085D01*
X151511905Y-127499085D02*
X152130952Y-127499085D01*
X121916667Y-127784800D02*
X122059524Y-127832419D01*
X122059524Y-127832419D02*
X122297619Y-127832419D01*
X122297619Y-127832419D02*
X122392857Y-127784800D01*
X122392857Y-127784800D02*
X122440476Y-127737180D01*
X122440476Y-127737180D02*
X122488095Y-127641942D01*
X122488095Y-127641942D02*
X122488095Y-127546704D01*
X122488095Y-127546704D02*
X122440476Y-127451466D01*
X122440476Y-127451466D02*
X122392857Y-127403847D01*
X122392857Y-127403847D02*
X122297619Y-127356228D01*
X122297619Y-127356228D02*
X122107143Y-127308609D01*
X122107143Y-127308609D02*
X122011905Y-127260990D01*
X122011905Y-127260990D02*
X121964286Y-127213371D01*
X121964286Y-127213371D02*
X121916667Y-127118133D01*
X121916667Y-127118133D02*
X121916667Y-127022895D01*
X121916667Y-127022895D02*
X121964286Y-126927657D01*
X121964286Y-126927657D02*
X122011905Y-126880038D01*
X122011905Y-126880038D02*
X122107143Y-126832419D01*
X122107143Y-126832419D02*
X122345238Y-126832419D01*
X122345238Y-126832419D02*
X122488095Y-126880038D01*
X122821429Y-126832419D02*
X123059524Y-127832419D01*
X123059524Y-127832419D02*
X123250000Y-127118133D01*
X123250000Y-127118133D02*
X123440476Y-127832419D01*
X123440476Y-127832419D02*
X123678572Y-126832419D01*
X124011905Y-126927657D02*
X124059524Y-126880038D01*
X124059524Y-126880038D02*
X124154762Y-126832419D01*
X124154762Y-126832419D02*
X124392857Y-126832419D01*
X124392857Y-126832419D02*
X124488095Y-126880038D01*
X124488095Y-126880038D02*
X124535714Y-126927657D01*
X124535714Y-126927657D02*
X124583333Y-127022895D01*
X124583333Y-127022895D02*
X124583333Y-127118133D01*
X124583333Y-127118133D02*
X124535714Y-127260990D01*
X124535714Y-127260990D02*
X123964286Y-127832419D01*
X123964286Y-127832419D02*
X124583333Y-127832419D01*
X120876578Y-71104441D02*
X120876578Y-70294918D01*
X120876578Y-70294918D02*
X120828959Y-70199680D01*
X120828959Y-70199680D02*
X120781340Y-70152061D01*
X120781340Y-70152061D02*
X120686102Y-70104441D01*
X120686102Y-70104441D02*
X120495626Y-70104441D01*
X120495626Y-70104441D02*
X120400388Y-70152061D01*
X120400388Y-70152061D02*
X120352769Y-70199680D01*
X120352769Y-70199680D02*
X120305150Y-70294918D01*
X120305150Y-70294918D02*
X120305150Y-71104441D01*
X119924197Y-71104441D02*
X119257531Y-71104441D01*
X119257531Y-71104441D02*
X119686102Y-70104441D01*
D10*
X109493095Y-31129819D02*
X109493095Y-31939342D01*
X109493095Y-31939342D02*
X109540714Y-32034580D01*
X109540714Y-32034580D02*
X109588333Y-32082200D01*
X109588333Y-32082200D02*
X109683571Y-32129819D01*
X109683571Y-32129819D02*
X109874047Y-32129819D01*
X109874047Y-32129819D02*
X109969285Y-32082200D01*
X109969285Y-32082200D02*
X110016904Y-32034580D01*
X110016904Y-32034580D02*
X110064523Y-31939342D01*
X110064523Y-31939342D02*
X110064523Y-31129819D01*
X110493095Y-31225057D02*
X110540714Y-31177438D01*
X110540714Y-31177438D02*
X110635952Y-31129819D01*
X110635952Y-31129819D02*
X110874047Y-31129819D01*
X110874047Y-31129819D02*
X110969285Y-31177438D01*
X110969285Y-31177438D02*
X111016904Y-31225057D01*
X111016904Y-31225057D02*
X111064523Y-31320295D01*
X111064523Y-31320295D02*
X111064523Y-31415533D01*
X111064523Y-31415533D02*
X111016904Y-31558390D01*
X111016904Y-31558390D02*
X110445476Y-32129819D01*
X110445476Y-32129819D02*
X111064523Y-32129819D01*
D11*
X124916666Y-27087419D02*
X124916666Y-27801704D01*
X124916666Y-27801704D02*
X124869047Y-27944561D01*
X124869047Y-27944561D02*
X124773809Y-28039800D01*
X124773809Y-28039800D02*
X124630952Y-28087419D01*
X124630952Y-28087419D02*
X124535714Y-28087419D01*
X125869047Y-27087419D02*
X125392857Y-27087419D01*
X125392857Y-27087419D02*
X125345238Y-27563609D01*
X125345238Y-27563609D02*
X125392857Y-27515990D01*
X125392857Y-27515990D02*
X125488095Y-27468371D01*
X125488095Y-27468371D02*
X125726190Y-27468371D01*
X125726190Y-27468371D02*
X125821428Y-27515990D01*
X125821428Y-27515990D02*
X125869047Y-27563609D01*
X125869047Y-27563609D02*
X125916666Y-27658847D01*
X125916666Y-27658847D02*
X125916666Y-27896942D01*
X125916666Y-27896942D02*
X125869047Y-27992180D01*
X125869047Y-27992180D02*
X125821428Y-28039800D01*
X125821428Y-28039800D02*
X125726190Y-28087419D01*
X125726190Y-28087419D02*
X125488095Y-28087419D01*
X125488095Y-28087419D02*
X125392857Y-28039800D01*
X125392857Y-28039800D02*
X125345238Y-27992180D01*
X91916667Y-127784800D02*
X92059524Y-127832419D01*
X92059524Y-127832419D02*
X92297619Y-127832419D01*
X92297619Y-127832419D02*
X92392857Y-127784800D01*
X92392857Y-127784800D02*
X92440476Y-127737180D01*
X92440476Y-127737180D02*
X92488095Y-127641942D01*
X92488095Y-127641942D02*
X92488095Y-127546704D01*
X92488095Y-127546704D02*
X92440476Y-127451466D01*
X92440476Y-127451466D02*
X92392857Y-127403847D01*
X92392857Y-127403847D02*
X92297619Y-127356228D01*
X92297619Y-127356228D02*
X92107143Y-127308609D01*
X92107143Y-127308609D02*
X92011905Y-127260990D01*
X92011905Y-127260990D02*
X91964286Y-127213371D01*
X91964286Y-127213371D02*
X91916667Y-127118133D01*
X91916667Y-127118133D02*
X91916667Y-127022895D01*
X91916667Y-127022895D02*
X91964286Y-126927657D01*
X91964286Y-126927657D02*
X92011905Y-126880038D01*
X92011905Y-126880038D02*
X92107143Y-126832419D01*
X92107143Y-126832419D02*
X92345238Y-126832419D01*
X92345238Y-126832419D02*
X92488095Y-126880038D01*
X92821429Y-126832419D02*
X93059524Y-127832419D01*
X93059524Y-127832419D02*
X93250000Y-127118133D01*
X93250000Y-127118133D02*
X93440476Y-127832419D01*
X93440476Y-127832419D02*
X93678572Y-126832419D01*
X94583333Y-127832419D02*
X94011905Y-127832419D01*
X94297619Y-127832419D02*
X94297619Y-126832419D01*
X94297619Y-126832419D02*
X94202381Y-126975276D01*
X94202381Y-126975276D02*
X94107143Y-127070514D01*
X94107143Y-127070514D02*
X94011905Y-127118133D01*
D10*
X141086779Y-34997819D02*
X141086779Y-35807342D01*
X141086779Y-35807342D02*
X141134398Y-35902580D01*
X141134398Y-35902580D02*
X141182017Y-35950200D01*
X141182017Y-35950200D02*
X141277255Y-35997819D01*
X141277255Y-35997819D02*
X141467731Y-35997819D01*
X141467731Y-35997819D02*
X141562969Y-35950200D01*
X141562969Y-35950200D02*
X141610588Y-35902580D01*
X141610588Y-35902580D02*
X141658207Y-35807342D01*
X141658207Y-35807342D02*
X141658207Y-34997819D01*
X142658207Y-35997819D02*
X142086779Y-35997819D01*
X142372493Y-35997819D02*
X142372493Y-34997819D01*
X142372493Y-34997819D02*
X142277255Y-35140676D01*
X142277255Y-35140676D02*
X142182017Y-35235914D01*
X142182017Y-35235914D02*
X142086779Y-35283533D01*
D12*
X139693694Y-42746461D02*
X139586552Y-42692890D01*
X139586552Y-42692890D02*
X139425837Y-42692890D01*
X139425837Y-42692890D02*
X139265123Y-42746461D01*
X139265123Y-42746461D02*
X139157980Y-42853604D01*
X139157980Y-42853604D02*
X139104409Y-42960747D01*
X139104409Y-42960747D02*
X139050837Y-43175033D01*
X139050837Y-43175033D02*
X139050837Y-43335747D01*
X139050837Y-43335747D02*
X139104409Y-43550033D01*
X139104409Y-43550033D02*
X139157980Y-43657176D01*
X139157980Y-43657176D02*
X139265123Y-43764319D01*
X139265123Y-43764319D02*
X139425837Y-43817890D01*
X139425837Y-43817890D02*
X139532980Y-43817890D01*
X139532980Y-43817890D02*
X139693694Y-43764319D01*
X139693694Y-43764319D02*
X139747266Y-43710747D01*
X139747266Y-43710747D02*
X139747266Y-43335747D01*
X139747266Y-43335747D02*
X139532980Y-43335747D01*
X140229409Y-43817890D02*
X140229409Y-42692890D01*
X140229409Y-42692890D02*
X140872266Y-43817890D01*
X140872266Y-43817890D02*
X140872266Y-42692890D01*
X141407980Y-43817890D02*
X141407980Y-42692890D01*
X141407980Y-42692890D02*
X141675837Y-42692890D01*
X141675837Y-42692890D02*
X141836551Y-42746461D01*
X141836551Y-42746461D02*
X141943694Y-42853604D01*
X141943694Y-42853604D02*
X141997265Y-42960747D01*
X141997265Y-42960747D02*
X142050837Y-43175033D01*
X142050837Y-43175033D02*
X142050837Y-43335747D01*
X142050837Y-43335747D02*
X141997265Y-43550033D01*
X141997265Y-43550033D02*
X141943694Y-43657176D01*
X141943694Y-43657176D02*
X141836551Y-43764319D01*
X141836551Y-43764319D02*
X141675837Y-43817890D01*
X141675837Y-43817890D02*
X141407980Y-43817890D01*
X142990694Y-34384890D02*
X143365694Y-35509890D01*
X143365694Y-35509890D02*
X143740694Y-34384890D01*
X144115695Y-35509890D02*
X144115695Y-34384890D01*
X144651409Y-35509890D02*
X144651409Y-34384890D01*
X144651409Y-34384890D02*
X145294266Y-35509890D01*
X145294266Y-35509890D02*
X145294266Y-34384890D01*
X135990694Y-34384890D02*
X136365694Y-35509890D01*
X136365694Y-35509890D02*
X136740694Y-34384890D01*
X137329980Y-34384890D02*
X137544266Y-34384890D01*
X137544266Y-34384890D02*
X137651409Y-34438461D01*
X137651409Y-34438461D02*
X137758552Y-34545604D01*
X137758552Y-34545604D02*
X137812123Y-34759890D01*
X137812123Y-34759890D02*
X137812123Y-35134890D01*
X137812123Y-35134890D02*
X137758552Y-35349176D01*
X137758552Y-35349176D02*
X137651409Y-35456319D01*
X137651409Y-35456319D02*
X137544266Y-35509890D01*
X137544266Y-35509890D02*
X137329980Y-35509890D01*
X137329980Y-35509890D02*
X137222838Y-35456319D01*
X137222838Y-35456319D02*
X137115695Y-35349176D01*
X137115695Y-35349176D02*
X137062123Y-35134890D01*
X137062123Y-35134890D02*
X137062123Y-34759890D01*
X137062123Y-34759890D02*
X137115695Y-34545604D01*
X137115695Y-34545604D02*
X137222838Y-34438461D01*
X137222838Y-34438461D02*
X137329980Y-34384890D01*
X138294266Y-34384890D02*
X138294266Y-35295604D01*
X138294266Y-35295604D02*
X138347837Y-35402747D01*
X138347837Y-35402747D02*
X138401409Y-35456319D01*
X138401409Y-35456319D02*
X138508551Y-35509890D01*
X138508551Y-35509890D02*
X138722837Y-35509890D01*
X138722837Y-35509890D02*
X138829980Y-35456319D01*
X138829980Y-35456319D02*
X138883551Y-35402747D01*
X138883551Y-35402747D02*
X138937123Y-35295604D01*
X138937123Y-35295604D02*
X138937123Y-34384890D01*
X139312122Y-34384890D02*
X139954980Y-34384890D01*
X139633551Y-35509890D02*
X139633551Y-34384890D01*
D10*
X186916666Y-146154819D02*
X186916666Y-146869104D01*
X186916666Y-146869104D02*
X186869047Y-147011961D01*
X186869047Y-147011961D02*
X186773809Y-147107200D01*
X186773809Y-147107200D02*
X186630952Y-147154819D01*
X186630952Y-147154819D02*
X186535714Y-147154819D01*
X187821428Y-146488152D02*
X187821428Y-147154819D01*
X187583333Y-146107200D02*
X187345238Y-146821485D01*
X187345238Y-146821485D02*
X187964285Y-146821485D01*
X134654819Y-55833333D02*
X135369104Y-55833333D01*
X135369104Y-55833333D02*
X135511961Y-55880952D01*
X135511961Y-55880952D02*
X135607200Y-55976190D01*
X135607200Y-55976190D02*
X135654819Y-56119047D01*
X135654819Y-56119047D02*
X135654819Y-56214285D01*
X134750057Y-55404761D02*
X134702438Y-55357142D01*
X134702438Y-55357142D02*
X134654819Y-55261904D01*
X134654819Y-55261904D02*
X134654819Y-55023809D01*
X134654819Y-55023809D02*
X134702438Y-54928571D01*
X134702438Y-54928571D02*
X134750057Y-54880952D01*
X134750057Y-54880952D02*
X134845295Y-54833333D01*
X134845295Y-54833333D02*
X134940533Y-54833333D01*
X134940533Y-54833333D02*
X135083390Y-54880952D01*
X135083390Y-54880952D02*
X135654819Y-55452380D01*
X135654819Y-55452380D02*
X135654819Y-54833333D01*
X77249819Y-79486904D02*
X78059342Y-79486904D01*
X78059342Y-79486904D02*
X78154580Y-79439285D01*
X78154580Y-79439285D02*
X78202200Y-79391666D01*
X78202200Y-79391666D02*
X78249819Y-79296428D01*
X78249819Y-79296428D02*
X78249819Y-79105952D01*
X78249819Y-79105952D02*
X78202200Y-79010714D01*
X78202200Y-79010714D02*
X78154580Y-78963095D01*
X78154580Y-78963095D02*
X78059342Y-78915476D01*
X78059342Y-78915476D02*
X77249819Y-78915476D01*
X77249819Y-78534523D02*
X77249819Y-77915476D01*
X77249819Y-77915476D02*
X77630771Y-78248809D01*
X77630771Y-78248809D02*
X77630771Y-78105952D01*
X77630771Y-78105952D02*
X77678390Y-78010714D01*
X77678390Y-78010714D02*
X77726009Y-77963095D01*
X77726009Y-77963095D02*
X77821247Y-77915476D01*
X77821247Y-77915476D02*
X78059342Y-77915476D01*
X78059342Y-77915476D02*
X78154580Y-77963095D01*
X78154580Y-77963095D02*
X78202200Y-78010714D01*
X78202200Y-78010714D02*
X78249819Y-78105952D01*
X78249819Y-78105952D02*
X78249819Y-78391666D01*
X78249819Y-78391666D02*
X78202200Y-78486904D01*
X78202200Y-78486904D02*
X78154580Y-78534523D01*
X128333333Y-52584819D02*
X128000000Y-52108628D01*
X127761905Y-52584819D02*
X127761905Y-51584819D01*
X127761905Y-51584819D02*
X128142857Y-51584819D01*
X128142857Y-51584819D02*
X128238095Y-51632438D01*
X128238095Y-51632438D02*
X128285714Y-51680057D01*
X128285714Y-51680057D02*
X128333333Y-51775295D01*
X128333333Y-51775295D02*
X128333333Y-51918152D01*
X128333333Y-51918152D02*
X128285714Y-52013390D01*
X128285714Y-52013390D02*
X128238095Y-52061009D01*
X128238095Y-52061009D02*
X128142857Y-52108628D01*
X128142857Y-52108628D02*
X127761905Y-52108628D01*
X129190476Y-51918152D02*
X129190476Y-52584819D01*
X128952381Y-51537200D02*
X128714286Y-52251485D01*
X128714286Y-52251485D02*
X129333333Y-52251485D01*
D11*
X184708333Y-124308609D02*
X184851190Y-124356228D01*
X184851190Y-124356228D02*
X184898809Y-124403847D01*
X184898809Y-124403847D02*
X184946428Y-124499085D01*
X184946428Y-124499085D02*
X184946428Y-124641942D01*
X184946428Y-124641942D02*
X184898809Y-124737180D01*
X184898809Y-124737180D02*
X184851190Y-124784800D01*
X184851190Y-124784800D02*
X184755952Y-124832419D01*
X184755952Y-124832419D02*
X184375000Y-124832419D01*
X184375000Y-124832419D02*
X184375000Y-123832419D01*
X184375000Y-123832419D02*
X184708333Y-123832419D01*
X184708333Y-123832419D02*
X184803571Y-123880038D01*
X184803571Y-123880038D02*
X184851190Y-123927657D01*
X184851190Y-123927657D02*
X184898809Y-124022895D01*
X184898809Y-124022895D02*
X184898809Y-124118133D01*
X184898809Y-124118133D02*
X184851190Y-124213371D01*
X184851190Y-124213371D02*
X184803571Y-124260990D01*
X184803571Y-124260990D02*
X184708333Y-124308609D01*
X184708333Y-124308609D02*
X184375000Y-124308609D01*
X185375000Y-124832419D02*
X185375000Y-124165752D01*
X185375000Y-124356228D02*
X185422619Y-124260990D01*
X185422619Y-124260990D02*
X185470238Y-124213371D01*
X185470238Y-124213371D02*
X185565476Y-124165752D01*
X185565476Y-124165752D02*
X185660714Y-124165752D01*
X186422619Y-124832419D02*
X186422619Y-123832419D01*
X186422619Y-124784800D02*
X186327381Y-124832419D01*
X186327381Y-124832419D02*
X186136905Y-124832419D01*
X186136905Y-124832419D02*
X186041667Y-124784800D01*
X186041667Y-124784800D02*
X185994048Y-124737180D01*
X185994048Y-124737180D02*
X185946429Y-124641942D01*
X185946429Y-124641942D02*
X185946429Y-124356228D01*
X185946429Y-124356228D02*
X185994048Y-124260990D01*
X185994048Y-124260990D02*
X186041667Y-124213371D01*
X186041667Y-124213371D02*
X186136905Y-124165752D01*
X186136905Y-124165752D02*
X186327381Y-124165752D01*
X186327381Y-124165752D02*
X186422619Y-124213371D01*
X187422619Y-124832419D02*
X186851191Y-124832419D01*
X187136905Y-124832419D02*
X187136905Y-123832419D01*
X187136905Y-123832419D02*
X187041667Y-123975276D01*
X187041667Y-123975276D02*
X186946429Y-124070514D01*
X186946429Y-124070514D02*
X186851191Y-124118133D01*
D10*
X128333333Y-48584819D02*
X128000000Y-48108628D01*
X127761905Y-48584819D02*
X127761905Y-47584819D01*
X127761905Y-47584819D02*
X128142857Y-47584819D01*
X128142857Y-47584819D02*
X128238095Y-47632438D01*
X128238095Y-47632438D02*
X128285714Y-47680057D01*
X128285714Y-47680057D02*
X128333333Y-47775295D01*
X128333333Y-47775295D02*
X128333333Y-47918152D01*
X128333333Y-47918152D02*
X128285714Y-48013390D01*
X128285714Y-48013390D02*
X128238095Y-48061009D01*
X128238095Y-48061009D02*
X128142857Y-48108628D01*
X128142857Y-48108628D02*
X127761905Y-48108628D01*
X128666667Y-47584819D02*
X129285714Y-47584819D01*
X129285714Y-47584819D02*
X128952381Y-47965771D01*
X128952381Y-47965771D02*
X129095238Y-47965771D01*
X129095238Y-47965771D02*
X129190476Y-48013390D01*
X129190476Y-48013390D02*
X129238095Y-48061009D01*
X129238095Y-48061009D02*
X129285714Y-48156247D01*
X129285714Y-48156247D02*
X129285714Y-48394342D01*
X129285714Y-48394342D02*
X129238095Y-48489580D01*
X129238095Y-48489580D02*
X129190476Y-48537200D01*
X129190476Y-48537200D02*
X129095238Y-48584819D01*
X129095238Y-48584819D02*
X128809524Y-48584819D01*
X128809524Y-48584819D02*
X128714286Y-48537200D01*
X128714286Y-48537200D02*
X128666667Y-48489580D01*
D13*
%TO.C,J1*%
X136290000Y-65790000D02*
X136290000Y-78510000D01*
X136290000Y-78510000D02*
X140310000Y-78510000D01*
X136790000Y-66290000D02*
X138000000Y-66290000D01*
X136790000Y-78010000D02*
X136790000Y-66290000D01*
X138000000Y-66290000D02*
X138000000Y-65790000D01*
X138000000Y-78010000D02*
X136790000Y-78010000D01*
X138000000Y-78510000D02*
X138000000Y-78010000D01*
X138110000Y-78810000D02*
X140610000Y-78810000D01*
X138810000Y-65790000D02*
X138810000Y-66790000D01*
X138810000Y-66790000D02*
X140310000Y-66790000D01*
X138810000Y-77510000D02*
X140310000Y-77510000D01*
X138810000Y-78510000D02*
X138810000Y-77510000D01*
X140310000Y-65790000D02*
X136290000Y-65790000D01*
X140310000Y-78510000D02*
X140310000Y-65790000D01*
X140610000Y-78810000D02*
X140610000Y-76310000D01*
%TO.C,SW3*%
D11*
X62750000Y-124375000D02*
X68750000Y-124375000D01*
X68750000Y-130375000D01*
X62750000Y-130375000D01*
X62750000Y-124375000D01*
%TO.C,SW4*%
X147750000Y-124375000D02*
X153750000Y-124375000D01*
X153750000Y-130375000D01*
X147750000Y-130375000D01*
X147750000Y-124375000D01*
%TO.C,SW2*%
X120250000Y-124375000D02*
X126250000Y-124375000D01*
X126250000Y-130375000D01*
X120250000Y-130375000D01*
X120250000Y-124375000D01*
D14*
%TO.C,U2*%
X106915000Y-32785000D02*
X120245000Y-32785000D01*
X106915000Y-48835000D02*
X106915000Y-32785000D01*
X120245000Y-32785000D02*
X120245000Y-48835000D01*
X120245000Y-48835000D02*
X106915000Y-48835000D01*
%TO.C,SW1*%
D11*
X90250000Y-124375000D02*
X96250000Y-124375000D01*
X96250000Y-130375000D01*
X90250000Y-130375000D01*
X90250000Y-124375000D01*
D15*
%TO.C,U1*%
X132770000Y-32247000D02*
X148770000Y-32247000D01*
X132770000Y-45247000D02*
X132770000Y-32247000D01*
X148770000Y-32247000D02*
X148770000Y-45247000D01*
X148770000Y-45247000D02*
X132770000Y-45247000D01*
D13*
%TO.C,J4*%
X180590000Y-149610000D02*
X180590000Y-152110000D01*
X180590000Y-152110000D02*
X183090000Y-152110000D01*
X180890000Y-147790000D02*
X180890000Y-151810000D01*
X180890000Y-149500000D02*
X181390000Y-149500000D01*
X180890000Y-150310000D02*
X181890000Y-150310000D01*
X180890000Y-151810000D02*
X193610000Y-151810000D01*
X181390000Y-148290000D02*
X193110000Y-148290000D01*
X181390000Y-149500000D02*
X181390000Y-148290000D01*
X181890000Y-150310000D02*
X181890000Y-151810000D01*
X192610000Y-150310000D02*
X192610000Y-151810000D01*
X193110000Y-148290000D02*
X193110000Y-149500000D01*
X193110000Y-149500000D02*
X193610000Y-149500000D01*
X193610000Y-147790000D02*
X180890000Y-147790000D01*
X193610000Y-150310000D02*
X192610000Y-150310000D01*
X193610000Y-151810000D02*
X193610000Y-147790000D01*
%TO.C,J2*%
X136290000Y-47890000D02*
X136290000Y-63110000D01*
X136290000Y-63110000D02*
X140310000Y-63110000D01*
X136790000Y-48390000D02*
X138000000Y-48390000D01*
X136790000Y-62610000D02*
X136790000Y-48390000D01*
X138000000Y-48390000D02*
X138000000Y-47890000D01*
X138000000Y-62610000D02*
X136790000Y-62610000D01*
X138000000Y-63110000D02*
X138000000Y-62610000D01*
X138110000Y-63410000D02*
X140610000Y-63410000D01*
X138810000Y-47890000D02*
X138810000Y-48890000D01*
X138810000Y-48890000D02*
X140310000Y-48890000D01*
X138810000Y-62110000D02*
X140310000Y-62110000D01*
X138810000Y-63110000D02*
X138810000Y-62110000D01*
X140310000Y-47890000D02*
X136290000Y-47890000D01*
X140310000Y-63110000D02*
X140310000Y-47890000D01*
X140610000Y-63410000D02*
X140610000Y-60910000D01*
D14*
%TO.C,U3*%
X79070000Y-31100000D02*
X101930000Y-31100000D01*
X79070000Y-81900000D02*
X79070000Y-31100000D01*
X101930000Y-31100000D02*
X101930000Y-81900000D01*
X101930000Y-81900000D02*
X79070000Y-81900000D01*
D16*
X102580000Y-37400000D02*
G75*
G02*
X102380000Y-37400000I-100000J0D01*
G01*
X102380000Y-37400000D02*
G75*
G02*
X102580000Y-37400000I100000J0D01*
G01*
D13*
%TO.C,R4*%
X125230000Y-53130000D02*
X131770000Y-53130000D01*
X125230000Y-53460000D02*
X125230000Y-53130000D01*
X125230000Y-55540000D02*
X125230000Y-55870000D01*
X125230000Y-55870000D02*
X131770000Y-55870000D01*
X131770000Y-53130000D02*
X131770000Y-53460000D01*
X131770000Y-55870000D02*
X131770000Y-55540000D01*
%TO.C,Brd1*%
D11*
X166875000Y-121375000D02*
X204875000Y-121375000D01*
X204875000Y-133375000D01*
X166875000Y-133375000D01*
X166875000Y-121375000D01*
X171875000Y-121625000D02*
X201875000Y-121625000D01*
X201875000Y-133125000D01*
X171875000Y-133125000D01*
X171875000Y-121625000D01*
D13*
%TO.C,R3*%
X125230000Y-49130000D02*
X131770000Y-49130000D01*
X125230000Y-49460000D02*
X125230000Y-49130000D01*
X125230000Y-51540000D02*
X125230000Y-51870000D01*
X125230000Y-51870000D02*
X131770000Y-51870000D01*
X131770000Y-49130000D02*
X131770000Y-49460000D01*
X131770000Y-51870000D02*
X131770000Y-51540000D01*
%TD*%
M02*
