M48
; DRILL file {KiCad 9.0.2} date 2025-07-22T10:20:10+0200
; FORMAT={-:-/ absolute / metric / decimal}
; #@! TF.CreationDate,2025-07-22T10:20:10+02:00
; #@! TF.GenerationSoftware,Kicad,Pcbnew,9.0.2
; #@! TF.FileFunction,Plated,1,2,PTH
FMAT,2
METRIC
; #@! TA.AperFunction,Plated,PTH,ViaDrill
T1C0.300
; #@! TA.AperFunction,Plated,PTH,ComponentDrill
T2C0.800
; #@! TA.AperFunction,Plated,PTH,ComponentDrill
T3C0.900
; #@! TA.AperFunction,Plated,PTH,ComponentDrill
T4C0.950
; #@! TA.AperFunction,Plated,PTH,ComponentDrill
T5C1.000
; #@! TA.AperFunction,Plated,PTH,ComponentDrill
T6C1.016
; #@! TA.AperFunction,Plated,PTH,ComponentDrill
T7C1.100
; #@! TA.AperFunction,Plated,PTH,ComponentDrill
T8C1.500
; #@! TA.AperFunction,Plated,PTH,ComponentDrill
T9C1.540
; #@! TA.AperFunction,Plated,PTH,ComponentDrill
T10C2.500
%
G90
G05
T1
X94.75Y-124.875
X99.25Y-126.375
X113.75Y-118.875
X124.1Y-57.1
X161.75Y-131.375
T2
X62.75Y-127.375
X68.75Y-127.375
X90.25Y-127.375
X96.25Y-127.375
X120.25Y-127.375
X124.69Y-50.5
X124.69Y-54.5
X126.25Y-127.375
X132.31Y-50.5
X132.31Y-54.5
X147.75Y-127.375
X153.75Y-127.375
X168.375Y-123.565
X168.375Y-126.105
X168.375Y-128.645
X168.375Y-131.185
X184.2Y-123.565
X184.2Y-131.185
X188.25Y-123.565
X188.25Y-131.185
T3
X80.34Y-37.45
X80.34Y-39.99
X80.34Y-42.53
X80.34Y-45.07
X80.34Y-47.61
X80.34Y-50.15
X80.34Y-52.69
X80.34Y-55.23
X80.34Y-57.77
X80.34Y-60.31
X80.34Y-62.85
X80.34Y-65.39
X100.66Y-37.45
X100.66Y-39.99
X100.66Y-42.53
X100.66Y-45.07
X100.66Y-47.61
X100.66Y-50.15
X100.66Y-52.69
X100.66Y-55.23
X100.66Y-57.77
X100.66Y-60.31
X100.66Y-62.85
X100.66Y-65.39
X100.66Y-67.93
X100.66Y-70.47
X100.66Y-73.01
X100.66Y-75.55
T4
X74.5Y-127.375
X77.0Y-127.375
X79.5Y-127.375
X82.0Y-127.375
X84.5Y-127.375
X138.0Y-50.5
X138.0Y-53.0
X138.0Y-55.5
X138.0Y-58.0
X138.0Y-60.5
X138.0Y-68.4
X138.0Y-70.9
X138.0Y-73.4
X138.0Y-75.9
X183.5Y-149.5
X186.0Y-149.5
X188.5Y-149.5
X191.0Y-149.5
T5
X99.35Y-120.875
X99.35Y-123.415
X99.35Y-131.035
X99.35Y-133.575
X101.89Y-120.875
X101.89Y-123.415
X101.89Y-131.035
X101.89Y-133.575
X104.43Y-120.875
X104.43Y-123.415
X104.43Y-131.035
X104.43Y-133.575
X106.97Y-120.875
X106.97Y-123.415
X106.97Y-131.035
X106.97Y-133.575
X109.51Y-120.875
X109.51Y-123.415
X109.51Y-131.035
X109.51Y-133.575
X111.045Y-61.457
X112.05Y-120.875
X112.05Y-123.415
X112.05Y-131.035
X112.05Y-133.575
X113.585Y-61.457
X114.59Y-120.875
X114.59Y-123.415
X114.59Y-131.035
X114.59Y-133.575
X116.125Y-61.457
X117.13Y-120.875
X117.13Y-123.415
X117.13Y-131.035
X117.13Y-133.575
X118.665Y-61.457
X119.67Y-120.875
X119.67Y-133.575
X121.205Y-61.457
X122.21Y-120.875
X122.21Y-133.575
X123.745Y-61.457
X124.75Y-120.875
X124.75Y-133.575
X125.25Y-35.75
X125.25Y-38.29
X125.25Y-40.83
X126.285Y-61.457
X127.29Y-120.875
X127.29Y-133.575
X127.79Y-35.75
X127.79Y-38.29
X127.79Y-40.83
X128.825Y-61.457
X129.83Y-120.875
X129.83Y-133.575
T6
X108.5Y-34.46
X108.5Y-37.0
X108.5Y-39.54
X108.5Y-42.08
X108.5Y-44.62
X108.5Y-47.16
X118.66Y-34.46
X118.66Y-37.0
X118.66Y-39.54
X118.66Y-42.08
X118.66Y-44.62
X118.66Y-47.16
T7
X117.395Y-77.967
X122.475Y-77.967
T8
X133.27Y-35.067
X133.27Y-43.187
X148.25Y-43.187
T9
X148.25Y-35.067
T10
X81.61Y-79.36
X99.39Y-79.36
X111.045Y-79.237
X128.825Y-79.237
T10
G00X95.542Y-120.875
M15
G01X95.537Y-120.875
M16
G05
G00X95.542Y-133.575
M15
G01X95.537Y-133.575
M16
G05
G00X133.642Y-120.875
M15
G01X133.637Y-120.875
M16
G05
G00X133.642Y-133.575
M15
G01X133.637Y-133.575
M16
G05
M30
