%TF.GenerationSoftware,KiCad,Pcbnew,9.0.2*%
%TF.CreationDate,2025-07-22T10:52:38+02:00*%
%TF.ProjectId,trotten_control_pannel,74726f74-7465-46e5-9f63-6f6e74726f6c,rev?*%
%TF.SameCoordinates,Original*%
%TF.FileFunction,Copper,L1,Top*%
%TF.FilePolarity,Positive*%
%FSLAX46Y46*%
G04 Gerber Fmt 4.6, Leading zero omitted, Abs format (unit mm)*
G04 Created by KiCad (PCBNEW 9.0.2) date 2025-07-22 10:52:38*
%MOMM*%
%LPD*%
G01*
G04 APERTURE LIST*
G04 Aperture macros list*
%AMRoundRect*
0 Rectangle with rounded corners*
0 $1 Rounding radius*
0 $2 $3 $4 $5 $6 $7 $8 $9 X,Y pos of 4 corners*
0 Add a 4 corners polygon primitive as box body*
4,1,4,$2,$3,$4,$5,$6,$7,$8,$9,$2,$3,0*
0 Add four circle primitives for the rounded corners*
1,1,$1+$1,$2,$3*
1,1,$1+$1,$4,$5*
1,1,$1+$1,$6,$7*
1,1,$1+$1,$8,$9*
0 Add four rect primitives between the rounded corners*
20,1,$1+$1,$2,$3,$4,$5,0*
20,1,$1+$1,$4,$5,$6,$7,0*
20,1,$1+$1,$6,$7,$8,$9,0*
20,1,$1+$1,$8,$9,$2,$3,0*%
G04 Aperture macros list end*
%TA.AperFunction,EtchedComponent*%
%ADD10C,0.254000*%
%TD*%
%TA.AperFunction,ComponentPad*%
%ADD11C,1.600000*%
%TD*%
%TA.AperFunction,ComponentPad*%
%ADD12C,1.778000*%
%TD*%
%TA.AperFunction,ComponentPad*%
%ADD13C,3.516000*%
%TD*%
%TA.AperFunction,ComponentPad*%
%ADD14RoundRect,0.250000X-0.600000X-0.725000X0.600000X-0.725000X0.600000X0.725000X-0.600000X0.725000X0*%
%TD*%
%TA.AperFunction,ComponentPad*%
%ADD15O,1.700000X1.950000*%
%TD*%
%TA.AperFunction,ComponentPad*%
%ADD16C,1.800000*%
%TD*%
%TA.AperFunction,ViaPad*%
%ADD17C,0.600000*%
%TD*%
%TA.AperFunction,Conductor*%
%ADD18C,0.200000*%
%TD*%
G04 APERTURE END LIST*
D10*
%TO.C,MODULE1*%
X129550000Y-117700000D02*
X129550000Y-116938000D01*
X139710000Y-117700000D02*
X140063000Y-117700000D01*
X139837000Y-105127000D02*
X139710000Y-105000000D01*
X144726000Y-105064000D02*
X144790000Y-105000000D01*
X147076000Y-105000000D02*
X147330000Y-105000000D01*
%TD*%
D11*
%TO.P,R2,1*%
%TO.N,+3.3V*%
X201700000Y-115310000D03*
%TO.P,R2,2*%
%TO.N,Net-(Brd1-SDA)*%
X201700000Y-107690000D03*
%TD*%
D12*
%TO.P,MODULE1,2,ITA*%
%TO.N,unconnected-(MODULE1-ITA-Pad2)*%
X147330000Y-105000000D03*
%TO.P,MODULE1,3,A0*%
%TO.N,unconnected-(MODULE1-A0-Pad3)*%
X134630000Y-117700000D03*
%TO.P,MODULE1,4,A1*%
%TO.N,unconnected-(MODULE1-A1-Pad4)*%
X132090000Y-117700000D03*
%TO.P,MODULE1,5,A2*%
%TO.N,unconnected-(MODULE1-A2-Pad5)*%
X129550000Y-117700000D03*
%TO.P,MODULE1,6,A3*%
%TO.N,unconnected-(MODULE1-A3-Pad6)*%
X127010000Y-117700000D03*
%TO.P,MODULE1,7,A4*%
%TO.N,unconnected-(MODULE1-A4-Pad7)*%
X124470000Y-117700000D03*
%TO.P,MODULE1,8,A5*%
%TO.N,unconnected-(MODULE1-A5-Pad8)*%
X121930000Y-117700000D03*
%TO.P,MODULE1,9,A6*%
%TO.N,unconnected-(MODULE1-A6-Pad9)*%
X119390000Y-117700000D03*
%TO.P,MODULE1,10,A7*%
%TO.N,unconnected-(MODULE1-A7-Pad10)*%
X116850000Y-117700000D03*
%TO.P,MODULE1,12,ITB*%
%TO.N,Net-(J3-Pin_4)*%
X144790000Y-105000000D03*
%TO.P,MODULE1,13,B0*%
%TO.N,unconnected-(MODULE1-B0-Pad13)*%
X116850000Y-105000000D03*
%TO.P,MODULE1,14,B1*%
%TO.N,unconnected-(MODULE1-B1-Pad14)*%
X119390000Y-105000000D03*
%TO.P,MODULE1,15,B2*%
%TO.N,unconnected-(MODULE1-B2-Pad15)*%
X121930000Y-105000000D03*
%TO.P,MODULE1,16,B3*%
%TO.N,unconnected-(MODULE1-B3-Pad16)*%
X124470000Y-105000000D03*
%TO.P,MODULE1,17,B4*%
%TO.N,Net-(MODULE1-B4)*%
X127010000Y-105000000D03*
%TO.P,MODULE1,18,B5*%
%TO.N,Net-(MODULE1-B5)*%
X129550000Y-105000000D03*
%TO.P,MODULE1,19,B6*%
%TO.N,Net-(MODULE1-B6)*%
X132090000Y-105000000D03*
%TO.P,MODULE1,20,B7*%
%TO.N,Net-(MODULE1-B7)*%
X134630000Y-105000000D03*
%TO.P,MODULE1,21,X2*%
%TO.N,unconnected-(MODULE1-X2-Pad21)*%
X137170000Y-105000000D03*
%TO.P,MODULE1,22,X1*%
%TO.N,unconnected-(MODULE1-X1-Pad22)*%
X139710000Y-105000000D03*
%TO.P,MODULE1,23,X0*%
%TO.N,unconnected-(MODULE1-X0-Pad23)*%
X142250000Y-105000000D03*
%TO.P,MODULE1,24,RESET*%
%TO.N,unconnected-(MODULE1-RESET-Pad24)*%
X137170000Y-117700000D03*
%TO.P,MODULE1,27,SDA/SI*%
%TO.N,Net-(Brd1-SDA)*%
X139710000Y-117700000D03*
%TO.P,MODULE1,28,SCL/SCK*%
%TO.N,Net-(Brd1-SCL)*%
X142250000Y-117700000D03*
%TO.P,MODULE1,29,GND*%
%TO.N,GND*%
X144790000Y-117700000D03*
X134630000Y-115160000D03*
X134630000Y-107540000D03*
X132090000Y-115160000D03*
X132090000Y-107540000D03*
X129550000Y-115160000D03*
X129550000Y-107540000D03*
X127010000Y-115160000D03*
X127010000Y-107540000D03*
X124470000Y-115160000D03*
X124470000Y-107540000D03*
X121930000Y-115160000D03*
X121930000Y-107540000D03*
X119390000Y-115160000D03*
X119390000Y-107540000D03*
X116850000Y-115160000D03*
X116850000Y-107540000D03*
%TO.P,MODULE1,30,VCC*%
%TO.N,+3.3V*%
X147330000Y-117700000D03*
D13*
%TO.P,MODULE1,P$1*%
%TO.N,N/C*%
X151140000Y-117700000D03*
X151140000Y-105000000D03*
X113040000Y-117700000D03*
X113040000Y-105000000D03*
%TD*%
D11*
%TO.P,R1,1*%
%TO.N,+3.3V*%
X205750000Y-115310000D03*
%TO.P,R1,2*%
%TO.N,Net-(Brd1-SCL)*%
X205750000Y-107690000D03*
%TD*%
D14*
%TO.P,J3,1,Pin_1*%
%TO.N,+3.3V*%
X92000000Y-111500000D03*
D15*
%TO.P,J3,2,Pin_2*%
%TO.N,Net-(Brd1-SDA)*%
X94500000Y-111500000D03*
%TO.P,J3,3,Pin_3*%
%TO.N,Net-(Brd1-SCL)*%
X97000000Y-111500000D03*
%TO.P,J3,4,Pin_4*%
%TO.N,Net-(J3-Pin_4)*%
X99500000Y-111500000D03*
%TO.P,J3,5,Pin_5*%
%TO.N,GND*%
X102000000Y-111500000D03*
%TD*%
D16*
%TO.P,SW4,1,1*%
%TO.N,Net-(MODULE1-B4)*%
X165250000Y-111500000D03*
%TO.P,SW4,2,2*%
%TO.N,GND*%
X171250000Y-111500000D03*
%TD*%
%TO.P,SW3,1,1*%
%TO.N,Net-(MODULE1-B5)*%
X80250000Y-111500000D03*
%TO.P,SW3,2,2*%
%TO.N,GND*%
X86250000Y-111500000D03*
%TD*%
%TO.P,SW2,1,1*%
%TO.N,Net-(MODULE1-B6)*%
X137750000Y-111500000D03*
%TO.P,SW2,2,2*%
%TO.N,GND*%
X143750000Y-111500000D03*
%TD*%
%TO.P,Brd1,1,GND*%
%TO.N,GND*%
X185875000Y-115310000D03*
%TO.P,Brd1,2,VCC*%
%TO.N,+3.3V*%
X185875000Y-112770000D03*
%TO.P,Brd1,3,SCL*%
%TO.N,Net-(Brd1-SCL)*%
X185875000Y-110230000D03*
%TO.P,Brd1,4,SDA*%
%TO.N,Net-(Brd1-SDA)*%
X185875000Y-107690000D03*
%TD*%
%TO.P,SW1,1,1*%
%TO.N,Net-(MODULE1-B7)*%
X107750000Y-111500000D03*
%TO.P,SW1,2,2*%
%TO.N,GND*%
X113750000Y-111500000D03*
%TD*%
D17*
%TO.N,Net-(MODULE1-B4)*%
X131250000Y-103000000D03*
%TO.N,Net-(J3-Pin_4)*%
X112250000Y-109000000D03*
X116750000Y-110500000D03*
%TO.N,+3.3V*%
X179250000Y-115500000D03*
%TD*%
D18*
%TO.N,+3.3V*%
X113250000Y-108000000D02*
X117750000Y-112500000D01*
X92000000Y-111500000D02*
X92000000Y-105250000D01*
X117750000Y-113500000D02*
X135750000Y-113500000D01*
X146750000Y-115500000D02*
X147330000Y-116080000D01*
X185875000Y-112770000D02*
X199160000Y-112770000D01*
X147330000Y-116080000D02*
X147330000Y-117700000D01*
X199160000Y-112770000D02*
X201700000Y-115310000D01*
X146750000Y-115500000D02*
X179250000Y-115500000D01*
X117750000Y-112500000D02*
X117750000Y-113500000D01*
X205750000Y-115310000D02*
X201700000Y-115310000D01*
%TO.N,Net-(MODULE1-B6)*%
X154821000Y-109929000D02*
X139321000Y-109929000D01*
%TO.N,+3.3V*%
X108750000Y-108000000D02*
X113250000Y-108000000D01*
X104250000Y-103500000D02*
X108750000Y-108000000D01*
X93750000Y-103500000D02*
X104250000Y-103500000D01*
X92000000Y-105250000D02*
X93750000Y-103500000D01*
X135750000Y-113500000D02*
X137750000Y-115500000D01*
%TO.N,Net-(MODULE1-B6)*%
X139321000Y-109929000D02*
X137750000Y-111500000D01*
%TO.N,Net-(Brd1-SCL)*%
X205750000Y-107690000D02*
X203210000Y-110230000D01*
%TO.N,Net-(MODULE1-B4)*%
X131250000Y-103000000D02*
X132750000Y-101500000D01*
%TO.N,Net-(MODULE1-B5)*%
X129550000Y-103800000D02*
X129550000Y-105000000D01*
%TO.N,Net-(MODULE1-B4)*%
X165250000Y-110000000D02*
X165250000Y-111500000D01*
%TO.N,Net-(MODULE1-B5)*%
X127250000Y-101500000D02*
X129550000Y-103800000D01*
%TO.N,Net-(MODULE1-B4)*%
X156750000Y-101500000D02*
X165250000Y-110000000D01*
%TO.N,Net-(MODULE1-B5)*%
X80250000Y-104500000D02*
X83250000Y-101500000D01*
%TO.N,Net-(MODULE1-B6)*%
X157750000Y-107000000D02*
X154821000Y-109929000D01*
%TO.N,Net-(Brd1-SCL)*%
X142250000Y-117700000D02*
X145050000Y-120500000D01*
%TO.N,Net-(MODULE1-B6)*%
X157750000Y-105000000D02*
X157750000Y-107000000D01*
%TO.N,Net-(Brd1-SDA)*%
X139710000Y-118814000D02*
X139710000Y-118128000D01*
%TO.N,Net-(MODULE1-B6)*%
X155250000Y-102500000D02*
X157750000Y-105000000D01*
X134590000Y-102500000D02*
X155250000Y-102500000D01*
%TO.N,Net-(MODULE1-B4)*%
X132750000Y-101500000D02*
X156750000Y-101500000D01*
%TO.N,Net-(J3-Pin_4)*%
X102750000Y-109000000D02*
X112250000Y-109000000D01*
X99500000Y-111500000D02*
X102000000Y-109000000D01*
X102000000Y-109000000D02*
X102750000Y-109000000D01*
%TO.N,Net-(Brd1-SDA)*%
X94500000Y-111500000D02*
X94500000Y-119024000D01*
%TO.N,Net-(Brd1-SCL)*%
X175605000Y-120500000D02*
X185875000Y-110230000D01*
%TO.N,Net-(J3-Pin_4)*%
X141782000Y-108500000D02*
X144790000Y-105492000D01*
%TO.N,Net-(Brd1-SCL)*%
X203210000Y-110230000D02*
X185875000Y-110230000D01*
X145050000Y-120500000D02*
X175605000Y-120500000D01*
%TO.N,Net-(Brd1-SDA)*%
X94863000Y-119387000D02*
X97250000Y-121774000D01*
%TO.N,Net-(J3-Pin_4)*%
X116750000Y-110500000D02*
X135250000Y-110500000D01*
%TO.N,Net-(Brd1-SDA)*%
X94500000Y-119024000D02*
X94863000Y-119387000D01*
%TO.N,Net-(J3-Pin_4)*%
X137250000Y-108500000D02*
X141782000Y-108500000D01*
X135250000Y-110500000D02*
X137250000Y-108500000D01*
%TO.N,Net-(Brd1-SDA)*%
X136750000Y-121774000D02*
X139710000Y-118814000D01*
%TO.N,Net-(MODULE1-B5)*%
X83250000Y-101500000D02*
X127250000Y-101500000D01*
X80250000Y-111500000D02*
X80250000Y-104500000D01*
%TO.N,Net-(Brd1-SDA)*%
X97250000Y-121774000D02*
X136750000Y-121774000D01*
X201700000Y-107690000D02*
X185875000Y-107690000D01*
%TO.N,+3.3V*%
X137750000Y-115500000D02*
X146750000Y-115500000D01*
%TO.N,Net-(MODULE1-B6)*%
X132090000Y-105000000D02*
X134590000Y-102500000D01*
%TD*%
M02*
