M48
; DRILL file {KiCad 9.0.2} date 2025-07-22T10:52:40+0200
; FORMAT={-:-/ absolute / metric / decimal}
; #@! TF.CreationDate,2025-07-22T10:52:40+02:00
; #@! TF.GenerationSoftware,Kicad,Pcbnew,9.0.2
; #@! TF.FileFunction,Plated,1,2,PTH
FMAT,2
METRIC
; #@! TA.AperFunction,Plated,PTH,ViaDrill
T1C0.300
; #@! TA.AperFunction,Plated,PTH,ComponentDrill
T2C0.800
; #@! TA.AperFunction,Plated,PTH,ComponentDrill
T3C0.950
; #@! TA.AperFunction,Plated,PTH,ComponentDrill
T4C1.000
; #@! TA.AperFunction,Plated,PTH,ComponentDrill
T5C2.500
%
G90
G05
T1
X112.25Y-109.0
X116.75Y-110.5
X131.25Y-103.0
X179.25Y-115.5
T2
X80.25Y-111.5
X86.25Y-111.5
X107.75Y-111.5
X113.75Y-111.5
X137.75Y-111.5
X143.75Y-111.5
X165.25Y-111.5
X171.25Y-111.5
X185.875Y-107.69
X185.875Y-110.23
X185.875Y-112.77
X185.875Y-115.31
X201.7Y-107.69
X201.7Y-115.31
X205.75Y-107.69
X205.75Y-115.31
T3
X92.0Y-111.5
X94.5Y-111.5
X97.0Y-111.5
X99.5Y-111.5
X102.0Y-111.5
T4
X116.85Y-105.0
X116.85Y-107.54
X116.85Y-115.16
X116.85Y-117.7
X119.39Y-105.0
X119.39Y-107.54
X119.39Y-115.16
X119.39Y-117.7
X121.93Y-105.0
X121.93Y-107.54
X121.93Y-115.16
X121.93Y-117.7
X124.47Y-105.0
X124.47Y-107.54
X124.47Y-115.16
X124.47Y-117.7
X127.01Y-105.0
X127.01Y-107.54
X127.01Y-115.16
X127.01Y-117.7
X129.55Y-105.0
X129.55Y-107.54
X129.55Y-115.16
X129.55Y-117.7
X132.09Y-105.0
X132.09Y-107.54
X132.09Y-115.16
X132.09Y-117.7
X134.63Y-105.0
X134.63Y-107.54
X134.63Y-115.16
X134.63Y-117.7
X137.17Y-105.0
X137.17Y-117.7
X139.71Y-105.0
X139.71Y-117.7
X142.25Y-105.0
X142.25Y-117.7
X144.79Y-105.0
X144.79Y-117.7
X147.33Y-105.0
X147.33Y-117.7
T5
G00X113.042Y-105.0
M15
G01X113.037Y-105.0
M16
G05
G00X113.042Y-117.7
M15
G01X113.037Y-117.7
M16
G05
G00X151.142Y-105.0
M15
G01X151.137Y-105.0
M16
G05
G00X151.142Y-117.7
M15
G01X151.137Y-117.7
M16
G05
M30
